<svg id="Layer_1" data-name="Layer 1" xmlns="http://www.w3.org/2000/svg" viewBox="0 0 196.18 176.37"><defs><style>.cls-1{fill:#790036;}.cls-1,.cls-2,.cls-3{fill-rule:evenodd;}.cls-2{fill:#d41c5c;}.cls-3{fill:#480029;}</style></defs><title>logo</title><path class="cls-1" d="M151.52,406.13c-4.33,4.76-12.69,16.27-15.19,16.32-2.22.06-10.23-9.74-15.07-14.61l-.57-.64c-4.76-5-10.1-10.26-15.29-15.77-2.14-2.27-.85-6.47,2-6.54h0c1.93,0,3.56-1.75,4.07-3.76l.68-3.83c.67-3.77,5.11-4,6-.25l5.35,21.09c.6,2,2.31,3.62,4.26,3.57h0c1.93,0,3.56-1.75,4.07-3.76l4.95-22c.87-3.85,5.51-3.57,6.1.36l2.12,14a4.27,4.27,0,0,0,3.71,3.9c1.94.27,3.58-1.09,4.37-3.1l4.42-12.73c1.13-3.24,5.06-3,5.9.43l.26,1.07a4.34,4.34,0,0,0,4.26,3.57l3.33-.08c-6.49,8.13-13.53,15.94-19.77,22.73Z" transform="translate(-39.72 -294.63)"/><path class="cls-1" d="M186.93,327.81c-1,6-4.35,12.78-9.14,19.61a2.64,2.64,0,0,1-2.16,1.2h-3.3a3,3,0,0,1-2.72-2.48L165.67,329a3.64,3.64,0,0,0-3.49-3c-1.5-.3-3,.9-3.74,2.42l-2.51,6.74c-1.16,3.11-5,2.46-5.35-.92l-2.4-20.62a3.78,3.78,0,0,0-3.5-3.62c-1.74-.29-3.5,1.21-4,3l-6.92,27.61c-.81,3.27-4.66,3.2-5.41-.09l-4.91-21.78a4.23,4.23,0,0,0-3.76-3.32h0a4.23,4.23,0,0,0-3.75,3.32l-5.71,27.3a3,3,0,0,1-2.73,2.56h-7.29a2.63,2.63,0,0,1-2.12-1.14c-5-6.85-8.45-13.68-9.39-19.67-1.5-9.66-.24-17.49,3.49-23.23,3.76-5.43,10-8.75,19.25-9.95h2a25.78,25.78,0,0,1,20.5,10.55,4.59,4.59,0,0,0,7.74,0,25.78,25.78,0,0,1,20.5-10.55h2c9.24,1.2,15.5,4.52,19.25,9.95,3.75,5.74,5,13.57,3.5,23.23Z" transform="translate(-39.72 -294.63)"/><path class="cls-2" d="M233.85,324c-10.1-6.65-26.48,46.87-28.12,51.52l-.25.66.54-.32c4.08,0,7.09,1.34,8.46,4,1.63,4.3-.28,10.63-5.47,18.27-4.37,6.33-11.19,13.63-19.65,20.94l2.46-3c5.45-6.65,10.38-12.64,13.91-18.29,5.48-8,7.11-13,5.2-16.29-1.09-2.66-3.28-3-6.29-1.65-19,9.07-49.77,46-64.29,73.33a2.79,2.79,0,0,1-5.15,0c-14.47-27.32-45-64.26-64.27-73.32-3-1.33-5.19-1-6.28,1.65-1.92,3.33-.28,8.31,5.19,16.29,3.53,5.65,8.72,11.64,13.91,18.29l2.45,3a129.38,129.38,0,0,1-19.65-20.94c-5.17-7.64-7.09-14-5.17-18.27,1.09-2.65,4.08-4,8.18-4l.54.32v-.66c-1.9-4.65-18-58.17-28.37-51.52-1.1.67-3,3-1.37,9.64,2.17,9.32,15.83,71.79,22.11,81.11a16.36,16.36,0,0,0,4.08,5c15.88,15.08,37.83,26.59,48.91,46.95a3.24,3.24,0,0,0,1.32,1.37c8.24,4.36,14.43,3.71,18.86-1a2.79,2.79,0,0,1,4.27,0c4.45,4.71,10.63,5.36,18.88,1a3.34,3.34,0,0,0,1.31-1.35c11.35-20.37,33-31.89,48.91-47a23,23,0,0,0,4.38-5c6-9.32,19.65-71.79,21.83-81.11,1.64-6.65,0-9-1.37-9.64Z" transform="translate(-39.72 -294.63)"/><path class="cls-3" d="M126.25,366h5.06s.77-.09.77.57v4.78a1.39,1.39,0,0,0,1.43,1.34h8.6a1.33,1.33,0,0,0,1.44-1.34v-4.68c0-.57.76-.67.76-.67h5.07a1.39,1.39,0,0,0,1.43-1.34v-8a1.38,1.38,0,0,0-1.43-1.33h-5.16c-.58,0-.67-.68-.67-.68v-4.77a1.32,1.32,0,0,0-1.44-1.25h-8.6a1.38,1.38,0,0,0-1.43,1.25v4.87a.6.6,0,0,1-.67.58h-5.16a1.39,1.39,0,0,0-1.44,1.33v8a1.39,1.39,0,0,0,1.44,1.34Z" transform="translate(-39.72 -294.63)"/></svg>