<?xml version="1.0" encoding="utf-8"?>
<!-- Generator: Adobe Illustrator 22.1.0, SVG Export Plug-In . SVG Version: 6.00 Build 0)  -->
<svg version="1.1" id="Layer_1" xmlns="http://www.w3.org/2000/svg" xmlns:xlink="http://www.w3.org/1999/xlink" x="0px" y="0px"
	 viewBox="0 0 361 367" style="enable-background:new 0 0 361 367;" xml:space="preserve">
<style type="text/css">
	.st0{fill:#D41C5C;}
	.st1{font-family:'TimesNewRomanPS-BoldMT';}
	.st2{font-size:48px;}
	.st3{letter-spacing:-2.5;}
	.st4{fill:#4CA9D5;}
	.st5{fill:#49658C;}
	.st6{fill:#C9C9C9;}
	.st7{fill:#F0EFEF;}
	.st8{fill:#2A2425;}
	.st9{fill:#3C3C3C;}
	.st10{fill:#F8A980;}
	.st11{fill:none;}
	.st12{fill:#57B8E8;}
	.st13{fill:#E5E5E4;}
	.st14{fill:#FFFFFF;}
	.st15{fill:#515050;}
	.st16{fill:#FCC38C;}
	.st17{opacity:0.5;fill:#FCC38C;enable-background:new    ;}
	.st18{opacity:0.35;fill:#FCC38C;enable-background:new    ;}
	.st19{fill:#E56B59;}
	.st20{opacity:0.15;fill:#FFFFFF;enable-background:new    ;}
	.st21{fill:#794526;}
	.st22{opacity:0.25;fill:#FFFFFF;enable-background:new    ;}
	.st23{fill:#FBBE84;}
	.st24{opacity:0.9;fill:#91001C;enable-background:new    ;}
	.st25{font-family:'ACaslonPro-Regular';}
	.st26{font-size:16px;}
	.st27{fill:#817E7C;}
	.st28{font-family:'TimesNewRomanPSMT';}
	.st29{font-size:24.106px;}
</style>
<title>message</title>
<text transform="matrix(0.81 0 0 1 25.1699 39.8901)" class="st0 st1 st2 st3">W</text>
<text transform="matrix(0.81 0 0 1 61.9033 39.8901)" class="st0 st1 st2">e Ca</text>
<text transform="matrix(0.81 0 0 1 136.3989 39.8901)" class="st0 st1 st2">r</text>
<text transform="matrix(0.81 0 0 1 152.9551 39.8901)" class="st0 st1 st2">e Like </text>
<text transform="matrix(0.81 0 0 1 25.1699 97.4902)" class="st0 st1 st2 st3">A</text>
<text transform="matrix(0.81 0 0 1 61.9033 97.4902)" class="st0 st1 st2"> Family</text>
<g>
	<g>
		<g>
			<path class="st4" d="M317.3,212.5c-0.6,0-1.2,0-1.9,0l-12.6-6.1l-12.6,6.1c-0.6,0-1.2,0-1.9,0c-8.6,0.4-12.6,4.7-12.4,9l0,0l0,0
				c0,0.5,5.1,31.2,5.1,31.2l-1.9,13.6h23.7h23.7l-1.9-13.6c0,0,5.1-30.7,5.1-31.2l0,0l0,0C329.9,217.2,325.8,212.9,317.3,212.5z"/>
			<polygon class="st5" points="294.7,257.5 300.8,219.7 302.8,217.4 304.7,219.7 310.8,257.5 302.8,265.4 			"/>
			<path class="st6" d="M300.6,220.9l0.2-1.2l2-2.3l2,2.3l0.2,1.4c-0.8-0.2-1.6-0.4-2.5-0.4C301.8,220.7,301.2,220.8,300.6,220.9z"
				/>
			<g>
				<polygon class="st7" points="322.5,337.5 322.2,344 322.2,344 306.5,344 306.4,337.5 				"/>
				<path class="st8" d="M311.6,356h-5.3l0.2-12h15.7l5.3,3.5l9.7,2.5c2.9,0.9,3.6,3,2.3,5l-0.6,1h-15.1c-4.7,0-11.5-3.4-11.5-3.4
					L311.6,356z"/>
				<polygon class="st7" points="283,337.5 283.3,344 283.3,344 299,344 299.1,337.5 				"/>
				<path class="st8" d="M293.9,356h5.3l-0.2-12h-15.7l-5.3,3.5l-9.7,2.5c-2.9,0.9-3.6,3-2.3,5l0.6,1h15.1c4.7,0,11.5-3.4,11.5-3.4
					L293.9,356z"/>
			</g>
			<g>
				<polygon class="st8" points="302.9,286.8 304.2,342.7 324.3,342.7 326.6,267.6 301.1,267.6 				"/>
				<g>
					<polygon class="st8" points="302.6,286.8 301.3,342.7 281.2,342.7 278.9,267.6 304.4,267.6 					"/>
				</g>
				<rect x="279" y="266.3" class="st9" width="47.5" height="4.4"/>
			</g>
			<path class="st10" d="M297,210.6L297,210.6V200h11.5v10.5l0,0v4c-3.3,1.8-8.3,1.8-11.5,0V210.6z"/>
			<path class="st5" d="M302.6,219.6c-0.7,0-1.3,0.1-1.8,0.3l-3.7-6.1h5.7h5.7l-3.7,6.2C304.1,219.8,303.4,219.6,302.6,219.6z"/>
			<g>
				<g>
					<path class="st11" d="M297.1,209.4c0.1-0.1,0.1-0.1,0.2-0.2l-0.7,0.1c0.3-0.1,0.6-0.2,0.9-0.3L297.1,209.4z"/>
					<path class="st11" d="M308.2,209.2l-0.1-0.1c0.3,0.1,0.7,0.2,1,0.3L308.2,209.2z"/>
				</g>
			</g>
			<path class="st12" d="M297,209c0,0,0.8,3,5.8,4.8c0,0-3.5,1.9-4.1,5.7c0,0-4.4-3.2-5.8-5.8C291.5,211,297,209,297,209z"/>
			<path class="st13" d="M293,209.9l-16.2,3.8c0,0-3.4,11.9-3.2,30.1c0.2,18.2,0,56.8,0,56.8s9.8,2.8,23.4,2.2l-0.4-48L293,209.9z"
				/>
			<g>
				<path class="st14" d="M294.8,216.3l1.8,38.5c0,0-10.4-15.2-9.7-24.7l7.1-4.4l-7.6-2.2l0.9-7.7c0.3-2.9,3-5.3,6.6-6.1l3.1-0.7
					C294.8,210.9,293.8,213.4,294.8,216.3z"/>
			</g>
			<path class="st12" d="M308.5,209c0,0-0.8,3-5.8,4.8c0,0,3.5,1.9,4.1,5.7c0,0,4.4-3.2,5.8-5.8C314,211,308.5,209,308.5,209z"/>
			<path class="st13" d="M312.5,209.9l16.2,3.8c0,0,3.4,11.9,3.2,30.1c-0.2,18.2,0,56.8,0,56.8s-9.8,2.8-23.4,2.2l0.4-48
				L312.5,209.9z"/>
			<g>
				<path class="st14" d="M310.8,216.3l-1.8,38.5c0,0,10.4-15.2,9.7-24.7l-7.1-4.4l7.6-2.2l-0.9-7.7c-0.3-2.9-3-5.3-6.6-6.1
					l-3.1-0.7C310.8,210.9,311.7,213.4,310.8,216.3z"/>
			</g>
			<g>
				<path class="st13" d="M276.9,213.7c0,0-16.6,19.5-18.9,22.1c-2.2,2.6-4,3.3-4.5,3.5c0,0-2.9,13.6,6.7,12.5
					c5.8-0.7,20.9-14.4,23.3-19.2C287.7,224.3,276.9,213.7,276.9,213.7z"/>
			</g>
			<g>
				<g>
					<path class="st10" d="M321.7,192.4h-1.8v-7.5h2.8c1.5,0,2.8,0.6,3.5,1.6c0.6,0.9,0.6,2,0,2.9l-1,1.4
						C324.5,191.8,323.2,192.4,321.7,192.4z"/>
					<path class="st10" d="M280.2,190.6l-1-1.4c-0.7-0.9-0.7-2,0-2.9c0.7-1,2.1-1.6,3.5-1.6h2.8v7.5h-1.8
						C282.3,192.2,281,191.6,280.2,190.6z"/>
				</g>
				<g>
					<g>
						<path class="st14" d="M301.2,213.3c-3.7,1.4-8-0.5-13.2-5.7c-5-5-7.9-8.9-9.1-11.9c-1-2.6,0.9-4.1,2.2-4.6h0.1l0.8,1.4
							l-0.4-0.7l0.4,0.7c-0.2,0.1-2.1,0.8-1.2,2.9c1.1,2.8,4,6.6,8.8,11.4c4.5,4.5,8.1,6.3,10.7,5.3L301.2,213.3z"/>
						<path class="st15" d="M301.4,213.6c-5.8,2.2-11.8-3.9-13.7-5.8c-0.5-0.5-0.4-1.2,0.3-1.5c0.1,0,0.2-0.1,0.2-0.1
							c0.6-0.2,1.4-0.1,1.8,0.3c4.3,4.3,7.7,6.1,10.1,5.2L301.4,213.6z"/>
						<g>
							<path class="st15" d="M280.6,192.2L280.6,192.2c0.5,0.7,1.7,1,2.6,0.5l0.4-0.2c0.8-0.4,1.1-1.2,0.6-1.9l0,0
								c-0.5-0.7-1.7-1-2.6-0.5l-0.4,0.2C280.4,190.8,280.2,191.6,280.6,192.2z"/>
						</g>
					</g>
					<g>
						<path class="st14" d="M304.3,213.3c3.7,1.4,8-0.5,13.2-5.7c5-5,7.9-8.9,9.1-11.9c1-2.6-0.9-4.1-2.2-4.6h-0.1l-0.8,1.4l0.4-0.7
							l-0.4,0.7c0.2,0.1,2.1,0.8,1.2,2.9c-1.1,2.8-4,6.6-8.8,11.4c-4.5,4.5-8.1,6.3-10.7,5.3L304.3,213.3z"/>
						<path class="st15" d="M304.1,213.6c5.8,2.2,11.8-3.9,13.7-5.8c0.5-0.5,0.4-1.2-0.3-1.5c-0.1,0-0.2-0.1-0.2-0.1
							c-0.6-0.2-1.4-0.1-1.8,0.3c-4.3,4.3-7.7,6.1-10.1,5.2L304.1,213.6z"/>
						<g>
							<path class="st15" d="M324.9,192.2L324.9,192.2c-0.5,0.7-1.7,1-2.6,0.5l-0.4-0.2c-0.8-0.4-1.1-1.2-0.6-1.9l0,0
								c0.5-0.7,1.7-1,2.6-0.5l0.4,0.2C325.1,190.8,325.3,191.6,324.9,192.2z"/>
						</g>
					</g>
				</g>
				<g>
					<g>
						<g>
							<path class="st16" d="M283.3,191.6V179c0-8.1,8.7-14.7,19.4-14.7c10.7,0,19.4,6.6,19.4,14.7v12.6c0,8.1-8.7,14.7-19.4,14.7
								S283.3,199.7,283.3,191.6z"/>
							<path class="st17" d="M292,186.4c0-1.3,1.3-2.3,3-2.3c1.6,0,3,1,3,2.3s-1.3,2.3-3,2.3S292,187.7,292,186.4z"/>
							<path class="st17" d="M307.6,186.4c0-1.3,1.3-2.3,3-2.3c1.6,0,3,1,3,2.3s-1.3,2.3-3,2.3S307.6,187.7,307.6,186.4z"/>
							<g>
								<path class="st10" d="M300.4,194.1L300.4,194.1c-0.9-0.6-1.4-1.4-1.2-2.2c0-0.1,0.2-0.2,0.4-0.3c1.9-1.1,4.4-1.1,6.3,0
									c0.2,0.1,0.4,0.3,0.4,0.3c0.1,0.8-0.3,1.6-1.2,2.2C303.6,194.8,301.9,194.8,300.4,194.1z"/>
								<g>
									<g>
										<path d="M309.3,186.8c0-0.8,0.9-1.5,2-1.5s2,0.7,2,1.5s-0.9,1.5-2,1.5C310.2,188.3,309.3,187.6,309.3,186.8z"/>
										<path class="st14" d="M309.7,187.5c0-0.3,0.3-0.5,0.7-0.5c0.4,0,0.7,0.2,0.7,0.5s-0.3,0.5-0.7,0.5
											S309.7,187.8,309.7,187.5z"/>
									</g>
									<g>
										<path d="M292.3,186.8c0-0.8,0.9-1.5,2-1.5s2,0.7,2,1.5s-0.9,1.5-2,1.5C293.1,188.3,292.3,187.6,292.3,186.8z"/>
										<path class="st14" d="M292.6,187.5c0-0.3,0.3-0.5,0.7-0.5c0.4,0,0.7,0.2,0.7,0.5s-0.3,0.5-0.7,0.5
											C293,188,292.6,187.8,292.6,187.5z"/>
									</g>
								</g>
							</g>
							<g>
								<path class="st18" d="M285.7,191.6V179c0-8.1,7.6-14.7,17-14.7c-10.7,0-19.4,6.6-19.4,14.7v12.6c0,8.1,8.7,14.7,19.4,14.7
									C293.3,206.3,285.7,199.7,285.7,191.6z"/>
								<path class="st18" d="M302.8,164.3c9.4,0,17,6.6,17,14.7v12.6c0,8.1-7.6,14.7-17,14.7c10.7,0,19.4-6.6,19.4-14.7V179
									C322.2,170.9,313.5,164.3,302.8,164.3z"/>
							</g>
						</g>
					</g>
					<g>
						<path class="st19" d="M297.5,196.8c0,0,1.4,3.4,5.2,3.4c3.9,0,5.2-3.4,5.2-3.4H297.5z"/>
						<path class="st14" d="M307.4,197.8c0.4-0.6,0.6-1,0.6-1h-10.4c0,0,0.2,0.5,0.6,1H307.4z"/>
					</g>
				</g>
				<path class="st20" d="M300.9,191c-0.5,0.2-0.6,0.8-0.2,1.1c0,0,0,0,0.1,0l0,0c1.3,0.7,2.7,0.7,3.9,0c0,0,0.1,0,0.1-0.1l0,0
					c0.4-0.3,0.3-0.9-0.2-1.1C303.4,190.6,302.1,190.6,300.9,191z"/>
				<path class="st21" d="M297.6,181.4c-0.2,0.7-1.5,0.9-2.6,0.8c-1.1-0.1-3.8,0.2-5.4,1.1c0,0,0.1-1.7,2.5-2.9
					C294.8,179.2,298,180.1,297.6,181.4z"/>
				<path class="st21" d="M308.4,181.4c0.2,0.7,1.5,0.9,2.6,0.8c1.1-0.1,3.8,0.2,5.4,1.1c0,0-0.1-1.7-2.5-2.9
					C311.2,179.2,308,180.1,308.4,181.4z"/>
				<g>
					<path class="st21" d="M281.6,176.4v8.3c0.4-0.1,0.8-0.1,1.2-0.1h0.6c1.2-0.4,2.1-1.3,2.3-2.3l1.4-5c0.3-1.5,2.1-2.6,4.1-2.6
						h6.5h10h6.5c2,0,3.7,1.1,4.1,2.6l1.4,5c0.2,0.9,0.9,1.6,1.8,2.1h1.2c0.4,0,0.8,0,1.2,0.1v-8c0-8-8.5-14.4-19.1-14.4h-4.2
						C290.1,162,281.6,168.5,281.6,176.4z"/>
				</g>
				<g>
					<g>
						<path class="st22" d="M477.9,267.8c-0.4,1.7-2.5,2.8-5.5,2.8c-3.1,0-4.8-0.9-5.3-3.6l-0.1-0.5c-0.1-0.9,0.3-1.7,1.1-2
							c1.1-0.5,2.9-1.1,5-1.1c1.2,0,2.3,0.2,3.5,0.5c1.1,0.4,1.8,1.6,1.5,2.7C478.1,267,478,267.4,477.9,267.8z"/>
						<path class="st8" d="M300.4,184.4c-7.6-2.7-13.1,0.4-13.1,0.4l-4-1.3c0,0-0.7,0-1.7,0l0,0c-0.8,0.7,0,1.3,0,1.3h1.7l3.8,2.1
							c0.5,2.5,2.7,3.6,6.3,3.6c3.6,0,6-1.1,6.6-2.8c0.3-1,0.5-1.5,0.5-1.5s0.9-0.2,2.3-0.2v-1.7
							C301.6,184.4,300.4,184.4,300.4,184.4z M298.5,187.5c-0.4,1.2-2.4,1.9-5.1,1.9c-2.9,0-4.5-0.6-4.9-2.5l-0.1-0.3
							c-0.1-0.6,0.3-1.2,1.1-1.4c1-0.4,2.7-0.8,4.7-0.8c1.1,0,2.2,0.1,3.3,0.4c1.1,0.2,1.7,1.1,1.4,1.9
							C298.7,187,298.6,187.3,298.5,187.5z"/>
					</g>
					<g>
						<path class="st22" d="M487.1,267.8c0.4,1.7,2.5,2.8,5.5,2.8c3.1,0,4.8-0.9,5.3-3.6l0.1-0.5c0.1-0.9-0.3-1.7-1.1-2
							c-1.1-0.5-2.9-1.1-5-1.1c-1.2,0-2.3,0.2-3.5,0.5c-1.1,0.4-1.8,1.6-1.5,2.7C486.9,267,487,267.4,487.1,267.8z"/>
						<path class="st8" d="M305.1,184.4c7.6-2.7,13.1,0.4,13.1,0.4l4-1.3c0,0,0.7,0,1.7,0l0,0c0.8,0.7,0,1.3,0,1.3h-1.7l-3.8,2.1
							c-0.5,2.5-2.7,3.6-6.3,3.6c-3.6,0-6-1.1-6.6-2.8c-0.3-1-0.5-1.5-0.5-1.5s-0.9-0.2-2.3-0.2v-1.7
							C303.9,184.4,305.1,184.4,305.1,184.4z M307.1,187.5c0.4,1.2,2.4,1.9,5.1,1.9c2.9,0,4.5-0.6,4.9-2.5l0.1-0.3
							c0.1-0.6-0.3-1.2-1.1-1.4c-1-0.4-2.7-0.8-4.7-0.8c-1.1,0-2.2,0.1-3.3,0.4c-1.1,0.2-1.7,1.1-1.4,1.9
							C306.9,187,307,187.3,307.1,187.5z"/>
					</g>
				</g>
			</g>
		</g>
		<rect x="274.9" y="277.5" class="st14" width="17.9" height="2.4"/>
		<rect x="312.7" y="277.5" class="st14" width="17.9" height="2.4"/>
		<g>
			<g>
				<g>
					<path class="st23" d="M342,279.4l0.1,7.1c0,0.6-0.6,1.1-1.4,1.1l0,0c-0.8,0-1.6-0.4-1.6-1.1l-0.4-5.3L342,279.4z"/>
				</g>
			</g>
			<g>
				<path class="st23" d="M324.8,279.3l-2.3,3.1c0.3,0.7,1.2,1.1,2.1,1.1c0.8,0,1.6-0.3,2-0.8l2.8-3.7l0.2-4.4
					C327.7,275.6,325.9,277.8,324.8,279.3z"/>
				<path class="st23" d="M328.9,279l-0.5,3.1l13.4-0.2l0.2-2.3c0.1-2.9-2.3-5.1-4.6-5.8l-5.7-0.1l-1.5,0.6
					c-0.2,0.1-0.5,0.2-0.7,0.3L328.9,279z"/>
			</g>
			<path class="st23" d="M337,289.7c0.8,0,1.4-0.5,1.5-1.1l0.3-7l-3.4,0.4l-0.2,6.6c0,0.6,0.7,1.2,1.5,1.1"/>
			<path class="st23" d="M328.5,281.4l-1.4,6.6c-0.1,0.6,0.4,1.2,1.2,1.3h0.3c0.8,0.1,1.6-0.3,1.7-0.9l1.7-6.7l0.1-1.5L328.5,281.4z
				"/>
			<path class="st23" d="M335.7,280.9l-3.6,0.3l-1,8c-0.1,0.6,0.5,1.2,1.3,1.2h0.5c0.8,0.1,1.6-0.4,1.6-1L335.7,280.9z"/>
			<path class="st23" d="M331.6,241.8l4.5-0.2c0,0,2.1,8.7,1.8,12.5c-0.7,11.5,1.4,21.3,1.4,21.3l-8.6-0.9
				C330.7,274.4,332,247.6,331.6,241.8z"/>
		</g>
		<path class="st13" d="M328.7,213.7c0,0,5.9,4.7,9.4,20.5s3.3,39.6,3.3,39.6h-13l-1.9-32.3L328.7,213.7z"/>
	</g>
	<g>
		<g>
			<ellipse class="st14" cx="202.8" cy="242.4" rx="4.9" ry="3.7"/>
			<path class="st15" d="M200.1,242.4c0,1.1,1.2,2,2.7,2s2.7-0.9,2.7-2s-1.2-2-2.7-2S200.1,241.3,200.1,242.4z"/>
		</g>
		<g>
			<g>
				<g>
					<path class="st23" d="M212.9,231.6l-3.5-0.6c-0.8-0.1-1.5,0.2-1.7,0.8l0,0c-0.2,0.6,0.2,1.2,1,1.4l6.7,1.4L212.9,231.6z"/>
				</g>
			</g>
			<g>
				<path class="st23" d="M212,244.7l-4.3,1.5c-0.8-0.3-1.4-1-1.3-1.7c0-0.6,0.5-1.2,1.2-1.4l5-1.9l5.8,0.1
					C217.1,242.8,214,243.9,212,244.7z"/>
				<path class="st23" d="M212.9,241.5l-3.4-2.8l2.2-7.4l3,0.3c3.9,0.9,6.1,2.8,6.5,4.6l-1,4.2l-1.1,1c-0.2,0.2-0.4,0.3-0.5,0.5
					L212.9,241.5z"/>
			</g>
			<path class="st23" d="M205.9,233.3c0.2-0.6,0.9-1,1.7-0.9l9.1,1.2l-1.1,2.4l-8.5-1.2c-0.8-0.1-1.4-0.7-1.2-1.3"/>
			<path class="st23" d="M207.2,238.4l-6.8,1.4c-0.8,0.1-1.6-0.3-1.7-0.9l-0.1-0.2c-0.2-0.6,0.3-1.2,1.1-1.3l8.8-1.5l3.4,0.5
				l0.3,2.6L207.2,238.4z"/>
			<path class="st23" d="M217,234.8l-1.1,2.6l-10.5-0.9c-0.8-0.1-1.4-0.6-1.3-1.2V235c0.1-0.6,0.8-1.1,1.6-1L217,234.8z"/>
			<path class="st23" d="M258.3,248.6l1-7.3c0,0-3.1-3.3-8-3.8c-15-1.8-31.4-3-31.4-3l-1.9,7.9C217.9,242.3,250.9,247.2,258.3,248.6
				z"/>
		</g>
		<path class="st13" d="M261.1,236.6l-39.8-2.9c0,0-1.4,5-0.5,10.7c0,0,27.6,6.4,37,6.5c6.9,0.1,17.1-11.1,17.1-11.1L261.1,236.6z"
			/>
		<path class="st15" d="M308.8,211.1l1.1-2.1h-5.2l1.2,2.2c0,0.6,0.1,1.3,0.2,2c0.7,8.9,1.7,21.1-7.6,27c-6.2,3.9-16.4,4.5-30.3,1.7
			c-23.4-4.6-40.2-4.6-50.2-3.8c-10.9,0.9-16.2,2.8-16.5,2.9l1.3,2c0.1,0,5.2-1.9,15.7-2.7c9.7-0.7,26.1-0.7,48.9,3.8
			c5.9,1.2,11.3,1.7,16,1.7c7.1,0,12.7-1.3,16.9-3.9c10.5-6.6,9.4-20,8.7-28.8C308.9,212.4,308.8,211.7,308.8,211.1z"/>
	</g>
</g>
<g>
	<path class="st24" d="M45,274.7h81c13.4,0,24.2-8.2,24.2-18.3l0,0c0-10.1-10.8-18.3-24.2-18.3H45c-13.4,0-24.2,8.2-24.2,18.3l0,0
		C20.9,266.5,31.7,274.7,45,274.7z"/>
</g>
<a>
	<text transform="matrix(1 -7.521224e-04 7.521224e-04 1 44.9699 260.4919)" class="st14 st25 st26"> Know More</text>
</a>
<rect x="20.8" y="114.5" class="st11" width="200.4" height="112.9"/>
<text transform="matrix(0.7723 0 0 1 25.1694 133.2261)"><tspan x="0" y="0" class="st27 st28 st29">From the moment you arrive</tspan><tspan x="0" y="28.9" class="st27 st28 st29">at Divine Hospital,we&apos;ll</tspan><tspan x="0" y="57.9" class="st27 st28 st29">ensure the standard of</tspan><tspan x="0" y="86.8" class="st27 st28 st29">care your eceive is exceptional.</tspan></text>
</svg>
