<svg xmlns="http://www.w3.org/2000/svg" xmlns:xlink="http://www.w3.org/1999/xlink" viewBox="0 0 1366 768"><defs><style>.cls-1{fill:url(#linear-gradient);}.cls-2{fill:none;}.cls-3{fill:url(#linear-gradient-2);}.cls-4{fill:#f2f2f2;}.cls-5{isolation:isolate;}.cls-124,.cls-143,.cls-145,.cls-6{fill:#fff;}.cls-7{font-size:48px;font-family:TimesNewRomanPS-BoldMT, Times New Roman;font-weight:700;}.cls-115,.cls-7{fill:#d4145a;}.cls-8{letter-spacing:-0.06em;}.cls-9{letter-spacing:-0.02em;}.cls-10{font-size:36px;font-family:TimesNewRomanPSMT, Times New Roman;}.cls-10,.cls-100{fill:#666;}.cls-11{clip-path:url(#clip-path);}.cls-12{fill:url(#linear-gradient-4);}.cls-13{fill:url(#linear-gradient-5);}.cls-14{fill:#0275af;opacity:0.2;}.cls-131,.cls-14,.cls-140,.cls-141,.cls-28,.cls-58,.cls-65,.cls-67,.cls-89{mix-blend-mode:multiply;}.cls-15{fill:#050504;}.cls-16{fill:#374949;}.cls-17{fill:#005dde;}.cls-18{fill:#024799;}.cls-19{fill:#005bd4;}.cls-20{fill:#0886d3;}.cls-21{fill:#603a07;}.cls-22{fill:#020200;}.cls-23{fill:#3f2404;}.cls-24{fill:#0158dd;}.cls-25{fill:#ccbca8;}.cls-26,.cls-28{fill:#719cbf;}.cls-27{fill:#cce8ff;}.cls-29{fill:#e3f4ff;}.cls-30{fill:#2d54a3;}.cls-31{fill:#f5c599;}.cls-32{fill:#9c593b;}.cls-33{fill:#e8b387;}.cls-34{fill:#32caed;}.cls-35{fill:#52afaa;}.cls-36{fill:#042f5e;}.cls-37{fill:#3d76a5;}.cls-38{clip-path:url(#clip-path-2);}.cls-39{fill:#010611;}.cls-40{clip-path:url(#clip-path-3);}.cls-41{fill:#01050d;}.cls-42{clip-path:url(#clip-path-4);}.cls-43{clip-path:url(#clip-path-5);}.cls-44{fill:#b2b2b2;}.cls-45{fill:#8f8f8f;}.cls-46{clip-path:url(#clip-path-6);}.cls-47{fill:#a6a6a6;}.cls-48{clip-path:url(#clip-path-7);}.cls-49{fill:#5d6677;}.cls-50{clip-path:url(#clip-path-8);}.cls-51{fill:#d6d6d6;}.cls-52{fill:#797f7b;}.cls-53{fill:#f7f9f7;}.cls-54{fill:#4c4f54;}.cls-55{fill:#979b97;}.cls-56{fill:#dbdddb;}.cls-57,.cls-58{fill:#e1f4ff;}.cls-59,.cls-67{fill:#f7d5a4;}.cls-60{fill:#568fba;}.cls-61{fill:#aa7939;}.cls-62{fill:#fbdfd3;}.cls-63{fill:#0057d8;}.cls-64{fill:#0087df;}.cls-65{fill:#e8cfcf;opacity:0.4;}.cls-66{fill:#6b2205;}.cls-67,.cls-89{opacity:0.7;}.cls-68{clip-path:url(#clip-path-9);}.cls-69{clip-path:url(#clip-path-10);}.cls-70{clip-path:url(#clip-path-11);}.cls-71{clip-path:url(#clip-path-12);}.cls-72{clip-path:url(#clip-path-13);}.cls-73{clip-path:url(#clip-path-14);}.cls-74{clip-path:url(#clip-path-15);}.cls-75{clip-path:url(#clip-path-16);}.cls-76{clip-path:url(#clip-path-17);}.cls-77{clip-path:url(#clip-path-18);}.cls-78{clip-path:url(#clip-path-19);}.cls-79{clip-path:url(#clip-path-20);}.cls-80{clip-path:url(#clip-path-21);}.cls-81{clip-path:url(#clip-path-22);}.cls-82{fill:#05a5a0;}.cls-83{fill:#045450;}.cls-84{fill:#fff5e9;}.cls-85{fill:#ffe67b;}.cls-86{fill:#010714;}.cls-87{fill:#2f312f;}.cls-88{fill:#046666;}.cls-89,.cls-93{fill:#5e5e5c;}.cls-90{fill:#d3a62a;}.cls-91{fill:#eac44e;}.cls-92{fill:#02979d;}.cls-94{fill:#ddb237;}.cls-95{fill:#fffefd;}.cls-96{clip-path:url(#clip-path-23);}.cls-97{fill:url(#linear-gradient-7);}.cls-98{fill:url(#linear-gradient-8);}.cls-99{clip-path:url(#clip-path-24);}.cls-100{font-size:21px;}.cls-100,.cls-115,.cls-124{font-family:ACaslonPro-Regular, Adobe Caslon Pro;}.cls-101{letter-spacing:-0.04em;}.cls-102{letter-spacing:-0.01em;}.cls-103{letter-spacing:0em;}.cls-104{letter-spacing:0em;}.cls-105{letter-spacing:0em;}.cls-106{letter-spacing:-0.01em;}.cls-107{letter-spacing:0.01em;}.cls-108{letter-spacing:-0.01em;}.cls-109{letter-spacing:-0.07em;}.cls-110{letter-spacing:-0.01em;}.cls-111{letter-spacing:0em;}.cls-112{letter-spacing:-0.01em;}.cls-113{letter-spacing:-0.01em;}.cls-114{letter-spacing:-0.07em;}.cls-115,.cls-124{font-size:16px;}.cls-116{letter-spacing:0em;}.cls-117{letter-spacing:0em;}.cls-118{letter-spacing:0em;}.cls-119{letter-spacing:0.02em;}.cls-120{letter-spacing:-0.01em;}.cls-121{letter-spacing:0em;}.cls-122{letter-spacing:0.03em;}.cls-123{fill:#790014;opacity:0.9;}.cls-125{letter-spacing:0.02em;}.cls-126{letter-spacing:0em;}.cls-127{letter-spacing:0em;}.cls-128{letter-spacing:-0.01em;}.cls-129{fill:#4daad6;}.cls-130{fill:#49658d;}.cls-131{fill:#cacaca;}.cls-132{fill:#f0f0f0;}.cls-133{fill:#2a2425;}.cls-134{fill:#3c3c3c;}.cls-135{fill:#ffab80;}.cls-136{fill:#52baed;}.cls-137{fill:#e6e6e6;}.cls-138{fill:#505050;}.cls-139,.cls-140,.cls-141{fill:#ffc48c;}.cls-140{opacity:0.5;}.cls-141{opacity:0.35;}.cls-142{fill:#e56b58;}.cls-143{opacity:0.15;}.cls-144{fill:#784425;}.cls-145{opacity:0.25;}.cls-146{fill:#ffc085;}</style><linearGradient id="linear-gradient" x1="502" y1="465.03" x2="1233.6" y2="465.03" gradientTransform="translate(126.75 -183.18) rotate(12.99)" gradientUnits="userSpaceOnUse"><stop offset="0.26" stop-color="#d4145a"/><stop offset="0.87" stop-color="#6a0005"/></linearGradient><linearGradient id="linear-gradient-2" x1="-108" y1="736.79" x2="432" y2="736.79" gradientTransform="matrix(1, 0, 0, 1, 0, 0)" xlink:href="#linear-gradient"/><clipPath id="clip-path"><path class="cls-1" d="M595.76,201.6c-77.39,33-63.11,91.68-27.66,116.77,50.22,35.55,81.09,19,53.38,107.91-9.41,30.17-6.08,64.49,15.53,89,15.55,17.64,40,28.9,65.26,28.63,14.06-.15,27.9-3.68,41.92-5.08s29.19-.31,40,7.54c10.42,7.56,14.91,20.05,16.67,32.16,4.23,29.13-5,59.39,2.21,88.19,6,24.27,23.23,49.32,47.36,61.56,31.58,16,71.32,10.42,105.5,2.93,40.07-8.77,78.21-25,112.36-46.3,43.75-27.28,81-62.71,111.85-101.89,27.44-34.88,50.14-73.26,61.94-114.45,18.65-65.13,11.65-161-73-180.77-101.86-23.73-132.87,74.43-162.49-5.64-17.72-47.92-79.82-113.39-174.1-46.39S707.2,154.11,595.76,201.6Z"/></clipPath><linearGradient id="linear-gradient-4" x1="921.07" y1="337.19" x2="830.43" y2="513.43" gradientTransform="translate(203.55 -286.75) rotate(19.29)" xlink:href="#linear-gradient"/><linearGradient id="linear-gradient-5" x1="848.18" y1="380.69" x2="741.35" y2="604.28" gradientTransform="translate(203.55 -286.75) rotate(19.29)" xlink:href="#linear-gradient"/><clipPath id="clip-path-2"><path class="cls-2" d="M592.61,463.49a20,20,0,0,0,7.46-4.42l2.29,1.08.27.12,1.5.71a19.77,19.77,0,0,1-7.45,4.42Z"/></clipPath><clipPath id="clip-path-3"><path class="cls-2" d="M603.46,453.11a3.7,3.7,0,0,0-2.24-3.83l4.06,1.92a3.68,3.68,0,0,1,2.25,3.82c-.15,1.94-1.44,4.08-3.4,6l-.23-.11-3.83-1.8C602,457.18,603.32,455.05,603.46,453.11Z"/></clipPath><clipPath id="clip-path-4"><path class="cls-2" d="M585.08,463.62c1.78.84,4.47.86,7.53-.13l4.07,1.91c-3.07,1-5.75,1-7.53.14Z"/></clipPath><clipPath id="clip-path-5"><path class="cls-2" d="M601.22,449.28l4.06,1.92c-1.78-.84-4.47-.87-7.54.13l-4.06-1.92C596.75,448.42,599.43,448.44,601.22,449.28Z"/></clipPath><clipPath id="clip-path-6"><path class="cls-2" d="M589.15,465.54l-4.07-1.92a3.72,3.72,0,0,1-2.25-3.83c.29-3.88,5.15-8.53,10.85-10.38l4.06,1.92c-5.69,1.84-10.55,6.49-10.84,10.37A3.7,3.7,0,0,0,589.15,465.54Z"/></clipPath><clipPath id="clip-path-7"><path class="cls-2" d="M605.81,443.23l.21.1,2,.95,1.83.86c-2.89-1.36-7-1.45-11.68.06l-4.06-1.91C598.81,441.78,602.92,441.87,605.81,443.23Z"/></clipPath><clipPath id="clip-path-8"><path class="cls-2" d="M584.55,471.59l-1.63-.77-1.42-.67-1-.48a7.4,7.4,0,0,1-4.33-7.72c.55-7.27,8.6-15.62,18-18.66l4.06,1.91c-9.38,3-17.43,11.4-18,18.67A7.42,7.42,0,0,0,584.55,471.59Z"/></clipPath><clipPath id="clip-path-9"><path class="cls-2" d="M757.9,546.82a19.89,19.89,0,0,0,7.46-4.42l2.29,1.08.27.13,1.5.7a19.87,19.87,0,0,1-7.45,4.43Z"/></clipPath><clipPath id="clip-path-10"><path class="cls-2" d="M768.75,536.44a3.69,3.69,0,0,0-2.25-3.83l4.07,1.92a3.71,3.71,0,0,1,2.25,3.82c-.15,1.95-1.44,4.09-3.4,6l-.23-.11-3.83-1.8C767.32,540.52,768.61,538.38,768.75,536.44Z"/></clipPath><clipPath id="clip-path-11"><path class="cls-2" d="M750.37,547c1.78.84,4.47.86,7.53-.13l4.07,1.92c-3.07,1-5.75,1-7.53.13Z"/></clipPath><clipPath id="clip-path-12"><path class="cls-2" d="M766.5,532.61l4.07,1.92c-1.78-.84-4.47-.86-7.54.13L759,532.75C762,531.75,764.72,531.77,766.5,532.61Z"/></clipPath><clipPath id="clip-path-13"><path class="cls-2" d="M754.44,548.87,750.37,547a3.69,3.69,0,0,1-2.25-3.83c.29-3.88,5.15-8.53,10.84-10.37l4.07,1.91c-5.7,1.84-10.55,6.49-10.85,10.38A3.71,3.71,0,0,0,754.44,548.87Z"/></clipPath><clipPath id="clip-path-14"><path class="cls-2" d="M771.1,526.56l.21.1,2,1,1.83.86c-2.9-1.36-7-1.45-11.68.06l-4.07-1.92C764.09,525.11,768.21,525.2,771.1,526.56Z"/></clipPath><clipPath id="clip-path-15"><path class="cls-2" d="M749.84,554.92l-1.63-.77-1.42-.67-1-.48a7.38,7.38,0,0,1-4.32-7.72c.54-7.27,8.6-15.62,18-18.66l4.07,1.92c-9.38,3-17.43,11.39-18,18.66A7.41,7.41,0,0,0,749.84,554.92Z"/></clipPath><clipPath id="clip-path-16"><path class="cls-2" d="M1116.52,427.49a19.79,19.79,0,0,0,7.45-4.43l2.3,1.09.27.12,1.5.7a19.66,19.66,0,0,1-7.45,4.43Z"/></clipPath><clipPath id="clip-path-17"><path class="cls-2" d="M1127.37,417.1a3.67,3.67,0,0,0-2.24-3.82l4.06,1.91a3.7,3.7,0,0,1,2.25,3.83c-.15,1.94-1.44,4.08-3.4,6l-.23-.1-3.84-1.81C1125.94,421.18,1127.23,419.05,1127.37,417.1Z"/></clipPath><clipPath id="clip-path-18"><path class="cls-2" d="M1109,427.62c1.79.84,4.47.86,7.53-.13l4.07,1.91c-3.07,1-5.75,1-7.53.13Z"/></clipPath><clipPath id="clip-path-19"><path class="cls-2" d="M1125.13,413.28l4.06,1.91c-1.78-.84-4.47-.86-7.54.14l-4.07-1.92C1120.66,412.42,1123.34,412.44,1125.13,413.28Z"/></clipPath><clipPath id="clip-path-20"><path class="cls-2" d="M1113.06,429.53l-4.07-1.91a3.72,3.72,0,0,1-2.25-3.83c.29-3.89,5.15-8.53,10.84-10.38l4.07,1.92c-5.69,1.84-10.55,6.49-10.84,10.37A3.68,3.68,0,0,0,1113.06,429.53Z"/></clipPath><clipPath id="clip-path-21"><path class="cls-2" d="M1129.73,407.23l.2.09,2,1,1.83.86c-2.9-1.36-7-1.45-11.68.06l-4.06-1.91C1122.71,405.78,1126.83,405.86,1129.73,407.23Z"/></clipPath><clipPath id="clip-path-22"><path class="cls-2" d="M1108.46,435.58l-1.63-.76-1.42-.67-1-.48a7.41,7.41,0,0,1-4.33-7.72c.54-7.27,8.6-15.63,18-18.66l4.06,1.91c-9.38,3-17.43,11.39-18,18.66A7.41,7.41,0,0,0,1108.46,435.58Z"/></clipPath><clipPath id="clip-path-23"><path class="cls-3" d="M419.19,784.54c32.29-63.65-2.76-104.32-35.61-107.68-46.53-4.76-57.91,23.35-80.95-61.79-7.82-28.91-25.26-55.08-49.43-64.6a52.62,52.62,0,0,0-52.58,8c-8.49,6.84-15.33,16.31-23.23,24.14s-17.63,14.2-27.74,13c-9.74-1.14-18.08-9.09-24.59-18-15.66-21.55-23.66-50.42-40.95-70.3-14.57-16.75-36.29-28.79-56.47-27.16-26.42,2.13-48.09,25.65-65.53,48-20.46,26.25-36.39,57.6-47.61,91.15-14.38,43-21.15,89.45-22.32,135.88-1.05,41.34,2.37,83.24,13.69,122.19C-76.24,939-28.9,1013.28,31.46,988.79c72.66-29.47,47.45-123.7,101.44-73.08C165.2,946,232.4,969.29,259.71,870S372.68,876.22,419.19,784.54Z"/></clipPath><linearGradient id="linear-gradient-7" x1="239.34" y1="391.26" x2="157.4" y2="550.59" gradientTransform="translate(449.41 1154.23) rotate(166.06)" xlink:href="#linear-gradient"/><linearGradient id="linear-gradient-8" x1="193.43" y1="416.44" x2="94.48" y2="623.55" gradientTransform="translate(449.41 1154.23) rotate(166.06)" xlink:href="#linear-gradient"/><clipPath id="clip-path-24"><path class="cls-4" d="M434.89-49.45c-72,30.57-19.21,55.93,38.28,61.15C554.61,19.11,581.3,5.3,602.5,53.12c7.19,16.24,32.08,32,72.76,39.62,29.26,5.47,65.21,6.18,95.13,1.22,16.64-2.76,31-7.1,46.79-10.45s34.56-5.73,52.23-4a96.56,96.56,0,0,1,39.45,12.2c22.8,13.13,30.32,29.36,56.39,41.77,22,10.45,57.73,19.15,93.91,20.39,47.36,1.62,91.24-8.65,127.36-18.77,42.35-11.86,77.85-26.92,105.51-43.63,35.44-21.42,58.2-45.49,71-70.13,11.4-21.94,15-44.64,3.94-66.6-17.51-34.73-84.33-79.28-197-72.53-135.71,8.12-112.78,61-196.84,28.37-50.31-19.54-164.15-39-235.52,11.09S538.58-93.48,434.89-49.45Z"/></clipPath></defs><title>Artboard 1</title><g class="cls-5"><g id="Layer_1" data-name="Layer 1"><rect class="cls-6" x="1" y="-1" width="1366" height="772"/><rect class="cls-2" x="1" width="1364" height="81"/><rect class="cls-2" x="16" y="154" width="696" height="448"/><text class="cls-7" transform="translate(137.51 192.25) scale(0.81 1)"><tspan class="cls-8">W</tspan><tspan x="45.35" y="0">e Ca</tspan><tspan class="cls-9" x="137.32" y="0">r</tspan><tspan x="157.76" y="0">e Like </tspan><tspan class="cls-8" x="0" y="57.6">A</tspan><tspan x="32.02" y="57.6" xml:space="preserve"> Family</tspan></text><text class="cls-10" transform="translate(138 69.95) scale(0.95 1)">Divine Hospital</text><path class="cls-4" d="M580.63,234.15c-68.94,48.81-42.23,109.92-2,131.06,57,30,83.81,6.84,75.76,107.73-2.74,34.25,7.94,70.82,34.48,93.7,19.09,16.46,45.53,24.49,70.31,19.91C773,584,785.83,577.83,799.3,574s28.62-5.3,41,1.37c11.88,6.41,19,19.16,23.33,32,10.45,30.81,7.95,65.12,21.2,95.07,11.17,25.25,33.49,49.43,59.84,58.58,34.49,12,72.34-.82,104.31-14.72,37.5-16.29,71.48-40.33,100.44-69.17,37.1-36.94,66.09-81.61,87.93-129.24,19.44-42.41,33.47-87.8,36.17-134.37,4.27-73.66-23.32-176.28-110.73-183.26-105.23-8.4-107.89,94.76-154.28,13.13C980.7,194.46,898.91,142.47,820.71,231S679.89,163.84,580.63,234.15Z"/><path class="cls-1" d="M595.76,201.6c-77.39,33-63.11,91.68-27.66,116.77,50.22,35.55,81.09,19,53.38,107.91-9.41,30.17-6.08,64.49,15.53,89,15.55,17.64,40,28.9,65.26,28.63,14.06-.15,27.9-3.68,41.92-5.08s29.19-.31,40,7.54c10.42,7.56,14.91,20.05,16.67,32.16,4.23,29.13-5,59.39,2.21,88.19,6,24.27,23.23,49.32,47.36,61.56,31.58,16,71.32,10.42,105.5,2.93,40.07-8.77,78.21-25,112.36-46.3,43.75-27.28,81-62.71,111.85-101.89,27.44-34.88,50.14-73.26,61.94-114.45,18.65-65.13,11.65-161-73-180.77-101.86-23.73-132.87,74.43-162.49-5.64-17.72-47.92-79.82-113.39-174.1-46.39S707.2,154.11,595.76,201.6Z"/><g class="cls-11"><path class="cls-12" d="M561.68,282.79c29.47-66.73,90.46-58.06,118.19-29.76C719.15,293.14,704,320,793.52,291.72c30.42-9.59,65.79-8.73,92.16,8,19,12,31.89,31.9,33,53.1.64,11.8-2.21,23.6-2.85,35.43s1.32,24.5,10,33.13c8.34,8.31,21.4,11.38,33.92,12.17,30.11,1.91,60.62-7.5,90.56-3.12,25.23,3.7,51.88,16.71,65.78,36.25,18.21,25.58,14.7,59.22,9,88.29-6.74,34.09-21.24,67-41.15,96.81-25.52,38.22-59.75,71.46-98.19,99.51-34.23,25-72.31,46.17-113.88,58.38-65.74,19.3-164.49,18.83-189.47-51-30.07-84.07,68.84-115.59-14.93-135.92-50.13-12.16-120.76-60.55-57.37-143.37S519.26,378.9,561.68,282.79Z"/><path class="cls-13" d="M516.58,273.69c53.49-55.69,108.29-28.19,123.92,8,22.14,51.27-2.56,72.6,93.53,73.14,32.63.19,66,12.08,84.74,36.61,13.48,17.63,18.22,41,11.24,61.95-3.89,11.67-11.1,22.26-16.21,33.56s-8.08,24.23-3.11,35.33c4.78,10.69,16,17.75,27.67,22.44C866.32,556,899,556.38,925.81,570c22.63,11.47,43.06,32.46,48.86,55.8,7.6,30.57-8.55,62.18-25.11,88.65-19.41,31-45.75,58.5-76.09,81.28-38.86,29.18-84.13,50.8-131.44,66.06-42.12,13.59-86.47,22.3-130.72,21.17-70-1.78-163.88-33.11-161.07-108.82,3.38-91.14,109.62-90.87,37.56-136.82-43.12-27.5-92-96.63,0-157.34S439.54,353.87,516.58,273.69Z"/></g><polygon class="cls-14" points="549 461.55 783.74 571.51 1175 444.8 940.26 334.83 549 461.55"/><path class="cls-14" d="M825.41,455c-1.06,13.3-42.1,21.68-91.65,18.71s-88.88-16.15-87.82-29.45,42.1-21.68,91.66-18.71S826.47,441.66,825.41,455Z"/><path class="cls-15" d="M730.5,427.17a64,64,0,0,0,10.12,4.06,73.37,73.37,0,0,1,14.28,5.06,80.31,80.31,0,0,0,10.73,5.12c3.28,1.14,7.24-.75,10.47-1.62,2,6.51-3.79,7.64-11.8,5.58a83.07,83.07,0,0,1-12-4.54c-3.23-1.4-6.38-2.78-9.35-4.41-1.21-.65-2.55-1.25-3.76-1.94-.26.42-.35.91-.63,1.35-1.16-.5-2.85-.55-4.15-1a17.75,17.75,0,0,1-3.39-1.41c-2.08-1.21-3.11-2.66-2.84-4.59C728.33,427.51,728.94,426.44,730.5,427.17Z"/><path class="cls-16" d="M734.65,421.68c.86,2.11,4.3,2.05,6.92,2.18a16,16,0,0,0,4.38-.2c1-.23,2.42-1.23,3.07-1.24l.15-.08c.58.21.74.67,1.19,1a10.93,10.93,0,0,0,2.4,1.36,45.17,45.17,0,0,0,5.77,2c4,1.31,8.13,5,11.45,7.11,2.71,1.72,4,1.72,5.2,4.14.93,1.93,1.66,4.71-1.3,5.75-3.26,1.13-8.56-.17-11.78-1.18-5.11-1.59-9.53-4.05-14.2-6.22a62.68,62.68,0,0,0-10.82-3.73c-3.45-.93-5.13-1.61-6.56-3.18C727.85,426.56,730.24,423.39,734.65,421.68Z"/><path class="cls-17" d="M726.14,332.53c9.69-5.24,8.87-3.2,8.65-.62V332a3.26,3.26,0,0,1,1.43-2.29,20.39,20.39,0,0,1,4.29-1.31c4.41-.89,9.23-.58,13.59-1.66,3.56-.87,7.4-1.65,10.44-3.29,0,0-.14,0-.27-.06L765,323c-.51,3.14-5.91,50.36-8.55,53.65,1,1.08-3.52,8.17-4.2,8.91-.93,1-.36,2.47-.57,3.72-.26,1.55,9,29.82,6.89,37.51,4.93,4.07-13.47,5-21.45,5.87-4.78.54-14.91-6-15.49-9.58-1.6-4.47,1.91-17,2.52-24.62.32-4,4-13.25,5.39-15.08a8.67,8.67,0,0,0,1.21-4.64C730.93,373.64,712.88,339.71,726.14,332.53Z"/><path class="cls-18" d="M729.5,383.46a8.83,8.83,0,0,0,1.2-4.65c.24-5.09-17.83-39-4.56-46.19,9.69-5.25,8.87-3.21,8.65-.63v.07a3.25,3.25,0,0,1,1.43-2.29,21.2,21.2,0,0,1,4.29-1.32q.93-.18,1.86-.3c-7.93,12.12-10,26.12-8.26,39.77,1.6,12.67,4.71,24.87,3.91,37.63-.57,9.06-1.75,18.06-3,27.05-5.15-1-12.87-6.33-13.37-9.45-1.61-4.47,1.91-17,2.51-24.61C724.42,394.52,728.16,385.28,729.5,383.46Z"/><path class="cls-15" d="M694.1,442c5.51.68,10.13,3.63,14.51,6.07a35.23,35.23,0,0,0,5.57,7.67c1,1.66,2.06,3.32,3.07,5,0,.53,1,2.53.8,2.87-2.47,3.45-19.22,1.65-23.07.16-6.41-2.49-6.37-8.06-8-12.68C685.5,446.76,684.43,440.83,694.1,442Z"/><path class="cls-15" d="M689.57,444.09c.07,1.08.57,4.46-1.4,4.82l-.29.1a.77.77,0,0,1-.37.44c-3.42-1.75-4.34-7-1.91-9.39S689.47,442.45,689.57,444.09Z"/><path class="cls-16" d="M696.22,435.52c2.58-.37,5.28-1.35,6.63-3v.16c0,1.42.92,3.38,1.53,4.75a23.49,23.49,0,0,0,2.57,4.36,41,41,0,0,1,4,6.61c1,2.12,1.43,4.7,3,6.65s2.75,3.48,2.31,5.74a3,3,0,0,1-1.49,2.3c-.94.4-2.76.08-3.84,0-1.32-.12-2.59-.47-3.91-.61-1.49-.14-3-.25-4.45-.5-3.66-.63-6.62-1.45-9.21-3.5a12.65,12.65,0,0,1-4.9-7.52,43,43,0,0,1-1-10.5c.18-2.19.51-4.35.76-6.5A11.53,11.53,0,0,0,696.22,435.52Z"/><path class="cls-19" d="M739.15,222.31c.22.22.33.11.55.15l-.55-.15c3.55-1.9,6.26-2.24,10.93-1.62,6.18.81,12.29,5.58,16.67,8.51,7.73,5.15,15.45,10.3,23.09,15.55,5.93,4.07,12.4,7.94,17.21,12.71,1.75,1.75,1.76,2.59,0,4.17-1.17,1-4.2,3.91-6.14,4.06-2.34.18-7.93-2.64-10-3.39-4.4-1.57-8.78-3.1-13.13-4.74C763,252,742,246.46,735.18,235.25,733.61,232.68,734.57,223.68,739.15,222.31Z"/><path class="cls-17" d="M688,319.69c1.66-1.93,2.81-8.2,7.59-5.32,1.85,1.11,2.48,2.84,3.74,4.29a15.66,15.66,0,0,0,7.26,4.46c6.83,2.24,13.83,2.49,21,2.64,3.82.1,4,1.29,4.45,3.88.46,2.88-12.14,49.86-15.27,52.94a9.32,9.32,0,0,0-2.67,4.09c-.41,1.42,2.37,53.35.81,56.32-.83,1.6-6.44,6.22-14.87,7.21-7.43.86-27.17-4.37-25.73-9.41,1.37-4.87.76-39.58,3.51-44.07,2.34-3.83,11.47-12.38,11.31-16.77C689,374.74,680.86,328,688,319.69Z"/><path class="cls-20" d="M739.73,220.06c2.66-.16,9.29,1.82,12,2,10.88,5.56,12.67,12.59,11.49,17.69,0,.07,0,.14.06.2l-6,49.35s11,21.59,7.74,33.66c-1.05,3.9-16.82,9.45-22.27,10.63-13.21,2.88-37.66,1.86-48.46-4.51-7.49-4.41-10.14-5.68-6.49-11.88a1.92,1.92,0,0,0-.27-2.51c1.2-4.19,2.48-8.36,3.91-12.5,1.33-3.84,3-7.81,2.15-11.81-.26-1.28-3.08-12.55-4.33-10.2.41-3.47,3.38-.22,3.69-3.7a2.23,2.23,0,0,0-.22-1.19,38.65,38.65,0,0,0-.08-15.85c-.7-3.2-1.28-8.54-4.75-11.12l-.36-.23a12.54,12.54,0,0,0-4.45-4.45c.34-.14.67-1.32,1-1.43C684,242.24,723.38,221.07,739.73,220.06Z"/><path class="cls-19" d="M683.86,242.7s5.65-3,13.54-6.83c.28,36.22,21.67,66.62,65.77,89.29.19,4.21-11.86,8.42-15.55,9.21-13.11,2.84-42.89.45-53.62-5.84-7.44-4.36-10.07-5.62-6.45-11.74a1.92,1.92,0,0,0-.27-2.49c1.19-4.13,2.46-8.25,3.88-12.34,1.32-3.79,2.93-7.72,2.13-11.67-.26-1.26-3.06-12.41-4.3-10.07.4-3.44,3.36-.22,3.66-3.66a2.27,2.27,0,0,0-.22-1.18,38.08,38.08,0,0,0-.09-15.66c-.69-3.16-1.27-8.43-4.71-11l-.36-.23a12.39,12.39,0,0,0-4.42-4.39C683.19,244,683.51,242.81,683.86,242.7Z"/><path class="cls-21" d="M720.14,220.6c3-.23,6.13,2.07,9.16,2.55,3.85.59,13.64,3.78,13.75,7.09l-.44-1a32.5,32.5,0,0,0-.08,6.61c.16,1.62-.82,13.17-.82,13.17s-9.87-3.5-14.19-4.77c-4.54-1.33-8.64-5.23-10.63-8.56-1.82-3-1.33-6.89.11-9.89C718.36,223,717.13,220.83,720.14,220.6Z"/><path class="cls-22" d="M747.5,226.51l.6-2A2.27,2.27,0,0,1,747.5,226.51Z"/><path class="cls-23" d="M737.72,224.84c2.91,1.28,5.34,2.88,5.4,4.52l-.44-1c-.22,2.26-.89,3.45-.67,5.65.17,1.62-.13,4.84-1.36,6.21-2.56,2.83-5.73,2.84-10,1.57-3.21-.93-7.86-2.41-10.46-4.68C728.11,234.55,735.27,230.23,737.72,224.84Z"/><path class="cls-20" d="M690,286.72a18.37,18.37,0,0,0-10.25.64,88,88,0,0,0-15.67,8c.1-2,.58-4.87.61-5.68.11-3.26,7.57-42.08,18.29-50.31,2.44-1.89,12.79-7.24,16.6-5,3.77-2-.92,1.49-.91,1.53,3.74,1.5,3.81,4.73,5.15,7.69,1.84,4.05-1.79,8.4-3.39,12.13C697.84,261.81,693.05,280.46,690,286.72Z"/><path class="cls-24" d="M740.55,230.11c.53,1.83,2.63,17.66-.07,17.86-.81.05-4-1.28-5-1.64-2.06-.76-4.06-1.23-6-2.05a37,37,0,0,1-10.74-6.58c-2.25-2.1-2-9.71-1.2-13-1-.53-9,4.79-9.24,6.69-.43,3.1,5.71,8.15,8.24,10.45,7.35,6.65,18.84,9.46,29,13.49.74-4.17,5.92-20.6,1.87-27.52-1-1.75-1.44,3.32-5,3.61Z"/><path class="cls-25" d="M746.45,216.11c.86-.35,3.93-2.26,3.84-1.29l.2.24c.51,1.31.64,2.65,1.2,4a3.19,3.19,0,0,1-.38,3.44c-1.44,2.25-3.4,4.12-4.53,6.34-1.87,3.69-7,2.63-7.72-1.42C738.38,223.61,741.72,218.06,746.45,216.11Z"/><path class="cls-21" d="M717.21,213c-3.87-4.93,4.1-11.23,10.4-12.84A28.62,28.62,0,0,1,744,201.4a30.22,30.22,0,0,1,4.43,2.29,15.68,15.68,0,0,1,2.52,1.5.69.69,0,0,1,.17.22l-.58-.06c1.37,1.75.53,3.93,1.63,5.75.72,1.19,1.21,2.64-.53,3.52s-3.14,1.2-3.1,2.86c0,1.38,1.13,2.35,1.65,3.62.3.71.87,2.78.11,3.38-1,.79-3.54,0-4.87.16.5.28.37,1.22.2,1.64-.07.19-.34.33-.43.62s.06.58,0,.8-.31.37-.32.7.21.7.24,1a1.78,1.78,0,0,1-.4,1.79c-1,1-3.73.76-5.28.81a22,22,0,0,1-9.56-2.06c-4.92-2.11-12.36-4.79-10.68-9.36-2.94-.05-4.8-3.06-5.21-4.69-.21-.8-.73-2.22,0-2.92S716.13,212.69,717.21,213Z"/><path class="cls-26" d="M752.26,212.07c1-1.48-9.74-2.14-11.25-2-4.59.53-8.54,2.21-12.41,3.85-4.65,2-8.69,5.49-10.61,8.94-.94-1.42-2.46-2.59-3.47-3.86.7-2.32,7.28-5.3,9.07-6.58a34.72,34.72,0,0,1,10.14-4.75c3.76-1.15,23.26-4.6,19.64,1.85a4.48,4.48,0,0,1-.68,1c-.38-.06,0-.19-.16-.35Z"/><path class="cls-27" d="M750.56,215.26c5.07.49,11.19-6.6,11.57-9.26.77-5.12-5.66-9.55-11.13-12.94-14-8.65-37.9-2.3-45.84,8-3.76,4.85-5,12.82.4,17.51,3.58,3.1,8.47,2.5,11.67-.81,4.62-4.81,9.73-7.81,18.63-9.85,4-.92,10.53-2,14.88-1.09.87.19,2.27.55,2.68,1.27.56.95-.69,1.49-.83,2.09-.43,1.86-.19,3.12-1.73,4.86Z"/><path class="cls-28" d="M752,213c.19-.63,2.18-1.8,2.85-2.31a3.35,3.35,0,0,0,1.21-1.41c.24-.63.1-.56-.41-.89s-.76-.19-.91-.7.4-1.33.43-2c.1-2-1.33-3.69-3.91-4.61-2.19-.79-5.53-1-6.52.87-.67,1.26-.62,3.59-3.47,3.4-3.41-.22-4-4.05-6.81-5.09-1.1-.4-2.7-.67-3.41.17s-.06,2,.29,2.85c.66,1.61,1.2,4.25-1.78,4.77-2.12.37-3.93-1.71-6.35-1.31-2.1.34.53,1.63,1.17,2.16,1.18,1,.92,2-1,1.54-2.55-.63-5.24-1.71-8-1-3,.76-2.4,3.05.58,3.42.62.08,3.84.48,2.21,1.34-.72.39-2.74,0-3.68.18-1.81.33-3.06,1.49-2.42,2.81.54,1.1,1.69,3,3.17,2.33s2.73-2.22,3.79-3.22c1.23-1.17,3.6-3.42,5.4-4.19a51.65,51.65,0,0,1,11.69-3.92,23.38,23.38,0,0,1,7.67-.46,22.14,22.14,0,0,1,6.5,2.18c1.2.62,2,1.42,1.9,2.79Z"/><path class="cls-20" d="M687.5,280.43c7.87.47,15.34,1.38,22.8,2.34,4.4.57,4.33,1,4.94,4,.49,2.45,1.09,4.91,1.59,7.38.54,2.73,1.68,3.64-2.26,4.86-4.61,1.42-10.28,1.63-15.22,2.21-9.32,1.1-18,2.25-27.51,1.42-20.46-1.79-1.83-24.76,14.57-22.54Z"/><path class="cls-27" d="M733.15,285.87c-.4.08-1.26.84-1.71.86-1.37,0-1-.92-1.57-1.37-1.17-.83-3-.59-4.74-.87-3.18-.52-6.22-1-9.43-1.41-5.33-.63-6.91,1-7.54,4.59a9.81,9.81,0,0,0,4.11,9.45c.69.5,2,1.67,2.94,1.82a27.05,27.05,0,0,0,4.94-.54,46.89,46.89,0,0,0,10.75-2.9c2.64-1.1,4.46-1.61,3.78-4-.47-1.64-1.57-3.81-1.14-5.33Z"/><path class="cls-29" d="M751.52,218.37c-5.3,2.67-13.37,2.67-19.42,1a29.4,29.4,0,0,1-5.71-2.25c-2.27-1.12-2.4-1.1-4.31.13-1.37.88-3.44,2.19-4.1,3.4s1,2.88,2.18,4.12A27,27,0,0,0,732,231.76a50.86,50.86,0,0,0,10.33,1.66c1.89.09,3,.34,3.81-.81.33-.47-.21-1.27.13-1.73.6-.81,1.25-.54,2.11-1,1.94-1.16.39-1,.68-2.59.25-1.33,1.87-1.52,2.18-2.83.25-1,1.23-2,1.55-3.13a2.76,2.76,0,0,0-1.25-2.91Z"/><path class="cls-30" d="M750.77,272.85c-4.93.92-5.62,3.81-5.81,6.68a48.86,48.86,0,0,0,0,5c0,.72.58,2.08,0,2.73a7.18,7.18,0,0,1-2.2.91c-1.32.47-2.93,1-3.45,2-.65,1.24.7,2.2,2.32,2.69,3.22,1,7.08.73,9.69-.94,2.15-1.37,2.36-3.33,2.7-5.14s.62-3.54,1-5.3c.28-1.24.57-3.14,2.81-3.54.84-.15,1.85.16,2.51-.39s.24-1.33-.12-1.76c-1.85-2.27-7-2-10.13-2.77,7.82.34,6.93.19,7,.27Z"/><path class="cls-31" d="M754.53,225.77a11.86,11.86,0,0,0-6.19,3.33,7.08,7.08,0,0,0-2.07,4.38,3.29,3.29,0,0,0,.53,1.8c.2.32.58.59.78.91.47.77-.16,1.16-1.19,1.44-.35.11-.8.11-1,.32s-.21.53,0,.8c.36.52,1.26.47,1.6.93s-.69.78-.37,1.36c.17.32.58.28.88.49s-.07.28-.1.58c0,.68,2,.43,1.57,1.25-.14.27-.51.47-.49.81s.41.61.79.82c2.26,1.25,5.94,1.35,8.45.68l2.88-.82c1-.28,1.65-.82,2.55-1.16,1.29-.47,3-.2,4.5-.12,3.89.23,8.87-.82,11-2.93a9.19,9.19,0,0,0,2.16-4.18,7.16,7.16,0,0,0-.52-5.06,12.32,12.32,0,0,0-3.35-3.75,12.78,12.78,0,0,0-3.25-1.94,23.64,23.64,0,0,0-8.3-1.73,32,32,0,0,0-8.44,1.11,30.61,30.61,0,0,0-4.25,1.23Z"/><path class="cls-32" d="M764,236.8c.06-.51,1.9-.49,2.42-.32.93.3.83.92.65,1.44a5,5,0,0,1-1.25,2.24,2.58,2.58,0,0,1-2.09.85c-.86-.22.3-.2.56-.26a1.7,1.7,0,0,0,1.06-.94,10.87,10.87,0,0,0,.7-1.41c.13-.3.43-.8,0-1.09-1-.74-1.75.64-2.47.61-.94,0-.22-1.13.36-1.17Z"/><path class="cls-33" d="M758,241.76c-.45,1.28-2.59,2-4.77,1.6s-3.61-1.77-3.15-3.05,2.58-2,4.77-1.59S758.43,240.48,758,241.76Z"/><path class="cls-31" d="M734.7,251.84c-1.15.57-3.67-.26-4.81-.64-.7-.25-1.69-.48-1.89-1s.39-.9,1.22-.36c-1.29-.59-.92-1.47.69-1.34-.39-.8,1.05-.65,1.79-.9,1.11-.35.94-.62,1.26-1.26s0-1.45,1.61-.73c.64.29.91,1.16,1.08,1.62,1.79.38,3.54,2.15,3.25,3.39-.21,1-4,2-5,1.33Z"/><path class="cls-6" d="M757.14,255c-1.33,1.4.81,3.87,1.33,5.3a42.38,42.38,0,0,1,1.36,5.66c.72,3.42,1.35,2,1.14,4.94-2.89.39-9,.08-11.64.54-6.27,1.09-7.24,5.25-5.45,9,1.63,3.41,4.11,8,8,10.57,1.58,1.05,3,.92,4.89.37,2.81-.82,3-1.28,2.82-3.37-.12-1.91.13-1.83,2.81-1.71a22.78,22.78,0,0,0,6.87-.43c22.87-6.09,18.76-33.26,7.45-40.6-2.32-1.52-3.26-1.82-6.68-2.19-2.63-.29-9.26.6-11,1.46-2.38,1.21-1.76,3-2.11,5-.21,1.22-.85,6.19.38,6.62Z"/><path class="cls-34" d="M762.27,245.06c-8.77,3.73-2.94,5.43-2.27,8.09.44,1.79-1.39,4.51-2.86,6.06,1.39.87,6.69.65,8.36.16a9,9,0,0,0,4.57-3.88c1.25-1.87,2-3.88,1.25-5.87a6.87,6.87,0,0,0-5.61-4.62c-.57-.11-4.36-.45-3.52.57Z"/><path class="cls-6" d="M738.43,249.12c-1.55,2.27-4.28,2.46-3.51,4,.29.6,1.94,1.47,2.61,1.93,1.4,1,2.73,2,4.18,2.89,3.12,2,8.25,4.79,12.69,5.08,6,.39,9.72-2.64,12.29-5.65,2-2.41,4.55-5,4.22-7.82-.24-2-1.78-4.13-5.46-4-6.56.24-11,4.79-13.81,8.09-.23-1-1.06-1.49-2.25-.53.19-1.21-.82-.93-2.12-1.34-.92-.29-5.94-2-8.47-2.61Z"/><path class="cls-34" d="M738,248.4c1.38,1.3-2.67,3.47-4.46,3.8a5.93,5.93,0,0,0,1.91,1.37,3.56,3.56,0,0,0,2.51-.68,6.15,6.15,0,0,0,3.1-3.14c-.88-.41-2.34-.7-2.91-1.3Z"/><path class="cls-30" d="M750.44,289.82c-.14,1.05-1.24,2.3-2.1,3.24s-2.34,1.87-2.18,3.08c.36,2.57,5.2,1.69,7.6,1.1,5.25-1.33,7.4-5.23,6.43-8.55-.21-.7.49-1.83-.39-2.22-1-.47-4.61,0-5.8.22-1.41.23-3.5.41-4.51,1.2-.57.45-.87.42-.62,1a5.8,5.8,0,0,0,1.75,1.29Z"/><path class="cls-35" d="M748.86,296.05a.37.37,0,0,1,.12.62.83.83,0,0,1-.86.19.36.36,0,0,1-.13-.62A.85.85,0,0,1,748.86,296.05Z"/><path class="cls-35" d="M748.46,294.76a.39.39,0,0,1,.19.64.89.89,0,0,1-.94.17c-.3-.14-.39-.42-.18-.65A.86.86,0,0,1,748.46,294.76Z"/><path class="cls-35" d="M753.22,295.18c.37.16.46.49.23.75a1,1,0,0,1-1.08.19.45.45,0,0,1-.23-.75A1,1,0,0,1,753.22,295.18Z"/><path class="cls-35" d="M750.76,293.45a.36.36,0,0,1,.17.6.79.79,0,0,1-.85.15c-.28-.12-.37-.39-.17-.59A.83.83,0,0,1,750.76,293.45Z"/><path class="cls-35" d="M755.72,292.68c.22.09.28.3.13.44a.59.59,0,0,1-.64.12c-.23-.09-.29-.29-.14-.44A.61.61,0,0,1,755.72,292.68Z"/><path class="cls-35" d="M757.52,293.85a.46.46,0,0,1,.23.76,1,1,0,0,1-1.1.2c-.37-.16-.47-.51-.24-.77A1.05,1.05,0,0,1,757.52,293.85Z"/><path class="cls-35" d="M752.23,292c.27.11.34.35.16.53a.72.72,0,0,1-.77.14c-.28-.1-.35-.35-.16-.54A.71.71,0,0,1,752.23,292Z"/><path class="cls-35" d="M753.68,293.36c.27.11.36.37.16.56a.74.74,0,0,1-.81.15.34.34,0,0,1-.16-.57A.74.74,0,0,1,753.68,293.36Z"/><path class="cls-35" d="M751.73,290.06a.31.31,0,0,1,.15.52.69.69,0,0,1-.75.14c-.26-.11-.33-.35-.16-.53A.71.71,0,0,1,751.73,290.06Z"/><path class="cls-35" d="M756,290.27a.31.31,0,0,1,.15.52.7.7,0,0,1-.74.12c-.24-.1-.32-.33-.15-.51A.68.68,0,0,1,756,290.27Z"/><path class="cls-35" d="M758.79,291.14c.2.1.26.29.12.44a.58.58,0,0,1-.62.11c-.22-.09-.28-.29-.13-.43A.57.57,0,0,1,758.79,291.14Z"/><path class="cls-35" d="M753.7,290.72a.22.22,0,0,1,.1.37.51.51,0,0,1-.52.09c-.17-.08-.22-.24-.11-.36A.49.49,0,0,1,753.7,290.72Z"/><path class="cls-35" d="M751.52,288.42c.24.1.3.31.16.48a.68.68,0,0,1-.7.12.3.3,0,0,1-.15-.48A.66.66,0,0,1,751.52,288.42Z"/><path class="cls-35" d="M755.34,288.28a.48.48,0,0,1,.23.8,1.08,1.08,0,0,1-1.14.2c-.4-.16-.5-.52-.24-.8A1.1,1.1,0,0,1,755.34,288.28Z"/><path class="cls-35" d="M759,289.06c.23.09.28.3.14.45a.63.63,0,0,1-.67.13c-.22-.1-.29-.31-.15-.47A.64.64,0,0,1,759,289.06Z"/><path class="cls-35" d="M758.42,287.26a.41.41,0,0,1,.2.69.92.92,0,0,1-1,.18c-.34-.14-.43-.45-.2-.7A1,1,0,0,1,758.42,287.26Z"/><path class="cls-35" d="M754.27,287c.17.07.21.21.1.33a.44.44,0,0,1-.48.09c-.16-.07-.21-.22-.1-.34A.46.46,0,0,1,754.27,287Z"/><path class="cls-34" d="M759.09,286.34c-1-.6-2.24-.89-3.18-1.52-.72-.47-1.72-1.8,0-1.63.91.1,2.44,1.7,3.42,1.25.72-.34-.27-2.43,1.27-2.47.9,0,2.07,2.09,3,2.51a10.33,10.33,0,0,0,4.12.52c1.07,0,2.12-.15,3.18-.21s1.72-.32,2.6-.42c0,0,1.47-.62.26-.1a18.8,18.8,0,0,1-3.31,1.4c-1.23.27-2.54.44-3.81.62a18,18,0,0,1-3.57.11c-1,0-2.64-.32-3.32.1Z"/><path class="cls-19" d="M808.25,258.52c.44,11.12-9.48,19.65-21.24,26.32-1.68,1-9.49,6.24-12.08,5.2-.8-.31-1.84-9.86-5.08-5.48-.66-3.67,3.78-6.29,6.72-8.89a66.54,66.54,0,0,0,9.82-10.39c2.58-3.53,4-6.52,9.92-7.67,3.62-.7,10.39-1.3,11.84,2.21Z"/><path class="cls-36" d="M767.19,295.16c1,.65,3.17,2.84,2.42,3.44s-4.41,1.47-5.42,1.69-2.26,0-3.36.22l.09-.26c-.1.12-.21.14-.23.3.48-1.43.63-2.89,2.09-3.81C763.78,296.12,765.78,294.2,767.19,295.16Z"/><path class="cls-36" d="M757.57,302.76c.87.26,1.8.54,2.62.84a8.18,8.18,0,0,0,1.89.72c.7,0,1.57-.8,2.07-1.1a17.26,17.26,0,0,1,3.59-1.71,6.39,6.39,0,0,1,5.06.29c.05.11-.07.05-.1.09v.24c-.15.42-.22,1.21-.64,1.52a9.67,9.67,0,0,1-2.05.66,28.72,28.72,0,0,0-4.35,1.61c-.89.43-2.39,1.47-3.4,1.44a27.65,27.65,0,0,1-4.62-1.16,7.89,7.89,0,0,1-2.41-.65,11.66,11.66,0,0,1-1.09-1.47c-.31-.34-2.07-1.84-1.6-2.26C753.3,301.14,756.79,302.53,757.57,302.76Z"/><path class="cls-27" d="M778.53,287.47l.17-.16c-.6,1.08-2.57,1.71-3.51,2.66-.71.71-.61,1.35-.66,2.19a22.4,22.4,0,0,0,.25,4.7c.18,1.2,1.35,3.47.14,4.5s-4.47,1-6.31,1.51a31.77,31.77,0,0,1-3.23,1.22,22.31,22.31,0,0,1-2.81-.14c-1.13,0-2.28.09-3.39.2-1.52.17-1.79.4-3-.31-1-.57-5.5-2.07-5.48-3,0-1.57,5.6-.1,6.55.13s1.11.11,2.19-.18a10.12,10.12,0,0,1,2.8-.45,3.51,3.51,0,0,0,2-.32c.84-.33,1.61-.77,2.48-1.06s1.8-.25,2-.85c.1-.33-.61-1.41-.77-1.79a1.31,1.31,0,0,0-1.11-.84c-.55-.12.66,0,0,0-.63,1.17-5.88,2.15-7.5,2.62-2.63.74-3.29-1-1.7-2.19.66-.52,1.57-.84,2.24-1.36a21.22,21.22,0,0,0,1.72-1.7c1.3-1.27,3.24-3.86,5-4.87,1.25-.7.68.47-.31.69.18-1.2,2.3-2.43,3.18-3.46s1.74-2.85,3.85-2.83C776.51,282.39,779.67,285.28,778.53,287.47Z"/><path class="cls-37" d="M736.32,280.15l-.12.06-.19,0Z"/><path class="cls-27" d="M726.27,292.56a3.67,3.67,0,0,1,.54-3.22c.82-.82,2.23-.7,3.53-1,.79-.17,1.24-.23,1.54-.74s.28-.79.46-1.17c.28-.62.39-1.29.72-1.91s.77-1.13,1.08-1.73c.53-1.05.59-2.07,2.06-2.61s2.95,0,4.59-.18c1.41-.14,2.81-.51,4.23-.57a23.39,23.39,0,0,1,4.17.49,8,8,0,0,1,3.32,1.57c.65.45,1.84,1.16,1.94,1.85.14,1-1.34.55-2.1.48.3.54,1.22,1.46.48,1.91s-2.44-.09-3.15-.42a8.39,8.39,0,0,0-3.22-.57,2.4,2.4,0,0,0-2.49.81,6.62,6.62,0,0,1,3.06-.4c1.08.24,2.31.41,2.91,1.13s.3,1.49-.87,1.78a5,5,0,0,1-1.68,0,6.51,6.51,0,0,0-1.72.27,46.93,46.93,0,0,0-5.53,1,11.87,11.87,0,0,0,3.52.1c1-.11,2.09-.83,3.1-.67s2.3.82,2,1.54c-.15.4-.75.63-1.22.79-.68.24-1.25.57-2,.76-1.49.36-3.46.14-4.81.67a18.34,18.34,0,0,1-3.36,1.42,7.72,7.72,0,0,1-2.4.07c-.59-.06-1.37-.31-1.91-.31a9.24,9.24,0,0,0-1.63.4c-.82.16-1.67.26-2.53.34s-1.18.16-1.68-.38A3.37,3.37,0,0,1,726.27,292.56Z"/><g class="cls-5"><g class="cls-5"><g class="cls-38"><g class="cls-5"><path class="cls-39" d="M596.68,465.4l-4.07-1.91a19.71,19.71,0,0,0,8.14-5.11l4.06,1.91a19.57,19.57,0,0,1-8.13,5.11Z"/></g></g></g><g class="cls-5"><g class="cls-40"><g class="cls-5"><path class="cls-39" d="M596.68,465.4l-4.07-1.91a19.71,19.71,0,0,0,8.14-5.11l4.06,1.91a19.57,19.57,0,0,1-8.13,5.11Z"/><path class="cls-41" d="M604.81,460.29l-4.06-1.91a9.26,9.26,0,0,0,2.71-5.27,3.7,3.7,0,0,0-2.24-3.83l4.06,1.92a3.69,3.69,0,0,1,2.25,3.82,9.25,9.25,0,0,1-2.72,5.27Z"/></g></g></g><g class="cls-5"><g class="cls-42"><g class="cls-5"><path class="cls-41" d="M589.15,465.54l-4.07-1.92a6.27,6.27,0,0,0,1.2.41l4.06,1.92a6.65,6.65,0,0,1-1.19-.41Z"/><path class="cls-39" d="M590.34,466,586.28,464a12.09,12.09,0,0,0,6.33-.54l4.07,1.91a12.14,12.14,0,0,1-6.34.55Z"/></g></g></g><g class="cls-5"><g class="cls-43"><g class="cls-5"><path class="cls-44" d="M597.74,451.33l-4.06-1.92a12.23,12.23,0,0,1,6.34-.54l4.07,1.92a12.16,12.16,0,0,0-6.35.54Z"/><path class="cls-45" d="M604.09,450.79,600,448.87a6.27,6.27,0,0,1,1.2.41l4.06,1.92a5.38,5.38,0,0,0-1.19-.41Z"/></g></g></g><g class="cls-5"><g class="cls-46"><g class="cls-5"><path class="cls-45" d="M589.15,465.54l-4.07-1.92a3.72,3.72,0,0,1-2.25-3.83,9.25,9.25,0,0,1,2.72-5.27l4.07,1.92a9.23,9.23,0,0,0-2.72,5.26,3.7,3.7,0,0,0,2.25,3.84Z"/><path class="cls-44" d="M589.62,456.44l-4.07-1.92a19.78,19.78,0,0,1,8.13-5.11l4.06,1.92a19.54,19.54,0,0,0-8.12,5.11Z"/></g></g></g><path class="cls-47" d="M597.74,451.33c5.7-1.85,10.08-.19,9.79,3.69s-5.15,8.54-10.85,10.38-10.08.19-9.78-3.7S592.05,453.17,597.74,451.33Z"/><g class="cls-5"><g class="cls-48"><g class="cls-5"><path class="cls-39" d="M598.2,445.2l-4.06-1.91a18.23,18.23,0,0,1,9.63-.77l4.07,1.92a18.35,18.35,0,0,0-9.64.76Z"/><path class="cls-41" d="M607.84,444.44l-4.07-1.92a10.87,10.87,0,0,1,2,.71l4.07,1.91a10.65,10.65,0,0,0-2-.7Z"/></g></g></g><path class="cls-49" d="M598.2,445.2c9.39-3,16.55.39,16,7.66s-8.61,15.63-18,18.67-16.55-.4-16-7.66S588.82,448.24,598.2,445.2Z"/><path class="cls-49" d="M596.68,465.4c5.7-1.84,10.55-6.49,10.85-10.38s-4.09-5.54-9.79-3.69-10.55,6.49-10.84,10.37,4.08,5.55,9.78,3.7Z"/><g class="cls-5"><g class="cls-50"><g class="cls-5"><path class="cls-41" d="M584.55,471.59l-4.06-1.92a7.4,7.4,0,0,1-4.33-7.72c.26-3.5,2.26-7.24,5.31-10.53l4.07,1.91c-3,3.29-5,7-5.32,10.54a7.42,7.42,0,0,0,4.33,7.72Z"/><path class="cls-39" d="M585.54,453.33l-4.07-1.91a30.55,30.55,0,0,1,12.67-8.13l4.06,1.91a30.55,30.55,0,0,0-12.66,8.13Z"/></g></g></g></g><path class="cls-51" d="M1103.26,395.55c8.92,2.24,24.92,9,30.56,14.7,5.17,5.2-3,13.86-9.64,11.6-4.5-1.52-4.69-4.17-11.07-3.49-5.69.6-8.76,3.63-14.86,3.45-9.66-.26-19-10.42-29.28-5.06-5.44,2.83,2.25,7.08,2.79,11.24,1,7.58-3.8,2.41-8.4.11-9.65-4.84-26.82-5.28-34.28,1.75-3.92,3.7.5,8.55-.94,12.33-2,5.15-5.13,1.79-9.41-.65s-9.77-5.45-14.63-3.2c-5.77,2.67-2.12,7-1.43,10.67.43,2.27.62,6.72-2.88,7.65-4.46-4.55-21.23-19-21.34-5.86,0,2.58,3.74,9.84,1.3,11.85-3.93,3.23-7-4.27-9.4-6.11-10-7.62-25.07-1.86-35.41,1.33-4.11,1.26-11.89,4.24-13.7,7.32s2.69,5,2.82,8.93a8.12,8.12,0,0,1-1.06,4.8c-3-.55-3.79-3.77-5.92-5.52a19,19,0,0,0-9.74-4.21c-8.9-1.16-16.54,4.68-21.94,8.75-4,3.05-4.65,16-13.61,15.31-3.34-.25-4.37-4.41-6.59-6a14.94,14.94,0,0,0-9.72-3c-.86,5.5-1.16,15.77-8.67,18.79-5.58-4.14-11.65-13.81-23-9.59-1.72.63-3.17,2.93-4.83,3.85-2.85,1.59-5.43,1.49-6.87,4-2.1,3.68.58,8.55-1.66,12.32-5.14,0-6.9-7.26-10.5-9.46-4.88-3-9.38-.25-13.82-2,1.85-2.48,8-4.06,11.58-5.37,8.64-3.21,17.51-6.12,26.08-9.4,22.54-8.6,45.53-16.77,68.27-25.12,19.68-7.23,40.59-13.79,61.22-19.78,19.59-5.69,38.51-12,59-16.2,11.75-2.43,24.65-5.09,34.85-9.68,7.81-3.52,16.08-6.77,24.4-9.73,3.94-1.41,27-9,27-11.66Z"/><path class="cls-52" d="M603.44,452.71c-.33,4.11-5,8.87-10.52,10.64s-9.67-.11-9.35-4.21,5-8.86,10.53-10.63S603.77,448.61,603.44,452.71Z"/><path class="cls-53" d="M1000.72,435.34c40.69,19.06,37.81,46.12-6.42,60.45s-113.08,10.48-153.76-8.57S802.73,441.1,847,426.77,960,416.28,1000.72,435.34Z"/><path class="cls-54" d="M967,447.41c23.72,11.12,21.95,26.94-4,35.34s-66.18,6.19-89.91-4.92-22-26.94,4-35.34S943.25,436.3,967,447.41Z"/><path class="cls-55" d="M908,274.68l-89.71,29.05c-6.23,2-11.59,7.5-12,12.26L803,357.83c-.38,4.76,4.36,7,10.59,5l89.71-29.05c6.23-2,11.58-7.5,12-12.26l3.33-41.84C919,274.89,914.21,272.67,908,274.68Z"/><path class="cls-55" d="M905.91,289.21c-.37,4.76-5.73,10.24-12,12.26l-65.75,21.3c-6.23,2-11-.21-10.59-5l.16-2.05c.38-4.75,5.74-10.24,12-12.25l65.75-21.3c6.24-2,11,.21,10.6,5Z"/><path class="cls-56" d="M912.63,273.79l-89.71,29c-6.23,2-11.58,7.51-12,12.26l-3.33,41.84c-.38,4.76,4.36,7,10.58,5l89.71-29c6.23-2,11.58-7.5,12-12.26l3.33-41.84C923.59,274,918.86,271.77,912.63,273.79Z"/><path class="cls-56" d="M910.56,288.32c-.38,4.75-5.74,10.25-12,12.26l-65.76,21.29c-6.22,2-11-.2-10.58-5l.16-2.05c.38-4.75,5.73-10.24,12-12.26l65.76-21.29c6.23-2,11,.21,10.59,5Z"/><polygon class="cls-51" points="591.52 446.1 751.42 521 1065.73 419.21 905.83 344.3 591.52 446.1"/><polygon class="cls-53" points="597.17 413.79 757.07 488.7 1071.38 386.9 911.48 311.99 597.17 413.79"/><polygon class="cls-53" points="907.37 312.63 1068.06 387.64 1119.98 323.11 959.92 256.65 907.37 312.63"/><path class="cls-57" d="M989.27,260.38c-7.79,3.78-13.43,10.83-19.09,16.07-6.63,6.12-12.84,12-18.69,18.56-4.16,4.67-22.47,20.17-17.87,26.09,2.87,3.72,14.36,4.1,19.35,5,8.3,1.56,12.83,4.34,18.17,8.57,6.3,5,14.78,7.28,23.2,10.28,8.87,3.14,15.61,7.51,23.84,11.26,4.49,2,11.82,6,16.73,5.24,6.7-1.08,14.09-8.61,18-12.16,11.73-10.68,21.14-22.16,32-33.12,6-6.07,19.87-15.82,5.61-22.73-5.39-2.6-17.47-2.3-24-3.15-9.29-1.22-20.27-2.79-27.41-7.29a137.22,137.22,0,0,0-27.77-13.47c-6.15-2.28-15.83-10.94-22.76-9.22Z"/><path class="cls-58" d="M1090.47,293.47c-4.84-2.34-15.09-2.33-21.82-2.92-8,11.09-28.22,19.09-43.57,23.29a108.19,108.19,0,0,1-35.95,3.71c-15.82-1.09-30.91-4.72-46.41-7a8.45,8.45,0,0,1-4.37-1.85c-4.05,4.85-6.87,9.68-4.73,12.43,2.87,3.72,14.36,4.1,19.35,5,8.3,1.56,12.83,4.34,18.17,8.57,6.3,5,14.78,7.28,23.2,10.28,8.87,3.14,15.61,7.51,23.84,11.26,4.49,2,11.82,6,16.73,5.24,6.7-1.08,14.09-8.61,18-12.16,11.73-10.68,21.14-22.16,32-33.12C1090.87,310.13,1104.73,300.38,1090.47,293.47Z"/><path class="cls-59" d="M907.7,376.94h0c.63-.44,1.23-.91,1.91-1.33Z"/><path class="cls-59" d="M980,373.81c-.53.23-.28.23,0,0Z"/><path class="cls-60" d="M995.85,275.42c-1-2.44-9.26-.4-11.29.27-5.17,1.7-9.93,4.59-14.19,7.2-1.64,1-4.11,2-4.63,3.45a11.42,11.42,0,0,0,0,4.73,12.37,12.37,0,0,0,2.36,5c1,1.48,1.78,3.6,3.25,4.83,2.83-2.6,4.5-6,6.94-8.87a106.81,106.81,0,0,1,7.94-8.65c1.79-1.66,3.65-3.35,5.62-4.89,1-.78,2.39-2.33,3.89-2.56Z"/><polygon class="cls-51" points="1065.73 419.21 1070.07 385.14 1031.73 400.27 1026.51 422.51 1065.73 419.21"/><polygon class="cls-51" points="1151.86 346.04 1154.45 361.46 1065.73 419.21 1070.07 385.14 1149.2 335.86 1151.86 346.04"/><path class="cls-55" d="M1129.26,303.85l-54.48,32.61c-3.78,2.25-5.85,6.85-4.6,10.25l10.85,30c1.23,3.4,5.3,4.33,9.08,2.07l54.48-32.61c3.78-2.26,5.85-6.85,4.61-10.26l-10.86-29.94C1137.11,302.51,1133,301.59,1129.26,303.85Z"/><path class="cls-55" d="M1132.39,314.38c1.23,3.4-.83,8-4.61,10.26l-39.94,23.89c-3.78,2.26-7.85,1.33-9.08-2.07l-.53-1.46c-1.24-3.41.83-8,4.61-10.26l39.93-23.9c3.78-2.26,7.85-1.33,9.08,2.07Z"/><path class="cls-56" d="M1132.27,302.6l-54.47,32.6c-3.79,2.26-5.85,6.85-4.61,10.25l10.86,29.95c1.23,3.4,5.3,4.33,9.08,2.07l54.48-32.6c3.78-2.27,5.85-6.86,4.61-10.26l-10.86-29.95C1140.13,301.26,1136.06,300.33,1132.27,302.6Z"/><path class="cls-56" d="M1135.4,313.12c1.23,3.4-.84,8-4.61,10.26l-39.94,23.89c-3.77,2.26-7.84,1.34-9.08-2.06l-.53-1.47c-1.23-3.4.83-8,4.61-10.26l39.94-23.89c3.78-2.27,7.84-1.34,9.08,2.06Z"/><path class="cls-61" d="M841.29,288.28c.7-.29,2.2.14,2.62-.59a10,10,0,0,0,2,.16l.1,0c0-.11,0-.27-.09-.41a4.42,4.42,0,0,0-2.14-1.79,15.34,15.34,0,0,0-3.69-.67,57.08,57.08,0,0,0-6.65-.42c-1.15,0-2.31,0-3.46.06a6.13,6.13,0,0,0-1.8.17c-.54.43,1.18.62,1.56.66a5.41,5.41,0,0,0,1.93-.07,5,5,0,0,1,2-.06c-.66.25-1.17.63-1.85.87-.47.17-1.89.85-.78,1.17a10.15,10.15,0,0,0,2.79-.19c.65-.05,1.32,0,1.94-.11s.75-.33,1.16-.41,1.08,0,1.55-.05,1.09-.29,1.6-.3.87.18.73.42-.81.38-1.13.49a11,11,0,0,0-2.27,1.07c-.25.16-.84.4-.48.66a3.94,3.94,0,0,0,1.27.19,8,8,0,0,0,1.86-.34A7.08,7.08,0,0,0,841.29,288.28Z"/><path class="cls-59" d="M867.56,290.23l.12.29.06,0Z"/><path class="cls-62" d="M867.63,295.8a3.68,3.68,0,0,0,.67-1.6,4.28,4.28,0,0,0-.06-1.88,8,8,0,0,0-.56-1.8,4.87,4.87,0,0,0-1.07-.54l-2-.89c-1.35-.59-2.78-1.12-4.19-1.64-2.46-.9-4.88-1.82-7.37-2.69-1-.35-2-.76-3-1.1a4.71,4.71,0,0,0-2.21-.13,41.28,41.28,0,0,1-6.92-.41c-.85-.08-1.72-.3-2.57-.36a23.2,23.2,0,0,0-2.75.24,29.23,29.23,0,0,1-3.38.09,3.73,3.73,0,0,0-2.17.15,24.5,24.5,0,0,1-2.73.24,1.94,1.94,0,0,0-1.12.26c-.71.67.88,1.1,1.73,1.29a19.42,19.42,0,0,0,3.58.08,28.24,28.24,0,0,1,3.12.53,9.53,9.53,0,0,0,2.2.06,2.11,2.11,0,0,1,1.31.12,17.69,17.69,0,0,0,4,1,16.09,16.09,0,0,1,2,.33,9.07,9.07,0,0,1,2.19,1.15c.76.49,1.49,1,2.26,1.43.41.25,1,.54,1.09.87.19.83-2,1.28-2.89,1.55a12.22,12.22,0,0,1-4.22.7,7.22,7.22,0,0,0-3.52.89c-.44.23-1,.43-1.09.84s.46.48,1,.56a11.72,11.72,0,0,0,2.37,0c.9-.05,1.73-.09,2.65-.07,1.89,0,3.73.32,5.63.23a26.84,26.84,0,0,1,4-.14,30.53,30.53,0,0,0,5.56.28,20.82,20.82,0,0,1,5.79.17C866.12,295.84,866.84,296.61,867.63,295.8Z"/><path class="cls-62" d="M952.9,296l-.72-1.45c-8.48.1-17.52,1.66-25.89-.14-6.42-1.39-11.77-3-18.53-3.74-7.94-.85-35.67-.64-42.43-1.35-.22,0-4.37,4.4-6.07,6.11,6.21,1.66,16.69,3.5,22.93,5.12,10.48,2.71,18.83,2.43,29.89,3.51C926.18,305.43,944.11,304.36,952.9,296Z"/><path class="cls-62" d="M926.35,294.56c6.15-1.92,10.86-5.51,16-8.44,2.7-1.53,5.72-2.94,8.26-4.65,2.9-2,3.76-2.86,6.49,0,8.17,8.42-4.35,17.11-13.35,21.74-2.52,1.29-4,2.34-7.16,1.73-2.76-.53-5.44-.91-8.26-1.38-2.51-.41-4.7-1.08-5.16-3.07-.41-1.8,1.26-4.91,3.67-5.31Z"/><path class="cls-60" d="M987.15,366.3A27.91,27.91,0,0,1,990,355.08c-2.92,1.54-5.94,3-9.12,4.31-23.72,9.91-53.72,5.81-70.41-8.95-.17.09-.33.21-.49.3,4.78,13.58,16.45,23.23,36.78,27.83,9.92,2.25,20.4,2.67,31,2.53,6.85-.09,8.16-.17,8.77-5C987,372.87,986.9,369.56,987.15,366.3Z"/><path class="cls-63" d="M984.72,266.45c-12.26-5.48-26.33,7.88-33.33,12.8-1.77,1.25-6,3.45-6.6,5-.84,2.26,2.62,5.69,4.73,7.25,4.25,3.12,7.24,3.74,11.05.34,4.5-4,8-8.75,11.68-13.12,3.31-4,8.75-7.36,11.08-11.48Z"/><path class="cls-64" d="M996.37,268.87c-2.39-1.06-9.89-1.5-12.55-2.23-13.74,1.41-19.89,7.29-22,12.41,0,.07-.11.11-.18.16l-3.81,7.08a33.1,33.1,0,0,1-3.75,1.62c-2.26.79-4.11.89-5,2.57-1.11,2.06-1.09,4.61-1.34,6.82a41,41,0,0,0,.3,9.32,19.65,19.65,0,0,1,0,4.2l-.3.65c-2.5,5.43-4.55,11.19-8,16.36a50.14,50.14,0,0,1-9.2,10.06,29.51,29.51,0,0,0,.09,8.85c2,4.87,7.2,9.08,14.74,11.19a72.23,72.23,0,0,0,23.91,2.42,23.11,23.11,0,0,0,9-2.27l1-.48a31.33,31.33,0,0,1,3.67-8.93c3-4.89,8.66-8.42,14.12-12l3.17-2.1c2.29-2.06,4.59-4.09,7-6,1.71-1.39,4.26-3.73,7.23-5.87.36-.39.72-.78,1.1-1.17,2.71-2.72,6.64-7.46,11.54-8.65l.48-.1c2-1.22-.55,2.71,2.1,2.29,5.58-2.18,3.86-8,3.61-8.26C1033.35,306.72,1011.08,275.41,996.37,268.87Z"/><path class="cls-62" d="M1014.42,276.07c-2.69-1.24-7.07-.18-10.21-.77-4-.77-15.21-1.18-17.41,1.84l1-.73a42.69,42.69,0,0,1-4.11,6.14c-1.19,1.44-9.47,10.42-9.18,12.11.59,3.49,15.47,1.56,23,0,4.84-1,6.33-1,10.33-3.43A13.53,13.53,0,0,0,1014,282C1014.57,278.92,1017.11,277.33,1014.42,276.07Z"/><path class="cls-65" d="M995.21,274c-3.54.2-6.84.84-7.93,2.34l1-.72c-1.23,2.15-1.35,3.48-3,5.44-1.17,1.44-2.93,4.52-2.65,6.21.6,3.49,3.58,4.58,8.45,4.89,3.6.24,8.91.47,12.8-.74C998.08,286.23,994.1,279.79,995.21,274Z"/><path class="cls-25" d="M992.55,262.92c-.58-.62-3-2.57-3.53-1.64l.41-.72c-1.31,1-2.28,2.23-3.68,3.29s-.55,5.73-.59,7.16a22.79,22.79,0,0,1-.41,4.51c-.58,4.05,4.3,3.89,7.56.4C995.38,272.62,995.75,266.34,992.55,262.92Z"/><path class="cls-62" d="M1022,270.07c6.75-3.24,3.27-11.78-1.61-15.43-3.8-2.84-10.71-4.71-16.15-4.47a41,41,0,0,0-5.62.6,21.52,21.52,0,0,0-3.32.52.87.87,0,0,0-.29.14l.57.15c-2.39,1.14-3,3.45-5.16,4.75-1.44.86-2.82,2-1.75,3.44s2.19,2.18,1.1,3.7a13.57,13.57,0,0,1-3.13,2.95c-.73.56-4.34,1.88-4,2.69.46,1.1,4.33,1.45,5.49,2.05-.65.07-1.12,1-1.23,1.44,0,.2.12.43,0,.72s-.42.52-.52.74.07.44-.13.76-.65.57-.87.84c-.51.58-.95,1.1-.77,1.8.32,1.21,3,2,4.46,2.56a24.61,24.61,0,0,0,10.28,1.38c6-.28,14.65-.21,16-5,2.79,1,6.46-1.19,7.88-2.54.7-.67,2.1-1.81,1.81-2.72S1023.21,270.15,1022,270.07Z"/><path class="cls-66" d="M1040,258.3a30.55,30.55,0,0,0-2.88-7.13c-1.49-3-5.41-4.9-9.85-5.94-9.42-2.22-14-2.8-16-2.48a27.34,27.34,0,0,0-6.34.05,26.67,26.67,0,0,0-8.18,2.21c-3.5,1.57-6.93,3.51-8.39,6.28-1.79,3.4,3.11,5.44,6.23,7.6,3.43,2.39,6.18,5.26,7.29,8.51a17.31,17.31,0,0,1,1,4.1,12.38,12.38,0,0,0,.21,2.72,4,4,0,0,1,1.72-2.3c0,.7-.65,1.32-.75,2,2.43-1.46,5.71-2.23,8.52-3.44a14.09,14.09,0,0,0,1.48.31c2-.35,3.95-1.24,6.2-1.24a6.89,6.89,0,0,1,2.33.45l.2.19a.91.91,0,0,0-.11-.16,3.61,3.61,0,0,1,.59.3c.62.9-.84,3-1.29,3.49-1.37,1.46-3.34,2-5.78,2.26-1,.11-1.11.09-1.76.66s-1.43,1.31-2.07,2a7.08,7.08,0,0,0-1.54,7.59,6,6,0,0,0,1.23-1.72c-.38,1.32,1.44,2.95,2.48,4,1.2,1.19,2.48,2.38,3.82,3.47.21-.64-.17-1.41-.11-2.1a3.65,3.65,0,0,1,1.33-2.49c2.07-1.79,5.22-3,7.61-4.65a26.67,26.67,0,0,0,8.4-8.78c1.65-2.82,3.39-5.75,4.14-8.78A14.72,14.72,0,0,0,1040,258.3Z"/><path class="cls-64" d="M947.7,301.66c-.5,6.75,2.23,10.2-2.94,16.26a134,134,0,0,1-13.23,13.45c-4.14,3.65-9.1,6.8-12.82,10.57-2.9,2.94-5.81,7.89-10,10,4.79,13.58,16.47,23.23,36.8,27.83,9.92,2.25,20.4,2.67,31,2.52,6.84-.09,8.15-.16,8.77-5,.41-3.19.35-6.49.6-9.74.6-7.8,2.4-13.08,9.34-19.22s10.61-12.13,15.28-19.23a46.71,46.71,0,0,1,9.1-10.76c2.21-1.82,10.45-6,9.18-9C1027,305,1016,307.12,1012,307.49a71.89,71.89,0,0,1-21.47-.83c-7.23-1.56-14.88-5.24-22.32-6-6-.63-16.49,4.79-20.52,1Z"/><path class="cls-57" d="M897.34,314.2c-6.5-3.34-28.77,6.77-35.52,9.15-16.37,5.78-33.79,11.19-50.71,16.15-26.58,7.77-53.9,13.79-79.6,22.19-18.55,6.07-37.2,12.39-55.49,19-6.8,2.47-15.17,4.69-21,8.11-8.35,4.92-7.55,6.11.37,9.56C668.92,404.3,682.79,410,697,415.7c16.52,6.58,32.65,11.53,40.92,23.85,7.92,11.77,12,24.14,10.09,36.81-.68,4.46-4.7,10.68,2.57,13.79,7.89,3.38,19.58-4.5,25.52-7.73,6.91-3.76,12.44-8.62,14-14.73,1.69,4.26-1.12,8.68-3.87,12.75,8.19.93,19.78-4.93,26.35-7.69,9.58-4,16.57-5.41,26.88-7.3,14.08-2.58,23.09-11.41,37.52-13.69,6-1,11.87-.54,17.82-2.19,9.43-2.6,17.07-7.47,25.62-11,12.83-5.26,27.56-5.45,41.12-10.66,11.38-4.37,22-9.59,33.12-14.1,5.79-2.35,21-5.36,23.49-9.95,2.24-4.07-5.09-11.9-7.76-15.46-13.61-18.15-36.57-36.84-61.31-48.49-10.72-5-21.75-8.09-32.7-12.1-6.82-2.49-15.2-9.57-20.89-13.66a4.38,4.38,0,0,1-1.91,1.06Z"/><path class="cls-58" d="M1011,388.86a129.7,129.7,0,0,0-10.85-12.56c-4.14,4.44-11,7.56-17.57,10.16a263,263,0,0,1-31.22,9.8C933.1,401,914.39,405,895.49,408.41c-36.93,6.61-78,6.24-116.06,3-19.45-1.63-38.48-4-56.6-9.6-17.29-5.38-33.51-12.26-50.36-18.27a8.21,8.21,0,0,1-1.26-.57c-5.48,1.82-11.25,3.71-15.61,6.27-8.35,4.92-7.55,6.11.36,9.56q20.31,8.87,41.65,17.32c16.51,6.58,32.64,11.53,40.91,23.84,7.91,11.77,12,24.15,10.09,36.82-.69,4.45-4.7,10.68,2.57,13.79,7.89,3.38,19.58-4.5,25.52-7.73,6.91-3.76,12.43-8.63,14-14.73,1.69,4.26-1.12,8.67-3.87,12.74,8.19.94,19.78-4.92,26.36-7.68,9.57-4,16.56-5.42,26.87-7.31,14.08-2.57,23.09-11.4,37.53-13.69,6-1,11.86-.54,17.81-2.18,9.42-2.61,17.06-7.48,25.62-11,12.83-5.26,27.55-5.45,41.12-10.66,11.38-4.36,22-9.6,33.11-14.1,5.8-2.35,21-5.37,23.5-10C1021,400.25,1013.65,392.42,1011,388.86Z"/><polygon class="cls-53" points="594.72 437.04 755.2 512.21 760.84 441.44 600.36 366.27 594.72 437.04"/><polygon class="cls-51" points="697.66 436.04 746.38 458.86 747.73 441.88 699.01 419.06 697.66 436.04"/><polygon class="cls-51" points="657.53 417.25 691.35 433.1 692.71 416.1 658.88 400.26 657.53 417.25"/><polygon class="cls-51" points="606.53 393.36 648.37 412.96 649.72 395.97 607.88 376.37 606.53 393.36"/><path class="cls-6" d="M599,391.08l2.68-33.69c.57-7.19,7.94-9.82,16.42-5.86l128.59,60.25c8.47,4,14.9,13.05,14.32,20.25l-2.68,33.69c-.57,7.19-7.93,9.82-16.41,5.85L613.3,411.33C604.83,407.36,598.4,398.28,599,391.08Z"/><path class="cls-6" d="M617.78,355.26c-5.95-2.78-11.13-.87-11.54,4.27l-2.68,33.69c-.41,5.15,4.1,11.6,10,14.39l128.6,60.23c5.95,2.78,11.11.87,11.53-4.27l2.68-33.69c.41-5.14-4.09-11.59-10-14.38Z"/><polygon class="cls-51" points="609.11 435.54 743.23 498.36 746.13 461.99 612.01 399.16 609.11 435.54"/><polygon class="cls-51" points="593.99 446.27 751.42 521 758.69 511.55 594.88 435.08 593.99 446.27"/><path class="cls-53" d="M886.11,320.11c-20.07,3.14-39.57,11.36-58.8,16.59-17.92,4.87-35.55,10.23-53.34,15.3-13.25,3.78-26.48,8.41-39.12,13.06-7.45,2.73-29,7.13-29.32,13.75,24.63,2.65,51.69-6.89,74.51-11.65,23.4-4.88,48.65-10.68,73.38-11.49,15-.5,25.9,5.85,41.19,1.9,7.09-1.82,12.63-4.51,20.65-3.67,5.36.57,10,3.51,15.6,3.39,24.9-.58-3.41-19.1-10.56-22.57-5.85-2.85-31.68-17.74-36-13.51Z"/><path class="cls-55" d="M1047.4,342l-89.71,29c-6.22,2-11.57,7.5-12,12.26l-3.33,41.84c-.38,4.76,4.36,7,10.57,5L1042.7,401c6.22-2,11.58-7.51,12-12.26l3.34-41.84C1058.38,342.18,1053.63,340,1047.4,342Z"/><path class="cls-55" d="M1045.33,356.5c-.38,4.76-5.73,10.25-12,12.27l-65.75,21.29c-6.23,2-11-.2-10.58-5l.15-2.05c.39-4.75,5.74-10.24,12-12.26l65.75-21.29c6.22-2,11,.21,10.58,5Z"/><path class="cls-53" d="M1052.05,341.09l-89.71,29.05c-6.23,2-11.58,7.51-12,12.26l-3.33,41.84c-.38,4.76,4.36,7,10.59,5l89.71-29.05c6.22-2,11.58-7.51,12-12.26l3.34-41.85C1063,341.29,1058.27,339.07,1052.05,341.09Z"/><path class="cls-53" d="M1050,355.62c-.38,4.75-5.74,10.24-12,12.26l-65.76,21.29c-6.22,2-11-.2-10.58-5l.17-2c.37-4.76,5.72-10.25,11.95-12.27l65.75-21.29c6.22-2,11,.2,10.59,5Z"/><path class="cls-62" d="M1018.4,333.23c.61-.79,2.54-3,2-3.76s-5.29-1.86-6.49-2.18c-3.27-.87-9.67-3.29-11.87-3.16l-.89,1.2c.14-.22.09-.66.65-1-6.25,5.14-8.52,13.72-16.16,17.92-7.94,4.35-17.75,7.67-26.48,11.25-8,3.27-17.65,5.45-25.19,9.16-3.51,1.74-1,3,.54,5.55.71,1.21.08,1.77-.44,2,.29-.06.69-.13,1.35-.21,3.89-.46,17.13-.92,20.87-1.81,4.65-1.13,4.81-1.15,9.55-2.28a240.94,240.94,0,0,0,27.52-8.85c5.36-2,9.51-7,13-10.49A162.88,162.88,0,0,0,1018.4,333.23Z"/><path class="cls-59" d="M900,376.81a6.33,6.33,0,0,1,1.08.07A10.11,10.11,0,0,0,900,376.81Z"/><path class="cls-62" d="M946.36,367.46c-.58-1.49-1.42-2.95-2.05-4.42-.43-1.05-.67-2.57-1.67-3.46l1.73-1c-3,.74-12.78,4.17-13.93,4.47a12.93,12.93,0,0,1-3.9.31c-2.6-.1-5-.65-7.61-.51-2.45.11-4.93,0-7.36-.06-1.71-.06-3.42-.44-5.14-.5-1,0-3.35-.18-4.1.45s1.85,2.24,2.8,2.54c2.09.64,4.49.72,6.58,1.38a8.57,8.57,0,0,1,2.61,1.06c.77.59.16,1.15-.4,1.7-1.18,1.16-2.34,2.52-4.33,3-1,.24-2,.34-3,.51-1.26.21-2.39.59-3.63.86-1.61.34-3.42.19-5.11.43a12.16,12.16,0,0,0-3,.84c-1.12.48-1.11.69.15,1.05a15.62,15.62,0,0,0,3.21.65c.55,0,1.14,0,1.72,0a10.11,10.11,0,0,1,1.08.07,6.33,6.33,0,0,0-1.08-.07h-.22a1.6,1.6,0,0,0,.21.05c-.7,0-4.28-.3-2.46.56a18.8,18.8,0,0,0,6.14,1.23,19.52,19.52,0,0,0,5,.31,23.42,23.42,0,0,1,7.14-.34,6.62,6.62,0,0,0,3,.24c.87-.3,1.58-.86,2.42-1.2,2.11-.87,4.22-1.69,6.27-2.63a37.36,37.36,0,0,0,5.74-3.22,8.69,8.69,0,0,1,4.56-1.94c2.08-.26,4.23-.28,6.32-.53a7.53,7.53,0,0,0,2.28-.32C946.87,368.69,946.53,367.88,946.36,367.46Z"/><path class="cls-67" d="M925.44,372.74c-1,.27-2.09.55-3.15.77-1.87.37-3.66.86-5.49,1.27a8.92,8.92,0,0,1-2.87.43c-.51,0-2-.29-2.26,0l.27-.07c-.24-.54-7.53.93-8.61,1.08a35.88,35.88,0,0,1-3.73.22,33.4,33.4,0,0,0-3.58-.11,18.16,18.16,0,0,0,4.77,1.08,17.66,17.66,0,0,0,4.88-.54,40.16,40.16,0,0,1,6.44-.66,14.5,14.5,0,0,1,1.9.09c.73.16,1,.66,1.85.48.31-.05.5-.26.81-.32a7.82,7.82,0,0,1,1.08,0c1.19-.07,1.78-.77,2.61-1.25a18.58,18.58,0,0,1,3.64-1.4c1.18-.38,3-.82,3.72-1.57A8.3,8.3,0,0,0,925.44,372.74Z"/><path class="cls-67" d="M937.51,367.73c-.84.09-1.69.15-2.54.23-.32.72-1.56,1.29-2.38,1.75a27.88,27.88,0,0,1-3.81,2c-2.62,1-5.14,2.16-7.61,3.36-1,.51-2.08,1-3.12,1.55a5.14,5.14,0,0,1-2,.34c-1.39.11-2.74-.19-4,0-2.66.43-5.06,1.11-7.8.83-1.2-.13-2.4-.14-3.61-.35a11.23,11.23,0,0,0-3.52-.54c-.83,1.08,8.1,2,9.1,2.08,1.51.15,3.14-.39,4.66-.57a21.53,21.53,0,0,1,5,0c.79.1,1.54.28,2.33.34a3.56,3.56,0,0,0,2.13-.6c.83-.37,1.76-.64,2.6-1s1.79-.91,2.7-1.3a55.36,55.36,0,0,0,6-3c1.35-.78,2.43-1.58,3.64-2.42,1-.72,2.9-.81,4.33-.91,1.82-.14,3.66-.14,5.45-.33a9.84,9.84,0,0,0,1.12-.07c-2.21-.26-4.43-.6-6.64-.89A6.55,6.55,0,0,1,937.51,367.73Z"/><path class="cls-64" d="M1033.05,306c4.64,8-1,15.38-4.78,22.58-3.44,6.5-7.21,14-13,19.64-2.59-.76-5.22-1-7.86-1.91-3.56-1.19-6.87-2.65-10.35-4-4.89-1.83-10-3.64-14.59-5.49,2.37-2.48,5.47-4.6,7.72-7.16a166.37,166.37,0,0,1,12.55-13.54c4.74-4.35,10.5-8.73,17.91-10.95,4-1.2,9.24-1.87,12.44.79Z"/><path class="cls-63" d="M1008.15,320.42c4.21-5.77,9.16-11.84,16.17-16.09a29.83,29.83,0,0,0-3.59.81c-7.41,2.22-13.17,6.6-17.91,10.95a166.52,166.52,0,0,0-12.56,13.54c-2.23,2.56-5.35,4.69-7.71,7.16,4.54,1.86,9.69,3.67,14.58,5.5,3,1.11,5.86,2.31,8.84,3.39C1002.36,337.31,1002.28,328.43,1008.15,320.42Z"/><polygon class="cls-51" points="587.03 460.97 757.52 542.12 759.5 529.74 592.33 448.99 587.03 460.97"/><polygon class="cls-51" points="1131.07 421.15 757.52 542.12 758.48 530.07 1132.03 409.1 1131.07 421.15"/><path class="cls-51" d="M594.9,442.42c-3.42,3.9-17.63,17.44-4.07,21.12,14.63,4,22.59-17.4,3.36-19.55Z"/><g class="cls-5"><g class="cls-5"><g class="cls-68"><g class="cls-5"><path class="cls-39" d="M762,548.74l-4.07-1.92a19.68,19.68,0,0,0,8.13-5.11l4.07,1.92a19.78,19.78,0,0,1-8.13,5.11Z"/></g></g></g><g class="cls-5"><g class="cls-69"><g class="cls-5"><path class="cls-39" d="M762,548.74l-4.07-1.92a19.68,19.68,0,0,0,8.13-5.11l4.07,1.92a19.78,19.78,0,0,1-8.13,5.11Z"/><path class="cls-41" d="M770.1,543.63,766,541.71a9.25,9.25,0,0,0,2.72-5.27,3.69,3.69,0,0,0-2.25-3.83l4.07,1.92a3.71,3.71,0,0,1,2.25,3.82,9.3,9.3,0,0,1-2.72,5.28Z"/></g></g></g><g class="cls-5"><g class="cls-70"><g class="cls-5"><path class="cls-41" d="M754.44,548.87,750.37,547a6.17,6.17,0,0,0,1.19.41l4.07,1.92a6.65,6.65,0,0,1-1.19-.41Z"/><path class="cls-39" d="M755.63,549.28l-4.07-1.92a12.12,12.12,0,0,0,6.34-.54l4.07,1.92a12.12,12.12,0,0,1-6.34.54Z"/></g></g></g><g class="cls-5"><g class="cls-71"><g class="cls-5"><path class="cls-44" d="M763,534.66,759,532.75a12.18,12.18,0,0,1,6.35-.55l4.06,1.92a12.13,12.13,0,0,0-6.34.54Z"/><path class="cls-45" d="M769.37,534.12l-4.06-1.92a6,6,0,0,1,1.19.41l4.07,1.92a5.83,5.83,0,0,0-1.2-.41Z"/></g></g></g><g class="cls-5"><g class="cls-72"><g class="cls-5"><path class="cls-45" d="M754.44,548.87,750.37,547a3.69,3.69,0,0,1-2.25-3.83,9.23,9.23,0,0,1,2.72-5.26l4.06,1.91a9.31,9.31,0,0,0-2.72,5.27,3.71,3.71,0,0,0,2.26,3.83Z"/><path class="cls-44" d="M754.9,539.77l-4.06-1.91a19.54,19.54,0,0,1,8.12-5.11l4.07,1.91a19.68,19.68,0,0,0-8.13,5.11Z"/></g></g></g><path class="cls-47" d="M763,534.66c5.7-1.85,10.08-.19,9.78,3.69s-5.14,8.54-10.84,10.39-10.08.19-9.79-3.7S757.33,536.5,763,534.66Z"/><g class="cls-5"><g class="cls-73"><g class="cls-5"><path class="cls-39" d="M763.49,528.54l-4.07-1.92a18.35,18.35,0,0,1,9.64-.76l4.07,1.92a18.24,18.24,0,0,0-9.64.76Z"/><path class="cls-41" d="M773.13,527.78l-4.07-1.92a10.41,10.41,0,0,1,2,.7l4.07,1.92a10,10,0,0,0-2-.7Z"/></g></g></g><path class="cls-49" d="M763.49,528.54c9.39-3,16.55.39,16,7.65s-8.6,15.63-18,18.67-16.54-.39-16-7.66S754.11,531.58,763.49,528.54Z"/><path class="cls-49" d="M762,548.74c5.7-1.85,10.55-6.5,10.85-10.39s-4.09-5.54-9.79-3.69-10.55,6.49-10.85,10.38,4.09,5.54,9.79,3.7Z"/><g class="cls-5"><g class="cls-74"><g class="cls-5"><path class="cls-41" d="M749.84,554.92,745.77,553a7.38,7.38,0,0,1-4.32-7.72c.26-3.49,2.26-7.24,5.31-10.53l4.06,1.92c-3.05,3.28-5.05,7-5.31,10.53a7.41,7.41,0,0,0,4.33,7.72Z"/><path class="cls-39" d="M750.82,536.67l-4.06-1.92a30.68,30.68,0,0,1,12.66-8.13l4.07,1.92a30.45,30.45,0,0,0-12.67,8.13Z"/></g></g></g></g><g class="cls-5"><g class="cls-5"><g class="cls-75"><g class="cls-5"><path class="cls-39" d="M1120.59,429.4l-4.07-1.91a19.69,19.69,0,0,0,8.13-5.12l4.07,1.92a19.64,19.64,0,0,1-8.13,5.11Z"/></g></g></g><g class="cls-5"><g class="cls-76"><g class="cls-5"><path class="cls-39" d="M1120.59,429.4l-4.07-1.91a19.69,19.69,0,0,0,8.13-5.12l4.07,1.92a19.64,19.64,0,0,1-8.13,5.11Z"/><path class="cls-41" d="M1128.72,424.29l-4.07-1.92a9.25,9.25,0,0,0,2.72-5.27,3.67,3.67,0,0,0-2.24-3.82l4.06,1.91a3.72,3.72,0,0,1,2.25,3.83,9.25,9.25,0,0,1-2.72,5.27Z"/></g></g></g><g class="cls-5"><g class="cls-77"><g class="cls-5"><path class="cls-41" d="M1113.06,429.53l-4.07-1.91a6.65,6.65,0,0,0,1.19.41l4.07,1.91a5.38,5.38,0,0,1-1.19-.41Z"/><path class="cls-39" d="M1114.25,429.94l-4.07-1.91a12.22,12.22,0,0,0,6.34-.54l4.07,1.91a12.12,12.12,0,0,1-6.34.54Z"/></g></g></g><g class="cls-5"><g class="cls-78"><g class="cls-5"><path class="cls-44" d="M1121.65,415.33l-4.07-1.92a12.16,12.16,0,0,1,6.35-.54l4.07,1.91a12.18,12.18,0,0,0-6.35.55Z"/><path class="cls-45" d="M1128,414.78l-4.07-1.91a6.27,6.27,0,0,1,1.2.41l4.06,1.91a6.65,6.65,0,0,0-1.19-.41Z"/></g></g></g><g class="cls-5"><g class="cls-79"><g class="cls-5"><path class="cls-45" d="M1113.06,429.53l-4.07-1.91a3.72,3.72,0,0,1-2.25-3.83,9.25,9.25,0,0,1,2.72-5.27l4.07,1.92a9.17,9.17,0,0,0-2.72,5.26,3.68,3.68,0,0,0,2.25,3.83Z"/><path class="cls-44" d="M1113.53,420.44l-4.07-1.92a19.7,19.7,0,0,1,8.12-5.11l4.07,1.92a19.54,19.54,0,0,0-8.12,5.11Z"/></g></g></g><path class="cls-47" d="M1121.65,415.33c5.7-1.85,10.08-.19,9.79,3.69s-5.15,8.54-10.85,10.38-10.08.19-9.78-3.7S1116,417.17,1121.65,415.33Z"/><g class="cls-5"><g class="cls-80"><g class="cls-5"><path class="cls-39" d="M1122.11,409.2l-4.06-1.91a18.22,18.22,0,0,1,9.63-.77l4.06,1.92a18.32,18.32,0,0,0-9.63.76Z"/><path class="cls-41" d="M1131.74,408.44l-4.06-1.92a10.52,10.52,0,0,1,2,.71l4.06,1.91a10.51,10.51,0,0,0-2-.7Z"/></g></g></g><path class="cls-49" d="M1122.11,409.2c9.39-3,16.55.39,16,7.66s-8.6,15.63-18,18.67-16.54-.4-16-7.67S1112.73,412.24,1122.11,409.2Z"/><path class="cls-49" d="M1120.59,429.4c5.7-1.84,10.55-6.5,10.85-10.38s-4.09-5.54-9.79-3.69-10.55,6.49-10.84,10.37,4.08,5.55,9.78,3.7Z"/><g class="cls-5"><g class="cls-81"><g class="cls-5"><path class="cls-41" d="M1108.46,435.58l-4.06-1.91a7.41,7.41,0,0,1-4.33-7.72c.26-3.5,2.26-7.25,5.31-10.53l4.07,1.91c-3,3.29-5,7-5.32,10.53a7.41,7.41,0,0,0,4.33,7.72Z"/><path class="cls-39" d="M1109.45,417.33l-4.07-1.91a30.45,30.45,0,0,1,12.67-8.13l4.06,1.91a30.61,30.61,0,0,0-12.66,8.13Z"/></g></g></g></g><path class="cls-14" d="M946.83,609.14c-1.27,15.93-44.39,26.33-96.32,23.22s-93-18.55-91.73-34.48,44.39-26.33,96.33-23.22S948.1,593.2,946.83,609.14Z"/><polygon class="cls-82" points="891.43 395.62 948.73 433.46 972.91 362.56 915.61 324.72 891.43 395.62"/><polygon class="cls-83" points="898.25 396.03 944.57 426.62 966.58 362.1 920.25 331.51 898.25 396.03"/><polygon class="cls-84" points="901.86 392.59 944.47 420.71 964.42 362.22 921.81 334.09 901.86 392.59"/><polygon class="cls-85" points="910.55 337.91 936.45 367.12 946.78 357.42 920.88 328.19 910.55 337.91"/><path class="cls-86" d="M929.59,337.05c-.85,2.52.74,6.07,3.56,7.93l17.4,11.49c2.81,1.87,5.81,1.34,6.65-1.18h0c.86-2.52-.73-6.07-3.55-7.93l-17.4-11.49c-2.82-1.86-5.8-1.34-6.66,1.18Z"/><path class="cls-86" d="M939.72,337.69a3.13,3.13,0,0,0,1.47,3.3L948,345.5c1.17.78,2.42.56,2.78-.49h0a3.17,3.17,0,0,0-1.48-3.31l-6.83-4.51c-1.18-.77-2.42-.55-2.77.5Z"/><path class="cls-87" d="M798,473.07c-2.08,3.77,6.36,1,0,0Z"/><path class="cls-87" d="M785.73,413.74a5.27,5.27,0,0,1,1.18-.51c0-.1.09-.2.13-.32Z"/><path class="cls-86" d="M799.38,569.93c-9,.62-29,5.38-31.37,11.14l-3.85,1c-1.16,6.24,2.21,12.06,11.21,13.69,12.84,2.32,19.41-.07,25.32-5.91,4.65-4.64,8.67-4.86,12-10.06C817.59,572.27,810.41,569.17,799.38,569.93Z"/><path class="cls-88" d="M825.89,467.54c-6.52,0-11.95.68-17,3.46-2.87,1.58-8.64,4.72-8.4,7.51l-2.71-.48c2.61.94-2.82,14.82-3.7,17.74a63,63,0,0,0-2.26,16.75c-.2,6.45-1.14,14.26,3.63,19.84,7.46,8.71,19.9,3.36,28.6-2.79a47.78,47.78,0,0,0,7.81-6.39c5.74-6.69,10.84-14.34,15.88-21.34,3.75-5.22,9.52-14.83,7.73-20.95C853,472.25,837.17,467.58,825.89,467.54Z"/><path class="cls-88" d="M799.89,506.34l-2.2,1c1.71-.12,2.31,7.16.82,8.88-1.25,1.46-5.65,2.86-7.64,4a48.62,48.62,0,0,0-19.42,21.08c-5.72,11.62-11.3,26-10.33,39.29,3.72,3.74,6.88,7.78,12.8,10.13,8,3.17,27.16,1.74,31.13-3.82a13.72,13.72,0,0,0,1.14-2.2c4.54-19.77,10.84-35.13,17.49-54.42,2.64-7.64,6.6-14.2-1.4-21.36C818,505.06,803.67,498.53,799.89,506.34Z"/><path class="cls-89" d="M833.9,485.38c-1.65,2.91-5.77,15.2-7.47,18.15a45.51,45.51,0,0,1-6.75,8.2c-2.16,2.28-5.25,4.87-6.22,7.57s-.14,5.7,0,8.47a23.16,23.16,0,0,1-1.36,9.23,55.79,55.79,0,0,1-10.45,17.42,53.06,53.06,0,0,1-37.19,17.9,6.45,6.45,0,0,1-3.25-.58,46.07,46.07,0,0,0-.07,8.86c3.71,3.74,6.7,7.84,12.6,10.18,8,3.16,27.37,1.68,31.33-3.87a11.64,11.64,0,0,0,1-2.15c4.54-19.75,10.84-35.12,17.49-54.41.72-2.13,4-.37,14.24-14.45.91-1.26,4-6.9,5-8.16-3.22-3.3-4.21-14.93-5.72-18.23C836.15,487.69,836.13,486.83,833.9,485.38Z"/><path class="cls-87" d="M906.92,617.1c-7-.06-13.24,1.81-19.79,3.29-8.33,1.89-17.76,1.45-26.42,1.71-5,.16-10.52,1.1-15.36.92-3.79-.14-6.55-3.19-10.11-4l-.47.27a7.37,7.37,0,0,0,1.33,6.37c1.57,1.72,3.68,2.61,6.53,3.23,2.63.57,6,1.28,8.77.81,3.76-.66,5.24-2,6.25-4.21-.13-.41-.61.44.59,1s1.54,1.17,3.59,1.62a47.83,47.83,0,0,0,8.39,1,89,89,0,0,0,19.28-1,90.1,90.1,0,0,0,18.69-5C914.28,620.78,915.43,617.18,906.92,617.1Z"/><path class="cls-87" d="M766.28,591l0,.38c.7,9.89,31.36,10.83,31.69.74a59.67,59.67,0,0,1-16.39,1.07C779.24,593.06,766.94,591.45,766.28,591Z"/><path class="cls-86" d="M903.27,615.29c-7.13-1.43-14.62-3.38-22.09-4.57a91.25,91.25,0,0,0-29,.37c-4.33.73-15.63,1.85-17.19,5.11a1.84,1.84,0,0,0,.47,0l.6-.18a1.44,1.44,0,0,1-.6.18l-.87.27c-.09,4.41,1.08,8.68,8.68,10.31,2.92.62,7.61,1.43,10.67,1.07s2.56-1,4.09-2.78c5.34,3.86,20.22,3,26.87,2.44,8.91-.79,13.31-3.17,21.39-5.85,1.69-.56,6-2.13,5.3-3.84C911,616.29,905.12,615.66,903.27,615.29Z"/><path class="cls-86" d="M835.46,616.19a1.44,1.44,0,0,0,.6-.18Z"/><path class="cls-88" d="M879.17,566.36c2.6-19,1.56-38.07,5.62-56.79.91-4.11,4.29-8.81,3.66-12.91-.84-5.49-8.14-4.34-17-4.67-8.24-.3-16.4-.58-24.43-.46-3.55.06-8.3-.32-11.48.47-3,.73-6.11,2.48-6.55,2.46l-.81-.48c5.69,4.16,3.87,13.1,6.15,18.29,2.53,5.73,9.27,12.32,9,18.2-.06,1.63-2,3.57-1.8,4.86.34,2.21,3,3.46,3.12,5.51.15,3.42-5.49,6.11-7.83,9.14-7.48,9.68-9.7,22-9.77,32.75,0,4.92,1.14,32.93,1.14,32.93s17.18,8.51,34.49,6.21c9.44-1.26,24.89-4.2,22.27-9C878.51,600.91,877.36,579.59,879.17,566.36Z"/><path class="cls-90" d="M881.18,342.49c-2.23,0-2-1.6-3.77-2.22-5.3-1.84-6.53,2.56-6.26,5,.3,2.73-3.46,4.78-4.77,7.3s-5.09,13.27,4.64,11.58c4-.7,4.52-3.41,6.57-5.55,2.45-2.6,5.66-5,7.18-8,1.23-2.43-.68-4.93,1.74-7a7.72,7.72,0,0,0,2.89-3.76,26.79,26.79,0,0,0,.41-3.8,20.25,20.25,0,0,1-3.81,4.14C884.89,340.89,882.9,342.5,881.18,342.49Z"/><path class="cls-90" d="M890.26,333.94l0,.79a3.39,3.39,0,0,0-.43,1.29C890.48,335,890.81,334.17,890.26,333.94Z"/><path class="cls-91" d="M865.54,314.18l1.81.38c-20-3.71-30.72,9.21-31.85,20.92-.68,7,2.48,23.13-8.89,26.54-.58,3.66,16.86,7.83,21.27,8.76,7.65,1.63,15.49,5.61,17.29-.54,1.53-5.12,1.07-12.35,4.94-17,2.09-2.52,2.21-2.74,1.65-5.79-.43-2.29-1.31-5.14,2.55-6.38a9.57,9.57,0,0,1,4.34-.17,8.82,8.82,0,0,1,1,3.68c9.85-.42,11.33-12.71,10-17.65C887.18,318.2,876.21,315.37,865.54,314.18Z"/><path class="cls-91" d="M873.41,374.46c-1.82-1.15-4-2.13-5.25-3.64-2.6-3.09-2.14-6.46-1.57-9.72l-.46.3a36.23,36.23,0,0,1-9.83,1.51,34.15,34.15,0,0,0-9.7,1.38c-3.12,1.11-9,2.74-8.33,5.77.53,2.69,5.1,4.06,8.22,4.94,4.18,1.19,8.43,2.3,12.73,3.17,4.63.94,15.6,2.9,19.1-.12A58,58,0,0,0,873.41,374.46Z"/><path class="cls-86" d="M889.14,322.51a13.25,13.25,0,0,0-5-4.21c-9.43-5.3-23.45-6.3-34-3.13-5.42,1.63-8.95,3.38-11.79,7-3.27,4.2-6,9.27-6.09,14.12,0,4.42,3,7.77,6.22,11.45,2.52,2.92,2.73,6.12,2,9.37,1.78-1.62,2.15-3.8,4.19-5.38,1.72-1.31,4.37-3.09,6.91-3.56,2.13-.38,4.49.23,6.52.63a44,44,0,0,0,8.76.77c5.88-.17,3.4-4.34,5.29-7a6.51,6.51,0,0,1,4.15-2.59c3,.43,3.09,2.84,3.2,5.18,5.34-.76,10.73-5.17,10.88-8.88,0,.8-.08,1.62,0,2.42,3.14-.56,4.08-5.61,4.26-7.44a8.85,8.85,0,0,0-3.1-7.18A9.71,9.71,0,0,0,889.14,322.51Z"/><path class="cls-86" d="M828.71,357.12l-.47.14a3.13,3.13,0,0,0-.65.75Z"/><path class="cls-92" d="M877,376.35c-1.27-.76-2.47-1.76-3.74-2.52-1.91-1.12-3-.78-5.75-.72a103.57,103.57,0,0,1-16.06-.81c-9.59-1.3-16.31-4.75-18.8-11.49-.34-.94-2.44-5.1-4.37-3.55l.47-.14-1.12.89a3.13,3.13,0,0,1,.65-.75c-2,.58-6,1.07-6.9,2.19-1.85,2.13.55,7.57,1.8,9.61,6.1,9.85,19.9,16.62,35.4,17.08,7.43.21,25.27,1.78,28-3.06C887.43,381.4,879.83,378.08,877,376.35Z"/><path class="cls-93" d="M880.53,552.56l-1.36,13.8C879.79,561.76,880.21,557.16,880.53,552.56Z"/><path class="cls-93" d="M880.53,552.56l4.26-43C881.72,523.77,881.56,538.15,880.53,552.56Z"/><path class="cls-87" d="M890.53,384.72l.54.11.16,0C891,384.8,890.78,384.75,890.53,384.72Z"/><path class="cls-87" d="M891.23,384.85c1.25.22,2.41.49,3.59.78A29.09,29.09,0,0,0,891.23,384.85Z"/><path class="cls-87" d="M891.23,384.85l-.16,0,3.75.8C893.64,385.34,892.48,385.07,891.23,384.85Z"/><path class="cls-91" d="M811.52,370.79c-.77-5.68-.39-9.1,5.71-12.67l-1.08-.36c-10.82-1.52-16.13,7.57-17.77,12a311.74,311.74,0,0,0-10.24,30.73,61.1,61.1,0,0,0-2,13.74c-.08,2.64-1.43,6.55.41,9,4.88,6.56,19.51,1.26,26.06-.9,7.72-2.58,11.81-4.43,12.82-9.89,1.32-7.14,0-13.92-4.27-20.73C817.06,385.16,812.45,377.7,811.52,370.79Z"/><path class="cls-92" d="M807.49,449.74c3-2.77,5.88-29.64,5.2-31.56-1.3-3.69-11.83-47.67-9.22-56.31,6.5-9.3,20.12-5.79,31.38-.85.95,5.28,6.26,10.19,16.27,10.79a26.33,26.33,0,0,0,7.13-.49c4.63,1.83,9.41,3.54,14.54,5.05,4.91,1.44,11.36,3.74,18,6.32,5,3.44,9.41,6.91,11.43,12.07,3,7.72,1.91,16.64-.14,24.29-2.23,8.39-5.8,50-4,56.73.78,2.87,4.32,16.75,5,19.64-24.56,15.34-81.86,2.13-111.72-9.65-1.49-.58,0-.28-1.49-.58C794.35,477.68,793.17,462.8,807.49,449.74Z"/><path class="cls-94" d="M969.27,400a9.22,9.22,0,0,1-1.11,1.77A7,7,0,0,0,969,398c-.15-1-.34-2-.59-2.92a9.82,9.82,0,0,1-.31-2.28,4.52,4.52,0,0,0-1.56-2.12c-8.62-4.57-1.58,3.63-4.88,5.89-3.75,2.57-6.74,9.76-12.59,8.9-.42-2.53.66-5.16.54-7.75-5.11-.63-8,11.1-9.23,13.63l-.13,1.71c.3,3,9.35,5.72,13.47,6.11,5.06.48,8.14-1.9,11.65-4.23.8-.54,2.08-1.42,3.53-2.5A67.47,67.47,0,0,0,969.27,400Z"/><path class="cls-95" d="M868.1,369.91c-.8,1.77-9.06,1.08-11.41.92a56.79,56.79,0,0,1-12.8-2.59c-7-2.21-10.64-7.64-10.5-12.62h-.27c-6.65-.2-3.18,6.78-1.62,8.73,2.94,3.67,9.38,6.9,15.19,8.29a75.58,75.58,0,0,0,16.09,1.94c2.8,0,8-.18,10.1-1.45C870.13,373.17,869.52,370.74,868.1,369.91Z"/><path class="cls-92" d="M812.21,356.25c-6.28-1-11.17,4.19-14.54,7.05-1.75,1.49-4.82,3.45-5.74,5.29-1.09,2.24.25,2,1.39,4.07,1.82,3.26.33,5.65,3.93,8.47a89,89,0,0,0,10.13,6.19c1-5.21-.82-11.06-.39-16.55.31-3.85,1.57-12.37,7-14.11Z"/><path class="cls-88" d="M888.86,498.07c-1,13-2,25.75.39,38.78.74,3.92,3,8.22,2.32,12.14-.6,3.35-4.52,5.47-6.2,8.55s-.07,5.84-.6,8.92c-.61,3.53-2.8,6.42-2.62,10.23.35,7.65,6.87,14.86,6.77,22.61-.07,4.47.15,11-3.87,14.57-4.21,3.75-10.37,1.11-13.91-2.07C860.06,601.9,856.93,590,856.32,578c-.67-13.28,1.26-26.51,4.61-39.49,1.8-6.95,4-15.7,8.84-21.94,5.07-6.54,12.44-11.29,19.39-16.67Z"/><path class="cls-94" d="M940.35,412.23c-.39,3,.39,4.25-2.46,6.63-2.62,2.2-6,4.15-8.84,6.23-7,5.18-14,13.51-11.25,21.18,1.88,5.14,11.2,7.41,17.14,4.39s10-8.51,13.63-12.72c4.86-5.67,3.63-10.23,9.8-20.58a174.3,174.3,0,0,1-17.17-4.46Z"/><path class="cls-91" d="M913.34,400.07c-4.76-5.23-9.75-12.25-18.52-14.44l-3.75-.8c-14-2.06-20.72,9.23-20.57,13.66.28,9,10.89,20.49,17.64,28.18s15,16.39,23.84,22.76c6.73,4.85,14.87,4.84,22.46,1,12-6.1-3.3-22.58-7.52-30.43A96.51,96.51,0,0,0,913.34,400.07Z"/><path class="cls-92" d="M888.63,382.06c7.58-2.17,25.13,13.29,29.14,17.39-5.3-.13-7.8-.26-10.81,3-1.51,1.65-2.15,3.52-4.54,4.74s-5.3,1.26-7.86,2.22c-6.83,2.56-13.9,10.25-10,15.84-12.63-7.76-21.58-18.25-19.09-30,2-9.41,13-13.73,25.85-13Z"/><path class="cls-3" d="M419.19,784.54c32.29-63.65-2.76-104.32-35.61-107.68-46.53-4.76-57.91,23.35-80.95-61.79-7.82-28.91-25.26-55.08-49.43-64.6a52.62,52.62,0,0,0-52.58,8c-8.49,6.84-15.33,16.31-23.23,24.14s-17.63,14.2-27.74,13c-9.74-1.14-18.08-9.09-24.59-18-15.66-21.55-23.66-50.42-40.95-70.3-14.57-16.75-36.29-28.79-56.47-27.16-26.42,2.13-48.09,25.65-65.53,48-20.46,26.25-36.39,57.6-47.61,91.15-14.38,43-21.15,89.45-22.32,135.88-1.05,41.34,2.37,83.24,13.69,122.19C-76.24,939-28.9,1013.28,31.46,988.79c72.66-29.47,47.45-123.7,101.44-73.08C165.2,946,232.4,969.29,259.71,870S372.68,876.22,419.19,784.54Z"/><g class="cls-96"><path class="cls-97" d="M403.47,702.58c12,68.06-29,90.2-58.58,80.55-41.92-13.68-44.71-42.63-86.55,23-14.21,22.28-36.13,38.49-59.7,37.55-16.95-.68-33.73-10.57-43.95-27.17-5.69-9.24-9.25-20.15-14.18-30s-11.8-19.18-20.95-22c-8.81-2.73-18.13,1-26.11,6.36-19.18,12.85-33.53,35-53.72,45.8-17,9.07-39.08,11.28-56.32,2.12-22.57-12-35.54-40.88-45.09-67.15-11.21-30.81-17.16-64.35-18.43-98-1.63-43.1,4.28-86.36,15.08-127.42,9.62-36.56,23.28-71.91,43.1-101.65,31.35-47,91.67-93.84,138.23-49.28,56.06,53.64,10,126.41,70.13,102.82,36-14.11,100.7-8.72,99.3,88.57S386.13,604.55,403.47,702.58Z"/><path class="cls-98" d="M435,688.38c-7.55,70.61-53.26,74.56-79,52.75-36.5-30.9-31-60-89.77-14.48-19.95,15.45-45.6,21.77-68,10.89-16.13-7.83-29.5-24.45-34.66-44.76-2.88-11.29-3.25-23.31-5.21-34.89s-6-23.46-14-30.07c-7.71-6.37-17.74-6.69-26.92-4.93-22.07,4.25-42.13,19.53-64.58,21.34-18.93,1.53-40.79-5.68-54.81-21.8-18.35-21.09-22.71-54.38-24.52-83.71A337.61,337.61,0,0,1-16.66,436.6c10.55-42.17,28.4-81.31,50.34-116.26C53.22,289.22,76.3,261,103.74,240.75c43.4-32,114.62-51.53,146.91,11.06,38.87,75.35-25.91,125.9,38.58,128.64,38.6,1.64,99.38,34.22,70.68,127.28S445.89,586.7,435,688.38Z"/></g><path class="cls-4" d="M434.89-49.45c-72,30.57-19.21,55.93,38.28,61.15C554.61,19.11,581.3,5.3,602.5,53.12c7.19,16.24,32.08,32,72.76,39.62,29.26,5.47,65.21,6.18,95.13,1.22,16.64-2.76,31-7.1,46.79-10.45s34.56-5.73,52.23-4a96.56,96.56,0,0,1,39.45,12.2c22.8,13.13,30.32,29.36,56.39,41.77,22,10.45,57.73,19.15,93.91,20.39,47.36,1.62,91.24-8.65,127.36-18.77,42.35-11.86,77.85-26.92,105.51-43.63,35.44-21.42,58.2-45.49,71-70.13,11.4-21.94,15-44.64,3.94-66.6-17.51-34.73-84.33-79.28-197-72.53-135.71,8.12-112.78,61-196.84,28.37-50.31-19.54-164.15-39-235.52,11.09S538.58-93.48,434.89-49.45Z"/><g class="cls-99"><path class="cls-4" d="M443.84-4.09c-5.62-37.56,72.27-45.08,122.53-36.84,71.2,11.68,69.46,27.42,158.86-3.22,30.36-10.4,73-16.75,114.58-13.79,29.92,2.14,57.4,9.17,71.69,19.09,8,5.52,11.76,11.71,18.21,17.5S946.22-9.89,961.79-7.42c15,2.39,32.4,1.36,47.79-.66,37-4.84,67.59-15.18,105.89-18.8,32.28-3.06,71.93-1.93,100.4,4.76,37.26,8.75,53.6,25.52,64.48,40.52,12.76,17.61,15.56,36.11,10,54.19-7.07,23.16-27.55,45.61-56.2,66.38-25.51,18.49-57.92,35.91-100,49.7-66.48,21.81-184.31,40.46-256.62,11.83C790.58,166,889.09,132,777,138.33c-67.08,3.77-180.65-5.87-155.69-57.62S451.94,50,443.84-4.09Z"/><path class="cls-4" d="M384.6.18C414.32-36.69,496.31-34,537-19.69,594.59.61,578.2,15.53,692.91-2.58c38.94-6.15,85.91-6.84,123.17,1.31,26.8,5.86,46.68,16.12,51.15,27.49,2.49,6.33.37,12.77,1.17,19.16s5.16,13.13,17.84,17.49c12.2,4.2,29.92,5.43,46.61,5.45,40.15,0,79.25-6,119.51-4.63,33.93,1.16,71,7.29,92.18,17.35,27.68,13.17,27.73,31.38,24.16,47.21-4.18,18.57-18.79,36.74-41,53.43-28.47,21.39-69.17,40.4-116.18,56.74a782.47,782.47,0,0,1-142.68,35.12c-84.39,12.53-215.25,15.5-258.06-21.26-51.55-44.25,75.06-64.43-38.72-72.64-68.09-4.91-168.39-28.64-96-75.26S341.8,53.27,384.6.18Z"/></g><text class="cls-100" transform="translate(138 304)"><tspan class="cls-101">F</tspan><tspan class="cls-102" x="11.8" y="0">r</tspan><tspan class="cls-103" x="18.75" y="0">o</tspan><tspan class="cls-104" x="29.11" y="0">m the m</tspan><tspan class="cls-105" x="100.59" y="0">o</tspan><tspan x="110.94" y="0">ment </tspan><tspan class="cls-106" x="160.02" y="0">y</tspan><tspan x="168.92" y="0">ou ar</tspan><tspan class="cls-107" x="211.47" y="0">r</tspan><tspan x="218.84" y="0">i</tspan><tspan class="cls-108" x="224.44" y="0">v</tspan><tspan x="233.41" y="0">e</tspan><tspan x="0" y="25.2">at Divine Hospital</tspan><tspan class="cls-109" x="157.12" y="25.2">,</tspan><tspan x="160.98" y="25.2"> </tspan><tspan class="cls-110" x="166.32" y="25.2">w</tspan><tspan x="180.6" y="25.2">e&apos;</tspan><tspan class="cls-111" x="193.87" y="25.2">l</tspan><tspan x="199.35" y="25.2">l</tspan><tspan x="0" y="50.4">ensu</tspan><tspan class="cls-112" x="38.22" y="50.4">r</tspan><tspan x="45.17" y="50.4">e the standa</tspan><tspan class="cls-112" x="145.97" y="50.4">r</tspan><tspan x="152.92" y="50.4">d of </tspan><tspan class="cls-107" x="191.5" y="50.4">c</tspan><tspan x="200.34" y="50.4">a</tspan><tspan class="cls-112" x="209.3" y="50.4">r</tspan><tspan x="216.25" y="50.4">e </tspan><tspan class="cls-113" x="0" y="75.6">y</tspan><tspan class="cls-104" x="8.9" y="75.6">ou </tspan><tspan class="cls-102" x="35.32" y="75.6">r</tspan><tspan x="42.27" y="75.6">ecei</tspan><tspan class="cls-108" x="74.4" y="75.6">v</tspan><tspan x="83.37" y="75.6">e is e</tspan><tspan class="cls-105" x="125.01" y="75.6">x</tspan><tspan x="134.1" y="75.6">cepti</tspan><tspan class="cls-105" x="174.78" y="75.6">o</tspan><tspan x="185.13" y="75.6">nal</tspan><tspan class="cls-114" x="210.65" y="75.6">.</tspan></text><rect class="cls-2" x="704" y="25" width="578" height="53"/><text class="cls-115" transform="translate(755 61)">H<tspan class="cls-116" x="13.65" y="0">o</tspan><tspan class="cls-117" x="21.54" y="0" xml:space="preserve">me          About          Emer</tspan><tspan class="cls-118" x="199.85" y="0">g</tspan><tspan x="207.53" y="0">en</tspan><tspan class="cls-119" x="222.86" y="0">c</tspan><tspan x="229.68" y="0" xml:space="preserve">y             C</tspan><tspan class="cls-120" x="301.42" y="0">o</tspan><tspan x="309.31" y="0">nt</tspan><tspan class="cls-120" x="322.92" y="0">a</tspan><tspan class="cls-121" x="329.68" y="0" xml:space="preserve">ct            Help            </tspan><tspan class="cls-122" x="471.67" y="0">L</tspan><tspan x="482.67" y="0" xml:space="preserve">ogin   </tspan></text><path class="cls-123" d="M161.86,464h81c13.35,0,24.18-8.21,24.18-18.35h0c0-10.13-10.83-18.34-24.18-18.34h-81c-13.36,0-24.18,8.21-24.18,18.34h0C137.68,455.79,148.5,464,161.86,464Z"/><text class="cls-124" transform="translate(161 449)"><tspan class="cls-125">L</tspan><tspan x="10.99" y="0">ea</tspan><tspan class="cls-126" x="24.64" y="0">r</tspan><tspan class="cls-127" x="30.17" y="0">n Mo</tspan><tspan class="cls-128" x="66.41" y="0">r</tspan><tspan x="71.71" y="0">e</tspan></text></g><g id="Layer_2" data-name="Layer 2"><path class="cls-129" d="M463.71,375.45c-.62,0-1.26,0-1.89,0l-12.89-6.06L436,375.41c-.64,0-1.27,0-1.9,0-8.74.37-12.87,4.71-12.65,9h0v0c0,.46,5.21,31.2,5.21,31.2l-1.93,13.57h48.32l-1.94-13.57s5.19-30.74,5.22-31.2v0h0C476.58,380.16,472.46,375.82,463.71,375.45Z"/><polygon class="cls-130" points="440.72 420.46 446.92 382.62 448.93 380.31 450.94 382.62 457.13 420.46 448.95 428.36 440.72 420.46"/><path class="cls-131" d="M446.72,383.84l.2-1.22,2-2.31,2,2.31.22,1.37a9.3,9.3,0,0,0-2.52-.35A9.19,9.19,0,0,0,446.72,383.84Z"/><polygon class="cls-132" points="469.07 500.48 468.74 506.97 468.74 506.97 452.76 506.97 452.68 500.48 469.07 500.48"/><path class="cls-133" d="M457.91,519h-5.38l.24-12h16l5.39,3.53L484,513c3,.86,3.66,3,2.36,5l-.57,1H470.39c-4.79,0-11.68-3.4-11.68-3.4Z"/><polygon class="cls-132" points="428.78 500.48 429.12 506.97 429.12 506.97 445.09 506.97 445.17 500.48 428.78 500.48"/><path class="cls-133" d="M439.94,519h5.38l-.23-12h-16l-5.39,3.53-9.9,2.48c-3,.86-3.65,3-2.35,5l.56,1h15.42c4.8,0,11.69-3.4,11.69-3.4Z"/><polygon class="cls-133" points="449.04 449.71 450.39 505.65 470.92 505.65 473.2 430.58 447.21 430.58 449.04 449.71"/><polygon class="cls-133" points="448.81 449.71 447.46 505.65 426.93 505.65 424.65 430.58 450.64 430.58 448.81 449.71"/><rect class="cls-134" x="424.7" y="429.25" width="48.45" height="4.4" transform="translate(897.85 862.91) rotate(180)"/><path class="cls-135" d="M443,373.55h0V363h11.77v10.55h0v3.95a13.3,13.3,0,0,1-11.77,0Z"/><path class="cls-130" d="M448.76,382.54a6,6,0,0,0-1.88.3l-3.73-6.09h11.62L451,383A6,6,0,0,0,448.76,382.54Z"/><path class="cls-2" d="M443.17,372.34l.19-.18-.73.15.9-.27Z"/><path class="cls-2" d="M454.47,372.16l-.15-.12c.34.09.67.19,1,.29Z"/><path class="cls-136" d="M443,372s.82,3,5.9,4.79a8.59,8.59,0,0,0-4.2,5.65s-4.54-3.18-5.92-5.84S443,372,443,372Z"/><path class="cls-137" d="M439,372.86l-16.54,3.8s-3.46,11.93-3.21,30.09,0,56.75,0,56.75a85.71,85.71,0,0,0,23.81,2.2l-.45-47.95Z"/><path class="cls-6" d="M440.78,379.27l1.85,38.48s-10.57-15.2-9.89-24.74l7.22-4.4-7.76-2.2.94-7.71c.35-2.86,3-5.28,6.78-6.07L443,372A6.37,6.37,0,0,0,440.78,379.27Z"/><path class="cls-136" d="M454.83,372s-.82,3-5.89,4.79a8.59,8.59,0,0,1,4.2,5.65s4.53-3.18,5.91-5.84S454.83,372,454.83,372Z"/><path class="cls-137" d="M458.86,372.86l16.54,3.8s3.46,11.93,3.21,30.09,0,56.75,0,56.75a85.71,85.71,0,0,1-23.81,2.2l.45-47.95Z"/><path class="cls-6" d="M457.1,379.27l-1.85,38.48s10.57-15.2,9.89-24.74l-7.23-4.4,7.77-2.2-.94-7.71c-.36-2.86-3.05-5.28-6.78-6.07l-3.13-.66A6.36,6.36,0,0,1,457.1,379.27Z"/><path class="cls-137" d="M422.56,376.66s-16.95,19.52-19.28,22.15a12.88,12.88,0,0,1-4.57,3.5s-3,13.62,6.78,12.51c5.86-.67,21.26-14.43,23.77-19.25C433.62,387.24,422.56,376.66,422.56,376.66Z"/><path class="cls-135" d="M468.21,355.36h-1.79v-7.49h2.9a4.45,4.45,0,0,1,3.61,1.61,2.37,2.37,0,0,1,0,2.91l-1,1.37A4.6,4.6,0,0,1,468.21,355.36Z"/><path class="cls-135" d="M426,353.52l-1-1.37a2.36,2.36,0,0,1,0-2.91,4.46,4.46,0,0,1,3.61-1.6h2.91v7.49h-1.79A4.61,4.61,0,0,1,426,353.52Z"/><path class="cls-6" d="M447.38,376.28c-3.72,1.37-8.11-.51-13.42-5.74-5-5-8.1-8.86-9.32-11.88-1.06-2.63,1-4.15,2.27-4.63l.13,0,.82,1.38-.41-.69.42.69a2,2,0,0,0-1.27,2.85c1.15,2.85,4.09,6.58,9,11.41,4.56,4.49,8.22,6.28,10.89,5.3Z"/><path class="cls-138" d="M447.59,376.59c-5.88,2.16-12-3.86-14-5.84a.93.93,0,0,1,.29-1.54l.24-.11a1.84,1.84,0,0,1,1.84.33c4.4,4.34,7.87,6.08,10.31,5.19Z"/><path class="cls-138" d="M426.35,355.19h0a2.19,2.19,0,0,0,2.69.49l.43-.22a1.24,1.24,0,0,0,.63-1.85h0a2.22,2.22,0,0,0-2.7-.49l-.43.22A1.24,1.24,0,0,0,426.35,355.19Z"/><path class="cls-6" d="M450.47,376.28c3.73,1.37,8.12-.51,13.43-5.74,5.05-5,8.09-8.86,9.31-11.88,1.06-2.63-.95-4.15-2.27-4.63l-.12,0-.83,1.38.41-.69-.42.69a2,2,0,0,1,1.28,2.85c-1.15,2.85-4.09,6.58-9,11.41-4.56,4.49-8.23,6.28-10.89,5.3Z"/><path class="cls-138" d="M450.27,376.59c5.88,2.16,12-3.86,14-5.84a.93.93,0,0,0-.3-1.54l-.23-.11a1.83,1.83,0,0,0-1.84.33c-4.41,4.34-7.88,6.08-10.32,5.19Z"/><path class="cls-138" d="M471.51,355.19h0a2.21,2.21,0,0,1-2.7.49l-.43-.22a1.24,1.24,0,0,1-.62-1.85h0a2.22,2.22,0,0,1,2.7-.49l.42.22A1.24,1.24,0,0,1,471.51,355.19Z"/><path class="cls-139" d="M429.1,354.55V342c0-8.12,8.88-14.7,19.83-14.7s19.82,6.58,19.82,14.7v12.6c0,8.12-8.88,14.7-19.82,14.7S429.1,362.67,429.1,354.55Z"/><path class="cls-140" d="M438,349.35c0-1.25,1.36-2.27,3-2.27s3,1,3,2.27-1.36,2.27-3,2.27S438,350.6,438,349.35Z"/><path class="cls-140" d="M453.84,349.35c0-1.25,1.36-2.27,3-2.27s3,1,3,2.27-1.36,2.27-3,2.27S453.84,350.6,453.84,349.35Z"/><path class="cls-135" d="M446.51,357h0a2.14,2.14,0,0,1-1.23-2.17c0-.08.18-.2.43-.34a6.47,6.47,0,0,1,6.43,0c.25.14.42.26.44.34a2.14,2.14,0,0,1-1.23,2.17A6,6,0,0,1,446.51,357Z"/><path d="M455.59,349.73c0-.82.89-1.48,2-1.48s2,.66,2,1.48-.89,1.48-2,1.48S455.59,350.55,455.59,349.73Z"/><path class="cls-6" d="M456,350.45c0-.3.33-.55.73-.55s.74.25.74.55-.33.54-.74.54S456,350.75,456,350.45Z"/><path d="M438.24,349.73c0-.82.89-1.48,2-1.48s2,.66,2,1.48-.89,1.48-2,1.48S438.24,350.55,438.24,349.73Z"/><path class="cls-6" d="M438.62,350.45c0-.3.33-.55.73-.55s.74.25.74.55-.33.54-.74.54S438.62,350.75,438.62,350.45Z"/><path class="cls-141" d="M431.55,354.55V342c0-8.12,7.78-14.7,17.38-14.7-10.95,0-19.83,6.58-19.83,14.7v12.6c0,8.12,8.88,14.7,19.83,14.7C439.33,369.25,431.55,362.67,431.55,354.55Z"/><path class="cls-141" d="M448.93,327.25c9.59,0,17.37,6.58,17.37,14.7v12.6c0,8.12-7.78,14.7-17.37,14.7,10.94,0,19.82-6.58,19.82-14.7V342C468.75,333.83,459.87,327.25,448.93,327.25Z"/><path class="cls-142" d="M443.62,359.7a5.84,5.84,0,0,0,10.64,0Z"/><path class="cls-6" d="M453.64,360.75a5.66,5.66,0,0,0,.62-1.05H443.62a5.66,5.66,0,0,0,.62,1.05Z"/><path class="cls-143" d="M447,353.94a.62.62,0,0,0-.2,1.09l.06.05h0a4.36,4.36,0,0,0,4,0L451,355h0a.62.62,0,0,0-.21-1.09A6.51,6.51,0,0,0,447,353.94Z"/><path class="cls-144" d="M443.67,344.36c-.2.71-1.56.91-2.65.83a12.37,12.37,0,0,0-5.48,1.08s.12-1.75,2.54-2.85C440.81,342.16,444.05,343,443.67,344.36Z"/><path class="cls-144" d="M454.68,344.36c.21.71,1.56.91,2.65.83a12.35,12.35,0,0,1,5.48,1.08s-.12-1.75-2.54-2.85C457.54,342.16,454.3,343,454.68,344.36Z"/><path class="cls-144" d="M427.35,339.38v8.26a5.14,5.14,0,0,1,1.18-.13h.65a3.45,3.45,0,0,0,2.35-2.3l1.47-4.95c.35-1.51,2.12-2.6,4.17-2.6h23.51c2.06,0,3.82,1.09,4.18,2.6l1.47,4.95a3.2,3.2,0,0,0,1.79,2.06h1.2a5.69,5.69,0,0,1,1.18.13v-8c0-8-8.71-14.42-19.45-14.42H446.8C436.06,325,427.35,331.42,427.35,339.38Z"/><path class="cls-145" d="M627.53,430.71c-.38,1.68-2.57,2.77-5.57,2.77-3.17,0-4.91-.91-5.36-3.61l-.07-.48a1.94,1.94,0,0,1,1.15-2,12.5,12.5,0,0,1,5.14-1.1,11.84,11.84,0,0,1,3.54.55,2.23,2.23,0,0,1,1.48,2.73C627.73,429.91,627.63,430.31,627.53,430.71Z"/><path class="cls-133" d="M446.56,347.39c-7.73-2.71-13.37.36-13.37.36l-4.09-1.26h-1.75a.78.78,0,0,0,0,1.29l1.75.05,3.85,2.06c.56,2.48,2.76,3.65,6.38,3.65s6.17-1.1,6.69-2.79a11.81,11.81,0,0,1,.54-1.5,15.33,15.33,0,0,1,2.38-.16v-1.73C447.79,347.35,446.56,347.39,446.56,347.39Z"/><path class="cls-133" d="M444.57,350.49c-.36,1.18-2.42,1.94-5.24,1.94s-4.61-.64-5-2.53l-.06-.33a1.35,1.35,0,0,1,1.07-1.43,15.19,15.19,0,0,1,4.84-.77,14.77,14.77,0,0,1,3.32.39c1.08.25,1.69,1.1,1.39,1.9C444.76,349.93,444.66,350.21,444.57,350.49Z"/><path class="cls-145" d="M636.84,430.71c.39,1.68,2.57,2.77,5.58,2.77,3.17,0,4.91-.91,5.36-3.61l.06-.48a1.94,1.94,0,0,0-1.14-2,12.59,12.59,0,0,0-5.15-1.1,11.78,11.78,0,0,0-3.53.55,2.23,2.23,0,0,0-1.48,2.73C636.64,429.91,636.75,430.31,636.84,430.71Z"/><path class="cls-133" d="M451.33,347.39c7.73-2.71,13.37.36,13.37.36l4.08-1.26h1.75a.78.78,0,0,1,0,1.29l-1.75.05-3.85,2.06c-.56,2.48-2.76,3.65-6.38,3.65s-6.17-1.1-6.69-2.79a13.29,13.29,0,0,0-.53-1.5,15.56,15.56,0,0,0-2.39-.16v-1.73C450.1,347.35,451.33,347.39,451.33,347.39Z"/><path class="cls-133" d="M453.31,350.49c.36,1.18,2.42,1.94,5.24,1.94,3,0,4.61-.64,5-2.53l.06-.33a1.34,1.34,0,0,0-1.07-1.43,15.17,15.17,0,0,0-4.83-.77,14.64,14.64,0,0,0-3.32.39c-1.09.25-1.7,1.1-1.39,1.9C453.13,349.93,453.23,350.21,453.31,350.49Z"/><rect class="cls-6" x="420.5" y="440.48" width="18.27" height="2.44"/><rect class="cls-6" x="459.11" y="440.48" width="18.27" height="2.44"/><path class="cls-146" d="M488.93,442.36l.07,7.12c0,.59-.61,1.08-1.4,1.13h0a1.44,1.44,0,0,1-1.64-1.06l-.41-5.27Z"/><path class="cls-146" d="M471.37,442.24l-2.31,3.13a2.44,2.44,0,0,0,2.16,1.11,2.62,2.62,0,0,0,2-.8l2.82-3.69.21-4.4C474.36,438.54,472.57,440.78,471.37,442.24Z"/><path class="cls-146" d="M475.54,442l-.54,3.11,13.71-.18.22-2.31c.09-2.89-2.39-5.07-4.69-5.76l-5.82-.08-1.55.61-.73.32Z"/><path class="cls-146" d="M483.87,452.69a1.36,1.36,0,0,0,1.5-1.09l.33-7-3.44.36-.17,6.6c0,.63.68,1.15,1.54,1.15"/><path class="cls-146" d="M475.13,444.33,473.71,451c-.13.61.42,1.18,1.23,1.29l.29,0a1.55,1.55,0,0,0,1.76-.9l1.77-6.71.07-1.52Z"/><path class="cls-146" d="M482.49,443.81l-3.71.26-1,8c-.07.62.53,1.16,1.35,1.22l.46,0a1.48,1.48,0,0,0,1.68-1Z"/><path class="cls-146" d="M478.39,404.71l4.56-.24s2.1,8.7,1.86,12.45a84.08,84.08,0,0,0,1.44,21.31l-8.78-.89S478.71,410.51,478.39,404.71Z"/><path class="cls-137" d="M475.4,376.66s6,4.68,9.54,20.47,3.33,39.6,3.33,39.6H475l-1.95-32.34Z"/><ellipse class="cls-6" cx="346.99" cy="405.35" rx="5.01" ry="3.73"/><path class="cls-138" d="M344.28,405.35c0,1.12,1.21,2,2.71,2s2.7-.9,2.7-2-1.21-2-2.7-2S344.28,404.24,344.28,405.35Z"/><path class="cls-146" d="M357.35,394.52l-3.52-.56a1.61,1.61,0,0,0-1.77.79h0c-.23.61.25,1.24,1.06,1.4l6.86,1.36Z"/><path class="cls-146" d="M356.44,407.68l-4.34,1.52a1.59,1.59,0,0,1-.15-3.12l5.13-1.86,5.91.12C361.59,405.7,358.48,406.88,356.44,407.68Z"/><path class="cls-146" d="M357.37,404.42l-3.46-2.8,2.24-7.35,3.08.31c3.94.86,6.2,2.75,6.64,4.56l-1.05,4.25-1.12,1-.56.47Z"/><path class="cls-146" d="M350.19,396.22a1.56,1.56,0,0,1,1.73-.88l9.3,1.18-1.17,2.42-8.71-1.2c-.84-.12-1.38-.73-1.2-1.35"/><path class="cls-146" d="M351.49,401.34l-6.93,1.4a1.56,1.56,0,0,1-1.77-.87l-.06-.21c-.17-.6.34-1.2,1.14-1.34l9-1.52,3.49.53.34,2.62Z"/><path class="cls-146" d="M361.46,397.77l-1.09,2.65-10.75-.9c-.82-.07-1.41-.62-1.33-1.23l0-.34a1.47,1.47,0,0,1,1.66-1Z"/><path class="cls-146" d="M403.58,411.6l1.05-7.35a14.86,14.86,0,0,0-8.2-3.84c-15.28-1.77-32-3-32-3l-1.94,7.87S396,410.2,403.58,411.6Z"/><path class="cls-137" d="M406.48,399.55l-40.61-2.86a26.36,26.36,0,0,0-.47,10.67s28.14,6.38,37.75,6.47c7.07.07,17.46-11.07,17.46-11.07Z"/><path class="cls-138" d="M455.06,374l1.16-2.07h-5.29l1.18,2.19c.05.65.1,1.33.16,2,.73,8.91,1.74,21.12-7.79,27-6.29,3.88-16.68,4.46-30.88,1.75-23.87-4.56-41-4.59-51.16-3.81-11.14.85-16.56,2.8-16.79,2.89l1.31,2c.05,0,5.31-1.89,16-2.69,9.89-.74,26.57-.68,49.9,3.77a87.49,87.49,0,0,0,16.28,1.74c7.21,0,13-1.31,17.22-3.92,10.68-6.57,9.58-20,8.85-28.82C455.16,375.35,455.11,374.68,455.06,374Z"/></g></g></svg>