<svg id="Layer_1" data-name="Layer 1" xmlns="http://www.w3.org/2000/svg" xmlns:xlink="http://www.w3.org/1999/xlink" viewBox="0 0 1481.67 787.1"><defs><style>.cls-1{fill:url(#linear-gradient);}.cls-2{fill:#f3f3f3;}.cls-3{clip-path:url(#clip-path);}.cls-4{fill:url(#linear-gradient-3);}.cls-5{fill:url(#linear-gradient-4);}.cls-6{clip-path:url(#clip-path-2);}</style><linearGradient id="linear-gradient" y1="738.2" x2="540" y2="738.2" gradientUnits="userSpaceOnUse"><stop offset="0.26" stop-color="#d41c5c"/><stop offset="0.87" stop-color="#680b0f"/></linearGradient><clipPath id="clip-path"><path class="cls-1" d="M527.19,786c32.29-63.69-2.76-104.37-35.61-107.73-46.53-4.77-57.91,23.36-80.95-61.82-7.82-28.92-25.26-55.1-49.43-64.62a52.59,52.59,0,0,0-52.58,8c-8.49,6.85-15.33,16.32-23.23,24.15s-17.63,14.21-27.74,13c-9.74-1.14-18.08-9.09-24.59-18.06-15.66-21.55-23.66-50.43-40.95-70.32-14.57-16.76-36.29-28.81-56.47-27.18-26.42,2.13-48.09,25.67-65.53,48.06-20.46,26.26-36.39,57.63-47.61,91.19C8.12,663.69,1.35,710.18.18,756.63c-1,41.36,2.37,83.28,13.69,122.25C31.76,940.51,79.1,1014.8,139.46,990.31c72.66-29.49,47.45-123.76,101.44-73.12,32.3,30.31,99.5,53.61,126.81-45.69S480.68,877.68,527.19,786Z"/></clipPath><linearGradient id="linear-gradient-3" x1="347.58" y1="390.89" x2="265.61" y2="550.29" gradientTransform="translate(662.36 1129.22) rotate(166.06)" xlink:href="#linear-gradient"/><linearGradient id="linear-gradient-4" x1="301.67" y1="416.07" x2="202.68" y2="623.27" gradientTransform="translate(662.36 1129.22) rotate(166.06)" xlink:href="#linear-gradient"/><clipPath id="clip-path-2"><path class="cls-2" d="M542.89-48.39c-72,30.59-19.21,56,38.28,61.18C662.61,20.2,689.3,6.39,710.5,54.23c7.19,16.24,32.08,32,72.76,39.63,29.26,5.47,65.21,6.19,95.13,1.22,16.64-2.76,31-7.1,46.79-10.45s34.56-5.73,52.23-4a96.41,96.41,0,0,1,39.45,12.2c22.8,13.13,30.32,29.37,56.39,41.79,22,10.46,57.73,19.16,93.91,20.4,47.36,1.63,91.24-8.66,127.36-18.77,42.35-11.87,77.85-26.93,105.51-43.66,35.44-21.42,58.2-45.51,71-70.16,11.4-21.95,15-44.66,3.94-66.63-17.51-34.74-84.33-79.31-197-72.56-135.71,8.13-112.78,61-196.84,28.38-50.31-19.54-164.15-39-235.52,11.1S646.58-92.43,542.89-48.39Z"/></clipPath></defs><title>banner</title><path class="cls-1" d="M527.19,786c32.29-63.69-2.76-104.37-35.61-107.73-46.53-4.77-57.91,23.36-80.95-61.82-7.82-28.92-25.26-55.1-49.43-64.62a52.59,52.59,0,0,0-52.58,8c-8.49,6.85-15.33,16.32-23.23,24.15s-17.63,14.21-27.74,13c-9.74-1.14-18.08-9.09-24.59-18.06-15.66-21.55-23.66-50.43-40.95-70.32-14.57-16.76-36.29-28.81-56.47-27.18-26.42,2.13-48.09,25.67-65.53,48.06-20.46,26.26-36.39,57.63-47.61,91.19C8.12,663.69,1.35,710.18.18,756.63c-1,41.36,2.37,83.28,13.69,122.25C31.76,940.51,79.1,1014.8,139.46,990.31c72.66-29.49,47.45-123.76,101.44-73.12,32.3,30.31,99.5,53.61,126.81-45.69S480.68,877.68,527.19,786Z"/><g class="cls-3"><path class="cls-4" d="M511.47,704c12,68.1-29,90.25-58.58,80.59-41.92-13.68-44.71-42.65-86.55,23-14.21,22.3-36.13,38.52-59.7,37.57-16.95-.68-33.73-10.57-43.95-27.18-5.69-9.25-9.25-20.16-14.18-30s-11.8-19.19-20.95-22c-8.81-2.74-18.13,1-26.11,6.36-19.18,12.86-33.53,35-53.72,45.82-17,9.07-39.08,11.28-56.32,2.12-22.57-12-35.54-40.9-45.09-67.18-11.21-30.82-17.16-64.37-18.43-98C26.26,611.85,32.17,568.58,43,527.49c9.62-36.57,23.28-71.94,43.1-101.69,31.35-47.05,91.67-93.88,138.23-49.3,56.06,53.66,10,126.46,70.13,102.86,36-14.12,100.7-8.72,99.3,88.61S494.13,605.9,511.47,704Z"/><path class="cls-5" d="M543,689.77c-7.55,70.64-53.26,74.59-79,52.76-36.5-30.91-31-60-89.77-14.48-19.95,15.45-45.6,21.78-68,10.89-16.13-7.83-29.5-24.45-34.66-44.77-2.88-11.3-3.25-23.32-5.21-34.91s-6-23.47-14-30.09c-7.71-6.36-17.74-6.69-26.92-4.93-22.07,4.25-42.13,19.54-64.58,21.36-18.93,1.53-40.79-5.69-54.81-21.81C87.69,602.69,83.33,569.38,81.52,540a337.84,337.84,0,0,1,9.82-102.16c10.55-42.2,28.4-81.35,50.34-116.32,19.54-31.13,42.62-59.38,70.06-79.62,43.4-32,114.62-51.55,146.91,11.06,38.87,75.39-25.91,126,38.58,128.7,38.6,1.64,99.38,34.23,70.68,127.33S553.89,588,543,689.77Z"/></g><path class="cls-2" d="M542.89-48.39c-72,30.59-19.21,56,38.28,61.18C662.61,20.2,689.3,6.39,710.5,54.23c7.19,16.24,32.08,32,72.76,39.63,29.26,5.47,65.21,6.19,95.13,1.22,16.64-2.76,31-7.1,46.79-10.45s34.56-5.73,52.23-4a96.41,96.41,0,0,1,39.45,12.2c22.8,13.13,30.32,29.37,56.39,41.79,22,10.46,57.73,19.16,93.91,20.4,47.36,1.63,91.24-8.66,127.36-18.77,42.35-11.87,77.85-26.93,105.51-43.66,35.44-21.42,58.2-45.51,71-70.16,11.4-21.95,15-44.66,3.94-66.63-17.51-34.74-84.33-79.31-197-72.56-135.71,8.13-112.78,61-196.84,28.38-50.31-19.54-164.15-39-235.52,11.1S646.58-92.43,542.89-48.39Z"/><g class="cls-6"><path class="cls-2" d="M551.84-3c-5.62-37.58,72.27-45.09,122.53-36.85,71.2,11.68,69.46,27.42,158.86-3.23,30.36-10.4,73-16.76,114.58-13.79,29.92,2.14,57.4,9.17,71.69,19.1,8,5.52,11.76,11.72,18.21,17.5s16.51,11.47,32.08,14c15,2.38,32.4,1.35,47.79-.67,37-4.84,67.59-15.18,105.89-18.81,32.28-3.06,71.93-1.93,100.4,4.76,37.26,8.76,53.6,25.53,64.48,40.55,12.76,17.61,15.56,36.12,10,54.21-7.07,23.17-27.55,45.63-56.2,66.41-25.51,18.5-57.92,35.92-100,49.72-66.48,21.81-184.31,40.48-256.62,11.83-87-34.48,11.47-68.49-100.64-62.19-67.08,3.76-180.65-5.88-155.69-57.65S559.94,51.11,551.84-3Z"/><path class="cls-2" d="M492.6,1.26C522.32-35.62,604.31-32.94,645-18.61,702.59,1.69,686.2,16.62,800.91-1.5c38.94-6.15,85.91-6.84,123.17,1.31,26.8,5.86,46.68,16.13,51.15,27.51,2.49,6.32.37,12.77,1.17,19.16s5.16,13.14,17.84,17.5c12.2,4.21,29.92,5.43,46.61,5.45,40.15,0,79.25-6,119.51-4.63,33.93,1.16,71,7.3,92.18,17.36,27.68,13.17,27.73,31.39,24.16,47.23-4.18,18.57-18.79,36.75-41,53.46-28.47,21.4-69.17,40.41-116.18,56.76a783.24,783.24,0,0,1-142.68,35.14c-84.39,12.53-215.25,15.5-258.06-21.27-51.55-44.27,75.06-64.47-38.72-72.67-68.09-4.92-168.39-28.66-96-75.3S449.8,54.38,492.6,1.26Z"/></g></svg>