<svg xmlns="http://www.w3.org/2000/svg" xmlns:xlink="http://www.w3.org/1999/xlink" viewBox="0 0 838.85 700.06"><defs><style>.cls-1{fill:url(#linear-gradient);}.cls-2{fill:none;}.cls-3{isolation:isolate;}.cls-4{fill:#f3f3f3;}.cls-5{clip-path:url(#clip-path);}.cls-6{fill:url(#linear-gradient-3);}.cls-7{fill:url(#linear-gradient-4);}.cls-8{fill:#0b75af;opacity:0.2;}.cls-22,.cls-53,.cls-60,.cls-62,.cls-8,.cls-84{mix-blend-mode:multiply;}.cls-9{fill:#070707;}.cls-10{fill:#384a4a;}.cls-11{fill:#3a62ae;}.cls-12{fill:#144a96;}.cls-13{fill:#3561ad;}.cls-14{fill:#2385c7;}.cls-15{fill:#5f3c15;}.cls-16{fill:#050605;}.cls-17{fill:#3d2712;}.cls-18{fill:#3960ac;}.cls-19{fill:#ccbca8;}.cls-20,.cls-22{fill:#729cbf;}.cls-21{fill:#cde7f8;}.cls-23{fill:#e4f5fd;}.cls-24{fill:#3055a3;}.cls-25{fill:#f5c699;}.cls-26{fill:#9d5a3c;}.cls-27{fill:#e8b387;}.cls-28{fill:#fff;}.cls-29{fill:#40c5e8;}.cls-30{fill:#51afaa;}.cls-31{fill:#1a325d;}.cls-32{fill:#3e76a6;}.cls-33{clip-path:url(#clip-path-2);}.cls-34{fill:#0a0e14;}.cls-35{clip-path:url(#clip-path-3);}.cls-36{fill:#090c11;}.cls-37{clip-path:url(#clip-path-4);}.cls-38{clip-path:url(#clip-path-5);}.cls-39{fill:#b3b3b3;}.cls-40{fill:#908f8f;}.cls-41{clip-path:url(#clip-path-6);}.cls-42{fill:#a7a6a6;}.cls-43{clip-path:url(#clip-path-7);}.cls-44{fill:#5e6778;}.cls-45{clip-path:url(#clip-path-8);}.cls-46{fill:#d7d6d6;}.cls-47{fill:#7a7f7c;}.cls-48{fill:#f8faf7;}.cls-49{fill:#4d5055;}.cls-50{fill:#979b97;}.cls-51{fill:#dbdddb;}.cls-52,.cls-53{fill:#e2f4fd;}.cls-54,.cls-62{fill:#f7d5a4;}.cls-55{fill:#5790bb;}.cls-56{fill:#aa7a38;}.cls-57{fill:#fce0d4;}.cls-58{fill:#375fac;}.cls-59{fill:#3383c5;}.cls-60{fill:#e9d0d0;opacity:0.4;}.cls-61{fill:#6a2611;}.cls-62,.cls-84{opacity:0.7;}.cls-63{clip-path:url(#clip-path-9);}.cls-64{clip-path:url(#clip-path-10);}.cls-65{clip-path:url(#clip-path-11);}.cls-66{clip-path:url(#clip-path-12);}.cls-67{clip-path:url(#clip-path-13);}.cls-68{clip-path:url(#clip-path-14);}.cls-69{clip-path:url(#clip-path-15);}.cls-70{clip-path:url(#clip-path-16);}.cls-71{clip-path:url(#clip-path-17);}.cls-72{clip-path:url(#clip-path-18);}.cls-73{clip-path:url(#clip-path-19);}.cls-74{clip-path:url(#clip-path-20);}.cls-75{clip-path:url(#clip-path-21);}.cls-76{clip-path:url(#clip-path-22);}.cls-77{fill:#05a6a0;}.cls-78{fill:#085551;}.cls-79{fill:#fff5e9;}.cls-80{fill:#ffe67c;}.cls-81{fill:#0b0f18;}.cls-82{fill:#30312f;}.cls-83{fill:#076667;}.cls-84,.cls-88{fill:#5f5f5d;}.cls-85{fill:#d4a72a;}.cls-86{fill:#eac44d;}.cls-87{fill:#03979c;}.cls-89{fill:#ddb337;}</style><linearGradient id="linear-gradient" x1="59.51" y1="342.5" x2="791.56" y2="342.5" gradientTransform="translate(94.88 -147.41) rotate(12.99)" gradientUnits="userSpaceOnUse"><stop offset="0.26" stop-color="#d41c5c"/><stop offset="0.87" stop-color="#680b0f"/></linearGradient><clipPath id="clip-path"><path class="cls-1" d="M160.29,18.54c-77.43,33-63.14,91.68-27.67,116.78,50.25,35.55,81.15,19,53.41,107.92-9.41,30.18-6.08,64.5,15.55,89,15.56,17.64,40,28.9,65.3,28.63,14.07-.15,27.92-3.68,41.94-5.08s29.21-.31,40,7.54c10.43,7.57,14.92,20.05,16.69,32.16,4.23,29.14-5,59.4,2.2,88.2,6,24.28,23.25,49.33,47.39,61.57,31.61,16,71.37,10.42,105.57,2.94,40.1-8.78,78.27-25,112.44-46.31,43.77-27.28,81.07-62.72,111.92-101.9,27.46-34.89,50.18-73.27,62-114.46,18.66-65.14,11.66-161.08-73-180.79C632.12,81,601.08,179.2,571.45,99.12,553.72,51.2,491.57-14.28,397.23,52.73S271.81-29,160.29,18.54Z"/></clipPath><linearGradient id="linear-gradient-3" x1="480.39" y1="244.11" x2="389.71" y2="420.42" gradientTransform="translate(153.51 -236.44) rotate(19.29)" xlink:href="#linear-gradient"/><linearGradient id="linear-gradient-4" x1="407.42" y1="287.68" x2="300.56" y2="511.35" gradientTransform="translate(153.51 -236.44) rotate(19.29)" xlink:href="#linear-gradient"/><clipPath id="clip-path-2"><path class="cls-2" d="M157.58,280.48a19.9,19.9,0,0,0,7.45-4.42l2.3,1.08.27.12,1.5.71a20.08,20.08,0,0,1-7.45,4.43Z"/></clipPath><clipPath id="clip-path-3"><path class="cls-2" d="M168.43,270.1a3.7,3.7,0,0,0-2.25-3.83l4.07,1.92A3.69,3.69,0,0,1,172.5,272c-.15,1.95-1.44,4.08-3.4,6l-.24-.11-3.83-1.8C167,274.18,168.29,272,168.43,270.1Z"/></clipPath><clipPath id="clip-path-4"><path class="cls-2" d="M150.05,280.61c1.78.84,4.46.86,7.53-.13l4.07,1.92c-3.07,1-5.75,1-7.54.13Z"/></clipPath><clipPath id="clip-path-5"><path class="cls-2" d="M166.18,266.27l4.07,1.92c-1.78-.84-4.47-.87-7.54.13l-4.07-1.91C161.72,265.41,164.4,265.43,166.18,266.27Z"/></clipPath><clipPath id="clip-path-6"><path class="cls-2" d="M154.11,282.53l-4.06-1.92a3.68,3.68,0,0,1-2.25-3.83c.29-3.88,5.15-8.53,10.84-10.37l4.07,1.91c-5.7,1.84-10.55,6.49-10.84,10.38A3.7,3.7,0,0,0,154.11,282.53Z"/></clipPath><clipPath id="clip-path-7"><path class="cls-2" d="M170.78,260.22l.21.1,2,1,1.83.86c-2.9-1.37-7-1.45-11.68.06l-4.07-1.92C163.77,258.77,167.89,258.86,170.78,260.22Z"/></clipPath><clipPath id="clip-path-8"><path class="cls-2" d="M149.52,288.58l-1.63-.77-1.42-.67-1-.48a7.41,7.41,0,0,1-4.33-7.72c.55-7.27,8.6-15.62,18-18.66l4.07,1.92c-9.38,3-17.43,11.39-18,18.66A7.41,7.41,0,0,0,149.52,288.58Z"/></clipPath><clipPath id="clip-path-9"><path class="cls-2" d="M322.87,363.81a19.77,19.77,0,0,0,7.45-4.42l2.3,1.08.27.13,1.49.7a19.83,19.83,0,0,1-7.44,4.43C325.71,365.16,324.09,364.39,322.87,363.81Z"/></clipPath><clipPath id="clip-path-10"><path class="cls-2" d="M333.72,353.43a3.72,3.72,0,0,0-2.25-3.83l4.07,1.92a3.69,3.69,0,0,1,2.24,3.82c-.14,2-1.43,4.09-3.4,6l-.23-.11-3.83-1.8C332.28,357.51,333.57,355.37,333.72,353.43Z"/></clipPath><clipPath id="clip-path-11"><path class="cls-2" d="M315.34,364c1.78.84,4.46.86,7.53-.14l4.07,1.92c-3.07,1-5.76,1-7.54.13Z"/></clipPath><clipPath id="clip-path-12"><path class="cls-2" d="M331.47,349.6l4.07,1.92c-1.79-.84-4.48-.86-7.54.13l-4.07-1.91C327,348.74,329.69,348.77,331.47,349.6Z"/></clipPath><clipPath id="clip-path-13"><path class="cls-2" d="M319.4,365.86,315.34,364a3.7,3.7,0,0,1-2.25-3.84c.29-3.88,5.14-8.53,10.84-10.37l4.07,1.91c-5.7,1.85-10.56,6.5-10.85,10.38A3.7,3.7,0,0,0,319.4,365.86Z"/></clipPath><clipPath id="clip-path-14"><path class="cls-2" d="M336.07,343.55l.2.1,2,1,1.82.86c-2.89-1.36-7-1.45-11.67.06l-4.07-1.92C329.06,342.1,333.18,342.19,336.07,343.55Z"/></clipPath><clipPath id="clip-path-15"><path class="cls-2" d="M314.8,371.91l-1.62-.76-1.43-.67c-.33-.16-.67-.33-1-.48a7.42,7.42,0,0,1-4.33-7.73c.55-7.26,8.6-15.62,18-18.66l4.07,1.92c-9.38,3-17.44,11.39-18,18.66A7.4,7.4,0,0,0,314.8,371.91Z"/></clipPath><clipPath id="clip-path-16"><path class="cls-2" d="M681.49,244.48a19.79,19.79,0,0,0,7.45-4.43l2.3,1.09.27.12L693,242a19.77,19.77,0,0,1-7.45,4.42Z"/></clipPath><clipPath id="clip-path-17"><path class="cls-2" d="M692.34,234.09a3.68,3.68,0,0,0-2.25-3.82l4.07,1.92A3.67,3.67,0,0,1,696.4,236c-.14,1.94-1.43,4.08-3.4,6a1.63,1.63,0,0,0-.23-.11l-3.83-1.81C690.9,238.17,692.19,236,692.34,234.09Z"/></clipPath><clipPath id="clip-path-18"><path class="cls-2" d="M674,244.61c1.78.84,4.46.86,7.53-.13l4.06,1.91c-3.06,1-5.75,1-7.53.13Z"/></clipPath><clipPath id="clip-path-19"><path class="cls-2" d="M690.09,230.27l4.07,1.92c-1.78-.85-4.47-.87-7.54.13l-4.07-1.92C685.62,229.41,688.31,229.43,690.09,230.27Z"/></clipPath><clipPath id="clip-path-20"><path class="cls-2" d="M678,246.52,674,244.61a3.69,3.69,0,0,1-2.25-3.83c.29-3.88,5.15-8.53,10.84-10.38l4.07,1.92c-5.7,1.84-10.56,6.49-10.85,10.37A3.68,3.68,0,0,0,678,246.52Z"/></clipPath><clipPath id="clip-path-21"><path class="cls-2" d="M694.69,224.22l.2.09,2,1,1.83.86c-2.9-1.36-7-1.45-11.68.06L683,224.28C687.68,222.77,691.8,222.86,694.69,224.22Z"/></clipPath><clipPath id="clip-path-22"><path class="cls-2" d="M673.43,252.58l-1.63-.77-1.42-.67-1-.48a7.41,7.41,0,0,1-4.33-7.72c.55-7.27,8.6-15.62,18-18.66l4.07,1.91c-9.38,3-17.43,11.4-18,18.67A7.41,7.41,0,0,0,673.43,252.58Z"/></clipPath></defs><title>graphics</title><g class="cls-3"><g id="Layer_2" data-name="Layer 2"><g id="Layer_1-2" data-name="Layer 1"><path class="cls-4" d="M145.59,51.14c-68.93,48.82-42.23,109.92-2,131.06,57,30,83.8,6.84,75.75,107.73-2.73,34.25,7.95,70.82,34.49,93.7,19.08,16.46,45.53,24.49,70.31,19.91,13.78-2.54,26.62-8.72,40.1-12.6s28.62-5.29,41,1.37c11.87,6.41,19,19.16,23.33,32,10.44,30.81,7.95,65.12,21.2,95.07,11.17,25.25,33.48,49.43,59.83,58.59,34.5,12,72.35-.83,104.32-14.72,37.49-16.3,71.48-40.33,100.44-69.17,37.1-36.95,66.08-81.62,87.92-129.25,19.45-42.41,33.47-87.8,36.17-134.37,4.27-73.65-23.31-176.27-110.72-183.25-105.23-8.41-107.9,94.75-154.28,13.12C545.67,11.45,463.87-40.54,385.68,48S244.86-19.16,145.59,51.14Z"/><path class="cls-1" d="M160.29,18.54c-77.43,33-63.14,91.68-27.67,116.78,50.25,35.55,81.15,19,53.41,107.92-9.41,30.18-6.08,64.5,15.55,89,15.56,17.64,40,28.9,65.3,28.63,14.07-.15,27.92-3.68,41.94-5.08s29.21-.31,40,7.54c10.43,7.57,14.92,20.05,16.69,32.16,4.23,29.14-5,59.4,2.2,88.2,6,24.28,23.25,49.33,47.39,61.57,31.61,16,71.37,10.42,105.57,2.94,40.1-8.78,78.27-25,112.44-46.31,43.77-27.28,81.07-62.72,111.92-101.9,27.46-34.89,50.18-73.27,62-114.46,18.66-65.14,11.66-161.08-73-180.79C632.12,81,601.08,179.2,571.45,99.12,553.72,51.2,491.57-14.28,397.23,52.73S271.81-29,160.29,18.54Z"/><g class="cls-5"><path class="cls-6" d="M126.2,99.74C155.68,33,216.72,41.67,244.46,70c39.3,40.1,24.1,66.92,113.73,38.68,30.43-9.58,65.83-8.72,92.22,8,19,12,31.9,31.9,33,53.11.64,11.8-2.21,23.6-2.85,35.43s1.32,24.5,10,33.13c8.34,8.31,21.41,11.38,33.94,12.17,30.13,1.91,60.66-7.5,90.61-3.11,25.25,3.69,51.92,16.7,65.83,36.25,18.22,25.57,14.71,59.22,9,88.29-6.75,34.1-21.26,67-41.19,96.83C623.22,507,589,540.24,550.5,568.29c-34.25,25-72.36,46.18-113.95,58.39C370.76,646,272,645.51,247,575.67,216.87,491.6,315.84,460.07,232,439.74c-50.16-12.16-120.84-60.56-57.4-143.38S83.74,195.85,126.2,99.74Z"/><path class="cls-7" d="M81.06,90.63c53.53-55.69,108.37-28.19,124,8,22.16,51.28-2.55,72.61,93.6,73.15,32.65.18,66,12.08,84.8,36.6,13.49,17.64,18.23,41,11.24,62-3.89,11.67-11.1,22.26-16.22,33.56s-8.08,24.23-3.12,35.33c4.79,10.69,16.06,17.76,27.69,22.44C431,373,463.7,373.35,490.57,387c22.64,11.48,43.08,32.47,48.89,55.82,7.6,30.56-8.56,62.17-25.13,88.65-19.42,31-45.78,58.5-76.14,81.28C399.31,641.91,354,663.54,306.66,678.8c-42.14,13.59-86.53,22.29-130.8,21.17-70-1.78-164-33.12-161.18-108.83C18.07,500,124.37,500.25,52.26,454.3c-43.15-27.5-92-96.64,0-157.36S4,170.83,81.06,90.63Z"/></g><polygon class="cls-8" points="113.97 278.54 348.71 388.5 739.97 261.79 505.22 151.82 113.97 278.54"/><path class="cls-8" d="M390.38,272c-1.06,13.3-42.1,21.68-91.66,18.71s-88.87-16.15-87.81-29.45,42.1-21.68,91.65-18.71S391.44,258.65,390.38,272Z"/><path class="cls-9" d="M295.47,244.17a65.24,65.24,0,0,0,10.11,4.06,72.47,72.47,0,0,1,14.28,5.05,79.86,79.86,0,0,0,10.74,5.12c3.28,1.14,7.24-.75,10.47-1.62,2,6.51-3.8,7.64-11.8,5.58a82.63,82.63,0,0,1-12-4.54c-3.23-1.4-6.38-2.78-9.35-4.41-1.21-.65-2.55-1.25-3.77-1.94-.25.42-.34.91-.63,1.35-1.15-.5-2.84-.55-4.15-1a17.73,17.73,0,0,1-3.39-1.4c-2.08-1.22-3.1-2.66-2.83-4.6C293.3,244.51,293.91,243.43,295.47,244.17Z"/><path class="cls-10" d="M299.62,238.67c.86,2.11,4.29,2.05,6.91,2.18a16,16,0,0,0,4.39-.2c.95-.23,2.42-1.23,3.07-1.24l.15-.08c.58.21.74.67,1.19,1a12,12,0,0,0,2.39,1.36,46.31,46.31,0,0,0,5.78,2c4,1.31,8.13,5,11.44,7.12,2.71,1.72,4.05,1.71,5.21,4.13.92,1.93,1.66,4.71-1.31,5.75-3.25,1.13-8.55-.17-11.78-1.18-5.1-1.59-9.53-4-14.19-6.22a63,63,0,0,0-10.82-3.73c-3.46-.93-5.13-1.61-6.57-3.18C292.82,243.55,295.21,240.38,299.62,238.67Z"/><path class="cls-11" d="M291.11,149.52c9.69-5.24,8.87-3.2,8.65-.62V149a3.33,3.33,0,0,1,1.43-2.3,20.48,20.48,0,0,1,4.3-1.31c4.41-.89,9.23-.57,13.59-1.65,3.56-.88,7.4-1.66,10.44-3.3,0,0-.14,0-.27,0l.69-.38c-.51,3.15-5.92,50.36-8.55,53.65,1,1.08-3.52,8.17-4.2,8.91-.93,1-.36,2.47-.57,3.72-.26,1.55,9,29.82,6.89,37.51,4.93,4.07-13.48,5-21.45,5.87-4.78.55-14.91-6-15.49-9.58-1.61-4.47,1.91-17,2.52-24.62.31-4,4.05-13.25,5.39-15.08a8.66,8.66,0,0,0,1.2-4.64C295.9,190.64,277.85,156.7,291.11,149.52Z"/><path class="cls-12" d="M294.46,200.45a8.75,8.75,0,0,0,1.21-4.65c.24-5.09-17.83-39-4.57-46.19,9.7-5.25,8.88-3.21,8.65-.63v.07a3.22,3.22,0,0,1,1.43-2.29,20.39,20.39,0,0,1,4.29-1.31c.62-.13,1.23-.23,1.85-.31-7.93,12.12-10,26.13-8.25,39.77,1.59,12.67,4.71,24.87,3.91,37.64-.57,9-1.76,18-3.05,27-5.16-1-12.87-6.33-13.38-9.45-1.6-4.46,1.91-17,2.52-24.61C289.39,211.51,293.12,202.27,294.46,200.45Z"/><path class="cls-9" d="M259.07,259c5.5.68,10.13,3.63,14.51,6.07a34.62,34.62,0,0,0,5.56,7.67c1,1.66,2.06,3.32,3.08,5,0,.52,1,2.52.8,2.87-2.47,3.44-19.23,1.64-23.08.15-6.4-2.49-6.37-8.05-8-12.68C250.47,263.75,249.4,257.82,259.07,259Z"/><path class="cls-9" d="M254.54,261.08c.07,1.08.56,4.46-1.4,4.83l-.29.09a.81.81,0,0,1-.37.44c-3.43-1.75-4.34-7-1.92-9.39S254.44,259.44,254.54,261.08Z"/><path class="cls-10" d="M261.19,252.51c2.58-.37,5.28-1.35,6.63-3v.16c-.05,1.42.91,3.38,1.53,4.75a23,23,0,0,0,2.57,4.36,40.93,40.93,0,0,1,3.95,6.61c1,2.12,1.44,4.7,3,6.66s2.76,3.47,2.32,5.73a3,3,0,0,1-1.5,2.3c-.94.41-2.75.09-3.84,0-1.31-.13-2.58-.48-3.9-.62-1.49-.14-3-.25-4.45-.5-3.66-.63-6.62-1.45-9.21-3.49a12.61,12.61,0,0,1-4.9-7.52,42.6,42.6,0,0,1-1-10.51c.18-2.19.51-4.35.75-6.5A11.57,11.57,0,0,0,261.19,252.51Z"/><path class="cls-13" d="M304.12,39.3c.21.22.33.11.54.15l-.54-.15c3.54-1.89,6.26-2.24,10.93-1.62,6.18.82,12.28,5.58,16.67,8.51,7.72,5.16,15.45,10.3,23.08,15.55,5.94,4.08,12.41,7.94,17.22,12.71,1.75,1.75,1.76,2.6,0,4.17-1.17,1-4.19,3.91-6.14,4.06-2.33.18-7.92-2.64-10-3.39-4.39-1.57-8.78-3.1-13.12-4.74C328,69,307,63.45,300.15,52.25,298.58,49.67,299.54,40.67,304.12,39.3Z"/><path class="cls-11" d="M253,136.68c1.66-1.92,2.81-8.19,7.59-5.32,1.84,1.11,2.47,2.85,3.73,4.29a15.7,15.7,0,0,0,7.27,4.46c6.83,2.24,13.82,2.49,21,2.65,3.82.09,4,1.28,4.46,3.87.46,2.88-12.14,49.86-15.28,52.94a9.39,9.39,0,0,0-2.66,4.09c-.41,1.42,2.36,53.36.81,56.33-.83,1.59-6.44,6.22-14.87,7.2-7.43.87-27.17-4.37-25.74-9.41,1.37-4.86.77-39.58,3.51-44.06,2.34-3.84,11.47-12.39,11.32-16.78C253.91,191.73,245.82,145,253,136.68Z"/><path class="cls-14" d="M304.69,37.05c2.67-.16,9.3,1.82,12,2,10.87,5.56,12.67,12.59,11.48,17.69a.44.44,0,0,0,.07.21l-6,49.34s11,21.59,7.74,33.66c-1.05,3.9-16.83,9.46-22.27,10.64-13.21,2.87-37.66,1.85-48.47-4.52-7.48-4.4-10.13-5.68-6.48-11.88a1.93,1.93,0,0,0-.27-2.51c1.19-4.19,2.47-8.36,3.91-12.5,1.33-3.84,2.95-7.81,2.15-11.81-.26-1.28-3.08-12.55-4.33-10.2.4-3.47,3.38-.21,3.69-3.7a2.23,2.23,0,0,0-.22-1.19,38.83,38.83,0,0,0-.08-15.85c-.71-3.2-1.28-8.54-4.75-11.12l-.36-.23A12.62,12.62,0,0,0,248,60.66c.34-.14.67-1.32,1-1.43C249,59.23,288.35,38.06,304.69,37.05Z"/><path class="cls-13" d="M248.83,59.69s5.65-3,13.54-6.83c.28,36.22,21.67,66.62,65.77,89.29.19,4.21-11.87,8.42-15.55,9.21-13.11,2.84-42.9.45-53.63-5.84-7.43-4.36-10.06-5.62-6.44-11.74a1.92,1.92,0,0,0-.27-2.49c1.19-4.13,2.45-8.25,3.87-12.34,1.33-3.79,2.93-7.71,2.13-11.67C258,106,255.2,94.88,254,97.21c.4-3.43,3.36-.21,3.65-3.66a2.09,2.09,0,0,0-.22-1.18,37.86,37.86,0,0,0-.08-15.65c-.7-3.17-1.27-8.44-4.71-11l-.37-.24a12.43,12.43,0,0,0-4.41-4.39C248.16,61,248.48,59.8,248.83,59.69Z"/><path class="cls-15" d="M285.11,37.59c3-.23,6.12,2.08,9.16,2.55,3.84.6,13.64,3.78,13.75,7.09l-.44-.95a31.8,31.8,0,0,0-.08,6.61c.16,1.62-.82,13.17-.82,13.17s-9.87-3.5-14.2-4.77c-4.54-1.33-8.63-5.23-10.63-8.56-1.82-3-1.32-6.89.12-9.89C283.32,40,282.09,37.82,285.11,37.59Z"/><path class="cls-16" d="M312.47,43.51l.6-2.06A2.33,2.33,0,0,1,312.47,43.51Z"/><path class="cls-17" d="M302.69,41.83c2.91,1.28,5.34,2.88,5.4,4.52l-.44-.94c-.22,2.25-.9,3.44-.67,5.64.17,1.62-.14,4.84-1.37,6.21-2.55,2.84-5.72,2.84-10.05,1.57-3.2-.93-7.85-2.41-10.46-4.68C293.08,51.54,300.24,47.22,302.69,41.83Z"/><path class="cls-14" d="M255,103.71a18.41,18.41,0,0,0-10.26.65,88.32,88.32,0,0,0-15.67,8c.11-2,.59-4.86.61-5.68.12-3.26,7.58-42.08,18.29-50.31,2.44-1.89,12.79-7.24,16.61-5,3.76-2-.92,1.49-.92,1.53,3.75,1.5,3.81,4.74,5.16,7.69,1.84,4.05-1.79,8.4-3.39,12.14C262.81,78.8,258,97.45,255,103.71Z"/><path class="cls-18" d="M305.52,47.1c.53,1.83,2.62,17.67-.07,17.86-.81.06-4-1.27-5-1.64-2.06-.76-4.07-1.23-6-2a37,37,0,0,1-10.74-6.58c-2.25-2.1-2-9.71-1.2-13-1-.53-9,4.79-9.24,6.7-.43,3.1,5.7,8.15,8.24,10.44,7.34,6.66,18.84,9.46,29,13.49.75-4.17,5.93-20.6,1.88-27.52-1-1.75-1.44,3.33-5.06,3.62Z"/><path class="cls-19" d="M311.42,33.11c.86-.35,3.92-2.27,3.83-1.29l.21.23c.5,1.32.64,2.65,1.2,4a3.19,3.19,0,0,1-.38,3.44c-1.44,2.25-3.4,4.13-4.54,6.35-1.86,3.68-7,2.62-7.71-1.43C303.34,40.6,306.69,35.06,311.42,33.11Z"/><path class="cls-15" d="M282.18,30c-3.87-4.93,4.1-11.22,10.4-12.84a28.54,28.54,0,0,1,16.36,1.24,28.84,28.84,0,0,1,4.43,2.29,15.36,15.36,0,0,1,2.52,1.49.69.69,0,0,1,.17.22l-.59,0c1.38,1.74.53,3.92,1.63,5.74.73,1.19,1.22,2.64-.52,3.52s-3.14,1.2-3.1,2.86c0,1.38,1.13,2.35,1.65,3.63.3.71.87,2.77.1,3.37-1,.8-3.53,0-4.86.16.5.28.36,1.22.19,1.64-.07.19-.33.33-.42.62s.06.58,0,.8-.31.37-.32.7.21.7.24,1a1.78,1.78,0,0,1-.41,1.79c-1,1-3.72.77-5.28.81a22.21,22.21,0,0,1-9.56-2c-4.92-2.12-12.36-4.8-10.67-9.37-2.94,0-4.8-3.06-5.22-4.69-.21-.79-.73-2.22,0-2.92S281.09,29.69,282.18,30Z"/><path class="cls-20" d="M317.22,29.06c1-1.47-9.73-2.14-11.25-2-4.59.54-8.54,2.21-12.4,3.85-4.65,2-8.69,5.49-10.62,9-.93-1.43-2.45-2.59-3.46-3.87.7-2.32,7.28-5.29,9.06-6.58a35,35,0,0,1,10.15-4.75c3.76-1.15,23.26-4.59,19.63,1.85a4.78,4.78,0,0,1-.67,1c-.38-.06,0-.19-.16-.35Z"/><path class="cls-21" d="M315.53,32.25c5.07.49,11.18-6.6,11.57-9.25.77-5.13-5.66-9.56-11.13-12.94-14-8.66-37.9-2.31-45.84,8-3.76,4.85-5,12.82.4,17.51,3.57,3.1,8.47,2.5,11.66-.81,4.63-4.81,9.74-7.81,18.64-9.85,4-.92,10.53-2,14.88-1.08.87.18,2.26.54,2.67,1.26.56.95-.69,1.49-.83,2.09-.43,1.86-.19,3.12-1.72,4.86Z"/><path class="cls-22" d="M317,30c.19-.63,2.18-1.8,2.84-2.31a3.45,3.45,0,0,0,1.22-1.41c.24-.63.1-.56-.41-.89s-.77-.19-.91-.7.39-1.33.42-1.95c.11-2-1.32-3.7-3.9-4.62-2.2-.79-5.53-1-6.52.88-.67,1.26-.62,3.58-3.47,3.39-3.41-.22-4-4.05-6.81-5.08-1.1-.41-2.7-.68-3.41.17s-.07,2,.29,2.84c.66,1.61,1.2,4.25-1.79,4.77-2.12.37-3.93-1.71-6.35-1.31-2.09.34.54,1.64,1.18,2.17,1.18,1,.92,2-1,1.53-2.55-.63-5.24-1.71-8-1-3,.76-2.4,3.05.58,3.42.61.08,3.84.48,2.21,1.34-.73.39-2.74,0-3.68.18-1.81.33-3.07,1.49-2.42,2.82.53,1.09,1.68,3,3.17,2.32S283,34.29,284,33.29c1.24-1.17,3.61-3.42,5.4-4.19a51.48,51.48,0,0,1,11.69-3.91,23.17,23.17,0,0,1,7.68-.47,22,22,0,0,1,6.49,2.18c1.21.63,2,1.42,1.9,2.8Z"/><path class="cls-14" d="M252.47,97.42c7.87.47,15.34,1.38,22.8,2.35,4.4.56,4.33,1,4.93,4,.5,2.45,1.1,4.91,1.59,7.38.55,2.74,1.69,3.65-2.25,4.86-4.62,1.43-10.28,1.63-15.23,2.21-9.32,1.11-17.95,2.26-27.5,1.42-20.46-1.79-1.83-24.76,14.56-22.54Z"/><path class="cls-21" d="M298.12,102.86c-.4.08-1.26.84-1.71.86-1.38,0-1-.92-1.58-1.36-1.16-.84-3-.6-4.73-.88-3.19-.52-6.22-1-9.44-1.4-5.32-.64-6.91,1-7.54,4.58a9.84,9.84,0,0,0,4.12,9.45c.68.5,2,1.67,2.93,1.82a26.31,26.31,0,0,0,4.95-.54,47,47,0,0,0,10.75-2.9c2.64-1.09,4.46-1.61,3.78-4-.47-1.63-1.58-3.8-1.14-5.33Z"/><path class="cls-23" d="M316.48,35.36c-5.29,2.67-13.36,2.67-19.41,1a29.15,29.15,0,0,1-5.71-2.25c-2.27-1.12-2.4-1.1-4.32.13-1.36.88-3.43,2.19-4.1,3.4s1,2.89,2.19,4.12a27,27,0,0,0,11.81,7,51.08,51.08,0,0,0,10.33,1.66c1.89.1,3,.34,3.82-.81.33-.47-.21-1.27.13-1.73.6-.81,1.25-.54,2.1-1,1.95-1.17.4-1,.69-2.6.24-1.33,1.87-1.52,2.18-2.82.25-1,1.23-2.06,1.54-3.14a2.74,2.74,0,0,0-1.25-2.91Z"/><path class="cls-24" d="M315.74,89.84c-4.94.92-5.62,3.82-5.81,6.68-.12,1.65,0,3.34,0,5,0,.71.59,2.07,0,2.72-.31.4-1.59.7-2.2.91-1.31.47-2.92,1-3.45,2-.64,1.24.71,2.21,2.32,2.69,3.23,1,7.09.73,9.7-.94,2.15-1.37,2.36-3.33,2.7-5.14s.61-3.53,1-5.3c.27-1.24.57-3.14,2.81-3.54.83-.15,1.84.16,2.51-.38.52-.43.24-1.33-.13-1.77-1.84-2.27-7-2-10.12-2.77,7.82.34,6.93.19,7,.27Z"/><path class="cls-25" d="M319.5,42.76a11.8,11.8,0,0,0-6.19,3.34,7.12,7.12,0,0,0-2.08,4.37,3.28,3.28,0,0,0,.54,1.8c.2.32.58.59.78.92.46.76-.16,1.15-1.19,1.43-.35.11-.81.11-1.05.32a.56.56,0,0,0,0,.8c.36.52,1.25.47,1.59.93s-.68.78-.37,1.36c.17.32.59.28.89.49s-.08.28-.1.58c0,.68,2,.43,1.56,1.25-.13.27-.51.47-.49.81s.42.62.79.82c2.26,1.25,5.95,1.36,8.46.68,1-.27,1.93-.53,2.88-.82s1.64-.82,2.55-1.15c1.29-.48,3-.21,4.5-.13,3.89.23,8.87-.82,11-2.92a9.09,9.09,0,0,0,2.16-4.18,7.15,7.15,0,0,0-.51-5.06,12.36,12.36,0,0,0-3.35-3.76,12.78,12.78,0,0,0-3.25-1.94A23.65,23.65,0,0,0,330.28,41a32,32,0,0,0-8.44,1.11,31.43,31.43,0,0,0-4.25,1.23Z"/><path class="cls-26" d="M329,53.79c.06-.51,1.9-.49,2.42-.32.93.31.83.92.64,1.44a5,5,0,0,1-1.24,2.24,2.55,2.55,0,0,1-2.09.85c-.86-.21.3-.19.56-.26a1.7,1.7,0,0,0,1.06-.94,12.31,12.31,0,0,0,.7-1.41c.12-.3.43-.8,0-1.09-1-.74-1.75.64-2.46.62-.94,0-.23-1.14.36-1.17Z"/><path class="cls-27" d="M323,58.75c-.45,1.28-2.59,2-4.78,1.6s-3.6-1.77-3.14-3.05,2.58-2,4.76-1.59S323.4,57.47,323,58.75Z"/><path class="cls-25" d="M299.66,68.84c-1.14.56-3.66-.26-4.81-.65-.69-.25-1.68-.47-1.88-1s.39-.91,1.21-.37c-1.28-.59-.91-1.47.7-1.34-.39-.8,1-.65,1.79-.89,1.11-.35.94-.63,1.26-1.27s0-1.45,1.61-.73c.64.29.91,1.16,1.08,1.62,1.78.38,3.53,2.15,3.25,3.4-.22,1-4,2-5,1.32Z"/><path class="cls-28" d="M322.1,71.94c-1.33,1.4.82,3.87,1.33,5.3a42.42,42.42,0,0,1,1.37,5.66c.72,3.42,1.35,2,1.14,4.94-2.89.39-9,.08-11.64.54-6.28,1.09-7.25,5.25-5.45,9,1.63,3.41,4.11,8,8,10.58,1.57,1,3,.91,4.89.36,2.8-.82,2.94-1.28,2.81-3.37-.11-1.91.13-1.82,2.82-1.71a22.8,22.8,0,0,0,6.87-.43c22.87-6.09,18.76-33.25,7.45-40.6-2.33-1.52-3.27-1.82-6.69-2.19-2.62-.29-9.25.6-11,1.46-2.37,1.21-1.76,3-2.1,5-.21,1.21-.85,6.18.37,6.61Z"/><path class="cls-29" d="M327.24,62.06c-8.77,3.72-2.95,5.42-2.28,8.08.44,1.79-1.38,4.51-2.85,6.06,1.39.87,6.69.65,8.36.16A9.05,9.05,0,0,0,335,72.48c1.24-1.87,2-3.88,1.24-5.87a6.84,6.84,0,0,0-5.6-4.62c-.58-.11-4.36-.45-3.52.57Z"/><path class="cls-28" d="M303.4,66.11c-1.56,2.27-4.29,2.47-3.52,4,.3.6,1.94,1.47,2.61,1.93,1.41,1,2.74,2,4.19,2.89,3.12,2,8.25,4.79,12.69,5.09,6,.38,9.72-2.65,12.29-5.66,2-2.41,4.55-5,4.22-7.82-.25-2-1.79-4.13-5.47-4-6.56.24-11,4.79-13.8,8.09-.23-1-1.07-1.49-2.26-.52.2-1.22-.81-.93-2.12-1.35-.91-.29-5.93-2-8.47-2.61Z"/><path class="cls-29" d="M303,65.39c1.38,1.3-2.67,3.47-4.47,3.8a5.73,5.73,0,0,0,1.92,1.37,3.58,3.58,0,0,0,2.51-.68,6.13,6.13,0,0,0,3.09-3.14c-.87-.41-2.33-.7-2.91-1.3Z"/><path class="cls-24" d="M315.41,106.81c-.14,1.06-1.25,2.31-2.11,3.24s-2.33,1.88-2.17,3.08c.35,2.57,5.19,1.69,7.59,1.1,5.26-1.32,7.41-5.23,6.44-8.55-.21-.7.48-1.83-.39-2.22-1.06-.47-4.61.05-5.8.23-1.42.22-3.5.4-4.51,1.19-.58.46-.88.43-.62,1a5.8,5.8,0,0,0,1.75,1.29Z"/><path class="cls-30" d="M313.82,113a.37.37,0,0,1,.13.62.81.81,0,0,1-.86.19.36.36,0,0,1-.13-.62A.83.83,0,0,1,313.82,113Z"/><path class="cls-30" d="M313.43,111.75a.39.39,0,0,1,.18.65.89.89,0,0,1-.93.16c-.31-.13-.39-.42-.18-.64A.84.84,0,0,1,313.43,111.75Z"/><path class="cls-30" d="M318.19,112.17c.36.16.46.49.22.75a1,1,0,0,1-1.08.19.46.46,0,0,1-.22-.75A1,1,0,0,1,318.19,112.17Z"/><path class="cls-30" d="M315.73,110.45a.36.36,0,0,1,.17.59.81.81,0,0,1-.86.15c-.27-.12-.36-.39-.17-.58A.81.81,0,0,1,315.73,110.45Z"/><path class="cls-30" d="M320.68,109.67c.22.09.28.3.13.44a.6.6,0,0,1-.64.13c-.22-.1-.28-.3-.13-.45A.59.59,0,0,1,320.68,109.67Z"/><path class="cls-30" d="M322.49,110.84a.46.46,0,0,1,.23.76,1,1,0,0,1-1.1.2c-.37-.16-.48-.5-.25-.77A1.07,1.07,0,0,1,322.49,110.84Z"/><path class="cls-30" d="M317.2,109c.27.11.33.35.16.54a.76.76,0,0,1-.77.14c-.28-.11-.35-.35-.17-.55A.74.74,0,0,1,317.2,109Z"/><path class="cls-30" d="M318.64,110.35c.28.11.36.37.17.56a.76.76,0,0,1-.82.15.34.34,0,0,1-.15-.57A.76.76,0,0,1,318.64,110.35Z"/><path class="cls-30" d="M316.69,107.05c.25.11.33.35.16.52a.69.69,0,0,1-.75.14c-.26-.11-.33-.35-.17-.53A.72.72,0,0,1,316.69,107.05Z"/><path class="cls-30" d="M321,107.27a.3.3,0,0,1,.14.51.72.72,0,0,1-.74.13c-.24-.11-.31-.34-.14-.52A.66.66,0,0,1,321,107.27Z"/><path class="cls-30" d="M323.76,108.13c.2.1.26.29.12.44a.6.6,0,0,1-.63.12c-.21-.09-.27-.3-.13-.44A.61.61,0,0,1,323.76,108.13Z"/><path class="cls-30" d="M318.67,107.71c.17.08.22.24.1.37a.49.49,0,0,1-.52.09c-.17-.08-.22-.24-.11-.36A.49.49,0,0,1,318.67,107.71Z"/><path class="cls-30" d="M316.49,105.41c.23.1.3.31.15.48a.66.66,0,0,1-.69.12.3.3,0,0,1-.15-.48A.66.66,0,0,1,316.49,105.41Z"/><path class="cls-30" d="M320.31,105.28a.47.47,0,0,1,.23.79,1.1,1.1,0,0,1-1.15.2.48.48,0,0,1-.24-.8A1.1,1.1,0,0,1,320.31,105.28Z"/><path class="cls-30" d="M324,106.05a.28.28,0,0,1,.14.46.66.66,0,0,1-.68.12.29.29,0,0,1-.14-.47A.64.64,0,0,1,324,106.05Z"/><path class="cls-30" d="M323.38,104.25c.34.14.43.45.2.7a.91.91,0,0,1-1,.17c-.35-.14-.43-.45-.21-.69A1,1,0,0,1,323.38,104.25Z"/><path class="cls-30" d="M319.24,104c.17.07.2.21.1.33a.45.45,0,0,1-.48.09c-.16-.07-.21-.22-.11-.34A.48.48,0,0,1,319.24,104Z"/><path class="cls-29" d="M324.06,103.33c-1-.6-2.24-.89-3.18-1.52-.72-.47-1.72-1.8,0-1.62.91.09,2.43,1.69,3.42,1.24C325,101.1,324,99,325.55,99c.9,0,2.07,2.09,3,2.51a10.15,10.15,0,0,0,4.12.52c1.07,0,2.12-.15,3.17-.21s1.72-.32,2.6-.41l.26-.11a18.39,18.39,0,0,1-3.3,1.4c-1.24.27-2.54.44-3.81.62a18.14,18.14,0,0,1-3.58.11c-1,0-2.63-.31-3.31.1Z"/><path class="cls-13" d="M373.22,75.52c.44,11.11-9.48,19.64-21.25,26.31-1.68,1-9.48,6.24-12.07,5.21-.8-.32-1.85-9.87-5.08-5.49-.66-3.67,3.78-6.28,6.72-8.89a67,67,0,0,0,9.82-10.39c2.58-3.53,4-6.52,9.92-7.67,3.62-.7,10.39-1.3,11.83,2.21Z"/><path class="cls-31" d="M332.16,112.15c1,.65,3.17,2.85,2.41,3.44s-4.41,1.47-5.41,1.69-2.26,0-3.36.22l.09-.26c-.1.12-.22.14-.23.3.48-1.43.63-2.89,2.09-3.81C328.75,113.11,330.75,111.2,332.16,112.15Z"/><path class="cls-31" d="M322.53,119.75c.87.26,1.81.54,2.62.84a8,8,0,0,0,1.9.72c.7,0,1.56-.8,2.07-1.1a17.26,17.26,0,0,1,3.59-1.71,6.39,6.39,0,0,1,5.06.29c0,.11-.08,0-.11.09l0,.24c-.16.43-.23,1.21-.64,1.53a10.59,10.59,0,0,1-2.06.65,29.12,29.12,0,0,0-4.35,1.61c-.88.43-2.38,1.47-3.39,1.44-1.48,0-3.23-.84-4.63-1.16a7.82,7.82,0,0,1-2.4-.65,10,10,0,0,1-1.09-1.47c-.31-.34-2.07-1.84-1.6-2.26C318.27,118.14,321.76,119.53,322.53,119.75Z"/><path class="cls-21" d="M343.5,104.47l.17-.17c-.6,1.09-2.57,1.71-3.52,2.66a2.77,2.77,0,0,0-.65,2.19,23.22,23.22,0,0,0,.24,4.71c.19,1.19,1.36,3.47.14,4.49s-4.47,1-6.3,1.51a32.69,32.69,0,0,1-3.23,1.22,22.56,22.56,0,0,1-2.82-.14c-1.12,0-2.28.09-3.38.21-1.53.16-1.79.39-3-.32-1-.57-5.5-2.07-5.49-3,0-1.56,5.61-.1,6.56.14s1.11.1,2.18-.19a10.64,10.64,0,0,1,2.81-.45,3.43,3.43,0,0,0,2-.32c.84-.33,1.61-.76,2.48-1,.72-.25,1.8-.26,2-.86.09-.33-.62-1.41-.77-1.79a1.34,1.34,0,0,0-1.11-.84c-.55-.12.66,0,0,0-.63,1.17-5.88,2.15-7.51,2.62-2.62.74-3.28-1-1.69-2.19.66-.52,1.57-.84,2.24-1.36a21.09,21.09,0,0,0,1.71-1.7c1.31-1.27,3.24-3.86,5-4.87,1.26-.7.69.47-.3.69.18-1.2,2.3-2.42,3.17-3.46s1.75-2.84,3.85-2.83C341.48,99.38,344.64,102.27,343.5,104.47Z"/><path class="cls-32" d="M301.28,97.14l-.12.07-.19,0Z"/><path class="cls-21" d="M291.23,109.55a3.68,3.68,0,0,1,.55-3.22c.82-.82,2.23-.7,3.53-1,.79-.16,1.24-.22,1.54-.74s.27-.79.45-1.17c.29-.62.39-1.29.73-1.91s.77-1.13,1.08-1.73c.52-1,.58-2.06,2.05-2.6s3,0,4.59-.19c1.42-.14,2.81-.51,4.23-.56a22.6,22.6,0,0,1,4.18.48,8.12,8.12,0,0,1,3.32,1.57c.65.45,1.84,1.16,1.94,1.85.13,1-1.34.55-2.1.48.29.54,1.22,1.46.48,1.91s-2.44-.09-3.15-.42a8.63,8.63,0,0,0-3.23-.57,2.42,2.42,0,0,0-2.49.81,6.67,6.67,0,0,1,3.07-.4c1.08.24,2.31.41,2.91,1.13s.3,1.49-.88,1.79a5,5,0,0,1-1.68,0,6.57,6.57,0,0,0-1.72.27c-1.76.38-3.86.41-5.53,1a12.21,12.21,0,0,0,3.52.09c1-.11,2.09-.82,3.11-.67s2.3.82,2,1.54c-.14.4-.75.63-1.21.79-.68.24-1.25.57-2,.76-1.48.37-3.46.14-4.8.67a18.34,18.34,0,0,1-3.36,1.42,7.73,7.73,0,0,1-2.4.07c-.59-.06-1.37-.31-1.91-.31a9,9,0,0,0-1.63.4,22.86,22.86,0,0,1-2.54.34c-.93.08-1.17.16-1.67-.38A3.34,3.34,0,0,1,291.23,109.55Z"/><g class="cls-3"><g class="cls-3"><g class="cls-33"><g class="cls-3"><path class="cls-34" d="M161.65,282.4l-4.07-1.92a19.68,19.68,0,0,0,8.13-5.11l4.07,1.91a19.69,19.69,0,0,1-8.13,5.12Z"/></g></g></g><g class="cls-3"><g class="cls-35"><g class="cls-3"><path class="cls-34" d="M161.65,282.4l-4.07-1.92a19.68,19.68,0,0,0,8.13-5.11l4.07,1.91a19.69,19.69,0,0,1-8.13,5.12Z"/><path class="cls-36" d="M169.78,277.28l-4.07-1.91a9.25,9.25,0,0,0,2.72-5.27,3.7,3.7,0,0,0-2.25-3.83l4.07,1.92A3.69,3.69,0,0,1,172.5,272a9.31,9.31,0,0,1-2.72,5.27Z"/></g></g></g><g class="cls-3"><g class="cls-37"><g class="cls-3"><path class="cls-36" d="M154.11,282.53l-4.06-1.92a6.17,6.17,0,0,0,1.19.41l4.07,1.92a7,7,0,0,1-1.2-.41Z"/><path class="cls-34" d="M155.31,282.94,151.24,281a12.12,12.12,0,0,0,6.34-.54l4.07,1.92a12.23,12.23,0,0,1-6.34.54Z"/></g></g></g><g class="cls-3"><g class="cls-38"><g class="cls-3"><path class="cls-39" d="M162.71,268.32l-4.07-1.91a12.18,12.18,0,0,1,6.35-.55l4.06,1.92a12.12,12.12,0,0,0-6.34.54Z"/><path class="cls-40" d="M169.05,267.78,165,265.86a6,6,0,0,1,1.19.41l4.07,1.92a6,6,0,0,0-1.2-.41Z"/></g></g></g><g class="cls-3"><g class="cls-41"><g class="cls-3"><path class="cls-40" d="M154.11,282.53l-4.06-1.92a3.68,3.68,0,0,1-2.25-3.83,9.23,9.23,0,0,1,2.72-5.26l4.06,1.91a9.23,9.23,0,0,0-2.71,5.27,3.7,3.7,0,0,0,2.24,3.83Z"/><path class="cls-39" d="M154.58,273.43l-4.06-1.91a19.54,19.54,0,0,1,8.12-5.11l4.07,1.91a19.57,19.57,0,0,0-8.13,5.11Z"/></g></g></g><path class="cls-42" d="M162.71,268.32c5.7-1.85,10.08-.19,9.79,3.69s-5.16,8.54-10.85,10.39-10.08.18-9.78-3.7S157,270.16,162.71,268.32Z"/><g class="cls-3"><g class="cls-43"><g class="cls-3"><path class="cls-34" d="M163.17,262.2l-4.07-1.92a18.35,18.35,0,0,1,9.64-.76l4.06,1.91a18.23,18.23,0,0,0-9.63.77Z"/><path class="cls-36" d="M172.8,261.43l-4.06-1.91a10.41,10.41,0,0,1,2,.7l4.07,1.92a9.9,9.9,0,0,0-2-.71Z"/></g></g></g><path class="cls-44" d="M163.17,262.2c9.38-3,16.55.38,16,7.65s-8.6,15.63-18,18.67-16.54-.39-16-7.66S153.79,265.24,163.17,262.2Zm-1.52,20.2c5.69-1.85,10.55-6.5,10.85-10.39s-4.09-5.54-9.79-3.69-10.55,6.49-10.84,10.38,4.08,5.54,9.78,3.7Z"/><g class="cls-3"><g class="cls-45"><g class="cls-3"><path class="cls-36" d="M149.52,288.58l-4.07-1.92a7.41,7.41,0,0,1-4.33-7.72c.27-3.49,2.27-7.24,5.32-10.53l4.06,1.92c-3.05,3.28-5.05,7-5.31,10.53a7.41,7.41,0,0,0,4.33,7.72Z"/><path class="cls-34" d="M150.5,270.33l-4.06-1.92a30.58,30.58,0,0,1,12.66-8.13l4.07,1.92a30.45,30.45,0,0,0-12.67,8.13Z"/></g></g></g></g><path class="cls-46" d="M668.22,212.54c8.92,2.25,24.93,9,30.57,14.7,5.17,5.2-3,13.86-9.64,11.6-4.5-1.52-4.69-4.17-11.07-3.49-5.69.61-8.76,3.63-14.86,3.46-9.67-.27-19-10.43-29.28-5.07-5.44,2.83,2.25,7.08,2.79,11.24,1,7.58-3.81,2.41-8.4.11-9.65-4.83-26.83-5.28-34.28,1.75-3.92,3.7.5,8.55-.95,12.34-2,5.14-5.13,1.78-9.4-.65s-9.78-5.46-14.63-3.21c-5.77,2.67-2.12,7-1.43,10.67.43,2.27.61,6.72-2.88,7.65-4.46-4.55-21.23-19-21.34-5.85,0,2.57,3.74,9.83,1.3,11.84-3.94,3.23-7-4.27-9.4-6.11-10-7.62-25.07-1.86-35.41,1.33-4.11,1.26-11.9,4.24-13.7,7.32s2.69,5,2.82,8.93a8.06,8.06,0,0,1-1.07,4.8c-3-.55-3.79-3.77-5.92-5.52a19.09,19.09,0,0,0-9.73-4.21c-8.91-1.16-16.54,4.68-21.94,8.75-4.05,3.06-4.65,16-13.61,15.31-3.34-.24-4.37-4.41-6.59-6a15,15,0,0,0-9.72-3c-.86,5.5-1.16,15.77-8.67,18.79-5.58-4.14-11.65-13.81-23-9.59-1.71.64-3.17,2.93-4.83,3.85-2.84,1.6-5.42,1.49-6.86,4-2.11,3.68.57,8.55-1.67,12.32-5.13,0-6.89-7.26-10.49-9.46-4.88-3-9.38-.25-13.82-2,1.85-2.48,8-4.07,11.58-5.38,8.64-3.2,17.51-6.12,26.08-9.4,22.54-8.59,45.52-16.77,68.27-25.11,19.67-7.24,40.59-13.8,61.22-19.79,19.59-5.69,38.51-12,59-16.2,11.75-2.43,24.65-5.09,34.84-9.68,7.82-3.52,16.09-6.76,24.4-9.73,3.94-1.41,27-9,27-11.66Z"/><path class="cls-47" d="M168.41,269.71c-.33,4.1-5,8.86-10.52,10.64s-9.68-.11-9.35-4.21,5-8.87,10.53-10.64S168.74,265.6,168.41,269.71Z"/><path class="cls-48" d="M565.69,252.33c40.68,19.06,37.81,46.12-6.43,60.45s-113.07,10.49-153.76-8.57-37.8-46.12,6.43-60.44S525,233.27,565.69,252.33Z"/><path class="cls-49" d="M532,264.41c23.72,11.11,21.95,26.93-4,35.33s-66.18,6.19-89.91-4.92-22-26.94,4-35.33S508.22,253.29,532,264.41Z"/><path class="cls-50" d="M473,91.67l-89.71,29.05c-6.23,2-11.58,7.51-12,12.26l-3.34,41.84c-.37,4.76,4.37,7,10.6,5l89.71-29c6.23-2,11.58-7.51,12-12.27l3.33-41.84C483.92,91.88,479.18,89.66,473,91.67Zm-2.07,14.53c-.38,4.76-5.73,10.24-12,12.26l-65.75,21.3c-6.23,2-11-.21-10.6-5l.17-2c.37-4.75,5.73-10.23,12-12.25l65.75-21.3c6.23-2,11,.21,10.59,5Z"/><path class="cls-51" d="M477.59,90.78l-89.71,29.05c-6.22,2-11.57,7.51-11.95,12.26l-3.33,41.85c-.38,4.75,4.36,7,10.58,4.95l89.71-29c6.23-2,11.58-7.5,12-12.26l3.33-41.84C488.56,91,483.82,88.76,477.59,90.78Zm-2.07,14.53c-.37,4.75-5.73,10.25-12,12.26L397.8,138.86c-6.22,2-11-.2-10.58-5l.17-2c.37-4.76,5.73-10.25,11.95-12.26L465.1,98.3c6.23-2,11,.21,10.59,5Z"/><polygon class="cls-46" points="156.49 263.09 316.39 337.99 630.7 236.2 470.8 161.29 156.49 263.09"/><polygon class="cls-48" points="162.13 230.78 322.04 305.69 636.35 203.9 476.45 128.99 162.13 230.78"/><polygon class="cls-48" points="472.34 129.62 633.03 204.63 684.95 140.1 524.88 73.64 472.34 129.62"/><path class="cls-52" d="M554.24,77.37c-7.79,3.78-13.43,10.84-19.1,16.07-6.62,6.12-12.83,12-18.68,18.56-4.16,4.67-22.47,20.17-17.87,26.1,2.86,3.71,14.36,4.09,19.34,5,8.31,1.56,12.83,4.34,18.17,8.57,6.31,5,14.78,7.28,23.21,10.28,8.87,3.14,15.61,7.51,23.84,11.26,4.49,2,11.82,6,16.73,5.24,6.7-1.08,14.09-8.61,18-12.15,11.73-10.69,21.14-22.17,32-33.12,6-6.08,19.86-15.83,5.6-22.73-5.38-2.61-17.47-2.31-23.94-3.16-9.29-1.22-20.27-2.78-27.42-7.28a136.38,136.38,0,0,0-27.76-13.48c-6.16-2.28-15.83-10.94-22.76-9.22Z"/><path class="cls-53" d="M655.43,110.47c-4.83-2.35-15.08-2.34-21.82-2.93-8,11.1-28.21,19.09-43.56,23.29a107.72,107.72,0,0,1-35.95,3.71c-15.82-1.09-30.91-4.72-46.42-7a8.34,8.34,0,0,1-4.36-1.85c-4.06,4.85-6.88,9.68-4.73,12.44,2.86,3.71,14.36,4.09,19.34,5,8.31,1.56,12.83,4.34,18.17,8.57,6.31,5,14.78,7.28,23.21,10.28,8.87,3.14,15.61,7.52,23.84,11.26,4.49,2,11.82,6,16.73,5.24,6.7-1.08,14.09-8.61,18-12.15,11.73-10.69,21.14-22.17,32-33.12C655.83,127.12,669.69,117.37,655.43,110.47Z"/><path class="cls-54" d="M472.66,193.94h0c.62-.45,1.23-.92,1.9-1.34Z"/><path class="cls-54" d="M545,190.8c-.53.23-.28.23,0,0Z"/><path class="cls-55" d="M560.81,92.41c-1-2.44-9.25-.4-11.29.27-5.16,1.7-9.93,4.6-14.19,7.2-1.63,1-4.11,2-4.62,3.45a11.26,11.26,0,0,0,0,4.73,12.34,12.34,0,0,0,2.36,5c1,1.47,1.77,3.6,3.25,4.82,2.82-2.59,4.5-6,6.93-8.87a106.81,106.81,0,0,1,8-8.65c1.78-1.66,3.64-3.35,5.62-4.89,1-.78,2.39-2.33,3.88-2.56Z"/><polygon class="cls-46" points="630.7 236.2 635.03 202.13 596.7 217.26 591.48 239.5 630.7 236.2"/><polygon class="cls-46" points="716.83 163.03 719.41 178.45 630.7 236.2 635.03 202.13 714.17 152.86 716.83 163.03"/><path class="cls-50" d="M694.23,120.84l-54.48,32.61c-3.78,2.25-5.85,6.85-4.61,10.25l10.85,30c1.24,3.41,5.31,4.33,9.09,2.07l54.48-32.6c3.78-2.27,5.84-6.86,4.61-10.26l-10.86-30C702.08,119.51,698,118.58,694.23,120.84Zm3.12,10.53c1.24,3.4-.82,8-4.61,10.26l-39.93,23.89c-3.79,2.26-7.85,1.34-9.08-2.06l-.54-1.47c-1.23-3.4.84-8,4.61-10.26l39.94-23.89c3.78-2.26,7.84-1.34,9.08,2.06Z"/><path class="cls-51" d="M697.24,119.59l-54.47,32.6c-3.79,2.26-5.85,6.85-4.61,10.25L649,192.39c1.22,3.41,5.3,4.34,9.08,2.07l54.47-32.6c3.79-2.26,5.85-6.86,4.62-10.26l-10.86-29.95C705.09,118.25,701,117.32,697.24,119.59Zm3.13,10.52c1.23,3.4-.84,8-4.61,10.26l-39.94,23.9c-3.77,2.25-7.85,1.33-9.08-2.07l-.54-1.47c-1.22-3.4.84-8,4.61-10.26l40-23.89c3.78-2.26,7.84-1.34,9.08,2.06Z"/><path class="cls-56" d="M406.25,105.27c.7-.29,2.21.14,2.63-.59a10.74,10.74,0,0,0,2,.17l.1,0c0-.11,0-.27-.09-.41a4.56,4.56,0,0,0-2.15-1.79A14.78,14.78,0,0,0,405,102a54.73,54.73,0,0,0-6.65-.43c-1.14,0-2.3,0-3.45.07a5.81,5.81,0,0,0-1.8.16c-.55.43,1.17.62,1.55.66a5.46,5.46,0,0,0,1.94-.07,4.77,4.77,0,0,1,2,0c-.67.25-1.17.62-1.85.87-.47.16-1.9.84-.78,1.16a9.68,9.68,0,0,0,2.78-.19c.65,0,1.33,0,2-.11s.75-.33,1.15-.41,1.09,0,1.55,0,1.1-.29,1.61-.3.87.18.73.43-.81.37-1.13.48a10.8,10.8,0,0,0-2.27,1.07c-.26.16-.85.4-.49.66a4,4,0,0,0,1.27.19,7.86,7.86,0,0,0,1.86-.34A6.54,6.54,0,0,0,406.25,105.27Z"/><path class="cls-54" d="M432.53,107.22l.12.29.06,0Z"/><path class="cls-57" d="M432.6,112.79a3.6,3.6,0,0,0,.67-1.59,4.43,4.43,0,0,0-.06-1.88,9.06,9.06,0,0,0-.56-1.81,5.63,5.63,0,0,0-1.07-.54l-2-.88c-1.35-.59-2.78-1.13-4.19-1.65-2.47-.9-4.89-1.82-7.38-2.69-1-.35-2-.76-3-1.1a4.84,4.84,0,0,0-2.21-.13,41.27,41.27,0,0,1-6.92-.4c-.86-.08-1.73-.31-2.57-.36a23.34,23.34,0,0,0-2.76.23,27,27,0,0,1-3.37.09c-.33,0-.74-.11-1.05-.09a9.94,9.94,0,0,0-1.13.24,24.32,24.32,0,0,1-2.72.24,1.92,1.92,0,0,0-1.12.26c-.71.67.87,1.1,1.73,1.3a19.31,19.31,0,0,0,3.57.07,28.24,28.24,0,0,1,3.12.53,9,9,0,0,0,2.2.07,2.07,2.07,0,0,1,1.32.11,18.23,18.23,0,0,0,4,1,14.49,14.49,0,0,1,2,.32,9.07,9.07,0,0,1,2.19,1.15c.75.49,1.49,1,2.26,1.44.4.24,1,.53,1.09.86.19.83-2,1.28-2.89,1.55a12.26,12.26,0,0,1-4.22.7,7.28,7.28,0,0,0-3.52.89c-.45.23-1,.43-1.09.84s.46.48,1,.56a11.12,11.12,0,0,0,2.38,0c.9-.05,1.72-.09,2.64-.07,1.89,0,3.74.32,5.64.23a26.84,26.84,0,0,1,4-.14,30.53,30.53,0,0,0,5.56.28,21.22,21.22,0,0,1,5.79.17C431.09,112.83,431.8,113.6,432.6,112.79Z"/><path class="cls-57" d="M517.86,113l-.71-1.45c-8.48.1-17.53,1.66-25.89-.14-6.43-1.39-11.78-3-18.54-3.74-7.94-.85-35.67-.63-42.43-1.35-.22,0-4.37,4.41-6.06,6.11,6.21,1.67,16.69,3.5,22.93,5.12,10.48,2.71,18.83,2.43,29.89,3.51C491.15,122.43,509.07,121.36,517.86,113Z"/><path class="cls-57" d="M491.32,111.56c6.15-1.93,10.86-5.52,16-8.45,2.7-1.53,5.72-2.94,8.26-4.65,2.9-2,3.76-2.85,6.48,0,8.18,8.42-4.34,17.12-13.34,21.74-2.52,1.29-4,2.34-7.16,1.73-2.76-.52-5.45-.91-8.26-1.37-2.51-.41-4.7-1.09-5.16-3.08-.42-1.8,1.26-4.91,3.66-5.3Z"/><path class="cls-55" d="M552.12,183.29a27.91,27.91,0,0,1,2.82-11.22c-2.92,1.54-5.94,3-9.11,4.31-23.72,9.91-53.72,5.81-70.42-8.95-.17.1-.33.22-.49.3,4.78,13.58,16.46,23.23,36.79,27.83,9.92,2.25,20.39,2.67,31,2.53,6.84-.09,8.16-.16,8.77-5C551.93,189.86,551.87,186.55,552.12,183.29Z"/><path class="cls-58" d="M549.69,83.44c-12.26-5.47-26.34,7.88-33.33,12.8-1.77,1.25-6,3.46-6.6,5-.84,2.26,2.62,5.7,4.72,7.25,4.26,3.12,7.24,3.74,11.06.35,4.5-4,8-8.76,11.67-13.13,3.31-4,8.76-7.36,11.09-11.48Z"/><path class="cls-59" d="M561.34,85.86c-2.4-1.06-9.89-1.5-12.55-2.23C535,85,528.9,90.92,526.77,96c0,.07-.11.11-.19.16l-3.8,7.08A31.54,31.54,0,0,1,519,104.9c-2.25.79-4.1.89-5,2.57-1.11,2.06-1.09,4.62-1.34,6.82a41.55,41.55,0,0,0,.29,9.32,19.75,19.75,0,0,1,0,4.21c-.11.21-.21.43-.3.64-2.5,5.43-4.56,11.19-8,16.37a50.39,50.39,0,0,1-9.2,10,29.18,29.18,0,0,0,.09,8.85c2.05,4.87,7.19,9.08,14.74,11.19a72.23,72.23,0,0,0,23.91,2.42,23.23,23.23,0,0,0,9-2.26l1-.49a31.18,31.18,0,0,1,3.68-8.92c3-4.9,8.66-8.43,14.12-12l3.17-2.11c2.28-2.05,4.59-4.09,7-6.05,1.71-1.39,4.27-3.72,7.24-5.87.36-.39.72-.78,1.1-1.17,2.71-2.72,6.64-7.45,11.54-8.65l.48-.09c2-1.23-.56,2.71,2.1,2.29,5.58-2.19,3.86-8,3.6-8.27C598.31,123.71,576.05,92.4,561.34,85.86Z"/><path class="cls-57" d="M579.38,93.07c-2.68-1.25-7.06-.19-10.21-.78-4-.77-15.21-1.18-17.41,1.84l1-.73a41.81,41.81,0,0,1-4.1,6.14c-1.19,1.44-9.47,10.42-9.18,12.11.59,3.49,15.47,1.56,23,0,4.85-1,6.34-1,10.34-3.43A13.54,13.54,0,0,0,579,99C579.53,95.91,582.08,94.32,579.38,93.07Z"/><path class="cls-60" d="M560.18,91c-3.54.19-6.84.84-7.93,2.33l1-.72c-1.22,2.15-1.34,3.48-3,5.44-1.17,1.44-2.94,4.52-2.66,6.21.61,3.49,3.58,4.58,8.45,4.9,3.6.23,8.92.46,12.8-.75C563,103.22,559.07,96.78,560.18,91Z"/><path class="cls-19" d="M557.52,79.91c-.58-.62-3-2.57-3.54-1.64l.42-.72c-1.31,1-2.29,2.23-3.69,3.3s-.54,5.72-.58,7.16a22.75,22.75,0,0,1-.42,4.5c-.57,4,4.31,3.89,7.57.4C560.35,89.61,560.72,83.33,557.52,79.91Z"/><path class="cls-57" d="M587,87.06c6.75-3.24,3.26-11.78-1.62-15.43-3.8-2.84-10.7-4.7-16.15-4.47a41.13,41.13,0,0,0-5.62.6,22.88,22.88,0,0,0-3.31.52.77.77,0,0,0-.3.15l.58.14c-2.39,1.15-3,3.45-5.17,4.76-1.43.85-2.82,2-1.74,3.43s2.19,2.18,1.1,3.7a13.62,13.62,0,0,1-3.14,3c-.73.56-4.33,1.88-4,2.69.46,1.1,4.33,1.45,5.49,2.05-.65.08-1.13,1-1.23,1.45-.06.2.12.42,0,.71s-.42.52-.52.74.06.44-.14.76a11.76,11.76,0,0,1-.87.84c-.5.58-.94,1.11-.76,1.8.31,1.21,3,2,4.46,2.57a24.73,24.73,0,0,0,10.28,1.37c6-.28,14.65-.2,16-5,2.79,1,6.45-1.18,7.88-2.54.69-.67,2.1-1.8,1.8-2.72S588.18,87.14,587,87.06Z"/><path class="cls-61" d="M605,75.29a30.55,30.55,0,0,0-2.88-7.13c-1.49-3-5.41-4.9-9.85-5.94-9.42-2.22-14-2.8-16-2.48a27.34,27.34,0,0,0-6.34,0A26.53,26.53,0,0,0,561.72,62c-3.5,1.56-6.93,3.5-8.39,6.27-1.78,3.4,3.12,5.44,6.23,7.61,3.44,2.38,6.19,5.26,7.3,8.51a17.6,17.6,0,0,1,1,4.09,11.23,11.23,0,0,0,.21,2.72,4,4,0,0,1,1.72-2.3c0,.7-.65,1.32-.75,2,2.43-1.46,5.71-2.23,8.52-3.44.43.11.93.21,1.48.3,2-.35,3.94-1.24,6.2-1.24a6.93,6.93,0,0,1,2.33.45l.2.19-.11-.16a3.14,3.14,0,0,1,.58.3c.62.91-.83,3-1.28,3.49-1.37,1.46-3.34,2-5.79,2.27-1,.1-1.11.08-1.76.65s-1.42,1.31-2.07,2a7.05,7.05,0,0,0-1.53,7.59,5.87,5.87,0,0,0,1.22-1.72c-.38,1.32,1.45,2.95,2.48,4,1.21,1.2,2.49,2.38,3.82,3.47.22-.64-.17-1.41-.11-2.1a3.66,3.66,0,0,1,1.34-2.49c2.06-1.79,5.21-3,7.6-4.65a26.57,26.57,0,0,0,8.4-8.78c1.66-2.82,3.4-5.75,4.14-8.77A14.64,14.64,0,0,0,605,75.29Z"/><path class="cls-59" d="M512.66,118.65c-.49,6.75,2.24,10.2-2.93,16.26a135,135,0,0,1-13.23,13.45c-4.14,3.65-9.1,6.8-12.82,10.57-2.9,2.94-5.81,7.89-10,10,4.79,13.59,16.46,23.23,36.8,27.83,9.92,2.25,20.39,2.67,31,2.53,6.84-.1,8.15-.17,8.77-5,.4-3.19.34-6.5.6-9.75.59-7.8,2.4-13.08,9.33-19.22s10.61-12.13,15.28-19.23a46.76,46.76,0,0,1,9.11-10.76c2.21-1.81,10.45-6,9.18-9C592,122,581,124.12,577,124.48a71.94,71.94,0,0,1-21.48-.83c-7.22-1.56-14.87-5.24-22.31-6-6-.64-16.49,4.78-20.53,1Z"/><path class="cls-52" d="M462.3,131.19c-6.49-3.33-28.76,6.77-35.51,9.15-16.37,5.79-33.79,11.19-50.71,16.15-26.58,7.77-53.91,13.8-79.6,22.2-18.56,6.06-37.2,12.38-55.5,19-6.8,2.46-15.16,4.68-21,8.11-8.35,4.91-7.55,6.1.36,9.55q20.31,8.88,41.64,17.33c16.51,6.57,32.64,11.53,40.92,23.84,7.91,11.77,12,24.14,10.09,36.81-.68,4.46-4.7,10.69,2.56,13.79,7.89,3.38,19.58-4.5,25.53-7.73,6.91-3.76,12.43-8.62,14-14.72,1.69,4.25-1.13,8.67-3.87,12.74,8.19.93,19.78-4.93,26.35-7.69,9.58-4,16.56-5.41,26.88-7.3,14.07-2.58,23.09-11.41,37.52-13.69,6-1,11.87-.54,17.82-2.19,9.42-2.6,17.06-7.47,25.61-11,12.84-5.26,27.57-5.45,41.13-10.65,11.37-4.37,22-9.6,33.11-14.1,5.79-2.36,21-5.37,23.5-10,2.23-4.07-5.09-11.9-7.77-15.46-13.61-18.15-36.56-36.84-61.31-48.49-10.71-5-21.74-8.09-32.7-12.1-6.81-2.49-15.19-9.57-20.88-13.66a4.24,4.24,0,0,1-1.91,1.06Z"/><path class="cls-53" d="M575.94,205.85a131.25,131.25,0,0,0-10.86-12.56c-4.13,4.44-11,7.56-17.56,10.16a265.45,265.45,0,0,1-31.22,9.81C498.07,218,479.36,222,460.45,225.4c-36.92,6.61-78,6.24-116.06,3-19.45-1.64-38.47-4-56.59-9.61-17.3-5.38-33.51-12.25-50.36-18.27a8.34,8.34,0,0,1-1.27-.57c-5.47,1.82-11.24,3.71-15.6,6.27-8.35,4.92-7.55,6.11.35,9.56q20.33,8.87,41.65,17.32c16.52,6.58,32.65,11.53,40.92,23.84,7.91,11.77,12,24.15,10.08,36.83-.68,4.44-4.7,10.67,2.57,13.78,7.89,3.38,19.59-4.5,25.53-7.73,6.91-3.76,12.42-8.63,14-14.73,1.69,4.26-1.13,8.67-3.87,12.74,8.19.94,19.77-4.92,26.35-7.68,9.58-4,16.56-5.42,26.87-7.31,14.09-2.57,23.09-11.4,37.53-13.69,6-.95,11.87-.53,17.82-2.18,9.42-2.61,17.06-7.48,25.61-11,12.83-5.26,27.56-5.45,41.12-10.66,11.38-4.36,22-9.6,33.11-14.1,5.8-2.35,21-5.36,23.51-10C585.94,217.24,578.62,209.41,575.94,205.85Z"/><polygon class="cls-48" points="159.69 254.03 320.17 329.2 325.8 258.44 165.33 183.26 159.69 254.03"/><polygon class="cls-46" points="262.62 253.03 311.34 275.86 312.69 258.87 263.98 236.05 262.62 253.03"/><polygon class="cls-46" points="222.5 234.25 256.32 250.09 257.67 233.09 223.85 217.26 222.5 234.25"/><polygon class="cls-46" points="171.49 210.35 213.34 229.95 214.69 212.96 172.85 193.37 171.49 210.35"/><path class="cls-28" d="M163.94,208.07l2.69-33.69c.57-7.19,7.93-9.82,16.41-5.85l128.59,60.24c8.48,4,14.9,13,14.33,20.25l-2.68,33.69c-.58,7.19-7.94,9.82-16.41,5.85l-128.6-60.24C169.79,224.35,163.37,215.27,163.94,208.07Zm18.81-35.81c-5.95-2.79-11.13-.87-11.54,4.26l-2.68,33.7c-.41,5.14,4.1,11.59,10,14.38l128.6,60.23c5.94,2.79,11.11.88,11.52-4.27l2.69-33.69c.41-5.14-4.09-11.59-10-14.38Z"/><polygon class="cls-46" points="174.08 252.53 308.2 315.35 311.09 278.98 176.98 216.16 174.08 252.53"/><polygon class="cls-46" points="158.95 263.26 316.39 337.99 323.66 328.54 159.85 252.08 158.95 263.26"/><path class="cls-48" d="M451.08,137.1c-20.07,3.14-39.57,11.36-58.8,16.59-17.93,4.87-35.55,10.23-53.34,15.3-13.26,3.78-26.48,8.41-39.12,13.06-7.45,2.74-29,7.13-29.32,13.75,24.62,2.65,51.68-6.89,74.51-11.65,23.4-4.88,48.65-10.67,73.38-11.49,15-.5,25.9,5.85,41.19,1.9,7.08-1.82,12.63-4.51,20.65-3.67,5.36.57,10,3.52,15.59,3.39,24.9-.57-3.4-19.1-10.55-22.57-5.86-2.84-31.68-17.73-36-13.51Z"/><path class="cls-50" d="M612.37,159l-89.72,29c-6.21,2-11.56,7.51-11.94,12.26l-3.34,41.84c-.38,4.76,4.36,7,10.58,5L607.67,218c6.22-2,11.58-7.51,12-12.27L623,163.93C623.34,159.17,618.6,157,612.37,159ZM610.3,173.5c-.38,4.75-5.73,10.24-12,12.26l-65.75,21.29c-6.23,2-11-.2-10.59-5l.16-2c.38-4.76,5.74-10.24,12-12.27l65.75-21.29c6.23-2,11,.21,10.59,5Z"/><path class="cls-48" d="M617,158.08l-89.71,29c-6.23,2-11.59,7.51-12,12.26L512,241.23c-.38,4.76,4.37,7,10.59,5l89.72-29.05c6.22-2,11.57-7.51,11.95-12.26L627.61,163C628,158.28,623.24,156.06,617,158.08ZM615,172.61c-.38,4.75-5.74,10.24-12,12.26l-65.75,21.29c-6.22,2-11-.2-10.58-5l.16-2c.38-4.76,5.73-10.25,12-12.27l65.76-21.29c6.22-2,11,.2,10.59,5Z"/><path class="cls-57" d="M583.37,150.22c.61-.79,2.53-3,2-3.76s-5.3-1.86-6.49-2.18c-3.27-.87-9.68-3.29-11.87-3.16l-.89,1.2c.14-.22.09-.66.64-1-6.24,5.15-8.52,13.73-16.15,17.92-7.94,4.35-17.76,7.67-26.49,11.25-8,3.27-17.64,5.45-25.18,9.16-3.51,1.74-1,3,.53,5.56.72,1.2.09,1.76-.43,2,.29-.06.69-.12,1.35-.2,3.89-.46,17.13-.92,20.86-1.82,4.66-1.13,4.82-1.15,9.55-2.27a240.49,240.49,0,0,0,27.53-8.86c5.35-2,9.5-7,13-10.49A161.23,161.23,0,0,0,583.37,150.22Z"/><path class="cls-54" d="M464.92,193.8a7.3,7.3,0,0,1,1.07.07A9.77,9.77,0,0,0,464.92,193.8Z"/><path class="cls-57" d="M511.33,184.45c-.59-1.48-1.42-2.94-2.05-4.42-.43-1.05-.67-2.57-1.67-3.46l1.73-1c-3,.74-12.79,4.17-13.94,4.47a13.17,13.17,0,0,1-3.89.32c-2.61-.11-5-.66-7.62-.52-2.44.12-4.92,0-7.35-.06-1.72-.06-3.42-.44-5.15-.49-1,0-3.34-.19-4.09.45s1.84,2.24,2.8,2.53c2.09.64,4.48.72,6.58,1.38a9,9,0,0,1,2.6,1.06c.77.6.16,1.15-.39,1.7-1.18,1.16-2.35,2.52-4.33,3-1,.24-2,.34-3,.51-1.25.21-2.39.59-3.63.86-1.6.34-3.42.2-5.1.43a12.16,12.16,0,0,0-3,.84c-1.13.48-1.12.69.14,1a15.08,15.08,0,0,0,3.22.65c.54,0,1.13,0,1.72,0a9.77,9.77,0,0,1,1.07.07,7.3,7.3,0,0,0-1.07-.07,1.61,1.61,0,0,0-.22,0c.06,0,.15,0,.2.06-.69,0-4.27-.3-2.45.55a18.49,18.49,0,0,0,6.14,1.23,19.47,19.47,0,0,0,5,.31,23.1,23.1,0,0,1,7.14-.33,6.73,6.73,0,0,0,3,.23c.86-.29,1.58-.85,2.41-1.2,2.11-.87,4.23-1.69,6.28-2.63a38.07,38.07,0,0,0,5.73-3.21,8.77,8.77,0,0,1,4.56-1.95c2.09-.26,4.24-.28,6.33-.53a7.53,7.53,0,0,0,2.28-.31C511.84,185.68,511.5,184.88,511.33,184.45Z"/><path class="cls-62" d="M490.41,189.73c-1,.27-2.09.55-3.16.77-1.86.37-3.66.86-5.48,1.27a9,9,0,0,1-2.88.43c-.51,0-2-.29-2.26,0l.28-.07c-.25-.54-7.53.94-8.62,1.08a35.53,35.53,0,0,1-3.72.22,31.11,31.11,0,0,0-3.59-.1,18.54,18.54,0,0,0,4.78,1.07,17.55,17.55,0,0,0,4.87-.54,39.27,39.27,0,0,1,6.44-.65,11.82,11.82,0,0,1,1.91.09c.72.15,1,.65,1.85.47.3-.05.49-.26.81-.32a9.78,9.78,0,0,1,1.08,0c1.19-.07,1.78-.77,2.61-1.25a18.73,18.73,0,0,1,3.63-1.4c1.19-.38,3-.82,3.73-1.57A8.22,8.22,0,0,0,490.41,189.73Z"/><path class="cls-62" d="M502.47,184.72c-.83.09-1.68.15-2.54.23-.31.72-1.56,1.29-2.37,1.75a27.88,27.88,0,0,1-3.81,2c-2.62,1-5.15,2.16-7.61,3.36L483,193.58a5.06,5.06,0,0,1-2,.34c-1.39.11-2.75-.19-4.05,0-2.66.43-5.06,1.12-7.8.83-1.2-.13-2.4-.14-3.61-.35a11.28,11.28,0,0,0-3.52-.54c-.83,1.08,8.1,2,9.09,2.09,1.51.15,3.14-.39,4.66-.57a21.08,21.08,0,0,1,5,0c.78.09,1.54.27,2.33.33a3.63,3.63,0,0,0,2.13-.59c.83-.38,1.76-.65,2.6-1s1.78-.91,2.7-1.3a55.2,55.2,0,0,0,6-3c1.35-.77,2.44-1.57,3.65-2.42,1-.72,2.9-.8,4.33-.91,1.82-.14,3.65-.14,5.45-.32.26,0,.73,0,1.12-.07-2.22-.27-4.44-.61-6.65-.9A6.73,6.73,0,0,1,502.47,184.72Z"/><path class="cls-59" d="M598,123c4.64,8-1,15.38-4.78,22.59-3.45,6.49-7.22,14-13,19.63-2.58-.75-5.21-1-7.85-1.91-3.56-1.19-6.87-2.65-10.36-4-4.89-1.84-10-3.64-14.58-5.5,2.36-2.48,5.47-4.6,7.72-7.16a162.87,162.87,0,0,1,12.55-13.54c4.74-4.35,10.5-8.73,17.91-11,4-1.2,9.24-1.87,12.44.79Z"/><path class="cls-58" d="M573.12,137.41c4.21-5.77,9.16-11.84,16.17-16.09a29.57,29.57,0,0,0-3.6.81c-7.41,2.22-13.17,6.6-17.9,11a166.67,166.67,0,0,0-12.57,13.54c-2.23,2.57-5.34,4.69-7.7,7.16,4.54,1.86,9.69,3.67,14.57,5.5,3,1.11,5.86,2.31,8.84,3.39C567.33,154.3,567.25,145.42,573.12,137.41Z"/><polygon class="cls-46" points="151.99 277.96 322.49 359.11 324.46 346.73 157.29 265.98 151.99 277.96"/><polygon class="cls-46" points="696.03 238.14 322.49 359.11 323.45 347.06 696.99 226.09 696.03 238.14"/><path class="cls-46" d="M159.87,259.41c-3.43,3.9-17.63,17.44-4.08,21.12,14.63,4,22.6-17.4,3.36-19.55Z"/><g class="cls-3"><g class="cls-3"><g class="cls-63"><g class="cls-3"><path class="cls-34" d="M326.94,365.73l-4.07-1.92A19.57,19.57,0,0,0,331,358.7l4.06,1.92a19.81,19.81,0,0,1-8.12,5.11Z"/></g></g></g><g class="cls-3"><g class="cls-64"><g class="cls-3"><path class="cls-34" d="M326.94,365.73l-4.07-1.92A19.57,19.57,0,0,0,331,358.7l4.06,1.92a19.81,19.81,0,0,1-8.12,5.11Z"/><path class="cls-36" d="M335.06,360.62,331,358.7a9.25,9.25,0,0,0,2.72-5.27,3.72,3.72,0,0,0-2.25-3.83l4.07,1.92a3.69,3.69,0,0,1,2.24,3.82,9.24,9.24,0,0,1-2.72,5.28Z"/></g></g></g><g class="cls-3"><g class="cls-65"><g class="cls-3"><path class="cls-36" d="M319.4,365.86,315.34,364a5.94,5.94,0,0,0,1.19.4l4.06,1.92a6.17,6.17,0,0,1-1.19-.41Z"/><path class="cls-34" d="M320.59,366.27l-4.06-1.92a12,12,0,0,0,6.34-.54l4.07,1.92a12.16,12.16,0,0,1-6.35.54Z"/></g></g></g><g class="cls-3"><g class="cls-66"><g class="cls-3"><path class="cls-39" d="M328,351.65l-4.07-1.91a12.06,12.06,0,0,1,6.35-.54l4.06,1.91a12.12,12.12,0,0,0-6.34.54Z"/><path class="cls-40" d="M334.34,351.11l-4.06-1.91a5.94,5.94,0,0,1,1.19.4l4.07,1.92a6.27,6.27,0,0,0-1.2-.41Z"/></g></g></g><g class="cls-3"><g class="cls-67"><g class="cls-3"><path class="cls-40" d="M319.4,365.86,315.34,364a3.7,3.7,0,0,1-2.25-3.84,9.26,9.26,0,0,1,2.72-5.26l4.06,1.91a9.25,9.25,0,0,0-2.72,5.27,3.7,3.7,0,0,0,2.25,3.83Z"/><path class="cls-39" d="M319.87,356.76l-4.06-1.91a19.54,19.54,0,0,1,8.12-5.11l4.07,1.91a19.78,19.78,0,0,0-8.13,5.11Z"/></g></g></g><path class="cls-42" d="M328,351.65c5.69-1.84,10.08-.18,9.78,3.69s-5.15,8.54-10.84,10.39-10.08.19-9.79-3.7S322.3,353.5,328,351.65Z"/><g class="cls-3"><g class="cls-68"><g class="cls-3"><path class="cls-34" d="M328.46,345.53l-4.07-1.92a18.35,18.35,0,0,1,9.64-.76l4.06,1.92a18.21,18.21,0,0,0-9.63.76Z"/><path class="cls-36" d="M338.09,344.77,334,342.85a10.65,10.65,0,0,1,2,.7l4.06,1.92a9.8,9.8,0,0,0-2-.7Z"/></g></g></g><path class="cls-44" d="M328.46,345.53c9.38-3,16.54.39,16,7.66s-8.61,15.62-18,18.66-16.54-.39-16-7.66S319.08,348.57,328.46,345.53Zm-1.52,20.2c5.69-1.85,10.55-6.5,10.84-10.39s-4.09-5.53-9.78-3.69-10.56,6.5-10.85,10.38,4.09,5.54,9.79,3.7Z"/><g class="cls-3"><g class="cls-69"><g class="cls-3"><path class="cls-36" d="M314.8,371.91,310.74,370a7.42,7.42,0,0,1-4.33-7.73c.27-3.49,2.27-7.24,5.32-10.53l4.06,1.92c-3.05,3.28-5.05,7-5.31,10.53a7.4,7.4,0,0,0,4.32,7.72Z"/><path class="cls-34" d="M315.79,353.66l-4.06-1.92a30.61,30.61,0,0,1,12.66-8.13l4.07,1.92a30.45,30.45,0,0,0-12.67,8.13Z"/></g></g></g></g><g class="cls-3"><g class="cls-3"><g class="cls-70"><g class="cls-3"><path class="cls-34" d="M685.55,246.39l-4.06-1.91a19.78,19.78,0,0,0,8.13-5.11l4.06,1.91a19.51,19.51,0,0,1-8.13,5.11Z"/></g></g></g><g class="cls-3"><g class="cls-71"><g class="cls-3"><path class="cls-34" d="M685.55,246.39l-4.06-1.91a19.78,19.78,0,0,0,8.13-5.11l4.06,1.91a19.51,19.51,0,0,1-8.13,5.11Z"/><path class="cls-36" d="M693.68,241.28l-4.06-1.91a9.27,9.27,0,0,0,2.72-5.28,3.68,3.68,0,0,0-2.25-3.82l4.07,1.92A3.67,3.67,0,0,1,696.4,236a9.19,9.19,0,0,1-2.72,5.27Z"/></g></g></g><g class="cls-3"><g class="cls-72"><g class="cls-3"><path class="cls-36" d="M678,246.52,674,244.61a6,6,0,0,0,1.19.41l4.07,1.91a5.21,5.21,0,0,1-1.19-.41Z"/><path class="cls-34" d="M679.22,246.93,675.15,245a12.12,12.12,0,0,0,6.34-.54l4.06,1.91a12.09,12.09,0,0,1-6.33.54Z"/></g></g></g><g class="cls-3"><g class="cls-73"><g class="cls-3"><path class="cls-39" d="M686.62,232.32l-4.07-1.92a12.16,12.16,0,0,1,6.35-.54l4.06,1.92a12,12,0,0,0-6.34.54Z"/><path class="cls-40" d="M693,231.78l-4.06-1.92a6,6,0,0,1,1.19.41l4.07,1.92a5.65,5.65,0,0,0-1.2-.41Z"/></g></g></g><g class="cls-3"><g class="cls-74"><g class="cls-3"><path class="cls-40" d="M678,246.52,674,244.61a3.69,3.69,0,0,1-2.25-3.83,9.25,9.25,0,0,1,2.72-5.27l4.06,1.92a9.23,9.23,0,0,0-2.72,5.26,3.68,3.68,0,0,0,2.26,3.83Z"/><path class="cls-39" d="M678.49,237.43l-4.06-1.92a19.74,19.74,0,0,1,8.12-5.11l4.07,1.92a19.57,19.57,0,0,0-8.13,5.11Z"/></g></g></g><path class="cls-42" d="M686.62,232.32c5.7-1.85,10.08-.19,9.78,3.69s-5.14,8.54-10.85,10.38-10.07.19-9.78-3.7S680.92,234.16,686.62,232.32Z"/><g class="cls-3"><g class="cls-75"><g class="cls-3"><path class="cls-34" d="M687.08,226.19,683,224.28a18.26,18.26,0,0,1,9.64-.77l4.06,1.92a18.32,18.32,0,0,0-9.63.76Z"/><path class="cls-36" d="M696.71,225.43l-4.06-1.92a10.43,10.43,0,0,1,2,.71l4.07,1.91a10.51,10.51,0,0,0-2-.7Z"/></g></g></g><path class="cls-44" d="M687.08,226.19c9.38-3,16.55.39,16,7.66s-8.6,15.63-18,18.67-16.54-.4-16-7.66S677.7,229.23,687.08,226.19Zm-1.53,20.2c5.71-1.84,10.56-6.49,10.85-10.38s-4.08-5.54-9.78-3.69-10.56,6.49-10.85,10.37,4.09,5.55,9.78,3.7Z"/><g class="cls-3"><g class="cls-76"><g class="cls-3"><path class="cls-36" d="M673.43,252.58l-4.07-1.92a7.41,7.41,0,0,1-4.33-7.72c.27-3.5,2.27-7.25,5.32-10.53l4.06,1.91c-3,3.29-5,7-5.31,10.54a7.41,7.41,0,0,0,4.33,7.72Z"/><path class="cls-34" d="M674.41,234.32l-4.06-1.91A30.51,30.51,0,0,1,683,224.28l4.07,1.91a30.65,30.65,0,0,0-12.67,8.13Z"/></g></g></g></g><path class="cls-8" d="M511.8,426.13c-1.27,15.93-44.4,26.33-96.32,23.22s-93-18.54-91.73-34.48,44.39-26.33,96.32-23.22S513.07,410.2,511.8,426.13Z"/><polygon class="cls-77" points="456.4 212.61 513.7 250.45 537.88 179.55 480.58 141.71 456.4 212.61"/><polygon class="cls-78" points="463.21 213.02 509.54 243.61 531.54 179.09 485.22 148.5 463.21 213.02"/><polygon class="cls-79" points="466.83 209.58 509.44 237.71 529.38 179.21 486.78 151.08 466.83 209.58"/><polygon class="cls-80" points="475.51 154.9 501.42 184.11 511.74 174.41 485.84 145.19 475.51 154.9"/><path class="cls-81" d="M494.56,154.05c-.86,2.52.73,6.06,3.56,7.92l17.39,11.49c2.82,1.87,5.81,1.34,6.66-1.18h0c.86-2.52-.73-6.07-3.55-7.93l-17.4-11.49c-2.83-1.86-5.8-1.34-6.66,1.19Z"/><path class="cls-81" d="M504.68,154.68a3.16,3.16,0,0,0,1.48,3.3l6.82,4.51c1.18.78,2.43.56,2.78-.49h0a3.14,3.14,0,0,0-1.47-3.3l-6.83-4.52c-1.19-.77-2.43-.55-2.78.5Z"/><path class="cls-82" d="M363,290.06c-2.08,3.78,6.36,1,0,0Z"/><path class="cls-82" d="M350.7,230.73a5.92,5.92,0,0,1,1.17-.51,2.37,2.37,0,0,0,.14-.32Z"/><path class="cls-81" d="M364.35,386.92c-9,.62-29,5.38-31.38,11.14l-3.84,1c-1.16,6.24,2.2,12.06,11.2,13.69,12.84,2.33,19.42-.06,25.33-5.91,4.65-4.64,8.66-4.85,12-10.06C382.55,389.26,375.38,386.16,364.35,386.92Z"/><path class="cls-83" d="M390.85,284.53c-6.51,0-11.94.69-17,3.46-2.87,1.58-8.63,4.72-8.39,7.51l-2.71-.48c2.61.94-2.82,14.82-3.7,17.74-1.69,5.5-2.09,11.09-2.26,16.76-.2,6.45-1.14,14.25,3.63,19.83,7.45,8.71,19.9,3.36,28.6-2.79a48.22,48.22,0,0,0,7.81-6.39c5.74-6.69,10.84-14.34,15.88-21.34,3.75-5.21,9.51-14.83,7.72-20.95C417.92,289.24,402.13,284.57,390.85,284.53Z"/><path class="cls-83" d="M364.86,323.33l-2.21,1c1.72-.12,2.32,7.16.83,8.88-1.26,1.46-5.65,2.86-7.65,4a48.66,48.66,0,0,0-19.42,21.07c-5.71,11.62-11.29,26-10.32,39.3,3.71,3.73,6.88,7.78,12.8,10.12,7.95,3.17,27.16,1.74,31.13-3.82a14,14,0,0,0,1.13-2.19c4.55-19.78,10.85-35.14,17.5-54.43,2.63-7.63,6.6-14.2-1.41-21.36C382.92,322.05,368.63,315.53,364.86,323.33Z"/><path class="cls-84" d="M398.87,302.37c-1.65,2.91-5.78,15.21-7.47,18.15a46.35,46.35,0,0,1-6.75,8.21c-2.16,2.27-5.25,4.86-6.22,7.56s-.14,5.7,0,8.47a23.42,23.42,0,0,1-1.36,9.24,55.86,55.86,0,0,1-10.45,17.41,53.06,53.06,0,0,1-37.19,17.9,6.42,6.42,0,0,1-3.25-.58,45.37,45.37,0,0,0-.07,8.87c3.7,3.73,6.7,7.83,12.6,10.17,7.95,3.16,27.36,1.69,31.33-3.87a13.49,13.49,0,0,0,1-2.14c4.54-19.76,10.84-35.13,17.49-54.42.71-2.12,4-.37,14.24-14.44.91-1.27,4-6.9,5-8.17-3.22-3.3-4.2-14.93-5.71-18.23C401.12,304.68,401.1,303.83,398.87,302.37Z"/><path class="cls-82" d="M471.88,434.09c-7-.06-13.23,1.81-19.78,3.29-8.33,1.89-17.76,1.45-26.42,1.71-5,.16-10.52,1.1-15.36.92-3.8-.14-6.56-3.19-10.12-4l-.46.27a7.34,7.34,0,0,0,1.33,6.37c1.57,1.72,3.68,2.61,6.53,3.23,2.63.57,6,1.28,8.77.81,3.76-.65,5.24-2,6.24-4.21-.12-.41-.6.44.6,1s1.54,1.17,3.58,1.62a47.93,47.93,0,0,0,8.4,1,94.26,94.26,0,0,0,38-6C479.24,437.77,480.4,434.18,471.88,434.09Z"/><path class="cls-82" d="M331.25,408l0,.38c.69,9.9,31.36,10.83,31.69.74a59.31,59.31,0,0,1-16.39,1.07C344.21,410.05,331.9,408.44,331.25,408Z"/><path class="cls-81" d="M468.23,432.28c-7.12-1.43-14.61-3.37-22.08-4.57a91.54,91.54,0,0,0-29,.37c-4.33.73-15.63,1.86-17.19,5.11a1.85,1.85,0,0,0,.47,0l.6-.18a1.44,1.44,0,0,1-.6.18l-.87.27c-.09,4.42,1.07,8.68,8.68,10.31,2.91.63,7.61,1.43,10.67,1.07s2.56-1,4.09-2.78c5.34,3.86,20.22,3,26.86,2.44,8.91-.79,13.32-3.17,21.4-5.85,1.68-.56,6-2.13,5.3-3.84C476,433.29,470.09,432.65,468.23,432.28Z"/><path class="cls-81" d="M400.43,433.18a1.44,1.44,0,0,0,.6-.18Z"/><path class="cls-83" d="M444.14,383.35c2.6-19,1.56-38.07,5.62-56.78.9-4.12,4.28-8.82,3.66-12.92-.84-5.48-8.14-4.33-17-4.67-8.24-.3-16.41-.58-24.44-.46-3.54.06-8.29-.32-11.48.47-2.95.73-6.11,2.48-6.55,2.46l-.8-.48c5.69,4.16,3.86,13.1,6.14,18.29,2.54,5.74,9.28,12.32,9.06,18.2-.07,1.64-2,3.57-1.81,4.86.34,2.21,3,3.47,3.12,5.51.16,3.42-5.49,6.11-7.82,9.14-7.48,9.68-9.71,22-9.78,32.75,0,4.92,1.15,32.94,1.15,32.94s17.17,8.5,34.48,6.2c9.44-1.26,24.9-4.2,22.28-9C443.48,417.9,442.32,396.59,444.14,383.35Z"/><path class="cls-85" d="M446.15,159.48c-2.23,0-2-1.6-3.78-2.22-5.29-1.84-6.52,2.56-6.25,5,.29,2.73-3.47,4.78-4.77,7.3s-5.09,13.27,4.64,11.58c4-.7,4.51-3.41,6.57-5.55,2.45-2.6,5.65-5,7.17-8,1.24-2.43-.67-4.93,1.75-7a7.75,7.75,0,0,0,2.89-3.75,27.1,27.1,0,0,0,.41-3.81,20.63,20.63,0,0,1-3.81,4.15C449.86,157.89,447.86,159.5,446.15,159.48Z"/><path class="cls-85" d="M455.23,150.93l0,.79a3.22,3.22,0,0,0-.42,1.29C455.45,152,455.78,151.16,455.23,150.93Z"/><path class="cls-86" d="M430.51,131.17l1.8.38c-20-3.71-30.71,9.22-31.85,20.93-.67,7,2.48,23.12-8.88,26.53-.58,3.66,16.86,7.83,21.26,8.76,7.66,1.63,15.5,5.61,17.3-.54,1.52-5.12,1.07-12.35,4.94-17,2.09-2.52,2.2-2.74,1.64-5.79-.42-2.29-1.31-5.14,2.55-6.38a9.47,9.47,0,0,1,4.35-.16,8.72,8.72,0,0,1,.94,3.67c9.86-.42,11.34-12.7,10-17.65C452.15,135.19,441.17,132.36,430.51,131.17Z"/><path class="cls-86" d="M438.38,191.45c-1.82-1.15-4-2.13-5.26-3.64-2.59-3.09-2.13-6.46-1.57-9.71l-.45.29a36.37,36.37,0,0,1-9.84,1.51,33.73,33.73,0,0,0-9.69,1.39c-3.12,1.1-8.95,2.73-8.34,5.76.54,2.69,5.11,4.06,8.23,4.95,4.17,1.19,8.42,2.29,12.73,3.16,4.63.94,15.6,2.9,19.1-.12C441.69,193.82,440.17,192.56,438.38,191.45Z"/><path class="cls-81" d="M454.11,139.5a13.34,13.34,0,0,0-5-4.21c-9.44-5.3-23.45-6.3-34-3.13-5.42,1.63-9,3.38-11.79,7-3.27,4.2-6,9.27-6.1,14.12,0,4.42,3,7.77,6.22,11.45,2.53,2.92,2.73,6.12,2,9.37,1.78-1.62,2.15-3.8,4.19-5.37,1.71-1.32,4.37-3.1,6.9-3.56,2.14-.39,4.5.22,6.53.63a44.64,44.64,0,0,0,8.75.76c5.88-.17,3.41-4.34,5.29-7A6.54,6.54,0,0,1,441.3,157c3.05.43,3.1,2.84,3.21,5.18,5.34-.76,10.73-5.17,10.87-8.88,0,.8-.08,1.62,0,2.42,3.14-.56,4.08-5.61,4.25-7.44a8.81,8.81,0,0,0-3.09-7.17A9.85,9.85,0,0,0,454.11,139.5Z"/><path class="cls-81" d="M393.67,174.11c-.13,0-.31.09-.46.14a3,3,0,0,0-.66.76Z"/><path class="cls-87" d="M441.93,193.35c-1.28-.77-2.48-1.77-3.75-2.53-1.9-1.12-3-.78-5.75-.72a103.63,103.63,0,0,1-16.06-.81c-9.58-1.3-16.31-4.75-18.79-11.49-.35-.94-2.44-5.1-4.37-3.55.15-.05.33-.09.46-.14l-1.12.9a3,3,0,0,1,.66-.76c-2,.59-5.95,1.07-6.9,2.19-1.86,2.13.55,7.57,1.8,9.61,6.1,9.85,19.9,16.63,35.4,17.08,7.43.22,25.26,1.78,27.95-3.06C452.39,198.39,444.79,195.07,441.93,193.35Z"/><path class="cls-88" d="M445.5,369.56l-1.36,13.79C444.76,378.75,445.17,374.16,445.5,369.56Z"/><path class="cls-88" d="M445.5,369.56l4.26-43C446.69,340.76,446.53,355.14,445.5,369.56Z"/><path class="cls-82" d="M455.5,201.71l.53.11.16,0C456,201.79,455.74,201.74,455.5,201.71Z"/><path class="cls-82" d="M456.19,201.84c1.25.23,2.42.49,3.6.79A27.24,27.24,0,0,0,456.19,201.84Z"/><path class="cls-82" d="M456.19,201.84l-.16,0,3.76.81C458.61,202.33,457.44,202.07,456.19,201.84Z"/><path class="cls-86" d="M376.49,187.78c-.77-5.68-.39-9.09,5.71-12.67l-1.09-.36c-10.82-1.52-16.12,7.58-17.77,12a317.09,317.09,0,0,0-10.24,30.73,61.17,61.17,0,0,0-2,13.74c-.09,2.64-1.44,6.56.41,9,4.88,6.56,19.5,1.27,26-.9,7.73-2.58,11.81-4.43,12.83-9.89,1.31-7.14-.06-13.92-4.28-20.73C382,202.16,377.42,194.69,376.49,187.78Z"/><path class="cls-87" d="M372.45,266.73c3-2.76,5.89-29.64,5.21-31.56-1.3-3.68-11.84-47.67-9.23-56.31,6.51-9.3,20.13-5.79,31.39-.85.95,5.28,6.26,10.19,16.26,10.79a26,26,0,0,0,7.14-.49c4.62,1.84,9.41,3.54,14.54,5.05,4.91,1.44,11.36,3.75,18,6.33,5,3.43,9.41,6.9,11.43,12.06,3,7.72,1.91,16.65-.14,24.29-2.24,8.39-5.8,50-4,56.73.78,2.88,4.32,16.75,5,19.64-24.55,15.35-81.86,2.14-111.72-9.65-1.48-.58,0-.28-1.48-.58C359.31,294.67,358.13,279.8,372.45,266.73Z"/><path class="cls-89" d="M534.23,217a8.75,8.75,0,0,1-1.11,1.77A6.92,6.92,0,0,0,534,215c-.15-1-.35-1.94-.6-2.92a10.28,10.28,0,0,1-.3-2.28,4.52,4.52,0,0,0-1.56-2.12c-8.62-4.57-1.58,3.64-4.88,5.9-3.75,2.56-6.74,9.75-12.59,8.89-.43-2.53.66-5.16.54-7.75-5.11-.63-8,11.1-9.23,13.63l-.14,1.71c.31,3,9.36,5.72,13.47,6.11,5.07.48,8.15-1.9,11.65-4.23.81-.54,2.08-1.42,3.53-2.5A65.72,65.72,0,0,0,534.23,217Z"/><path class="cls-28" d="M433.07,186.9c-.81,1.77-9.06,1.08-11.42.92a56.27,56.27,0,0,1-12.79-2.59c-7-2.21-10.64-7.64-10.5-12.62h-.27c-6.65-.2-3.19,6.78-1.63,8.73,2.94,3.67,9.38,6.9,15.2,8.29a75.49,75.49,0,0,0,16.08,1.94c2.81,0,8-.18,10.11-1.44C435.1,190.16,434.49,187.73,433.07,186.9Z"/><path class="cls-87" d="M377.17,173.24c-6.28-1-11.16,4.19-14.54,7-1.74,1.5-4.82,3.45-5.73,5.29-1.1,2.24.24,2,1.38,4.07,1.82,3.26.34,5.66,3.93,8.48a89.7,89.7,0,0,0,10.14,6.18c1-5.21-.83-11.06-.39-16.54.31-3.86,1.57-12.38,7-14.11Z"/><path class="cls-83" d="M453.83,315.06c-1,13-2.05,25.75.39,38.78.74,3.92,3,8.22,2.32,12.14-.61,3.35-4.53,5.47-6.21,8.55s-.07,5.84-.6,8.92c-.61,3.53-2.79,6.42-2.62,10.23.36,7.65,6.88,14.86,6.78,22.61-.07,4.47.15,11-3.87,14.57-4.21,3.75-10.37,1.11-13.92-2.06C425,418.89,421.89,407,421.29,395c-.67-13.27,1.26-26.51,4.6-39.49,1.8-7,4-15.7,8.85-21.94,5.07-6.54,12.44-11.29,19.39-16.66Z"/><path class="cls-89" d="M505.32,229.22c-.4,3.05.39,4.26-2.46,6.63-2.63,2.2-6,4.16-8.84,6.23-7,5.18-14,13.51-11.26,21.18,1.88,5.14,11.2,7.42,17.15,4.39s10-8.51,13.63-12.72c4.85-5.66,3.63-10.23,9.8-20.57a175.65,175.65,0,0,1-17.17-4.47Z"/><path class="cls-86" d="M478.3,217.06c-4.75-5.23-9.74-12.25-18.51-14.43l-3.76-.81c-14-2.06-20.71,9.23-20.57,13.66.28,9.05,10.9,20.49,17.65,28.18s15,16.39,23.84,22.76c6.72,4.85,14.87,4.84,22.45,1,12-6.1-3.3-22.58-7.51-30.43A97.23,97.23,0,0,0,478.3,217.06Z"/><path class="cls-87" d="M453.59,199.05c7.58-2.17,25.14,13.29,29.14,17.39-5.29-.12-7.79-.26-10.8,3-1.51,1.65-2.16,3.51-4.55,4.73s-5.29,1.27-7.86,2.22c-6.82,2.57-13.89,10.25-10,15.84-12.64-7.76-21.58-18.25-19.1-30,2-9.42,13.06-13.74,25.85-13Z"/></g></g></g></svg>