<svg id="Layer_1" data-name="Layer 1" xmlns="http://www.w3.org/2000/svg" viewBox="0 0 361 367"><defs><style>.cls-1,.cls-2,.cls-20,.cls-21,.cls-23,.cls-3,.cls-4,.cls-5,.cls-6{isolation:isolate;}.cls-1,.cls-2,.cls-3,.cls-4{font-size:48px;fill:#d41c5c;font-family:TimesNewRomanPS-BoldMT, Times New Roman;}.cls-1,.cls-2,.cls-27,.cls-3,.cls-4{font-weight:700;}.cls-1{letter-spacing:-0.07em;}.cls-3{letter-spacing:-0.02em;}.cls-4{letter-spacing:-0.11em;}.cls-5,.cls-6{font-size:21px;fill:#676767;font-family:ACaslonPro-Regular, Adobe Caslon Pro;}.cls-6{letter-spacing:-0.12em;}.cls-7{fill:#4ca9d5;}.cls-8{fill:#49658c;}.cls-9{fill:#c9c9c9;}.cls-10{fill:#f0efef;}.cls-11{fill:#2a2425;}.cls-12{fill:#3c3c3c;}.cls-13{fill:#f8a980;}.cls-14{fill:none;}.cls-15{fill:#57b8e8;}.cls-16{fill:#e5e5e4;}.cls-17,.cls-23,.cls-27{fill:#fff;}.cls-18{fill:#515050;}.cls-19,.cls-20,.cls-21{fill:#fcc38c;}.cls-20{opacity:0.5;}.cls-21{opacity:0.35;}.cls-22{fill:#e56b59;}.cls-23{opacity:0.15;}.cls-24{fill:#794526;}.cls-25{fill:#fbbe84;}.cls-26{fill:#d31c5c;opacity:0.9;}.cls-27{font-size:14.41px;font-family:MyriadPro-Bold, Myriad Pro;}.cls-28{letter-spacing:-0.01em;}.cls-29{letter-spacing:0em;}.cls-30{letter-spacing:0em;}.cls-31{letter-spacing:-0.01em;}</style></defs><title>message2</title><text class="cls-1" transform="translate(25.17 39.89) scale(0.81 1)">W</text><text class="cls-2" transform="translate(61.9 39.89) scale(0.81 1)">e Ca</text><text class="cls-3" transform="translate(136.4 39.89) scale(0.81 1)">r</text><text class="cls-2" transform="translate(152.96 39.89) scale(0.81 1)">e Like </text><text class="cls-4" transform="translate(25.17 97.49) scale(0.81 1)">A</text><text class="cls-2" transform="translate(61.9 97.49) scale(0.81 1)"><tspan xml:space="preserve"> Family</tspan></text><text class="cls-5" transform="translate(25.17 139.68)">F</text><text class="cls-5" transform="translate(36.97 139.68)">r</text><text class="cls-5" transform="translate(43.92 139.68)">o</text><text class="cls-5" transform="translate(54.28 139.68)">m the m</text><text class="cls-5" transform="translate(125.76 139.68)">o</text><text class="cls-5" transform="translate(136.11 139.68)">ment </text><text class="cls-5" transform="translate(185.19 139.68)">y</text><text class="cls-5" transform="translate(194.09 139.68)">ou ar</text><text class="cls-5" transform="translate(236.64 139.68)">r</text><text class="cls-5" transform="translate(244.01 139.68)">i</text><text class="cls-5" transform="translate(249.61 139.68)">v</text><text class="cls-5" transform="translate(258.58 139.68)">e</text><text class="cls-5" transform="translate(25.17 164.88)">at Divine Hospital</text><text class="cls-6" transform="translate(182.29 164.88)">,</text><text class="cls-5" transform="translate(186.15 164.88)"> </text><text class="cls-5" transform="translate(191.49 164.88)">w</text><text class="cls-5" transform="translate(205.77 164.88)">e&apos;</text><text class="cls-5" transform="translate(219.04 164.88)">l</text><text class="cls-5" transform="translate(224.52 164.88)">l</text><text class="cls-5" transform="translate(25.17 190.08)">ensu</text><text class="cls-5" transform="translate(63.39 190.08)">r</text><text class="cls-5" transform="translate(70.34 190.08)">e the standa</text><text class="cls-5" transform="translate(171.14 190.08)">r</text><text class="cls-5" transform="translate(178.09 190.08)">d of </text><text class="cls-5" transform="translate(216.67 190.08)">c</text><text class="cls-5" transform="translate(225.51 190.08)">a</text><text class="cls-5" transform="translate(234.47 190.08)">r</text><text class="cls-5" transform="translate(241.42 190.08)">e </text><text class="cls-5" transform="translate(25.17 215.28)">y</text><text class="cls-5" transform="translate(34.07 215.28)">ou </text><text class="cls-5" transform="translate(60.49 215.28)">r</text><text class="cls-5" transform="translate(67.44 215.28)">ecei</text><text class="cls-5" transform="translate(99.57 215.28)">v</text><text class="cls-5" transform="translate(108.54 215.28)">e is e</text><text class="cls-5" transform="translate(150.18 215.28)">x</text><text class="cls-5" transform="translate(159.27 215.28)">cepti</text><text class="cls-5" transform="translate(199.95 215.28)">o</text><text class="cls-5" transform="translate(210.3 215.28)">nal</text><text class="cls-6" transform="translate(235.82 215.28)">.</text><path class="cls-7" d="M317.3,212.5h-1.9l-12.6-6.1-12.6,6.1h-1.9c-8.6.4-12.6,4.7-12.4,9h0c0,.5,5.1,31.2,5.1,31.2l-1.9,13.6h47.4l-1.9-13.6s5.1-30.7,5.1-31.2h0C329.9,217.2,325.8,212.9,317.3,212.5Z"/><polygon class="cls-8" points="294.7 257.5 300.8 219.7 302.8 217.4 304.7 219.7 310.8 257.5 302.8 265.4 294.7 257.5"/><path class="cls-9" d="M300.6,220.9l.2-1.2,2-2.3,2,2.3.2,1.4a10.05,10.05,0,0,0-2.5-.4A11.08,11.08,0,0,0,300.6,220.9Z"/><polygon class="cls-10" points="322.5 337.5 322.2 344 322.2 344 306.5 344 306.4 337.5 322.5 337.5"/><path class="cls-11" d="M311.6,356h-5.3l.2-12h15.7l5.3,3.5,9.7,2.5c2.9.9,3.6,3,2.3,5l-.6,1H323.8c-4.7,0-11.5-3.4-11.5-3.4Z"/><polygon class="cls-10" points="283 337.5 283.3 344 283.3 344 299 344 299.1 337.5 283 337.5"/><path class="cls-11" d="M293.9,356h5.3l-.2-12H283.3l-5.3,3.5-9.7,2.5c-2.9.9-3.6,3-2.3,5l.6,1h15.1c4.7,0,11.5-3.4,11.5-3.4Z"/><polygon class="cls-11" points="302.9 286.8 304.2 342.7 324.3 342.7 326.6 267.6 301.1 267.6 302.9 286.8"/><polygon class="cls-11" points="302.6 286.8 301.3 342.7 281.2 342.7 278.9 267.6 304.4 267.6 302.6 286.8"/><rect class="cls-12" x="279" y="266.31" width="47.5" height="4.4"/><path class="cls-13" d="M297,210.6h0V200h11.5v10.5h0v4a12.92,12.92,0,0,1-11.5,0Z"/><path class="cls-8" d="M302.6,219.6a4.84,4.84,0,0,0-1.8.3l-3.7-6.1h11.4l-3.7,6.2A7.8,7.8,0,0,0,302.6,219.6Z"/><path class="cls-14" d="M297.1,209.4l.2-.2-.7.1.9-.3Z"/><path class="cls-14" d="M308.2,209.2l-.1-.1,1,.3Z"/><path class="cls-15" d="M297,209s.8,3,5.8,4.8a8.63,8.63,0,0,0-4.1,5.7s-4.4-3.2-5.8-5.8S297,209,297,209Z"/><path class="cls-16" d="M293,209.9l-16.2,3.8s-3.4,11.9-3.2,30.1,0,56.8,0,56.8a80.73,80.73,0,0,0,23.4,2.2l-.4-48Z"/><path class="cls-17" d="M294.8,216.3l1.8,38.5s-10.4-15.2-9.7-24.7l7.1-4.4-7.6-2.2.9-7.7c.3-2.9,3-5.3,6.6-6.1l3.1-.7A6.41,6.41,0,0,0,294.8,216.3Z"/><path class="cls-15" d="M308.5,209s-.8,3-5.8,4.8a8.63,8.63,0,0,1,4.1,5.7s4.4-3.2,5.8-5.8S308.5,209,308.5,209Z"/><path class="cls-16" d="M312.5,209.9l16.2,3.8s3.4,11.9,3.2,30.1,0,56.8,0,56.8a80.73,80.73,0,0,1-23.4,2.2l.4-48Z"/><path class="cls-17" d="M310.8,216.3,309,254.8s10.4-15.2,9.7-24.7l-7.1-4.4,7.6-2.2-.9-7.7c-.3-2.9-3-5.3-6.6-6.1l-3.1-.7A6.56,6.56,0,0,1,310.8,216.3Z"/><path class="cls-16" d="M276.9,213.7s-16.6,19.5-18.9,22.1a11.2,11.2,0,0,1-4.5,3.5s-2.9,13.6,6.7,12.5c5.8-.7,20.9-14.4,23.3-19.2C287.7,224.3,276.9,213.7,276.9,213.7Z"/><path class="cls-13" d="M321.7,192.4h-1.8v-7.5h2.8a4.19,4.19,0,0,1,3.5,1.6,2.56,2.56,0,0,1,0,2.9l-1,1.4A4.19,4.19,0,0,1,321.7,192.4Z"/><path class="cls-13" d="M280.2,190.6l-1-1.4a2.26,2.26,0,0,1,0-2.9,4.33,4.33,0,0,1,3.5-1.6h2.8v7.5h-1.8A4.47,4.47,0,0,1,280.2,190.6Z"/><path class="cls-17" d="M301.2,213.3c-3.7,1.4-8-.5-13.2-5.7-5-5-7.9-8.9-9.1-11.9a3.43,3.43,0,0,1,2.2-4.6h.1l.8,1.4-.4-.7.4.7a2,2,0,0,0-1.2,2.9c1.1,2.8,4,6.6,8.8,11.4,4.5,4.5,8.1,6.3,10.7,5.3Z"/><path class="cls-18" d="M301.4,213.6c-5.8,2.2-11.8-3.9-13.7-5.8a.87.87,0,0,1,.3-1.5.35.35,0,0,0,.2-.1,1.89,1.89,0,0,1,1.8.3c4.3,4.3,7.7,6.1,10.1,5.2Z"/><path class="cls-18" d="M280.6,192.2h0a2.1,2.1,0,0,0,2.6.5l.4-.2a1.24,1.24,0,0,0,.6-1.9h0a2.1,2.1,0,0,0-2.6-.5l-.4.2A1.34,1.34,0,0,0,280.6,192.2Z"/><path class="cls-17" d="M304.3,213.3c3.7,1.4,8-.5,13.2-5.7,5-5,7.9-8.9,9.1-11.9a3.43,3.43,0,0,0-2.2-4.6h-.1l-.8,1.4.4-.7-.4.7a2,2,0,0,1,1.2,2.9c-1.1,2.8-4,6.6-8.8,11.4-4.5,4.5-8.1,6.3-10.7,5.3Z"/><path class="cls-18" d="M304.1,213.6c5.8,2.2,11.8-3.9,13.7-5.8a.87.87,0,0,0-.3-1.5.35.35,0,0,1-.2-.1,1.89,1.89,0,0,0-1.8.3c-4.3,4.3-7.7,6.1-10.1,5.2Z"/><path class="cls-18" d="M324.9,192.2h0a2.1,2.1,0,0,1-2.6.5l-.4-.2a1.24,1.24,0,0,1-.6-1.9h0a2.1,2.1,0,0,1,2.6-.5l.4.2A1.34,1.34,0,0,1,324.9,192.2Z"/><path class="cls-19" d="M283.3,191.6V179c0-8.1,8.7-14.7,19.4-14.7s19.4,6.6,19.4,14.7v12.6c0,8.1-8.7,14.7-19.4,14.7S283.3,199.7,283.3,191.6Z"/><path class="cls-20" d="M292,186.4c0-1.3,1.3-2.3,3-2.3s3,1,3,2.3-1.3,2.3-3,2.3S292,187.7,292,186.4Z"/><path class="cls-20" d="M307.6,186.4c0-1.3,1.3-2.3,3-2.3s3,1,3,2.3-1.3,2.3-3,2.3S307.6,187.7,307.6,186.4Z"/><path class="cls-13" d="M300.4,194.1h0a2.15,2.15,0,0,1-1.2-2.2c0-.1.2-.2.4-.3a6.43,6.43,0,0,1,6.3,0,1.87,1.87,0,0,1,.4.3,2.32,2.32,0,0,1-1.2,2.2A5.52,5.52,0,0,1,300.4,194.1Z"/><path d="M309.3,186.8c0-.8.9-1.5,2-1.5s2,.7,2,1.5-.9,1.5-2,1.5S309.3,187.6,309.3,186.8Z"/><path class="cls-17" d="M309.7,187.5c0-.3.3-.5.7-.5s.7.2.7.5-.3.5-.7.5S309.7,187.8,309.7,187.5Z"/><path d="M292.3,186.8c0-.8.9-1.5,2-1.5s2,.7,2,1.5-.9,1.5-2,1.5S292.3,187.6,292.3,186.8Z"/><path class="cls-17" d="M292.6,187.5c0-.3.3-.5.7-.5s.7.2.7.5-.3.5-.7.5S292.6,187.8,292.6,187.5Z"/><path class="cls-21" d="M285.7,191.6V179c0-8.1,7.6-14.7,17-14.7-10.7,0-19.4,6.6-19.4,14.7v12.6c0,8.1,8.7,14.7,19.4,14.7C293.3,206.3,285.7,199.7,285.7,191.6Z"/><path class="cls-21" d="M302.8,164.3c9.4,0,17,6.6,17,14.7v12.6c0,8.1-7.6,14.7-17,14.7,10.7,0,19.4-6.6,19.4-14.7V179C322.2,170.9,313.5,164.3,302.8,164.3Z"/><path class="cls-22" d="M297.5,196.8a5.79,5.79,0,0,0,5.2,3.4,5.63,5.63,0,0,0,5.2-3.4Z"/><path class="cls-17" d="M307.4,197.8a10.39,10.39,0,0,0,.6-1H297.6a4.43,4.43,0,0,0,.6,1Z"/><path class="cls-23" d="M300.9,191a.63.63,0,0,0-.2,1.1h.1a3.88,3.88,0,0,0,3.9,0,.1.1,0,0,0,.1-.1h0a.63.63,0,0,0-.2-1.1A6.66,6.66,0,0,0,300.9,191Z"/><path class="cls-24" d="M297.6,181.4c-.2.7-1.5.9-2.6.8a11.57,11.57,0,0,0-5.4,1.1s.1-1.7,2.5-2.9C294.8,179.2,298,180.1,297.6,181.4Z"/><path class="cls-24" d="M308.4,181.4c.2.7,1.5.9,2.6.8a11.57,11.57,0,0,1,5.4,1.1s-.1-1.7-2.5-2.9C311.2,179.2,308,180.1,308.4,181.4Z"/><path class="cls-24" d="M281.6,176.4v8.3a4.87,4.87,0,0,1,1.2-.1h.6a3.32,3.32,0,0,0,2.3-2.3l1.4-5c.3-1.5,2.1-2.6,4.1-2.6h23a4.08,4.08,0,0,1,4.1,2.6l1.4,5a3.36,3.36,0,0,0,1.8,2.1h1.2a4.87,4.87,0,0,1,1.2.1v-8c0-8-8.5-14.4-19.1-14.4h-4.2C290.1,162,281.6,168.5,281.6,176.4Z"/><path class="cls-11" d="M300.4,184.4c-7.6-2.7-13.1.4-13.1.4l-4-1.3h-1.7a.78.78,0,0,0,0,1.3h1.7l3.8,2.1c.5,2.5,2.7,3.6,6.3,3.6s6-1.1,6.6-2.8c.3-1,.5-1.5.5-1.5a11.68,11.68,0,0,1,2.3-.2v-1.7C301.6,184.4,300.4,184.4,300.4,184.4Zm-1.9,3.1c-.4,1.2-2.4,1.9-5.1,1.9-2.9,0-4.5-.6-4.9-2.5l-.1-.3a1.28,1.28,0,0,1,1.1-1.4,13.31,13.31,0,0,1,4.7-.8,12.42,12.42,0,0,1,3.3.4c1.1.2,1.7,1.1,1.4,1.9A5.9,5.9,0,0,0,298.5,187.5Z"/><path class="cls-11" d="M305.1,184.4c7.6-2.7,13.1.4,13.1.4l4-1.3h1.7a.78.78,0,0,1,0,1.3h-1.7l-3.8,2.1c-.5,2.5-2.7,3.6-6.3,3.6s-6-1.1-6.6-2.8c-.3-1-.5-1.5-.5-1.5a11.68,11.68,0,0,0-2.3-.2v-1.7C303.9,184.4,305.1,184.4,305.1,184.4Zm2,3.1c.4,1.2,2.4,1.9,5.1,1.9,2.9,0,4.5-.6,4.9-2.5l.1-.3a1.28,1.28,0,0,0-1.1-1.4,13.31,13.31,0,0,0-4.7-.8,12.42,12.42,0,0,0-3.3.4c-1.1.2-1.7,1.1-1.4,1.9A5.9,5.9,0,0,1,307.1,187.5Z"/><rect class="cls-17" x="274.9" y="277.5" width="17.9" height="2.4"/><rect class="cls-17" x="312.7" y="277.5" width="17.9" height="2.4"/><path class="cls-25" d="M342,279.4l.1,7.1a1.27,1.27,0,0,1-1.4,1.1h0c-.8,0-1.6-.4-1.6-1.1l-.4-5.3Z"/><path class="cls-25" d="M324.8,279.3l-2.3,3.1a2.25,2.25,0,0,0,2.1,1.1,2.63,2.63,0,0,0,2-.8l2.8-3.7.2-4.4A16.57,16.57,0,0,0,324.8,279.3Z"/><path class="cls-25" d="M328.9,279l-.5,3.1,13.4-.2.2-2.3c.1-2.9-2.3-5.1-4.6-5.8l-5.7-.1-1.5.6c-.2.1-.5.2-.7.3Z"/><path class="cls-25" d="M337,289.7a1.45,1.45,0,0,0,1.5-1.1l.3-7-3.4.4-.2,6.6a1.3,1.3,0,0,0,1.5,1.1"/><path class="cls-25" d="M328.5,281.4l-1.4,6.6a1.22,1.22,0,0,0,1.2,1.3h.3c.8.1,1.6-.3,1.7-.9l1.7-6.7.1-1.5Z"/><path class="cls-25" d="M335.7,280.9l-3.6.3-1,8c-.1.6.5,1.2,1.3,1.2h.5c.8.1,1.6-.4,1.6-1Z"/><path class="cls-25" d="M331.6,241.8l4.5-.2s2.1,8.7,1.8,12.5a88.07,88.07,0,0,0,1.4,21.3l-8.6-.9C330.7,274.4,332,247.6,331.6,241.8Z"/><path class="cls-16" d="M328.7,213.7s5.9,4.7,9.4,20.5,3.3,39.6,3.3,39.6h-13l-1.9-32.3Z"/><ellipse class="cls-17" cx="202.8" cy="242.4" rx="4.9" ry="3.7"/><path class="cls-18" d="M200.1,242.4c0,1.1,1.2,2,2.7,2s2.7-.9,2.7-2-1.2-2-2.7-2S200.1,241.3,200.1,242.4Z"/><path class="cls-25" d="M212.9,231.6l-3.5-.6a1.48,1.48,0,0,0-1.7.8h0c-.2.6.2,1.2,1,1.4l6.7,1.4Z"/><path class="cls-25" d="M212,244.7l-4.3,1.5a1.77,1.77,0,0,1-1.3-1.7,1.58,1.58,0,0,1,1.2-1.4l5-1.9,5.8.1C217.1,242.8,214,243.9,212,244.7Z"/><path class="cls-25" d="M212.9,241.5l-3.4-2.8,2.2-7.4,3,.3c3.9.9,6.1,2.8,6.5,4.6l-1,4.2-1.1,1c-.2.2-.4.3-.5.5Z"/><path class="cls-25" d="M205.9,233.3a1.53,1.53,0,0,1,1.7-.9l9.1,1.2-1.1,2.4-8.5-1.2c-.8-.1-1.4-.7-1.2-1.3"/><path class="cls-25" d="M207.2,238.4l-6.8,1.4c-.8.1-1.6-.3-1.7-.9l-.1-.2c-.2-.6.3-1.2,1.1-1.3l8.8-1.5,3.4.5.3,2.6Z"/><path class="cls-25" d="M217,234.8l-1.1,2.6-10.5-.9c-.8-.1-1.4-.6-1.3-1.2V235a1.4,1.4,0,0,1,1.6-1Z"/><path class="cls-25" d="M258.3,248.6l1-7.3a13.81,13.81,0,0,0-8-3.8c-15-1.8-31.4-3-31.4-3l-1.9,7.9C217.9,242.3,250.9,247.2,258.3,248.6Z"/><path class="cls-16" d="M261.1,236.6l-39.8-2.9a28,28,0,0,0-.5,10.7s27.6,6.4,37,6.5c6.9.1,17.1-11.1,17.1-11.1Z"/><path class="cls-18" d="M308.8,211.1l1.1-2.1h-5.2l1.2,2.2a15,15,0,0,0,.2,2c.7,8.9,1.7,21.1-7.6,27-6.2,3.9-16.4,4.5-30.3,1.7-23.4-4.6-40.2-4.6-50.2-3.8-10.9.9-16.2,2.8-16.5,2.9l1.3,2c.1,0,5.2-1.9,15.7-2.7,9.7-.7,26.1-.7,48.9,3.8a80.81,80.81,0,0,0,16,1.7c7.1,0,12.7-1.3,16.9-3.9,10.5-6.6,9.4-20,8.7-28.8A15,15,0,0,1,308.8,211.1Z"/><path class="cls-26" d="M45,274.74h81c13.35,0,24.18-8.21,24.18-18.35h0c0-10.13-10.83-18.34-24.18-18.34H45c-13.36,0-24.18,8.21-24.18,18.34h0C20.86,266.53,31.68,274.74,45,274.74Z"/><text class="cls-27" transform="translate(50.28 258.5) scale(0.97 1)">Kn<tspan class="cls-28" x="17.29" y="0">o</tspan><tspan x="25.48" y="0">w </tspan><tspan class="cls-29" x="39.32" y="0">M</tspan><tspan class="cls-30" x="51.56" y="0">o</tspan><tspan class="cls-31" x="59.87" y="0">r</tspan><tspan x="65.23" y="0">e</tspan></text></svg>