<svg xmlns="http://www.w3.org/2000/svg" xmlns:xlink="http://www.w3.org/1999/xlink" viewBox="0 0 1392.45 1300.37"><defs><style>.cls-1{fill:none;}.cls-2{isolation:isolate;}.cls-3{fill:url(#linear-gradient);}.cls-107,.cls-109,.cls-4,.cls-87,.cls-92{fill:#fff;}.cls-5{fill:#0275af;opacity:0.2;}.cls-104,.cls-105,.cls-19,.cls-49,.cls-5,.cls-56,.cls-58,.cls-80,.cls-95{mix-blend-mode:multiply;}.cls-6{fill:#050504;}.cls-7{fill:#374949;}.cls-8{fill:#005dde;}.cls-9{fill:#024799;}.cls-10{fill:#005bd4;}.cls-11{fill:#0886d3;}.cls-12{fill:#603a07;}.cls-13{fill:#020200;}.cls-14{fill:#3f2404;}.cls-15{fill:#0158dd;}.cls-16{fill:#ccbca8;}.cls-17,.cls-19{fill:#719cbf;}.cls-18{fill:#cce8ff;}.cls-20{fill:#e3f4ff;}.cls-21{fill:#2d54a3;}.cls-22{fill:#f5c599;}.cls-23{fill:#9c593b;}.cls-24{fill:#e8b387;}.cls-25{fill:#32caed;}.cls-26{fill:#52afaa;}.cls-27{fill:#042f5e;}.cls-28{fill:#3d76a5;}.cls-29{clip-path:url(#clip-path);}.cls-30{fill:#010611;}.cls-31{clip-path:url(#clip-path-2);}.cls-32{fill:#01050d;}.cls-33{clip-path:url(#clip-path-3);}.cls-34{clip-path:url(#clip-path-4);}.cls-35{fill:#b2b2b2;}.cls-36{fill:#8f8f8f;}.cls-37{clip-path:url(#clip-path-5);}.cls-38{fill:#a6a6a6;}.cls-39{clip-path:url(#clip-path-6);}.cls-40{fill:#5d6677;}.cls-41{clip-path:url(#clip-path-7);}.cls-42{fill:#d6d6d6;}.cls-43{fill:#797f7b;}.cls-44{fill:#f7f9f7;}.cls-45{fill:#4c4f54;}.cls-46{fill:#979b97;}.cls-47{fill:#dbdddb;}.cls-48,.cls-49{fill:#e1f4ff;}.cls-50,.cls-58{fill:#f7d5a4;}.cls-51{fill:#568fba;}.cls-52{fill:#aa7939;}.cls-53{fill:#fbdfd3;}.cls-54{fill:#0057d8;}.cls-55{fill:#0087df;}.cls-56{fill:#e8cfcf;opacity:0.4;}.cls-57{fill:#6b2205;}.cls-58,.cls-80{opacity:0.7;}.cls-59{clip-path:url(#clip-path-8);}.cls-60{clip-path:url(#clip-path-9);}.cls-61{clip-path:url(#clip-path-10);}.cls-62{clip-path:url(#clip-path-11);}.cls-63{clip-path:url(#clip-path-12);}.cls-64{clip-path:url(#clip-path-13);}.cls-65{clip-path:url(#clip-path-14);}.cls-66{clip-path:url(#clip-path-15);}.cls-67{clip-path:url(#clip-path-16);}.cls-68{clip-path:url(#clip-path-17);}.cls-69{clip-path:url(#clip-path-18);}.cls-70{clip-path:url(#clip-path-19);}.cls-71{clip-path:url(#clip-path-20);}.cls-72{clip-path:url(#clip-path-21);}.cls-73{fill:#05a5a0;}.cls-74{fill:#045450;}.cls-75{fill:#fff5e9;}.cls-76{fill:#ffe67b;}.cls-77{fill:#010714;}.cls-78{fill:#2f312f;}.cls-79{fill:#046666;}.cls-80,.cls-84{fill:#5e5e5c;}.cls-81{fill:#d3a62a;}.cls-82{fill:#eac44e;}.cls-83{fill:#02979d;}.cls-85{fill:#ddb237;}.cls-86{fill:#fffefd;}.cls-87{font-size:126.27px;font-family:TimesNewRomanPS-BoldMT, Times New Roman;font-weight:700;}.cls-88{letter-spacing:-0.06em;}.cls-89{letter-spacing:-0.02em;}.cls-90{letter-spacing:0em;}.cls-91{letter-spacing:-0.06em;}.cls-92{font-size:41.99px;font-family:Elephant-Regular, Elephant;}.cls-93{fill:#4daad6;}.cls-94{fill:#49658d;}.cls-95{fill:#cacaca;}.cls-96{fill:#f0f0f0;}.cls-97{fill:#2a2425;}.cls-98{fill:#3c3c3c;}.cls-99{fill:#ffab80;}.cls-100{fill:#52baed;}.cls-101{fill:#e6e6e6;}.cls-102{fill:#505050;}.cls-103,.cls-104,.cls-105{fill:#ffc48c;}.cls-104{opacity:0.5;}.cls-105{opacity:0.35;}.cls-106{fill:#e56b58;}.cls-107{opacity:0.15;}.cls-108{fill:#784425;}.cls-109{opacity:0.25;}.cls-110{fill:#ffc085;}</style><linearGradient id="linear-gradient" x1="30.06" y1="813.26" x2="1388.85" y2="28.76" gradientUnits="userSpaceOnUse"><stop offset="0.05" stop-color="#ff5f2a" stop-opacity="0.9"/><stop offset="0.92" stop-color="#94005f"/></linearGradient><clipPath id="clip-path" transform="translate(24.45 35.01)"><path class="cls-1" d="M721.23,386.4a16.35,16.35,0,0,0,6.19-4l1.91,1,.22.11,1.24.63a16.27,16.27,0,0,1-6.18,4Z"/></clipPath><clipPath id="clip-path-2" transform="translate(24.45 35.01)"><path class="cls-1" d="M730.24,377.11a3.35,3.35,0,0,0-1.86-3.42l3.37,1.71a3.35,3.35,0,0,1,1.87,3.43,9.06,9.06,0,0,1-2.83,5.32l-.19-.09-3.18-1.62A9.09,9.09,0,0,0,730.24,377.11Z"/></clipPath><clipPath id="clip-path-3" transform="translate(24.45 35.01)"><path class="cls-1" d="M715,386.52c1.48.75,3.71.77,6.26-.12l3.38,1.71c-2.55.89-4.78.87-6.26.12Z"/></clipPath><clipPath id="clip-path-4" transform="translate(24.45 35.01)"><path class="cls-1" d="M728.38,373.69l3.37,1.71c-1.48-.75-3.71-.77-6.26.12l-3.38-1.71C724.66,372.92,726.89,372.94,728.38,373.69Z"/></clipPath><clipPath id="clip-path-5" transform="translate(24.45 35.01)"><path class="cls-1" d="M718.35,388.23,715,386.52a3.36,3.36,0,0,1-1.87-3.43c.25-3.47,4.28-7.63,9-9.28l3.38,1.71c-4.73,1.65-8.77,5.81-9,9.28A3.35,3.35,0,0,0,718.35,388.23Z"/></clipPath><clipPath id="clip-path-6" transform="translate(24.45 35.01)"><path class="cls-1" d="M732.19,368.28l.18.09,1.68.85,1.52.77c-2.4-1.22-5.82-1.3-9.7.06l-3.38-1.72C726.37,367,729.79,367.06,732.19,368.28Z"/></clipPath><clipPath id="clip-path-7" transform="translate(24.45 35.01)"><path class="cls-1" d="M714.53,393.64l-1.35-.69-1.18-.6-.84-.42a6.73,6.73,0,0,1-3.6-6.91c.46-6.5,7.14-14,14.93-16.69l3.38,1.72c-7.79,2.71-14.48,10.18-14.94,16.68A6.76,6.76,0,0,0,714.53,393.64Z"/></clipPath><clipPath id="clip-path-8" transform="translate(24.45 35.01)"><path class="cls-1" d="M858.53,460.92a16.23,16.23,0,0,0,6.19-4l1.91,1,.22.12,1.24.63a16.25,16.25,0,0,1-6.18,3.95Z"/></clipPath><clipPath id="clip-path-9" transform="translate(24.45 35.01)"><path class="cls-1" d="M867.54,451.64a3.36,3.36,0,0,0-1.87-3.43l3.38,1.72a3.34,3.34,0,0,1,1.87,3.42,9.06,9.06,0,0,1-2.83,5.33l-.19-.1L864.72,457A9.1,9.1,0,0,0,867.54,451.64Z"/></clipPath><clipPath id="clip-path-10" transform="translate(24.45 35.01)"><path class="cls-1" d="M852.27,461c1.48.75,3.71.77,6.26-.12l3.38,1.71c-2.55.89-4.78.87-6.26.12Z"/></clipPath><clipPath id="clip-path-11" transform="translate(24.45 35.01)"><path class="cls-1" d="M865.67,448.21l3.38,1.72c-1.48-.75-3.71-.77-6.26.12l-3.38-1.72C862,447.44,864.19,447.46,865.67,448.21Z"/></clipPath><clipPath id="clip-path-12" transform="translate(24.45 35.01)"><path class="cls-1" d="M855.65,462.75,852.27,461a3.36,3.36,0,0,1-1.87-3.43c.25-3.47,4.28-7.63,9-9.28l3.38,1.72c-4.73,1.64-8.77,5.8-9,9.27A3.35,3.35,0,0,0,855.65,462.75Z"/></clipPath><clipPath id="clip-path-13" transform="translate(24.45 35.01)"><path class="cls-1" d="M869.49,442.8l.17.09,1.69.86,1.52.77c-2.4-1.22-5.82-1.3-9.7.05l-3.38-1.71C863.67,441.51,867.09,441.58,869.49,442.8Z"/></clipPath><clipPath id="clip-path-14" transform="translate(24.45 35.01)"><path class="cls-1" d="M851.83,468.16l-1.35-.68-1.18-.6-.85-.43c-2.43-1.23-3.82-3.63-3.59-6.91.45-6.49,7.14-14,14.93-16.68l3.38,1.71c-7.79,2.72-14.48,10.19-14.93,16.69C848,464.53,849.4,466.93,851.83,468.16Z"/></clipPath><clipPath id="clip-path-15" transform="translate(24.45 35.01)"><path class="cls-1" d="M1156.42,354.2a16.23,16.23,0,0,0,6.19-4l1.91,1,.23.11c.41.22.83.42,1.24.63a16.11,16.11,0,0,1-6.19,4Z"/></clipPath><clipPath id="clip-path-16" transform="translate(24.45 35.01)"><path class="cls-1" d="M1165.44,344.91a3.34,3.34,0,0,0-1.87-3.42l3.38,1.72a3.32,3.32,0,0,1,1.86,3.42A9.07,9.07,0,0,1,1166,352l-.19-.09-3.19-1.62A9.11,9.11,0,0,0,1165.44,344.91Z"/></clipPath><clipPath id="clip-path-17" transform="translate(24.45 35.01)"><path class="cls-1" d="M1150.17,354.32c1.48.75,3.71.77,6.25-.12l3.38,1.71c-2.55.89-4.77.87-6.25.12Z"/></clipPath><clipPath id="clip-path-18" transform="translate(24.45 35.01)"><path class="cls-1" d="M1163.57,341.49l3.38,1.72c-1.48-.75-3.72-.78-6.27.11l-3.37-1.71C1159.86,340.72,1162.09,340.74,1163.57,341.49Z"/></clipPath><clipPath id="clip-path-19" transform="translate(24.45 35.01)"><path class="cls-1" d="M1153.55,356l-3.38-1.71a3.35,3.35,0,0,1-1.87-3.43c.24-3.47,4.28-7.63,9-9.28l3.37,1.71c-4.73,1.65-8.76,5.81-9,9.28A3.33,3.33,0,0,0,1153.55,356Z"/></clipPath><clipPath id="clip-path-20" transform="translate(24.45 35.01)"><path class="cls-1" d="M1167.39,336.08l.17.09,1.69.85,1.52.77c-2.41-1.21-5.83-1.29-9.7.06l-3.38-1.71C1161.57,334.78,1165,334.86,1167.39,336.08Z"/></clipPath><clipPath id="clip-path-21" transform="translate(24.45 35.01)"><path class="cls-1" d="M1149.73,361.44l-1.35-.68-1.18-.6-.85-.43c-2.43-1.23-3.82-3.64-3.6-6.91.46-6.5,7.15-14,14.94-16.68l3.38,1.71c-7.79,2.71-14.48,10.19-14.94,16.69A6.72,6.72,0,0,0,1149.73,361.44Z"/></clipPath></defs><title>hgra</title><g class="cls-2"><g id="Layer_1" data-name="Layer 1"><rect class="cls-3" x="26.45" y="35.01" width="1366" height="772"/><path class="cls-4" d="M1265.74,109.64c73.81,22.38,69.66,77.9,41.73,104.66-39.57,37.9-69.51,25.88-31.8,104.85,12.8,26.81,14.85,58.74-.83,83.56-11.28,17.85-31.42,30.73-54,33.09-12.55,1.31-25.41-.52-38.11-.35s-26.07,2.72-34.57,11.06c-8.18,8-10.36,20-10.16,31.33.49,27.26,13.11,54.17,10.94,81.42-1.83,23-13.51,47.8-33.22,61.56-25.82,18-62.07,16.95-93.63,13.59-37-3.95-73.39-14.95-106.94-31-43-20.6-81.4-49.37-114.62-82.27-29.57-29.28-55.42-62.27-72-99-26.16-58.05-34-147.08,38.6-174,87.34-32.35,129.34,54.82,144-22,8.79-45.93,54.58-112.62,148.43-60.67S1159.44,77.42,1265.74,109.64Z" transform="translate(24.45 35.01)"/><rect class="cls-1" x="25.45" y="35.01" width="1364" height="81"/><polygon class="cls-5" points="709.46 419.67 904.45 518.01 1229.45 404.69 1034.46 306.35 709.46 419.67"/><path class="cls-5" d="M914.61,378.77c-.88,11.89-35,19.39-76.14,16.73s-73.83-14.44-73-26.34,35-19.38,76.14-16.73S915.49,366.88,914.61,378.77Z" transform="translate(24.45 35.01)"/><path class="cls-6" d="M835.77,353.92a51.67,51.67,0,0,0,8.4,3.63A58.18,58.18,0,0,1,856,362.07a64,64,0,0,0,8.92,4.58c2.72,1,6-.67,8.69-1.44,1.68,5.81-3.15,6.82-9.8,5a65.08,65.08,0,0,1-10-4.06c-2.68-1.25-5.29-2.48-7.76-3.94-1-.59-2.12-1.12-3.13-1.74-.21.38-.28.82-.52,1.21-1-.45-2.36-.49-3.45-.88a14.37,14.37,0,0,1-2.81-1.26c-1.73-1.09-2.59-2.38-2.36-4.11C834,354.23,834.47,353.27,835.77,353.92Z" transform="translate(24.45 35.01)"/><path class="cls-7" d="M839.22,349c.71,1.88,3.56,1.83,5.74,1.95a12.59,12.59,0,0,0,3.64-.18c.8-.21,2-1.1,2.55-1.11l.12-.08c.49.19.62.6,1,.93a9.15,9.15,0,0,0,2,1.22,36.64,36.64,0,0,0,4.8,1.83c3.34,1.17,6.76,4.47,9.51,6.36,2.25,1.54,3.36,1.53,4.32,3.7.77,1.73,1.38,4.21-1.08,5.14-2.7,1-7.11-.15-9.79-1.06-4.24-1.42-7.91-3.61-11.79-5.56a49.36,49.36,0,0,0-9-3.33c-2.87-.84-4.26-1.44-5.45-2.85C833.57,353.37,835.55,350.53,839.22,349Z" transform="translate(24.45 35.01)"/><path class="cls-8" d="M832.15,269.28c8.05-4.69,7.36-2.86,7.18-.56v.06a2.93,2.93,0,0,1,1.19-2,16.51,16.51,0,0,1,3.56-1.17c3.67-.8,7.67-.51,11.29-1.48,3-.78,6.15-1.48,8.67-2.95,0,0-.11,0-.22-.05l.57-.34c-.42,2.82-4.91,45-7.1,48,.82,1-2.92,7.3-3.49,8-.77.92-.3,2.21-.47,3.33-.22,1.38,7.47,26.66,5.72,33.54,4.1,3.64-11.19,4.44-17.82,5.25-4,.48-12.38-5.36-12.86-8.57-1.34-4,1.58-15.2,2.09-22,.26-3.58,3.36-11.85,4.48-13.48a8.35,8.35,0,0,0,1-4.15C836.13,306.05,821.13,275.7,832.15,269.28Z" transform="translate(24.45 35.01)"/><path class="cls-9" d="M834.93,314.82a8.14,8.14,0,0,0,1-4.15c.2-4.55-14.8-34.9-3.79-41.31,8.05-4.69,7.37-2.87,7.19-.57v.07a3,3,0,0,1,1.19-2.05,16.07,16.07,0,0,1,3.57-1.17c.51-.12,1-.2,1.54-.27-6.59,10.83-8.3,23.36-6.86,35.56,1.32,11.33,3.91,22.24,3.25,33.66-.48,8.1-1.46,16.15-2.54,24.18-4.28-.87-10.69-5.66-11.11-8.44-1.33-4,1.59-15.21,2.09-22C830.72,324.72,833.82,316.46,834.93,314.82Z" transform="translate(24.45 35.01)"/><path class="cls-6" d="M805.53,367.2c4.57.6,8.42,3.25,12.05,5.43a30.83,30.83,0,0,0,4.63,6.85c.84,1.49,1.71,3,2.55,4.46,0,.47.87,2.26.67,2.57-2.06,3.08-16,1.47-19.17.14-5.32-2.23-5.29-7.21-6.62-11.34C798.39,371.43,797.5,366.13,805.53,367.2Z" transform="translate(24.45 35.01)"/><path class="cls-6" d="M801.77,369.05c.06,1,.47,4-1.16,4.31l-.25.09a.66.66,0,0,1-.3.39c-2.85-1.57-3.61-6.28-1.59-8.4S801.69,367.58,801.77,369.05Z" transform="translate(24.45 35.01)"/><path class="cls-7" d="M807.29,361.38c2.15-.33,4.39-1.21,5.51-2.65v.14a12.43,12.43,0,0,0,1.27,4.25,20.73,20.73,0,0,0,2.14,3.9,37,37,0,0,1,3.28,5.91c.87,1.9,1.19,4.2,2.48,5.95s2.29,3.11,1.92,5.13a2.74,2.74,0,0,1-1.24,2.06c-.78.36-2.29.07-3.19,0-1.09-.11-2.15-.42-3.24-.55-1.24-.12-2.5-.22-3.7-.45-3-.56-5.5-1.29-7.65-3.12a11.38,11.38,0,0,1-4.07-6.72,40.93,40.93,0,0,1-.81-9.4c.14-2,.42-3.89.62-5.82A9,9,0,0,0,807.29,361.38Z" transform="translate(24.45 35.01)"/><path class="cls-10" d="M843,170.71c.18.2.28.1.46.13l-.46-.13c2.95-1.69,5.21-2,9.08-1.45,5.13.73,10.21,5,13.85,7.61,6.42,4.61,12.83,9.22,19.18,13.9,4.93,3.65,10.3,7.11,14.3,11.38,1.45,1.56,1.46,2.32,0,3.73-1,.92-3.49,3.49-5.1,3.63-1.94.16-6.59-2.36-8.33-3-3.65-1.41-7.29-2.78-10.9-4.24-12.25-5-29.64-9.93-35.35-20C838.35,180,839.15,171.94,843,170.71Z" transform="translate(24.45 35.01)"/><path class="cls-8" d="M800.45,257.8c1.39-1.72,2.34-7.33,6.31-4.76,1.53,1,2.06,2.54,3.1,3.84a12.88,12.88,0,0,0,6,4c5.67,2,11.48,2.23,17.45,2.37,3.17.08,3.34,1.15,3.69,3.46.39,2.58-10.08,44.59-12.68,47.35a8.47,8.47,0,0,0-2.22,3.65c-.34,1.28,2,47.72.68,50.38-.69,1.43-5.35,5.56-12.35,6.44-6.18.78-22.57-3.91-21.38-8.41s.64-35.4,2.92-39.41c1.94-3.43,9.52-11.08,9.4-15C801.25,307,794.53,265.19,800.45,257.8Z" transform="translate(24.45 35.01)"/><path class="cls-11" d="M843.43,168.7c2.22-.15,7.72,1.63,10,1.81,9,5,10.52,11.26,9.54,15.83,0,.06,0,.12.05.18l-5,44.13s9.14,19.3,6.43,30.09c-.87,3.5-14,8.46-18.5,9.52-11,2.57-31.28,1.66-40.26-4-6.21-3.94-8.41-5.08-5.38-10.62a1.83,1.83,0,0,0-.23-2.25c1-3.74,2.06-7.47,3.25-11.18,1.11-3.43,2.46-7,1.79-10.55-.22-1.15-2.56-11.23-3.6-9.13.34-3.1,2.81-.19,3.07-3.31a2.16,2.16,0,0,0-.19-1.06,37.12,37.12,0,0,0-.06-14.17c-.59-2.87-1.06-7.65-3.95-9.95l-.3-.21a11,11,0,0,0-3.69-4c.28-.12.55-1.18.84-1.28C797.18,188.53,829.85,169.6,843.43,168.7Z" transform="translate(24.45 35.01)"/><path class="cls-10" d="M797,188.94s4.7-2.7,11.25-6.11c.23,32.4,18,59.59,54.64,79.86.15,3.76-9.86,7.53-12.92,8.24-10.89,2.53-35.63.4-44.55-5.23-6.17-3.9-8.35-5-5.35-10.5a1.8,1.8,0,0,0-.22-2.22c1-3.7,2-7.38,3.22-11,1.09-3.39,2.43-6.9,1.77-10.44-.22-1.12-2.54-11.09-3.57-9,.33-3.07,2.79-.19,3-3.28a2.14,2.14,0,0,0-.18-1.05,36.64,36.64,0,0,0-.07-14c-.58-2.83-1.06-7.55-3.91-9.83a2.28,2.28,0,0,1-.3-.21,10.84,10.84,0,0,0-3.67-3.92C796.47,190.09,796.74,189,797,188.94Z" transform="translate(24.45 35.01)"/><path class="cls-12" d="M827.16,169.18c2.5-.2,5.09,1.86,7.61,2.28,3.19.53,11.33,3.39,11.42,6.34l-.36-.84a31.58,31.58,0,0,0-.07,5.91c.13,1.44-.68,11.77-.68,11.77s-8.2-3.13-11.79-4.27c-3.77-1.19-7.17-4.67-8.83-7.65-1.51-2.69-1.1-6.16.09-8.84C825.68,171.35,824.66,169.39,827.16,169.18Z" transform="translate(24.45 35.01)"/><path class="cls-13" d="M849.89,174.47l.5-1.84A2.18,2.18,0,0,1,849.89,174.47Z" transform="translate(24.45 35.01)"/><path class="cls-14" d="M841.77,173c2.42,1.14,4.43,2.58,4.48,4l-.36-.84c-.19,2-.75,3.08-.56,5.05.14,1.45-.11,4.33-1.14,5.55-2.12,2.54-4.75,2.54-8.34,1.41-2.66-.84-6.53-2.16-8.69-4.19C833.78,181.65,839.73,177.79,841.77,173Z" transform="translate(24.45 35.01)"/><path class="cls-11" d="M802.13,228.31a14.29,14.29,0,0,0-8.52.58,71.49,71.49,0,0,0-13,7.15c.09-1.76.49-4.35.51-5.08.09-2.92,6.29-37.64,15.19-45,2-1.69,10.62-6.48,13.79-4.43,3.13-1.82-.76,1.33-.76,1.36,3.11,1.34,3.17,4.23,4.28,6.88,1.54,3.62-1.48,7.51-2.81,10.85C808.64,206,804.66,222.72,802.13,228.31Z" transform="translate(24.45 35.01)"/><path class="cls-15" d="M844.11,177.68c.45,1.64,2.19,15.8-.05,16-.68.05-3.33-1.14-4.15-1.47-1.71-.68-3.37-1.1-5-1.83a30.5,30.5,0,0,1-8.92-5.89c-1.87-1.88-1.63-8.68-1-11.6-.81-.47-7.45,4.28-7.67,6-.36,2.78,4.74,7.29,6.84,9.34,6.11,6,15.65,8.47,24.09,12.07.62-3.73,4.92-18.43,1.55-24.61-.85-1.57-1.19,3-4.19,3.23Z" transform="translate(24.45 35.01)"/><path class="cls-16" d="M849,165.17c.71-.31,3.26-2,3.18-1.15l.18.21c.41,1.17.53,2.36,1,3.59a3,3,0,0,1-.32,3.08c-1.19,2-2.82,3.69-3.76,5.67-1.55,3.3-5.81,2.35-6.41-1.27C842.31,171.88,845.09,166.91,849,165.17Z" transform="translate(24.45 35.01)"/><path class="cls-12" d="M824.73,162.39c-3.21-4.41,3.41-10,8.64-11.48A22.22,22.22,0,0,1,847,152a25,25,0,0,1,3.68,2.05,12.07,12.07,0,0,1,2.09,1.34.66.66,0,0,1,.14.2l-.48,0c1.14,1.56.44,3.51,1.35,5.13.6,1.07,1,2.36-.44,3.15s-2.6,1.07-2.57,2.56c0,1.24.93,2.1,1.37,3.24.25.64.72,2.49.09,3-.86.71-2.94,0-4,.14.41.25.3,1.09.16,1.47-.06.17-.28.3-.36.56s0,.52,0,.71-.25.33-.27.62.18.64.21.91a1.7,1.7,0,0,1-.34,1.6c-.8.85-3.09.68-4.39.73a17.52,17.52,0,0,1-7.94-1.84c-4.09-1.89-10.26-4.29-8.87-8.38-2.44,0-4-2.74-4.33-4.19-.17-.71-.6-2,0-2.62S823.83,162.11,824.73,162.39Z" transform="translate(24.45 35.01)"/><path class="cls-17" d="M853.84,161.56c.82-1.33-8.09-1.92-9.34-1.77a35,35,0,0,0-10.31,3.45,19.4,19.4,0,0,0-8.82,8c-.78-1.27-2-2.31-2.88-3.45.59-2.08,6-4.74,7.53-5.89a28.07,28.07,0,0,1,8.43-4.25c3.13-1,19.32-4.1,16.31,1.66a4.08,4.08,0,0,1-.56.9c-.32,0,0-.16-.13-.31Z" transform="translate(24.45 35.01)"/><path class="cls-18" d="M852.43,164.4c4.21.44,9.29-5.89,9.61-8.27.64-4.59-4.7-8.54-9.24-11.57-11.62-7.74-31.49-2.06-38.08,7.12-3.12,4.33-4.15,11.46.33,15.66,3,2.77,7,2.24,9.69-.72,3.85-4.31,8.09-7,15.48-8.82,3.33-.82,8.74-1.81,12.36-1,.73.16,1.88.48,2.22,1.13.47.85-.57,1.33-.69,1.87-.35,1.66-.15,2.79-1.43,4.34Z" transform="translate(24.45 35.01)"/><path class="cls-19" d="M853.66,162.36c.16-.56,1.81-1.61,2.36-2.07a3.12,3.12,0,0,0,1-1.26c.19-.56.08-.5-.35-.79s-.63-.17-.75-.63.32-1.19.35-1.75c.08-1.76-1.1-3.3-3.24-4.13-1.83-.7-4.6-.86-5.42.79-.56,1.12-.51,3.2-2.88,3-2.83-.21-3.31-3.63-5.66-4.56-.91-.36-2.24-.6-2.83.16s-.06,1.78.24,2.54c.55,1.44,1,3.8-1.48,4.26-1.76.34-3.27-1.52-5.28-1.17-1.74.31.44,1.47,1,1.94,1,.88.76,1.79-.8,1.37-2.12-.56-4.36-1.52-6.67-.9-2.51.68-2,2.73.48,3.06.51.07,3.19.43,1.84,1.2-.6.34-2.28,0-3.06.16-1.5.3-2.54,1.33-2,2.52.44,1,1.4,2.64,2.63,2.08s2.27-2,3.15-2.88a19.8,19.8,0,0,1,4.48-3.75,40.69,40.69,0,0,1,9.71-3.5,18.16,18.16,0,0,1,6.38-.42,17.51,17.51,0,0,1,5.39,2,2.48,2.48,0,0,1,1.58,2.5Z" transform="translate(24.45 35.01)"/><path class="cls-11" d="M800.05,222.68c6.54.42,12.74,1.24,18.94,2.1,3.65.51,3.59.89,4.1,3.58.41,2.19.91,4.39,1.32,6.59.45,2.45,1.4,3.27-1.88,4.35-3.83,1.28-8.53,1.46-12.64,2-7.74,1-14.91,2-22.85,1.27-17-1.6-1.52-22.14,12.1-20.16Z" transform="translate(24.45 35.01)"/><path class="cls-18" d="M838,227.55c-.33.07-1.05.75-1.42.77-1.14,0-.79-.83-1.31-1.22-1-.74-2.52-.53-3.93-.78-2.65-.47-5.17-.91-7.84-1.26-4.42-.56-5.74.91-6.26,4.1a9.07,9.07,0,0,0,3.41,8.45,7.62,7.62,0,0,0,2.44,1.63,19.38,19.38,0,0,0,4.11-.49,36.38,36.38,0,0,0,8.93-2.58c2.19-1,3.7-1.44,3.14-3.58-.39-1.46-1.31-3.41-1-4.77Z" transform="translate(24.45 35.01)"/><path class="cls-20" d="M853.22,167.18c-4.4,2.4-11.1,2.4-16.12.93a22.73,22.73,0,0,1-4.74-2c-1.89-1-2-1-3.59.11-1.14.79-2.85,2-3.41,3s.81,2.58,1.82,3.69a22.15,22.15,0,0,0,9.81,6.21,38.91,38.91,0,0,0,8.58,1.48c1.57.09,2.49.31,3.18-.72.27-.42-.18-1.13.1-1.54.5-.73,1-.49,1.75-.94,1.62-1,.33-.9.57-2.32.2-1.19,1.55-1.36,1.81-2.53.21-.89,1-1.84,1.28-2.8a2.56,2.56,0,0,0-1-2.61Z" transform="translate(24.45 35.01)"/><path class="cls-21" d="M852.61,215.91c-4.1.82-4.67,3.41-4.83,6-.1,1.48,0,3,0,4.47,0,.64.48,1.85,0,2.44a5.6,5.6,0,0,1-1.83.81c-1.09.42-2.43.87-2.87,1.77-.54,1.11.59,2,1.93,2.41a9.58,9.58,0,0,0,8.05-.84c1.79-1.23,2-3,2.25-4.6s.51-3.16.83-4.74c.23-1.11.48-2.81,2.34-3.17.69-.13,1.53.15,2.08-.34s.2-1.19-.1-1.58c-1.53-2-5.81-1.77-8.41-2.48,6.5.31,5.75.18,5.78.24Z" transform="translate(24.45 35.01)"/><path class="cls-22" d="M855.73,173.81a9.52,9.52,0,0,0-5.14,3,6.57,6.57,0,0,0-1.73,3.91,3.19,3.19,0,0,0,.45,1.61c.17.29.48.53.64.82.39.68-.13,1-1,1.28-.29.1-.67.1-.87.29a.51.51,0,0,0,0,.71c.3.47,1,.42,1.33.84s-.58.69-.31,1.21c.14.29.48.25.73.44s-.06.25-.08.52c0,.6,1.64.38,1.3,1.11-.11.25-.42.42-.41.73s.35.55.66.73a9.88,9.88,0,0,0,7,.61l2.39-.73c.79-.25,1.37-.73,2.12-1a9.54,9.54,0,0,1,3.74-.11c3.23.21,7.37-.73,9.13-2.61a8.49,8.49,0,0,0,1.8-3.74,6.85,6.85,0,0,0-.43-4.53,10.84,10.84,0,0,0-2.78-3.35,10.44,10.44,0,0,0-2.7-1.74,18.61,18.61,0,0,0-6.9-1.55,24.85,24.85,0,0,0-7,1,23.47,23.47,0,0,0-3.53,1.1Z" transform="translate(24.45 35.01)"/><path class="cls-23" d="M863.61,183.67c0-.46,1.58-.44,2-.29.78.28.69.83.54,1.29a4.62,4.62,0,0,1-1,2c-.31.31-1,.94-1.73.76s.25-.18.47-.24a1.49,1.49,0,0,0,.88-.84,10.85,10.85,0,0,0,.57-1.26c.11-.27.36-.72,0-1-.84-.66-1.46.57-2.05.54-.78,0-.19-1,.3-1Z" transform="translate(24.45 35.01)"/><path class="cls-24" d="M858.6,188.1c-.37,1.15-2.15,1.78-4,1.43s-3-1.58-2.62-2.72,2.15-1.79,4-1.43S859,187,858.6,188.1Z" transform="translate(24.45 35.01)"/><path class="cls-22" d="M839.25,197.12c-1,.51-3-.23-4-.58-.58-.21-1.4-.42-1.57-.9s.33-.81,1-.33c-1.07-.53-.76-1.31.58-1.19-.33-.72.87-.59,1.48-.81.93-.31.79-.56,1-1.13s0-1.29,1.34-.65c.53.26.75,1,.9,1.45,1.48.34,2.93,1.92,2.7,3-.18.91-3.34,1.78-4.19,1.19Z" transform="translate(24.45 35.01)"/><path class="cls-4" d="M857.89,199.9c-1.1,1.26.68,3.46,1.11,4.74a41.55,41.55,0,0,1,1.13,5.06c.6,3.06,1.12,1.8,1,4.42-2.4.35-7.51.07-9.67.48-5.21,1-6,4.7-4.53,8,1.36,3.05,3.41,7.14,6.67,9.46,1.3.94,2.46.82,4.06.32,2.33-.72,2.44-1.14,2.33-3-.09-1.71.11-1.63,2.34-1.53a17.84,17.84,0,0,0,5.71-.38c19-5.45,15.58-29.74,6.19-36.31-1.93-1.36-2.71-1.63-5.55-2-2.19-.26-7.69.54-9.11,1.31-2,1.08-1.46,2.65-1.75,4.44-.17,1.08-.7,5.53.31,5.92Z" transform="translate(24.45 35.01)"/><path class="cls-25" d="M862.16,191.06c-7.29,3.33-2.45,4.85-1.89,7.23.37,1.6-1.15,4-2.37,5.42,1.15.77,5.55.58,6.94.14a7.71,7.71,0,0,0,3.8-3.47c1-1.67,1.69-3.47,1-5.25A5.84,5.84,0,0,0,865,191c-.47-.09-3.61-.4-2.92.51Z" transform="translate(24.45 35.01)"/><path class="cls-4" d="M842.36,194.69c-1.3,2-3.56,2.2-2.92,3.59.24.54,1.61,1.31,2.16,1.72,1.17.87,2.27,1.76,3.48,2.59,2.59,1.79,6.86,4.29,10.54,4.55,5,.35,8.08-2.37,10.21-5.06,1.7-2.15,3.78-4.45,3.5-7-.2-1.84-1.48-3.69-4.53-3.57-5.45.21-9.11,4.29-11.47,7.24-.19-.92-.89-1.34-1.87-.47.16-1.09-.68-.84-1.77-1.21-.76-.25-4.93-1.75-7-2.33Z" transform="translate(24.45 35.01)"/><path class="cls-25" d="M842,194c1.15,1.16-2.22,3.1-3.71,3.4a5,5,0,0,0,1.59,1.23c.74.23,1.44-.26,2.09-.61a5.33,5.33,0,0,0,2.57-2.81c-.73-.37-1.94-.63-2.42-1.16Z" transform="translate(24.45 35.01)"/><path class="cls-21" d="M852.33,231.08a6.74,6.74,0,0,1-1.75,2.9c-.71.86-1.94,1.68-1.8,2.76.29,2.3,4.31,1.51,6.31,1,4.36-1.18,6.15-4.67,5.34-7.65-.18-.62.4-1.63-.32-2-.88-.42-3.83,0-4.82.2-1.18.2-2.91.36-3.75,1.07-.47.41-.72.38-.51.88a4.85,4.85,0,0,0,1.45,1.16Z" transform="translate(24.45 35.01)"/><path class="cls-26" d="M851,236.65a.35.35,0,0,1,.1.56.68.68,0,0,1-.72.17.33.33,0,0,1-.1-.55A.67.67,0,0,1,851,236.65Z" transform="translate(24.45 35.01)"/><path class="cls-26" d="M850.69,235.5a.36.36,0,0,1,.15.58.7.7,0,0,1-.77.15.35.35,0,0,1-.15-.58A.67.67,0,0,1,850.69,235.5Z" transform="translate(24.45 35.01)"/><path class="cls-26" d="M854.64,235.88a.42.42,0,0,1,.19.67.8.8,0,0,1-.9.17.42.42,0,0,1-.19-.67A.83.83,0,0,1,854.64,235.88Z" transform="translate(24.45 35.01)"/><path class="cls-26" d="M852.6,234.33a.34.34,0,0,1,.14.54.64.64,0,0,1-.71.13.32.32,0,0,1-.14-.52A.64.64,0,0,1,852.6,234.33Z" transform="translate(24.45 35.01)"/><path class="cls-26" d="M856.71,233.64a.24.24,0,0,1,.11.4.48.48,0,0,1-.53.11c-.19-.09-.24-.26-.11-.4A.47.47,0,0,1,856.71,233.64Z" transform="translate(24.45 35.01)"/><path class="cls-26" d="M858.21,234.69a.41.41,0,0,1,.19.68.82.82,0,0,1-.91.18.43.43,0,0,1-.2-.69A.8.8,0,0,1,858.21,234.69Z" transform="translate(24.45 35.01)"/><path class="cls-26" d="M853.82,233c.22.11.28.32.13.48a.56.56,0,0,1-.64.13c-.23-.1-.29-.31-.13-.48A.58.58,0,0,1,853.82,233Z" transform="translate(24.45 35.01)"/><path class="cls-26" d="M855,234.25a.3.3,0,0,1,.14.5.61.61,0,0,1-.68.14.31.31,0,0,1-.13-.51A.59.59,0,0,1,855,234.25Z" transform="translate(24.45 35.01)"/><path class="cls-26" d="M853.4,231.3a.28.28,0,0,1,.13.46.55.55,0,0,1-.63.13.29.29,0,0,1-.13-.47A.54.54,0,0,1,853.4,231.3Z" transform="translate(24.45 35.01)"/><path class="cls-26" d="M857,231.49a.28.28,0,0,1,.12.46.53.53,0,0,1-.61.11.28.28,0,0,1-.12-.46A.52.52,0,0,1,857,231.49Z" transform="translate(24.45 35.01)"/><path class="cls-26" d="M859.27,232.27a.24.24,0,0,1,.1.39.47.47,0,0,1-.52.1.24.24,0,0,1-.11-.39A.47.47,0,0,1,859.27,232.27Z" transform="translate(24.45 35.01)"/><path class="cls-26" d="M855,231.89a.2.2,0,0,1,.08.33.38.38,0,0,1-.43.08.2.2,0,0,1-.09-.32A.37.37,0,0,1,855,231.89Z" transform="translate(24.45 35.01)"/><path class="cls-26" d="M853.23,229.83c.19.1.25.28.13.43a.52.52,0,0,1-.58.11.27.27,0,0,1-.12-.43A.54.54,0,0,1,853.23,229.83Z" transform="translate(24.45 35.01)"/><path class="cls-26" d="M856.4,229.71a.43.43,0,0,1,.19.71.83.83,0,0,1-1,.18.44.44,0,0,1-.2-.72A.86.86,0,0,1,856.4,229.71Z" transform="translate(24.45 35.01)"/><path class="cls-26" d="M859.48,230.4a.25.25,0,0,1,.11.41.48.48,0,0,1-.56.11.27.27,0,0,1-.12-.41A.52.52,0,0,1,859.48,230.4Z" transform="translate(24.45 35.01)"/><path class="cls-26" d="M859,228.8a.37.37,0,0,1,.16.62.73.73,0,0,1-.82.15.37.37,0,0,1-.17-.62A.74.74,0,0,1,859,228.8Z" transform="translate(24.45 35.01)"/><path class="cls-26" d="M855.51,228.58a.18.18,0,0,1,.09.29.34.34,0,0,1-.4.08.19.19,0,0,1-.09-.3A.37.37,0,0,1,855.51,228.58Z" transform="translate(24.45 35.01)"/><path class="cls-25" d="M859.51,228c-.8-.53-1.85-.8-2.64-1.35-.59-.43-1.42-1.62,0-1.46.76.09,2,1.51,2.84,1.11.6-.3-.22-2.17,1-2.21.75,0,1.72,1.88,2.46,2.25a8,8,0,0,0,3.43.46c.89,0,1.76-.13,2.63-.18s1.43-.29,2.16-.37c0,0,1.23-.57.22-.1a14.92,14.92,0,0,1-2.75,1.25c-1,.24-2.11.4-3.16.56a14.46,14.46,0,0,1-3,.1c-.83,0-2.19-.29-2.75.09Z" transform="translate(24.45 35.01)"/><path class="cls-10" d="M900.35,203.1c.37,9.94-7.87,17.57-17.64,23.53-1.4.85-7.89,5.58-10,4.66-.66-.29-1.53-8.83-4.22-4.91-.54-3.28,3.14-5.62,5.59-7.95a58.81,58.81,0,0,0,8.16-9.29c2.14-3.16,3.32-5.83,8.23-6.86,3-.63,8.63-1.16,9.84,2Z" transform="translate(24.45 35.01)"/><path class="cls-27" d="M866.24,235.86c.81.58,2.64,2.55,2,3.07a20.5,20.5,0,0,1-4.5,1.51c-.89.21-1.87,0-2.79.21l.07-.24c-.07.11-.17.13-.19.27.41-1.28.53-2.58,1.74-3.41C863.41,236.72,865.07,235,866.24,235.86Z" transform="translate(24.45 35.01)"/><path class="cls-27" d="M858.25,242.66c.72.23,1.5.48,2.18.75a6.65,6.65,0,0,0,1.57.64c.58,0,1.3-.71,1.72-1a13.49,13.49,0,0,1,3-1.53,5,5,0,0,1,4.21.26c0,.09-.07,0-.09.08v.21c-.13.38-.19,1.09-.53,1.37a8.57,8.57,0,0,1-1.71.59,23,23,0,0,0-3.61,1.43c-.74.39-2,1.32-2.82,1.29a22,22,0,0,1-3.84-1,6.33,6.33,0,0,1-2-.59,9.52,9.52,0,0,1-.91-1.31c-.26-.31-1.72-1.65-1.33-2C854.71,241.21,857.61,242.46,858.25,242.66Z" transform="translate(24.45 35.01)"/><path class="cls-18" d="M875.66,229l.15-.15c-.5,1-2.14,1.53-2.92,2.38a2.56,2.56,0,0,0-.54,2,21.05,21.05,0,0,0,.2,4.2c.15,1.08,1.12,3.11.11,4s-3.71.91-5.23,1.34a25.27,25.27,0,0,1-2.69,1.09,16.91,16.91,0,0,1-2.34-.12c-.93,0-1.89.08-2.81.18-1.27.15-1.49.35-2.52-.28-.83-.51-4.56-1.85-4.55-2.69,0-1.4,4.66-.09,5.45.12s.92.1,1.81-.17a8.31,8.31,0,0,1,2.33-.4,2.69,2.69,0,0,0,1.63-.28c.69-.3,1.34-.69,2.06-.95s1.49-.23,1.65-.76c.08-.29-.51-1.26-.64-1.6a1.09,1.09,0,0,0-.92-.75c-.46-.11.55,0,0,0-.52,1-4.88,1.92-6.24,2.34-2.18.66-2.73-.87-1.41-2,.55-.46,1.31-.75,1.87-1.22a18.59,18.59,0,0,0,1.42-1.51c1.08-1.14,2.69-3.46,4.18-4.36,1-.62.57.42-.25.62.15-1.08,1.91-2.17,2.63-3.1s1.45-2.54,3.2-2.53C874,224.44,876.61,227,875.66,229Z" transform="translate(24.45 35.01)"/><path class="cls-28" d="M840.6,222.44s-.06,0-.1.06l-.16,0Z" transform="translate(24.45 35.01)"/><path class="cls-18" d="M832.25,233.54a3.45,3.45,0,0,1,.46-2.88c.68-.74,1.85-.63,2.93-.88.65-.14,1-.19,1.27-.65a11.06,11.06,0,0,0,.38-1c.24-.56.33-1.15.61-1.71s.64-1,.89-1.55c.44-.93.49-1.84,1.71-2.32s2.45,0,3.81-.17c1.17-.13,2.33-.46,3.51-.51a17.53,17.53,0,0,1,3.47.44,6.57,6.57,0,0,1,2.76,1.4c.54.4,1.53,1,1.61,1.66.11.86-1.11.49-1.74.43.24.48,1,1.3.4,1.7s-2-.08-2.62-.37a6.67,6.67,0,0,0-2.68-.51,1.91,1.91,0,0,0-2.07.72,5.15,5.15,0,0,1,2.55-.35,4.18,4.18,0,0,1,2.41,1c.54.69.26,1.34-.72,1.6a4.12,4.12,0,0,1-1.4,0,5.71,5.71,0,0,0-1.43.24,38.38,38.38,0,0,0-4.59.89,9.6,9.6,0,0,0,2.93.09c.86-.1,1.73-.74,2.57-.6s1.91.73,1.66,1.37c-.12.36-.62.57-1,.71a16.27,16.27,0,0,1-1.65.68c-1.23.33-2.87.12-4,.6a14,14,0,0,1-2.79,1.27,6,6,0,0,1-2,.06c-.49,0-1.14-.28-1.59-.27a6.39,6.39,0,0,0-1.35.35,18.17,18.17,0,0,1-2.11.31c-.78.07-1,.14-1.39-.34A3,3,0,0,1,832.25,233.54Z" transform="translate(24.45 35.01)"/><g class="cls-2"><g class="cls-2"><g class="cls-29"><g class="cls-2"><path class="cls-30" d="M724.61,388.11l-3.38-1.71a16.33,16.33,0,0,0,6.75-4.57l3.38,1.71a16.14,16.14,0,0,1-6.75,4.57Z" transform="translate(24.45 35.01)"/></g></g></g><g class="cls-2"><g class="cls-31"><g class="cls-2"><path class="cls-30" d="M724.61,388.11l-3.38-1.71a16.33,16.33,0,0,0,6.75-4.57l3.38,1.71a16.14,16.14,0,0,1-6.75,4.57Z" transform="translate(24.45 35.01)"/><path class="cls-32" d="M731.36,383.54,728,381.83a8.52,8.52,0,0,0,2.26-4.72,3.35,3.35,0,0,0-1.86-3.42l3.37,1.71a3.35,3.35,0,0,1,1.87,3.43,8.57,8.57,0,0,1-2.26,4.71Z" transform="translate(24.45 35.01)"/></g></g></g><g class="cls-2"><g class="cls-33"><g class="cls-2"><path class="cls-32" d="M718.35,388.23,715,386.52a5.29,5.29,0,0,0,1,.36l3.38,1.71a4.82,4.82,0,0,1-1-.36Z" transform="translate(24.45 35.01)"/><path class="cls-30" d="M719.34,388.59,716,386.88a9.44,9.44,0,0,0,5.27-.48l3.38,1.71a9.35,9.35,0,0,1-5.27.48Z" transform="translate(24.45 35.01)"/></g></g></g><g class="cls-2"><g class="cls-34"><g class="cls-2"><path class="cls-35" d="M725.49,375.52l-3.38-1.71a9.46,9.46,0,0,1,5.27-.49l3.38,1.72a9.35,9.35,0,0,0-5.27.48Z" transform="translate(24.45 35.01)"/><path class="cls-36" d="M730.76,375l-3.38-1.72a5.16,5.16,0,0,1,1,.37l3.37,1.71a4.82,4.82,0,0,0-1-.36Z" transform="translate(24.45 35.01)"/></g></g></g><g class="cls-2"><g class="cls-37"><g class="cls-2"><path class="cls-36" d="M718.35,388.23,715,386.52a3.36,3.36,0,0,1-1.87-3.43,8.54,8.54,0,0,1,2.26-4.71l3.38,1.71a8.54,8.54,0,0,0-2.26,4.71,3.35,3.35,0,0,0,1.87,3.43Z" transform="translate(24.45 35.01)"/><path class="cls-35" d="M718.74,380.09l-3.38-1.71a16.14,16.14,0,0,1,6.75-4.57l3.38,1.71a16.24,16.24,0,0,0-6.75,4.57Z" transform="translate(24.45 35.01)"/></g></g></g><path class="cls-38" d="M725.49,375.52c4.73-1.65,8.37-.17,8.13,3.3s-4.28,7.64-9,9.29-8.37.17-8.13-3.31S720.76,377.17,725.49,375.52Z" transform="translate(24.45 35.01)"/><g class="cls-2"><g class="cls-39"><g class="cls-2"><path class="cls-30" d="M725.87,370.05l-3.38-1.72a14.13,14.13,0,0,1,8-.68l3.37,1.71a14.21,14.21,0,0,0-8,.69Z" transform="translate(24.45 35.01)"/><path class="cls-32" d="M733.87,369.36l-3.37-1.71a8.08,8.08,0,0,1,1.69.63l3.38,1.71a8.78,8.78,0,0,0-1.7-.63Z" transform="translate(24.45 35.01)"/></g></g></g><path class="cls-40" d="M725.87,370.05c7.8-2.72,13.75.34,13.29,6.84s-7.14,14-14.94,16.7-13.74-.36-13.29-6.86S718.08,372.76,725.87,370.05Zm-1.26,18.06c4.73-1.65,8.76-5.81,9-9.28s-3.4-5-8.13-3.31-8.77,5.81-9,9.28,3.4,5,8.13,3.31Z" transform="translate(24.45 35.01)"/><g class="cls-2"><g class="cls-41"><g class="cls-2"><path class="cls-32" d="M714.53,393.64l-3.37-1.71a6.73,6.73,0,0,1-3.6-6.91A17,17,0,0,1,712,375.6l3.38,1.72c-2.53,2.93-4.2,6.29-4.42,9.41a6.76,6.76,0,0,0,3.6,6.91Z" transform="translate(24.45 35.01)"/><path class="cls-30" d="M715.35,377.32,712,375.6a25.33,25.33,0,0,1,10.52-7.27l3.38,1.72a25.09,25.09,0,0,0-10.52,7.27Z" transform="translate(24.45 35.01)"/></g></g></g></g><path class="cls-42" d="M1145.4,325.64c7.41,2,20.71,8.07,25.4,13.14,4.29,4.66-2.49,12.4-8,10.38-3.74-1.36-3.9-3.73-9.2-3.12-4.73.54-7.27,3.24-12.35,3.09-8-.24-15.76-9.32-24.32-4.53-4.52,2.53,1.87,6.33,2.33,10,.82,6.78-3.17,2.16-7,.1-8-4.33-22.29-4.73-28.48,1.56-3.25,3.31.41,7.65-.78,11-1.63,4.6-4.27,1.6-7.82-.58s-8.12-4.88-12.15-2.86c-4.79,2.38-1.76,6.25-1.19,9.54.36,2,.51,6-2.39,6.84-3.71-4.07-17.63-17-17.73-5.24,0,2.3,3.11,8.8,1.08,10.6-3.27,2.88-5.81-3.82-7.8-5.47-8.28-6.81-20.83-1.66-29.42,1.19-3.41,1.13-9.88,3.8-11.38,6.55s2.23,4.5,2.34,8a7.69,7.69,0,0,1-.88,4.28c-2.46-.48-3.15-3.36-4.92-4.93a15.34,15.34,0,0,0-8.08-3.76c-7.4-1-13.75,4.18-18.23,7.82-3.37,2.73-3.86,14.27-11.31,13.69-2.77-.22-3.62-3.94-5.47-5.39a11.79,11.79,0,0,0-8.07-2.64c-.72,4.91-1,14.1-7.21,16.8-4.63-3.71-9.68-12.36-19.11-8.58-1.42.57-2.63,2.62-4,3.44-2.36,1.43-4.51,1.34-5.7,3.6-1.75,3.29.48,7.65-1.38,11-4.27,0-5.73-6.5-8.72-8.46-4.06-2.66-7.79-.23-11.48-1.76,1.54-2.22,6.68-3.63,9.62-4.81,7.18-2.86,14.54-5.47,21.66-8.4,18.72-7.69,37.82-15,56.71-22.46,16.35-6.47,33.72-12.34,50.85-17.7,16.28-5.08,32-10.7,49-14.49,9.76-2.17,20.48-4.55,29-8.65,6.49-3.15,13.36-6,20.27-8.7,3.27-1.26,22.42-8.09,22.45-10.43Z" transform="translate(24.45 35.01)"/><path class="cls-43" d="M730.22,376.76c-.27,3.67-4.18,7.93-8.74,9.52s-8-.1-7.76-3.77,4.19-7.92,8.74-9.51S730.49,373.09,730.22,376.76Z" transform="translate(24.45 35.01)"/><path class="cls-44" d="M1060.23,361.22c33.8,17,31.41,41.25-5.33,54.06s-93.94,9.38-127.73-7.66-31.4-41.25,5.34-54.06S1026.44,344.18,1060.23,361.22Z" transform="translate(24.45 35.01)"/><path class="cls-45" d="M1032.2,372c19.71,9.94,18.24,24.09-3.31,31.6s-55,5.54-74.69-4.4-18.23-24.09,3.31-31.6S1012.49,362.08,1032.2,372Z" transform="translate(24.45 35.01)"/><path class="cls-46" d="M983.2,217.54l-74.52,26c-5.18,1.8-9.62,6.71-9.94,11L896,291.91c-.31,4.25,3.63,6.24,8.8,4.44l74.52-26c5.17-1.81,9.62-6.72,9.94-11L992,222C992.31,217.73,988.37,215.74,983.2,217.54Zm-1.72,13c-.32,4.25-4.76,9.16-9.94,11l-54.62,19c-5.17,1.8-9.11-.19-8.8-4.44l.14-1.83c.31-4.26,4.77-9.16,9.94-11l54.61-19c5.18-1.8,9.12.19,8.8,4.44Z" transform="translate(24.45 35.01)"/><path class="cls-47" d="M987.05,216.75l-74.52,26c-5.16,1.8-9.61,6.71-9.93,11l-2.76,37.42c-.32,4.26,3.62,6.24,8.79,4.43l74.51-26c5.18-1.81,9.63-6.71,9.94-11l2.77-37.42C996.16,216.93,992.23,214.94,987.05,216.75Zm-1.72,13c-.31,4.25-4.76,9.17-9.93,11l-54.62,19.05c-5.17,1.8-9.11-.18-8.79-4.44l.13-1.83c.32-4.25,4.76-9.16,9.93-11l54.62-19.05c5.18-1.8,9.12.19,8.8,4.44Z" transform="translate(24.45 35.01)"/><polygon class="cls-42" points="744.78 405.85 877.6 472.84 1138.69 381.81 1005.86 314.82 744.78 405.85"/><polygon class="cls-44" points="749.47 376.96 882.29 443.95 1143.38 352.92 1010.56 285.93 749.47 376.96"/><polygon class="cls-44" points="1007.14 286.5 1140.63 353.57 1183.75 295.87 1050.79 236.43 1007.14 286.5"/><path class="cls-48" d="M1050.72,204.76c-6.47,3.38-11.16,9.69-15.86,14.37-5.5,5.47-10.66,10.73-15.52,16.59-3.46,4.18-18.67,18.05-14.85,23.34,2.38,3.32,11.93,3.66,16.07,4.5,6.9,1.39,10.66,3.88,15.1,7.66,5.24,4.45,12.27,6.51,19.27,9.19,7.37,2.81,13,6.72,19.81,10.07,3.72,1.83,9.82,5.39,13.89,4.69,5.57-1,11.71-7.7,14.94-10.87,9.74-9.55,17.56-19.82,26.55-29.62,5-5.43,16.5-14.15,4.66-20.33-4.47-2.32-14.51-2.06-19.89-2.81-7.72-1.1-16.84-2.5-22.77-6.52A110.07,110.07,0,0,0,1069.05,213c-5.11-2-13.14-9.79-18.9-8.25Z" transform="translate(24.45 35.01)"/><path class="cls-49" d="M1134.78,234.35c-4-2.09-12.53-2.08-18.12-2.61-6.63,9.92-23.44,17.07-36.19,20.82a83.38,83.38,0,0,1-29.86,3.32c-13.15-1-25.68-4.22-38.56-6.29a6.71,6.71,0,0,1-3.63-1.65c-3.36,4.34-5.71,8.66-3.93,11.12,2.38,3.32,11.93,3.66,16.07,4.5,6.9,1.39,10.66,3.88,15.1,7.66,5.24,4.45,12.27,6.51,19.27,9.19,7.37,2.81,13,6.72,19.81,10.07,3.72,1.83,9.82,5.39,13.89,4.69,5.57-1,11.71-7.7,14.94-10.87,9.74-9.55,17.56-19.82,26.55-29.62C1135.11,249.25,1146.62,240.53,1134.78,234.35Z" transform="translate(24.45 35.01)"/><path class="cls-50" d="M983,309h0c.52-.4,1-.82,1.58-1.19Z" transform="translate(24.45 35.01)"/><path class="cls-50" d="M1043,306.2c-.44.2-.23.2,0,0Z" transform="translate(24.45 35.01)"/><path class="cls-51" d="M1056.18,218.21c-.86-2.18-7.69-.36-9.38.24-4.29,1.52-8.25,4.11-11.78,6.44-1.36.89-3.42,1.76-3.84,3.08a11,11,0,0,0,0,4.23,11.45,11.45,0,0,0,2,4.5c.86,1.32,1.47,3.23,2.69,4.32,2.35-2.32,3.74-5.4,5.76-7.93a97.24,97.24,0,0,1,6.6-7.74c1.49-1.48,3-3,4.67-4.37.84-.7,2-2.09,3.23-2.29Z" transform="translate(24.45 35.01)"/><polygon class="cls-42" points="1138.69 381.81 1142.29 351.35 1110.44 364.87 1106.11 384.76 1138.69 381.81"/><polygon class="cls-42" points="1210.23 316.38 1212.38 330.16 1138.69 381.81 1142.29 351.35 1208.03 307.27 1210.23 316.38"/><path class="cls-46" d="M1167,243.63l-45.26,29.16c-3.14,2-4.86,6.13-3.82,9.17l9,26.78c1,3.05,4.41,3.88,7.55,1.85l45.25-29.15c3.14-2,4.85-6.13,3.83-9.18l-9-26.78C1173.53,242.44,1170.14,241.61,1167,243.63Zm2.59,9.41c1,3-.69,7.15-3.83,9.18l-33.17,21.37c-3.14,2-6.52,1.19-7.54-1.85l-.45-1.31c-1-3,.7-7.15,3.83-9.17l33.18-21.37c3.14-2,6.51-1.2,7.54,1.84Z" transform="translate(24.45 35.01)"/><path class="cls-47" d="M1169.51,242.51l-45.25,29.16c-3.15,2-4.86,6.12-3.83,9.17l9,26.78c1,3,4.4,3.87,7.54,1.85l45.26-29.15c3.14-2,4.85-6.14,3.83-9.18l-9-26.78C1176,241.31,1172.66,240.49,1169.51,242.51Zm2.6,9.41c1,3.05-.7,7.15-3.83,9.18l-33.18,21.37c-3.13,2-6.52,1.19-7.54-1.85l-.45-1.31c-1-3,.7-7.15,3.83-9.18l33.18-21.36c3.14-2,6.52-1.21,7.55,1.84Z" transform="translate(24.45 35.01)"/><path class="cls-52" d="M927.79,229.7c.58-.25,1.84.13,2.18-.52a9,9,0,0,0,1.63.15l.08,0a3.35,3.35,0,0,0-.07-.37,3.86,3.86,0,0,0-1.78-1.6,11.14,11.14,0,0,0-3.07-.59,40.85,40.85,0,0,0-5.52-.38c-1,0-1.92,0-2.87,0a4.56,4.56,0,0,0-1.5.15c-.45.38,1,.56,1.3.59a4.07,4.07,0,0,0,1.6-.06,3.72,3.72,0,0,1,1.63,0c-.55.22-1,.56-1.54.78-.38.14-1.57.75-.64,1a7.89,7.89,0,0,0,2.31-.17c.54,0,1.1,0,1.62-.1s.62-.29,1-.37.9,0,1.28,0,.91-.26,1.34-.27.72.16.6.38-.67.33-.94.43a9.76,9.76,0,0,0-1.88,1c-.21.14-.7.36-.4.59a3,3,0,0,0,1,.17,5.61,5.61,0,0,0,1.55-.3A5.12,5.12,0,0,0,927.79,229.7Z" transform="translate(24.45 35.01)"/><path class="cls-50" d="M949.62,231.45l.1.26,0,0Z" transform="translate(24.45 35.01)"/><path class="cls-53" d="M949.68,236.43a3.32,3.32,0,0,0,.55-1.42,4,4,0,0,0-.05-1.69,8,8,0,0,0-.46-1.61,4.17,4.17,0,0,0-.89-.48l-1.66-.79c-1.12-.53-2.31-1-3.48-1.48-2.05-.8-4.06-1.62-6.13-2.4-.83-.31-1.64-.68-2.49-1a3.54,3.54,0,0,0-1.83-.12,31.8,31.8,0,0,1-5.75-.36c-.71-.07-1.43-.28-2.14-.32a16,16,0,0,0-2.28.21,23.85,23.85,0,0,1-2.81.08c-.27,0-.61-.11-.86-.09a8.48,8.48,0,0,0-.94.22,21.27,21.27,0,0,1-2.27.22,1.46,1.46,0,0,0-.93.23c-.58.6.73,1,1.44,1.15a14.7,14.7,0,0,0,3,.07,23.49,23.49,0,0,1,2.59.47,6.62,6.62,0,0,0,1.83.06,1.65,1.65,0,0,1,1.09.11,14.29,14.29,0,0,0,3.34.92,12.82,12.82,0,0,1,1.7.29,7.51,7.51,0,0,1,1.82,1c.62.43,1.23.86,1.87,1.27.34.22.84.48.9.78.17.74-1.62,1.14-2.39,1.38a9.51,9.51,0,0,1-3.51.63,5.74,5.74,0,0,0-2.92.79c-.37.22-.84.39-.91.76s.39.43.85.5a9.26,9.26,0,0,0,2,0c.75,0,1.43-.08,2.2-.06,1.56,0,3.1.28,4.68.21a20.53,20.53,0,0,1,3.33-.13,23.05,23.05,0,0,0,4.61.25,16.59,16.59,0,0,1,4.82.15C948.42,236.47,949,237.16,949.68,236.43Z" transform="translate(24.45 35.01)"/><path class="cls-53" d="M1020.5,236.61l-.59-1.29c-7,.08-14.56,1.48-21.5-.13-5.34-1.24-9.79-2.69-15.4-3.34-6.6-.76-29.63-.57-35.25-1.21-.18,0-3.63,3.94-5,5.46,5.17,1.49,13.87,3.13,19,4.58,8.71,2.43,15.64,2.17,24.83,3.14C998.31,245.05,1013.2,244.09,1020.5,236.61Z" transform="translate(24.45 35.01)"/><path class="cls-53" d="M998.45,235.33c5.11-1.72,9-4.93,13.3-7.55,2.25-1.37,4.75-2.64,6.86-4.16,2.42-1.76,3.13-2.56,5.39,0,6.79,7.53-3.61,15.31-11.08,19.44-2.1,1.16-3.29,2.1-5.95,1.55-2.3-.47-4.52-.82-6.86-1.23-2.09-.37-3.9-1-4.29-2.75-.34-1.61,1-4.39,3-4.74Z" transform="translate(24.45 35.01)"/><path class="cls-51" d="M1049,299.48a26.51,26.51,0,0,1,2.35-10c-2.43,1.37-4.94,2.67-7.57,3.85-19.71,8.86-44.63,5.2-58.5-8-.14.09-.27.2-.4.28,4,12.14,13.67,20.77,30.55,24.89,8.25,2,16.94,2.38,25.78,2.25,5.69-.08,6.78-.14,7.29-4.5C1048.8,305.35,1048.75,302.4,1049,299.48Z" transform="translate(24.45 35.01)"/><path class="cls-54" d="M1046.94,210.18c-10.18-4.89-21.87,7-27.68,11.45-1.47,1.12-5,3.09-5.49,4.5-.69,2,2.18,5.09,3.93,6.48,3.53,2.79,6,3.35,9.18.31,3.74-3.57,6.66-7.83,9.7-11.73,2.75-3.55,7.27-6.59,9.21-10.27Z" transform="translate(24.45 35.01)"/><path class="cls-55" d="M1056.62,212.35c-2-.95-8.22-1.35-10.42-2-11.42,1.26-16.53,6.53-18.3,11.1,0,.07-.09.1-.15.15l-3.16,6.33a27.71,27.71,0,0,1-3.12,1.45c-1.87.7-3.41.79-4.16,2.3-.92,1.83-.9,4.12-1.11,6.1a40.06,40.06,0,0,0,.24,8.33,18.9,18.9,0,0,1,0,3.76c-.09.19-.17.39-.25.58-2.08,4.85-3.78,10-6.65,14.63a43.58,43.58,0,0,1-7.64,9A28.4,28.4,0,0,0,1002,282c1.7,4.36,6,8.12,12.24,10a55.69,55.69,0,0,0,19.86,2.17,18.24,18.24,0,0,0,7.49-2l.86-.43a29.31,29.31,0,0,1,3.06-8c2.48-4.38,7.19-7.54,11.73-10.77l2.63-1.88c1.9-1.84,3.81-3.66,5.84-5.41,1.42-1.24,3.54-3.33,6-5.25.3-.35.59-.7.91-1.05,2.25-2.43,5.52-6.66,9.58-7.73l.4-.09c1.69-1.09-.46,2.43,1.75,2.05,4.63-2,3.2-7.19,3-7.39C1087.33,246.2,1068.84,218.19,1056.62,212.35Z" transform="translate(24.45 35.01)"/><path class="cls-53" d="M1071.61,218.79c-2.23-1.11-5.87-.16-8.48-.69-3.33-.69-12.64-1.06-14.47,1.64l.84-.65a38.92,38.92,0,0,1-3.41,5.49c-1,1.29-7.87,9.32-7.63,10.83.49,3.12,12.85,1.4,19.13,0,4-.92,5.26-.93,8.58-3.07a12.12,12.12,0,0,0,5.12-8.21C1071.73,221.34,1073.85,219.91,1071.61,218.79Z" transform="translate(24.45 35.01)"/><path class="cls-56" d="M1055.66,216.91c-3,.17-5.69.75-6.59,2.08l.83-.64c-1,1.93-1.11,3.11-2.46,4.86-1,1.29-2.44,4-2.21,5.56.51,3.12,3,4.09,7,4.38,3,.2,7.41.41,10.64-.67C1058,227.88,1054.74,222.12,1055.66,216.91Z" transform="translate(24.45 35.01)"/><path class="cls-16" d="M1053.44,207c-.48-.56-2.49-2.3-2.93-1.47l.34-.64c-1.09.93-1.89,2-3.06,2.94s-.45,5.12-.48,6.41a22.89,22.89,0,0,1-.35,4c-.47,3.62,3.58,3.47,6.28.35C1055.8,215.7,1056.1,210.09,1053.44,207Z" transform="translate(24.45 35.01)"/><path class="cls-53" d="M1077.9,213.42c5.61-2.9,2.71-10.53-1.34-13.8-3.16-2.54-8.89-4.2-13.42-4a32.39,32.39,0,0,0-4.67.55,16.28,16.28,0,0,0-2.75.46.51.51,0,0,0-.24.13l.48.13c-2,1-2.49,3.08-4.3,4.25-1.19.76-2.34,1.81-1.45,3.07s1.82,1.95.92,3.31a11.67,11.67,0,0,1-2.61,2.64c-.6.5-3.6,1.68-3.31,2.4.38,1,3.6,1.3,4.56,1.83-.53.07-.93.89-1,1.3,0,.18.1.38,0,.64s-.35.46-.43.66.05.39-.11.68-.54.51-.73.75c-.41.52-.78,1-.63,1.61.26,1.08,2.51,1.77,3.7,2.3a19.08,19.08,0,0,0,8.54,1.22c5-.24,12.17-.18,13.27-4.47,2.31.86,5.36-1.06,6.54-2.27.58-.6,1.75-1.61,1.5-2.43S1078.91,213.5,1077.9,213.42Z" transform="translate(24.45 35.01)"/><path class="cls-57" d="M1092.88,202.89a28.33,28.33,0,0,0-2.39-6.37c-1.23-2.73-4.49-4.38-8.18-5.31-7.83-2-11.61-2.51-13.31-2.22a22.61,22.61,0,0,0-12.06,2c-2.91,1.4-5.76,3.13-7,5.61-1.48,3,2.59,4.86,5.17,6.8,2.86,2.13,5.14,4.7,6.07,7.61a16.84,16.84,0,0,1,.83,3.66,11.75,11.75,0,0,0,.18,2.44,3.53,3.53,0,0,1,1.43-2.06c0,.62-.55,1.18-.63,1.81,2-1.31,4.74-2,7.08-3.08.36.1.78.19,1.23.27,1.69-.31,3.28-1.1,5.15-1.1a5.17,5.17,0,0,1,1.93.4l.17.17a.67.67,0,0,0-.09-.14,3.72,3.72,0,0,1,.49.26c.51.81-.7,2.7-1.07,3.12-1.14,1.31-2.78,1.81-4.81,2-.86.09-.92.08-1.46.59s-1.18,1.16-1.72,1.78a6.68,6.68,0,0,0-1.27,6.79,5.49,5.49,0,0,0,1-1.53c-.31,1.17,1.21,2.63,2.06,3.55,1,1.07,2.07,2.13,3.18,3.11.17-.58-.14-1.27-.09-1.88a3.35,3.35,0,0,1,1.11-2.23c1.71-1.6,4.33-2.72,6.31-4.16a23.19,23.19,0,0,0,7-7.85,32.22,32.22,0,0,0,3.44-7.85A14,14,0,0,0,1092.88,202.89Z" transform="translate(24.45 35.01)"/><path class="cls-55" d="M1016.19,241.67c-.41,6,1.85,9.12-2.44,14.55a117.59,117.59,0,0,1-11,12c-3.44,3.27-7.56,6.09-10.65,9.46-2.41,2.63-4.83,7.05-8.31,9,4,12.15,13.68,20.78,30.57,24.89,8.24,2,16.94,2.39,25.78,2.26,5.69-.09,6.78-.15,7.29-4.51.34-2.85.29-5.81.5-8.71.49-7,2-11.7,7.75-17.19s8.82-10.85,12.69-17.2a41.15,41.15,0,0,1,7.57-9.62c1.83-1.62,8.68-5.33,7.62-8-1.52-3.88-10.66-2-14-1.7a55.37,55.37,0,0,1-17.84-.74c-6-1.39-12.36-4.68-18.53-5.38-5-.57-13.7,4.28-17,.91Z" transform="translate(24.45 35.01)"/><path class="cls-48" d="M974.35,252.89c-5.39-3-23.89,6.05-29.5,8.18-13.6,5.17-28.07,10-42.12,14.44-22.08,6.95-44.78,12.34-66.12,19.85-15.42,5.43-30.9,11.08-46.1,17-5.65,2.2-12.6,4.19-17.44,7.26-6.94,4.39-6.27,5.46.3,8.54q16.88,7.93,34.59,15.49c13.71,5.88,27.11,10.31,34,21.33,6.57,10.52,10,21.59,8.38,32.92-.56,4-3.91,9.55,2.13,12.33,6.55,3,16.27-4,21.2-6.91,5.74-3.37,10.33-7.71,11.62-13.17,1.41,3.81-.93,7.75-3.21,11.39,6.8.84,16.43-4.4,21.89-6.87,8-3.59,13.76-4.84,22.33-6.53,11.69-2.3,19.18-10.2,31.16-12.25,5-.85,9.86-.48,14.81-1.95,7.82-2.33,14.17-6.68,21.27-9.82,10.66-4.71,22.9-4.87,34.16-9.53,9.45-3.91,18.31-8.58,27.51-12.61,4.81-2.11,17.43-4.8,19.52-8.9,1.85-3.64-4.23-10.64-6.45-13.83-11.31-16.23-30.38-32.95-50.93-43.36-8.9-4.5-18.06-7.24-27.16-10.82-5.67-2.23-12.63-8.56-17.35-12.22a3.59,3.59,0,0,1-1.59.95Z" transform="translate(24.45 35.01)"/><path class="cls-49" d="M1068.75,319.66a116.23,116.23,0,0,0-9-11.24c-3.44,4-9.14,6.76-14.59,9.09a210.15,210.15,0,0,1-25.94,8.77c-15.14,4.22-30.68,7.82-46.38,10.86-30.68,5.91-64.77,5.58-96.41,2.71-16.16-1.46-32-3.54-47-8.58-14.37-4.82-27.84-11-41.83-16.35a7,7,0,0,1-1.06-.5c-4.54,1.62-9.34,3.31-13,5.6-6.94,4.4-6.27,5.46.3,8.55q16.88,7.94,34.59,15.49c13.72,5.88,27.12,10.31,34,21.32,6.57,10.53,10,21.6,8.38,32.93-.57,4-3.91,9.55,2.13,12.33,6.56,3,16.27-4,21.21-6.91,5.74-3.37,10.32-7.72,11.61-13.17,1.41,3.8-.93,7.75-3.21,11.39,6.8.84,16.43-4.4,21.89-6.87,8-3.59,13.76-4.85,22.32-6.53,11.71-2.3,19.19-10.2,31.18-12.25,5-.85,9.86-.48,14.8-1.95,7.82-2.33,14.17-6.69,21.27-9.82,10.66-4.71,22.89-4.87,34.16-9.53,9.46-3.9,18.32-8.58,27.51-12.61,4.81-2.1,17.42-4.8,19.52-8.91C1077.05,329.84,1071,322.84,1068.75,319.66Z" transform="translate(24.45 35.01)"/><polygon class="cls-44" points="747.43 397.75 880.74 464.98 885.42 401.69 752.12 334.47 747.43 397.75"/><polygon class="cls-42" points="832.94 396.86 873.41 417.27 874.53 402.08 834.06 381.67 832.94 396.86"/><polygon class="cls-42" points="799.61 380.06 827.7 394.23 828.83 379.03 800.73 364.87 799.61 380.06"/><polygon class="cls-42" points="757.24 358.69 792 376.22 793.12 361.03 758.36 343.5 757.24 358.69"/><path class="cls-4" d="M726.51,321.64l2.23-30.13c.48-6.43,6.6-8.78,13.64-5.23L849.2,340.15c7,3.55,12.37,11.67,11.9,18.11l-2.23,30.13c-.48,6.43-6.59,8.78-13.63,5.23L738.41,339.75C731.37,336.2,726,328.08,726.51,321.64Zm15.62-32c-4.94-2.49-9.24-.78-9.58,3.82l-2.23,30.13c-.34,4.6,3.41,10.37,8.34,12.86l106.83,53.87c4.93,2.49,9.23.78,9.57-3.82l2.23-30.13c.34-4.6-3.4-10.36-8.34-12.86Z" transform="translate(24.45 35.01)"/><polygon class="cls-42" points="759.39 396.41 870.79 452.59 873.2 420.07 761.79 363.88 759.39 396.41"/><polygon class="cls-42" points="746.82 406.01 877.6 472.84 883.64 464.39 747.57 396.01 746.82 406.01"/><path class="cls-44" d="M965,258.18c-16.67,2.8-32.87,10.15-48.84,14.83-14.89,4.36-29.53,9.14-44.32,13.68-11,3.38-22,7.53-32.49,11.68-6.18,2.45-24,6.38-24.36,12.3,20.46,2.37,42.94-6.17,61.9-10.42,19.44-4.36,40.41-9.55,61-10.28,12.47-.44,21.52,5.24,34.22,1.71,5.89-1.64,10.49-4,17.15-3.29,4.46.51,8.35,3.14,13,3,20.68-.51-2.83-17.08-8.77-20.18-4.86-2.55-26.32-15.86-29.94-12.08Z" transform="translate(24.45 35.01)"/><path class="cls-46" d="M1099,277.74l-74.52,26c-5.17,1.8-9.61,6.71-9.93,11l-2.77,37.42c-.31,4.26,3.62,6.25,8.79,4.44l74.52-26c5.17-1.8,9.63-6.71,9.94-11l2.77-37.41C1108.12,277.91,1104.18,275.93,1099,277.74Zm-1.72,13c-.32,4.26-4.76,9.17-9.94,11l-54.61,19c-5.18,1.8-9.11-.18-8.8-4.43l.13-1.84c.32-4.25,4.77-9.15,9.94-11l54.62-19c5.17-1.8,9.11.18,8.79,4.44Z" transform="translate(24.45 35.01)"/><path class="cls-44" d="M1102.87,276.93l-74.52,26c-5.17,1.8-9.62,6.71-9.94,11l-2.76,37.42c-.32,4.25,3.62,6.24,8.79,4.43l74.53-26c5.16-1.81,9.61-6.72,9.93-11l2.76-37.42C1112,277.11,1108,275.13,1102.87,276.93Zm-1.72,13c-.31,4.25-4.77,9.16-9.94,11l-54.62,19c-5.17,1.81-9.1-.18-8.79-4.43l.14-1.83c.31-4.25,4.76-9.16,9.93-11l54.62-19c5.17-1.8,9.11.18,8.8,4.43Z" transform="translate(24.45 35.01)"/><path class="cls-53" d="M1074.92,269.9c.51-.7,2.11-2.65,1.66-3.36s-4.4-1.66-5.39-2c-2.72-.78-8-2.94-9.86-2.82l-.74,1.07c.12-.19.08-.59.53-.87-5.18,4.6-7.07,12.28-13.41,16-6.6,3.89-14.75,6.86-22,10.06-6.64,2.92-14.66,4.88-20.92,8.19-2.92,1.56-.85,2.65.44,5,.6,1.07.07,1.58-.36,1.79.24-.05.57-.11,1.12-.18,3.23-.41,14.23-.82,17.33-1.63l7.93-2a190.78,190.78,0,0,0,22.87-7.91c4.45-1.77,7.89-6.24,10.77-9.38A143,143,0,0,0,1074.92,269.9Z" transform="translate(24.45 35.01)"/><path class="cls-50" d="M976.52,308.88a5.23,5.23,0,0,1,.9.06C977.13,308.92,976.8,308.87,976.52,308.88Z" transform="translate(24.45 35.01)"/><path class="cls-53" d="M1015.08,300.52c-.49-1.33-1.18-2.64-1.7-4-.36-.93-.57-2.3-1.39-3.09l1.43-.86c-2.5.66-10.62,3.73-11.57,4a10.24,10.24,0,0,1-3.24.28c-2.16-.09-4.13-.58-6.32-.46-2,.1-4.09,0-6.11-.05-1.43-.06-2.84-.39-4.28-.45-.85,0-2.77-.16-3.4.41s1.54,2,2.33,2.27c1.73.57,3.72.64,5.46,1.23a7,7,0,0,1,2.17,1c.64.53.13,1-.33,1.52-1,1-2,2.25-3.6,2.67-.82.21-1.65.31-2.5.46-1,.18-2,.52-3,.76-1.33.31-2.84.18-4.24.39a9.27,9.27,0,0,0-2.46.75c-.94.43-.93.62.11.94a12.2,12.2,0,0,0,2.68.58c.45,0,.94,0,1.42,0,.28,0,.61,0,.9.06a5.23,5.23,0,0,0-.9-.06h-.18s.13,0,.17.05c-.58,0-3.55-.27-2,.49a14.21,14.21,0,0,0,5.1,1.1,14.83,14.83,0,0,0,4.17.28,18.45,18.45,0,0,1,5.93-.3,5.15,5.15,0,0,0,2.47.21c.72-.26,1.31-.76,2-1.07,1.75-.78,3.51-1.51,5.21-2.35a30.71,30.71,0,0,0,4.76-2.88,7.07,7.07,0,0,1,3.79-1.74c1.73-.23,3.52-.25,5.26-.47a6,6,0,0,0,1.89-.28C1015.5,301.62,1015.22,300.9,1015.08,300.52Z" transform="translate(24.45 35.01)"/><path class="cls-58" d="M997.7,305.24c-.86.24-1.74.5-2.62.68-1.55.34-3,.77-4.56,1.15a7.12,7.12,0,0,1-2.39.38c-.42,0-1.64-.26-1.87-.05l.23-.06c-.21-.48-6.26.84-7.16,1a26.7,26.7,0,0,1-3.09.19,25.16,25.16,0,0,0-3-.09,14.36,14.36,0,0,0,4,1,13.65,13.65,0,0,0,4-.48,30.64,30.64,0,0,1,5.35-.59,11.67,11.67,0,0,1,1.59.08c.6.14.81.59,1.53.43.26-.05.41-.23.68-.29a6.65,6.65,0,0,1,.89,0c1-.07,1.48-.69,2.17-1.12a15.08,15.08,0,0,1,3-1.25,8.78,8.78,0,0,0,3.09-1.41A6.74,6.74,0,0,0,997.7,305.24Z" transform="translate(24.45 35.01)"/><path class="cls-58" d="M1007.72,300.76c-.69.08-1.4.13-2.11.2-.26.65-1.3,1.16-2,1.57a21.93,21.93,0,0,1-3.16,1.76c-2.18.92-4.28,1.93-6.33,3-.87.45-1.73.92-2.59,1.39a3.88,3.88,0,0,1-1.7.29c-1.16.1-2.28-.16-3.36,0-2.21.39-4.21,1-6.49.75-1-.12-2-.13-3-.32a8.94,8.94,0,0,0-2.92-.48c-.69,1,6.73,1.78,7.56,1.87a17.88,17.88,0,0,0,3.87-.51,16.17,16.17,0,0,1,4.17,0c.64.08,1.27.24,1.93.3a2.78,2.78,0,0,0,1.77-.54c.69-.33,1.46-.57,2.16-.88s1.48-.81,2.24-1.16a42.57,42.57,0,0,0,5-2.67,34.86,34.86,0,0,0,3-2.16c.86-.64,2.41-.72,3.6-.81,1.51-.13,3-.13,4.53-.29.22,0,.6,0,.93-.07-1.84-.23-3.69-.53-5.52-.79A5.32,5.32,0,0,1,1007.72,300.76Z" transform="translate(24.45 35.01)"/><path class="cls-55" d="M1087.09,245.59c3.85,7.19-.8,13.76-4,20.2-2.86,5.8-6,12.53-10.84,17.56-2.14-.68-4.33-.91-6.52-1.71-3-1.07-5.71-2.37-8.61-3.54-4.06-1.64-8.33-3.25-12.11-4.91,2-2.22,4.54-4.11,6.41-6.41a144.14,144.14,0,0,1,10.43-12.1c3.93-3.89,8.72-7.81,14.87-9.8,3.3-1.07,7.68-1.67,10.34.71Z" transform="translate(24.45 35.01)"/><path class="cls-54" d="M1066.4,258.45c3.5-5.16,7.61-10.59,13.44-14.39a24.76,24.76,0,0,0-3,.72c-6.15,2-10.94,5.91-14.87,9.8a144.66,144.66,0,0,0-10.44,12.11c-1.85,2.29-4.44,4.19-6.4,6.4,3.77,1.66,8,3.28,12.1,4.92,2.48,1,4.87,2.07,7.35,3C1061.6,273.56,1061.53,265.62,1066.4,258.45Z" transform="translate(24.45 35.01)"/><polygon class="cls-42" points="741.04 419.16 882.67 491.73 884.31 480.65 745.44 408.44 741.04 419.16"/><polygon class="cls-42" points="1192.96 383.55 882.67 491.73 883.46 480.95 1193.76 372.76 1192.96 383.55"/><path class="cls-42" d="M723.13,367.56c-2.84,3.48-14.64,15.59-3.39,18.88,12.16,3.55,18.77-15.56,2.8-17.48Z" transform="translate(24.45 35.01)"/><g class="cls-2"><g class="cls-2"><g class="cls-59"><g class="cls-2"><path class="cls-30" d="M861.91,462.63l-3.38-1.71a16.14,16.14,0,0,0,6.75-4.57l3.38,1.71a16.14,16.14,0,0,1-6.75,4.57Z" transform="translate(24.45 35.01)"/></g></g></g><g class="cls-2"><g class="cls-60"><g class="cls-2"><path class="cls-30" d="M861.91,462.63l-3.38-1.71a16.14,16.14,0,0,0,6.75-4.57l3.38,1.71a16.14,16.14,0,0,1-6.75,4.57Z" transform="translate(24.45 35.01)"/><path class="cls-32" d="M868.66,458.06l-3.38-1.71a8.47,8.47,0,0,0,2.26-4.71,3.35,3.35,0,0,0-1.87-3.43l3.38,1.72a3.35,3.35,0,0,1,1.87,3.42,8.54,8.54,0,0,1-2.26,4.71Z" transform="translate(24.45 35.01)"/></g></g></g><g class="cls-2"><g class="cls-61"><g class="cls-2"><path class="cls-32" d="M855.65,462.75,852.27,461a4.48,4.48,0,0,0,1,.36l3.38,1.72a4.31,4.31,0,0,1-1-.37Z" transform="translate(24.45 35.01)"/><path class="cls-30" d="M856.64,463.12l-3.38-1.72a9.35,9.35,0,0,0,5.27-.48l3.38,1.71a9.45,9.45,0,0,1-5.27.49Z" transform="translate(24.45 35.01)"/></g></g></g><g class="cls-2"><g class="cls-62"><g class="cls-2"><path class="cls-35" d="M862.79,450.05l-3.38-1.72a9.35,9.35,0,0,1,5.27-.48l3.38,1.71a9.45,9.45,0,0,0-5.27.49Z" transform="translate(24.45 35.01)"/><path class="cls-36" d="M868.06,449.56l-3.38-1.71a4.82,4.82,0,0,1,1,.36l3.38,1.72a4.83,4.83,0,0,0-1-.37Z" transform="translate(24.45 35.01)"/></g></g></g><g class="cls-2"><g class="cls-63"><g class="cls-2"><path class="cls-36" d="M855.65,462.75,852.27,461a3.36,3.36,0,0,1-1.87-3.43,8.57,8.57,0,0,1,2.26-4.71l3.38,1.72a8.47,8.47,0,0,0-2.26,4.7,3.35,3.35,0,0,0,1.87,3.43Z" transform="translate(24.45 35.01)"/><path class="cls-35" d="M856,454.62l-3.38-1.72a16.33,16.33,0,0,1,6.75-4.57l3.38,1.72a16.14,16.14,0,0,0-6.75,4.57Z" transform="translate(24.45 35.01)"/></g></g></g><path class="cls-38" d="M862.79,450.05c4.73-1.66,8.37-.17,8.13,3.3s-4.28,7.63-9,9.28-8.38.17-8.13-3.31S858.06,451.69,862.79,450.05Z" transform="translate(24.45 35.01)"/><g class="cls-2"><g class="cls-64"><g class="cls-2"><path class="cls-30" d="M863.17,444.57l-3.38-1.71a14.23,14.23,0,0,1,8-.69l3.37,1.72a14.1,14.1,0,0,0-8,.68Z" transform="translate(24.45 35.01)"/><path class="cls-32" d="M871.17,443.89l-3.37-1.72a8.68,8.68,0,0,1,1.69.63l3.38,1.72a7.64,7.64,0,0,0-1.7-.63Z" transform="translate(24.45 35.01)"/></g></g></g><path class="cls-40" d="M863.17,444.57c7.8-2.72,13.75.35,13.29,6.85s-7.14,14-14.94,16.69-13.74-.35-13.28-6.85S855.38,447.29,863.17,444.57Zm-1.26,18.06c4.73-1.65,8.77-5.8,9-9.28s-3.4-5-8.13-3.3-8.77,5.8-9,9.27,3.39,5,8.13,3.31Z" transform="translate(24.45 35.01)"/><g class="cls-2"><g class="cls-65"><g class="cls-2"><path class="cls-32" d="M851.83,468.16l-3.38-1.71c-2.43-1.23-3.82-3.63-3.59-6.91.22-3.12,1.88-6.47,4.41-9.41l3.38,1.71c-2.53,2.94-4.2,6.29-4.41,9.42s1.16,5.67,3.59,6.9Z" transform="translate(24.45 35.01)"/><path class="cls-30" d="M852.65,451.84l-3.38-1.71a25.33,25.33,0,0,1,10.52-7.27l3.38,1.71a25.27,25.27,0,0,0-10.52,7.27Z" transform="translate(24.45 35.01)"/></g></g></g></g><g class="cls-2"><g class="cls-2"><g class="cls-66"><g class="cls-2"><path class="cls-30" d="M1159.8,355.91l-3.38-1.71a16.3,16.3,0,0,0,6.76-4.57l3.37,1.71a16.14,16.14,0,0,1-6.75,4.57Z" transform="translate(24.45 35.01)"/></g></g></g><g class="cls-2"><g class="cls-67"><g class="cls-2"><path class="cls-30" d="M1159.8,355.91l-3.38-1.71a16.3,16.3,0,0,0,6.76-4.57l3.37,1.71a16.14,16.14,0,0,1-6.75,4.57Z" transform="translate(24.45 35.01)"/><path class="cls-32" d="M1166.55,351.34l-3.37-1.71a8.59,8.59,0,0,0,2.26-4.72,3.34,3.34,0,0,0-1.87-3.42l3.38,1.72a3.33,3.33,0,0,1,1.86,3.42,8.4,8.4,0,0,1-2.26,4.71Z" transform="translate(24.45 35.01)"/></g></g></g><g class="cls-2"><g class="cls-68"><g class="cls-2"><path class="cls-32" d="M1153.55,356l-3.38-1.71a4.82,4.82,0,0,0,1,.36l3.38,1.72a4.83,4.83,0,0,1-1-.37Z" transform="translate(24.45 35.01)"/><path class="cls-30" d="M1154.54,356.4l-3.38-1.72a9.31,9.31,0,0,0,5.26-.48l3.38,1.71a9.42,9.42,0,0,1-5.26.49Z" transform="translate(24.45 35.01)"/></g></g></g><g class="cls-2"><g class="cls-69"><g class="cls-2"><path class="cls-35" d="M1160.68,343.32l-3.37-1.71a9.35,9.35,0,0,1,5.27-.48l3.38,1.71a9.48,9.48,0,0,0-5.28.48Z" transform="translate(24.45 35.01)"/><path class="cls-36" d="M1166,342.84l-3.38-1.71a4.82,4.82,0,0,1,1,.36l3.38,1.72a4.69,4.69,0,0,0-1-.37Z" transform="translate(24.45 35.01)"/></g></g></g><g class="cls-2"><g class="cls-70"><g class="cls-2"><path class="cls-36" d="M1153.55,356l-3.38-1.71a3.35,3.35,0,0,1-1.87-3.43,8.54,8.54,0,0,1,2.26-4.71l3.37,1.71a8.48,8.48,0,0,0-2.25,4.71,3.33,3.33,0,0,0,1.87,3.43Z" transform="translate(24.45 35.01)"/><path class="cls-35" d="M1153.93,347.89l-3.37-1.71a16.33,16.33,0,0,1,6.75-4.57l3.37,1.71a16.33,16.33,0,0,0-6.75,4.57Z" transform="translate(24.45 35.01)"/></g></g></g><path class="cls-38" d="M1160.68,343.32c4.74-1.65,8.38-.16,8.13,3.31s-4.27,7.63-9,9.28-8.37.17-8.12-3.31S1156,345,1160.68,343.32Z" transform="translate(24.45 35.01)"/><g class="cls-2"><g class="cls-71"><g class="cls-2"><path class="cls-30" d="M1161.07,337.85l-3.38-1.71a14.12,14.12,0,0,1,8-.69l3.38,1.72a14.09,14.09,0,0,0-8,.68Z" transform="translate(24.45 35.01)"/><path class="cls-32" d="M1169.07,337.17l-3.38-1.72a8.78,8.78,0,0,1,1.7.63l3.38,1.71a8.16,8.16,0,0,0-1.7-.62Z" transform="translate(24.45 35.01)"/></g></g></g><path class="cls-40" d="M1161.07,337.85c7.79-2.72,13.74.35,13.29,6.84s-7.15,14-14.94,16.7-13.75-.35-13.29-6.85S1153.28,340.56,1161.07,337.85Zm-1.27,18.06c4.74-1.65,8.77-5.81,9-9.28s-3.39-5-8.13-3.31-8.76,5.81-9,9.28,3.39,5,8.12,3.31Z" transform="translate(24.45 35.01)"/><g class="cls-2"><g class="cls-72"><g class="cls-2"><path class="cls-32" d="M1149.73,361.44l-3.38-1.71c-2.43-1.23-3.82-3.64-3.6-6.91s1.89-6.48,4.42-9.42l3.38,1.72a16.9,16.9,0,0,0-4.42,9.42,6.72,6.72,0,0,0,3.6,6.9Z" transform="translate(24.45 35.01)"/><path class="cls-30" d="M1150.55,345.12l-3.38-1.72a25.34,25.34,0,0,1,10.52-7.26l3.38,1.71a25.21,25.21,0,0,0-10.52,7.27Z" transform="translate(24.45 35.01)"/></g></g></g></g><path class="cls-5" d="M1015.47,516.65c-1.06,14.25-36.88,23.55-80,20.77s-77.25-16.59-76.19-30.84,36.87-23.54,80-20.76S1016.52,502.4,1015.47,516.65Z" transform="translate(24.45 35.01)"/><polygon class="cls-73" points="993.9 360.71 1041.5 394.55 1061.58 331.15 1013.99 297.31 993.9 360.71"/><polygon class="cls-74" points="999.56 361.08 1038.05 388.43 1056.32 330.73 1017.84 303.38 999.56 361.08"/><polygon class="cls-75" points="1002.57 358 1037.96 383.16 1054.53 330.84 1019.14 305.68 1002.57 358"/><polygon class="cls-76" points="1009.78 309.1 1031.3 335.23 1039.88 326.55 1018.36 300.41 1009.78 309.1"/><path class="cls-77" d="M1001.15,273.33c-.71,2.25.61,5.42,3,7.09l14.45,10.27c2.34,1.67,4.83,1.2,5.53-1.06h0c.72-2.25-.6-5.42-2.94-7.09l-14.46-10.28c-2.35-1.66-4.82-1.19-5.53,1.07Z" transform="translate(24.45 35.01)"/><path class="cls-77" d="M1009.56,273.9a2.92,2.92,0,0,0,1.22,3l5.67,4c1,.7,2,.5,2.31-.44h0a2.91,2.91,0,0,0-1.23-3l-5.67-4c-1-.69-2-.5-2.3.45Z" transform="translate(24.45 35.01)"/><path class="cls-78" d="M891.85,395c-1.73,3.38,5.28.86,0,0Z" transform="translate(24.45 35.01)"/><path class="cls-78" d="M881.65,341.9a4.64,4.64,0,0,1,1-.45,2.33,2.33,0,0,0,.11-.28Z" transform="translate(24.45 35.01)"/><path class="cls-77" d="M893,481.59c-7.44.55-24.09,4.8-26.07,10l-3.19.87c-1,5.58,1.83,10.78,9.31,12.24,10.66,2.08,16.12-.06,21-5.29,3.87-4.14,7.2-4.34,10-9C908.11,483.68,902.14,480.91,893,481.59Z" transform="translate(24.45 35.01)"/><path class="cls-79" d="M915,390c-5.41,0-9.92.61-14.13,3.09-2.38,1.41-7.17,4.23-7,6.72l-2.25-.43c2.17.84-2.34,13.25-3.08,15.86a60.19,60.19,0,0,0-1.87,15c-.17,5.77-1,12.75,3,17.74,6.19,7.78,16.53,3,23.76-2.5a39.5,39.5,0,0,0,6.48-5.72c4.78-6,9-12.82,13.2-19.08,3.11-4.66,7.9-13.26,6.41-18.73C937.49,394.23,924.37,390.06,915,390Z" transform="translate(24.45 35.01)"/><path class="cls-79" d="M893.41,424.72l-1.83.93c1.42-.11,1.92,6.4.68,7.94-1,1.3-4.69,2.56-6.35,3.55-7.59,4.6-12.9,11.76-16.13,18.85-4.75,10.4-9.38,23.29-8.58,35.14,3.09,3.35,5.72,7,10.63,9.06,6.61,2.83,22.57,1.56,25.87-3.42a13.15,13.15,0,0,0,.94-2c3.77-17.68,9-31.42,14.53-48.67,2.19-6.83,5.48-12.7-1.17-19.11C908.41,423.57,896.55,417.74,893.41,424.72Z" transform="translate(24.45 35.01)"/><path class="cls-80" d="M921.66,406c-1.37,2.61-4.8,13.6-6.21,16.23a40.22,40.22,0,0,1-5.6,7.34c-1.79,2-4.36,4.36-5.17,6.77s-.11,5.1,0,7.57a22.12,22.12,0,0,1-1.12,8.26,50.77,50.77,0,0,1-8.69,15.57C888,476,877.71,483,864,483.72a5.12,5.12,0,0,1-2.7-.51,43.69,43.69,0,0,0-.06,7.92c3.08,3.35,5.57,7,10.47,9.1,6.61,2.83,22.73,1.51,26-3.46a11.75,11.75,0,0,0,.78-1.92c3.77-17.67,9-31.41,14.53-48.66.6-1.9,3.32-.33,11.83-12.92.76-1.13,3.31-6.17,4.13-7.3-2.67-3-3.49-13.35-4.75-16.31C923.53,408,923.51,407.27,921.66,406Z" transform="translate(24.45 35.01)"/><path class="cls-78" d="M982.31,523.77c-5.82,0-11,1.62-16.43,3-6.93,1.69-14.75,1.29-22,1.52-4.13.14-8.74,1-12.76.82-3.15-.12-5.44-2.85-8.4-3.53l-.39.24a7,7,0,0,0,1.11,5.69,9.42,9.42,0,0,0,5.42,2.89c2.19.51,5,1.15,7.29.72,3.12-.58,4.35-1.76,5.18-3.76-.1-.37-.5.39.5.89s1.28,1,3,1.45a37.07,37.07,0,0,0,7,.89,68.94,68.94,0,0,0,16-.92,70.79,70.79,0,0,0,15.53-4.44C988.42,527.06,989.38,523.85,982.31,523.77Z" transform="translate(24.45 35.01)"/><path class="cls-78" d="M865.49,500.45l0,.34c.58,8.85,26.06,9.68,26.33.66a46.21,46.21,0,0,1-13.62,1C876.26,502.27,866,500.83,865.49,500.45Z" transform="translate(24.45 35.01)"/><path class="cls-77" d="M979.28,522.15c-5.92-1.28-12.14-3-18.35-4.08a70.26,70.26,0,0,0-24.08.33c-3.6.65-13,1.65-14.29,4.57a1.79,1.79,0,0,0,.4,0l.49-.16a1.28,1.28,0,0,1-.49.16l-.73.24c-.07,3.95.9,7.76,7.21,9.22,2.42.56,6.32,1.28,8.87,1s2.12-.92,3.39-2.49c4.44,3.45,16.8,2.7,22.32,2.18,7.4-.71,11.06-2.83,17.77-5.23,1.4-.5,5-1.9,4.4-3.43C985.69,523.05,980.82,522.48,979.28,522.15Z" transform="translate(24.45 35.01)"/><path class="cls-77" d="M923,523a1.28,1.28,0,0,0,.49-.16Z" transform="translate(24.45 35.01)"/><path class="cls-79" d="M959.26,478.39c2.16-17,1.3-34,4.67-50.78.75-3.68,3.56-7.88,3-11.55-.69-4.9-6.76-3.88-14.11-4.17-6.84-.27-13.63-.53-20.3-.42-2.94.06-6.89-.28-9.53.42-2.46.66-5.08,2.22-5.44,2.2l-.67-.43c4.73,3.72,3.21,11.72,5.1,16.36,2.1,5.13,7.7,11,7.52,16.28,0,1.46-1.65,3.19-1.5,4.34.28,2,2.51,3.1,2.59,4.93.13,3.06-4.56,5.47-6.49,8.17-6.22,8.66-8.07,19.7-8.12,29.3,0,4.39,1,29.45,1,29.45s14.26,7.6,28.64,5.55c7.84-1.13,20.68-3.76,18.5-8.08C958.72,509.29,957.76,490.23,959.26,478.39Z" transform="translate(24.45 35.01)"/><path class="cls-81" d="M960.93,278.19c-1.85,0-1.67-1.44-3.13-2-4.4-1.65-5.42,2.28-5.2,4.43.25,2.44-2.88,4.27-4,6.53s-4.23,11.86,3.86,10.35c3.32-.63,3.74-3,5.45-5,2-2.33,4.7-4.47,6-7.15,1-2.18-.56-4.41,1.45-6.25a6.8,6.8,0,0,0,2.4-3.36,26.09,26.09,0,0,0,.34-3.4,17.79,17.79,0,0,1-3.16,3.71C964,276.76,962.36,278.2,960.93,278.19Z" transform="translate(24.45 35.01)"/><path class="cls-81" d="M968.48,270.54l0,.7a3.16,3.16,0,0,0-.35,1.16C968.66,271.5,968.93,270.74,968.48,270.54Z" transform="translate(24.45 35.01)"/><path class="cls-82" d="M947.94,252.87l1.5.34c-16.64-3.32-25.51,8.24-26.46,18.71-.56,6.29,2.06,20.68-7.37,23.73-.49,3.28,14,7,17.66,7.84,6.36,1.46,12.87,5,14.37-.48,1.26-4.58.88-11.05,4.1-15.23,1.73-2.25,1.83-2.45,1.36-5.17-.35-2.05-1.08-4.6,2.12-5.71a7.42,7.42,0,0,1,3.61-.15,8.44,8.44,0,0,1,.79,3.29c8.19-.38,9.41-11.36,8.29-15.79C965.92,256.46,956.8,253.94,947.94,252.87Z" transform="translate(24.45 35.01)"/><path class="cls-82" d="M954.48,306.77c-1.51-1-3.31-1.9-4.37-3.25-2.15-2.76-1.77-5.77-1.3-8.69l-.38.27a28.13,28.13,0,0,1-8.17,1.35,26,26,0,0,0-8,1.24c-2.59,1-7.44,2.44-6.92,5.15.44,2.41,4.24,3.63,6.83,4.42,3.47,1.07,7,2.06,10.57,2.83,3.85.85,13,2.6,15.87-.1C957.23,308.9,956,307.77,954.48,306.77Z" transform="translate(24.45 35.01)"/><path class="cls-77" d="M967.55,260.32a11.33,11.33,0,0,0-4.13-3.77c-7.83-4.73-19.47-5.63-28.24-2.8-4.5,1.46-7.44,3-9.79,6.29-2.72,3.76-5,8.29-5.06,12.63,0,3.95,2.52,6.95,5.16,10.24,2.1,2.61,2.27,5.47,1.67,8.38,1.48-1.45,1.78-3.4,3.48-4.81a14.42,14.42,0,0,1,5.74-3.18c1.77-.35,3.73.2,5.41.56a34,34,0,0,0,7.28.68c4.88-.15,2.82-3.88,4.39-6.24a5.35,5.35,0,0,1,3.45-2.31c2.53.38,2.57,2.54,2.66,4.63,4.44-.68,8.91-4.62,9-7.94,0,.72-.06,1.45,0,2.16,2.6-.5,3.39-5,3.53-6.65a8.59,8.59,0,0,0-4.55-7.87Z" transform="translate(24.45 35.01)"/><path class="cls-77" d="M917.34,291.27c-.11.05-.25.08-.38.13a2.62,2.62,0,0,0-.55.67Z" transform="translate(24.45 35.01)"/><path class="cls-83" d="M957.43,308.47c-1.06-.68-2.06-1.57-3.11-2.25-1.59-1-2.52-.71-4.78-.65a79.18,79.18,0,0,1-13.34-.72c-8-1.16-13.55-4.25-15.61-10.28-.29-.84-2-4.56-3.63-3.17.13,0,.27-.08.38-.13l-.93.8a2.62,2.62,0,0,1,.55-.67c-1.68.52-5,1-5.74,2-1.53,1.91.47,6.78,1.5,8.6,5.07,8.81,16.53,14.87,29.41,15.27,6.17.2,21,1.59,23.21-2.73C966.12,313,959.81,310,957.43,308.47Z" transform="translate(24.45 35.01)"/><path class="cls-84" d="M960.4,466.06l-1.14,12.33C959.78,474.28,960.12,470.17,960.4,466.06Z" transform="translate(24.45 35.01)"/><path class="cls-84" d="M960.4,466.06l3.53-38.45C961.38,440.3,961.25,453.17,960.4,466.06Z" transform="translate(24.45 35.01)"/><path class="cls-78" d="M968.7,316l.44.1.14,0C969.09,316,968.9,316,968.7,316Z" transform="translate(24.45 35.01)"/><path class="cls-78" d="M969.28,316.07c1,.2,2,.44,3,.7A21.35,21.35,0,0,0,969.28,316.07Z" transform="translate(24.45 35.01)"/><path class="cls-78" d="M969.28,316.07l-.14,0,3.13.72C971.28,316.51,970.32,316.27,969.28,316.07Z" transform="translate(24.45 35.01)"/><path class="cls-82" d="M903.07,303.5c-.64-5.08-.32-8.14,4.74-11.34l-.9-.32c-9-1.35-13.39,6.78-14.76,10.7-3.13,9-6.29,18.28-8.51,27.48a58.68,58.68,0,0,0-1.7,12.29c-.06,2.36-1.19,5.86.35,8.08,4.05,5.86,16.2,1.13,21.64-.81,6.42-2.31,9.81-4,10.65-8.85A26.79,26.79,0,0,0,911,322.2C907.67,316.35,903.84,309.68,903.07,303.5Z" transform="translate(24.45 35.01)"/><path class="cls-83" d="M899.72,374.1c2.52-2.47,4.89-26.51,4.32-28.22-1.08-3.3-9.83-42.64-7.66-50.36,5.4-8.32,16.71-5.18,26.07-.76.79,4.72,5.2,9.11,13.51,9.65a20.26,20.26,0,0,0,5.93-.44c3.84,1.64,7.81,3.17,12.08,4.52,4.07,1.29,9.43,3.34,15,5.65,4.13,3.08,7.82,6.18,9.49,10.79,2.52,6.91,1.59,14.89-.11,21.73-1.86,7.5-4.82,44.69-3.34,50.73.65,2.57,3.59,15,4.13,17.56-20.4,13.73-68,1.91-92.81-8.63-1.23-.52,0-.24-1.23-.52C888.8,399.09,887.82,385.79,899.72,374.1Z" transform="translate(24.45 35.01)"/><path class="cls-85" d="M1034.1,329.65a7.86,7.86,0,0,1-.92,1.59,6.61,6.61,0,0,0,.72-3.43c-.13-.87-.29-1.74-.49-2.61a9.92,9.92,0,0,1-.26-2,4,4,0,0,0-1.29-1.89c-7.16-4.09-1.32,3.25-4.06,5.27-3.11,2.29-5.59,8.72-10.45,7.95-.36-2.26.54-4.61.44-6.93-4.24-.56-6.63,9.93-7.66,12.19l-.12,1.53c.26,2.67,7.78,5.12,11.19,5.46,4.21.43,6.77-1.69,9.68-3.78.67-.48,1.73-1.27,2.93-2.23A64.13,64.13,0,0,0,1034.1,329.65Z" transform="translate(24.45 35.01)"/><path class="cls-86" d="M950.07,302.71c-.67,1.58-7.53,1-9.48.82A44.11,44.11,0,0,1,930,301.22c-5.79-2-8.84-6.84-8.73-11.29H921c-5.52-.18-2.64,6.06-1.35,7.81,2.44,3.28,7.79,6.17,12.62,7.41a59.09,59.09,0,0,0,13.36,1.74c2.34,0,6.67-.17,8.4-1.3C951.75,305.62,951.25,303.45,950.07,302.71Z" transform="translate(24.45 35.01)"/><path class="cls-83" d="M903.64,290.49c-5.22-.85-9.28,3.75-12.08,6.31-1.45,1.33-4,3.08-4.77,4.73-.9,2,.21,1.83,1.16,3.64,1.51,2.91.27,5.06,3.26,7.58a74.6,74.6,0,0,0,8.42,5.53c.83-4.66-.68-9.89-.32-14.8.25-3.45,1.3-11.07,5.81-12.62Z" transform="translate(24.45 35.01)"/><path class="cls-79" d="M967.31,417.33c-.86,11.65-1.7,23,.33,34.67.61,3.51,2.52,7.35,1.92,10.86-.5,3-3.75,4.89-5.15,7.65s-.06,5.22-.5,8c-.51,3.16-2.32,5.75-2.17,9.15.29,6.84,5.7,13.29,5.62,20.23-.05,4,.13,9.8-3.21,13-3.5,3.36-8.62,1-11.56-1.84-9.2-8.86-11.81-19.49-12.31-30.2a126.64,126.64,0,0,1,3.83-35.32c1.49-6.21,3.35-14,7.35-19.61,4.21-5.85,10.33-10.11,16.1-14.91Z" transform="translate(24.45 35.01)"/><path class="cls-85" d="M1010.09,340.56c-.33,2.72.32,3.8-2.05,5.93-2.18,2-5,3.71-7.34,5.57-5.83,4.63-11.67,12.08-9.35,18.94,1.56,4.6,9.3,6.63,14.24,3.92s8.31-7.61,11.32-11.37c4-5.07,3-9.15,8.14-18.4a135.83,135.83,0,0,1-14.26-4Z" transform="translate(24.45 35.01)"/><path class="cls-82" d="M987.65,329.68c-4-4.68-8.1-11-15.38-12.91l-3.13-.72c-11.63-1.84-17.2,8.26-17.08,12.22.23,8.09,9.05,18.32,14.65,25.2s12.49,14.66,19.81,20.35c5.58,4.34,12.35,4.33,18.65.9,10-5.46-2.74-20.2-6.24-27.21A87.52,87.52,0,0,0,987.65,329.68Z" transform="translate(24.45 35.01)"/><path class="cls-83" d="M967.12,313.57c6.29-1.93,20.88,11.89,24.2,15.56-4.39-.12-6.47-.24-9,2.68-1.26,1.48-1.79,3.14-3.78,4.24s-4.4,1.13-6.53,2c-5.67,2.29-11.54,9.16-8.29,14.16-10.5-6.94-17.93-16.32-15.86-26.86,1.66-8.42,10.84-12.28,21.47-11.62Z" transform="translate(24.45 35.01)"/><rect class="cls-1" x="40.45" y="189.01" width="696" height="448"/><text class="cls-87" transform="translate(71.96 368.26) scale(0.81 1)"><tspan class="cls-88">W</tspan><tspan x="119.3" y="0">e Ca</tspan><tspan class="cls-89" x="361.24" y="0">r</tspan><tspan class="cls-90" x="415" y="0">e Like </tspan><tspan class="cls-91" x="0" y="151.52">A</tspan><tspan x="84.22" y="151.52" xml:space="preserve"> Family</tspan></text><text x="24.45" y="35.01"></text><text class="cls-92" transform="translate(123.45 89.96) scale(0.95 1)">Divine Hospital</text><path class="cls-4" d="M-18.17,650.42c25.94-82.64,82.9-79,109.32-48.43,37.45,43.37,23.89,77,106.63,33.48,28.09-14.76,61-17.64,85.94-.63,17.92,12.23,30.38,34.43,31.92,59.53.85,14-1.53,28.32-1.87,42.46s1.77,29,10,38.31c7.95,9,20.17,11.18,31.84,10.74,28.06-1,56.25-15.61,84.2-13.7,23.56,1.61,48.65,14.16,62,35.87,17.51,28.42,15,68.82,10.28,104-5.52,41.31-18.28,82-36.16,119.72-22.9,48.28-54,91.6-89.18,129.22-31.29,33.48-66.26,62.9-104.68,82-60.75,30.22-152.67,40.55-177.45-39.77-29.85-96.69,61.5-145.11-16.91-160C40.84,1034.27-26,984.5,31.2,879S-55.53,769.44-18.17,650.42Z" transform="translate(24.45 35.01)"/></g><g id="Layer_2" data-name="Layer 2"><path class="cls-93" d="M526.71,525.45c-.62,0-1.26,0-1.89,0l-12.89-6.06L499,525.41c-.64,0-1.27,0-1.9,0-8.74.37-12.87,4.71-12.65,9h0v0c0,.46,5.21,31.2,5.21,31.2l-1.93,13.57h48.32l-1.94-13.57s5.19-30.74,5.22-31.2v0h0C539.58,530.16,535.46,525.82,526.71,525.45Z" transform="translate(24.45 35.01)"/><polygon class="cls-94" points="528.17 605.47 534.37 567.63 536.38 565.32 538.39 567.63 544.59 605.47 536.41 613.37 528.17 605.47"/><path class="cls-95" d="M509.72,533.84l.2-1.22,2-2.31,2,2.31.22,1.37a9.3,9.3,0,0,0-2.52-.35A9.19,9.19,0,0,0,509.72,533.84Z" transform="translate(24.45 35.01)"/><polygon class="cls-96" points="556.53 685.49 556.19 691.98 556.19 691.98 540.22 691.98 540.14 685.49 556.53 685.49"/><path class="cls-97" d="M520.91,669h-5.38l.24-12h16l5.39,3.53L547,663c3,.86,3.66,3,2.36,5l-.57,1H533.39c-4.79,0-11.68-3.4-11.68-3.4Z" transform="translate(24.45 35.01)"/><polygon class="cls-96" points="516.24 685.49 516.57 691.98 516.57 691.98 532.54 691.98 532.63 685.49 516.24 685.49"/><path class="cls-97" d="M502.94,669h5.38l-.23-12h-16l-5.39,3.53-9.9,2.48c-3,.86-3.65,3-2.35,5l.56,1h15.42c4.8,0,11.69-3.4,11.69-3.4Z" transform="translate(24.45 35.01)"/><polygon class="cls-97" points="536.5 634.73 537.85 690.66 558.38 690.66 560.65 615.6 534.66 615.6 536.5 634.73"/><polygon class="cls-97" points="536.27 634.73 534.92 690.66 514.38 690.66 512.11 615.6 538.1 615.6 536.27 634.73"/><rect class="cls-98" x="487.7" y="579.25" width="48.45" height="4.4" transform="translate(1048.31 1197.92) rotate(180)"/><path class="cls-99" d="M506,523.55h0V513h11.77v10.55h0v4a13.3,13.3,0,0,1-11.77,0Z" transform="translate(24.45 35.01)"/><path class="cls-94" d="M511.76,532.54a6,6,0,0,0-1.88.3l-3.73-6.09h11.62L514,533A6,6,0,0,0,511.76,532.54Z" transform="translate(24.45 35.01)"/><path class="cls-1" d="M506.17,522.34l.19-.18-.73.15.9-.27Z" transform="translate(24.45 35.01)"/><path class="cls-1" d="M517.47,522.16l-.15-.12c.34.09.67.19,1,.29Z" transform="translate(24.45 35.01)"/><path class="cls-100" d="M506,522s.82,3,5.9,4.79a8.59,8.59,0,0,0-4.2,5.65s-4.54-3.18-5.92-5.84S506,522,506,522Z" transform="translate(24.45 35.01)"/><path class="cls-101" d="M502,522.86l-16.54,3.8s-3.46,11.93-3.21,30.09,0,56.75,0,56.75a85.71,85.71,0,0,0,23.81,2.2l-.45-48Z" transform="translate(24.45 35.01)"/><path class="cls-4" d="M503.78,529.27l1.85,38.48s-10.57-15.2-9.89-24.74l7.22-4.4-7.76-2.2.94-7.71c.35-2.86,3-5.28,6.78-6.07L506,522A6.37,6.37,0,0,0,503.78,529.27Z" transform="translate(24.45 35.01)"/><path class="cls-100" d="M517.83,522s-.82,3-5.89,4.79a8.59,8.59,0,0,1,4.2,5.65s4.53-3.18,5.91-5.84S517.83,522,517.83,522Z" transform="translate(24.45 35.01)"/><path class="cls-101" d="M521.86,522.86l16.54,3.8s3.46,11.93,3.21,30.09,0,56.75,0,56.75a85.71,85.71,0,0,1-23.81,2.2l.45-48Z" transform="translate(24.45 35.01)"/><path class="cls-4" d="M520.1,529.27l-1.85,38.48s10.57-15.2,9.89-24.74l-7.23-4.4,7.77-2.2-.94-7.71c-.36-2.86-3-5.28-6.78-6.07l-3.13-.66A6.36,6.36,0,0,1,520.1,529.27Z" transform="translate(24.45 35.01)"/><path class="cls-101" d="M485.56,526.66s-16.95,19.52-19.28,22.15a12.88,12.88,0,0,1-4.57,3.5s-3,13.62,6.78,12.51c5.86-.67,21.26-14.43,23.77-19.25C496.62,537.24,485.56,526.66,485.56,526.66Z" transform="translate(24.45 35.01)"/><path class="cls-99" d="M531.21,505.36h-1.79v-7.49h2.9a4.45,4.45,0,0,1,3.61,1.61,2.37,2.37,0,0,1,0,2.91l-1,1.37A4.6,4.6,0,0,1,531.21,505.36Z" transform="translate(24.45 35.01)"/><path class="cls-99" d="M489,503.52l-1-1.37a2.36,2.36,0,0,1,0-2.91,4.46,4.46,0,0,1,3.61-1.6h2.91v7.49h-1.79A4.61,4.61,0,0,1,489,503.52Z" transform="translate(24.45 35.01)"/><path class="cls-4" d="M510.38,526.28c-3.72,1.37-8.11-.51-13.42-5.74-5-5-8.1-8.86-9.32-11.88-1.06-2.63,1-4.15,2.27-4.63l.13,0,.82,1.38-.41-.69.42.69a2,2,0,0,0-1.27,2.85c1.15,2.85,4.09,6.58,9,11.41,4.56,4.49,8.22,6.28,10.89,5.3Z" transform="translate(24.45 35.01)"/><path class="cls-102" d="M510.59,526.59c-5.88,2.16-12-3.86-14-5.84a.93.93,0,0,1,.29-1.54l.24-.11a1.84,1.84,0,0,1,1.84.33c4.4,4.34,7.87,6.08,10.31,5.19Z" transform="translate(24.45 35.01)"/><path class="cls-102" d="M489.35,505.19h0a2.19,2.19,0,0,0,2.69.49l.43-.22a1.24,1.24,0,0,0,.63-1.85h0a2.22,2.22,0,0,0-2.7-.49l-.43.22A1.24,1.24,0,0,0,489.35,505.19Z" transform="translate(24.45 35.01)"/><path class="cls-4" d="M513.47,526.28c3.73,1.37,8.12-.51,13.43-5.74,5.05-5,8.09-8.86,9.31-11.88,1.06-2.63-1-4.15-2.27-4.63l-.12,0-.83,1.38.41-.69-.42.69a2,2,0,0,1,1.28,2.85c-1.15,2.85-4.09,6.58-9,11.41-4.56,4.49-8.23,6.28-10.89,5.3Z" transform="translate(24.45 35.01)"/><path class="cls-102" d="M513.27,526.59c5.88,2.16,12-3.86,14-5.84a.93.93,0,0,0-.3-1.54l-.23-.11a1.83,1.83,0,0,0-1.84.33c-4.41,4.34-7.88,6.08-10.32,5.19Z" transform="translate(24.45 35.01)"/><path class="cls-102" d="M534.51,505.19h0a2.21,2.21,0,0,1-2.7.49l-.43-.22a1.24,1.24,0,0,1-.62-1.85h0a2.22,2.22,0,0,1,2.7-.49l.42.22A1.24,1.24,0,0,1,534.51,505.19Z" transform="translate(24.45 35.01)"/><path class="cls-103" d="M492.1,504.55V492c0-8.12,8.88-14.7,19.83-14.7s19.82,6.58,19.82,14.7v12.6c0,8.12-8.88,14.7-19.82,14.7S492.1,512.67,492.1,504.55Z" transform="translate(24.45 35.01)"/><path class="cls-104" d="M501,499.35c0-1.25,1.36-2.27,3-2.27s3,1,3,2.27-1.36,2.27-3,2.27S501,500.6,501,499.35Z" transform="translate(24.45 35.01)"/><path class="cls-104" d="M516.84,499.35c0-1.25,1.36-2.27,3-2.27s3,1,3,2.27-1.36,2.27-3,2.27S516.84,500.6,516.84,499.35Z" transform="translate(24.45 35.01)"/><path class="cls-99" d="M509.51,507h0a2.14,2.14,0,0,1-1.23-2.17c0-.08.18-.2.43-.34a6.47,6.47,0,0,1,6.43,0c.25.14.42.26.44.34a2.14,2.14,0,0,1-1.23,2.17A6,6,0,0,1,509.51,507Z" transform="translate(24.45 35.01)"/><path d="M518.59,499.73c0-.82.89-1.48,2-1.48s2,.66,2,1.48-.89,1.48-2,1.48S518.59,500.55,518.59,499.73Z" transform="translate(24.45 35.01)"/><path class="cls-4" d="M519,500.45c0-.3.33-.55.73-.55s.74.25.74.55-.33.54-.74.54S519,500.75,519,500.45Z" transform="translate(24.45 35.01)"/><path d="M501.24,499.73c0-.82.89-1.48,2-1.48s2,.66,2,1.48-.89,1.48-2,1.48S501.24,500.55,501.24,499.73Z" transform="translate(24.45 35.01)"/><path class="cls-4" d="M501.62,500.45c0-.3.33-.55.73-.55s.74.25.74.55-.33.54-.74.54S501.62,500.75,501.62,500.45Z" transform="translate(24.45 35.01)"/><path class="cls-105" d="M494.55,504.55V492c0-8.12,7.78-14.7,17.38-14.7-10.95,0-19.83,6.58-19.83,14.7v12.6c0,8.12,8.88,14.7,19.83,14.7C502.33,519.25,494.55,512.67,494.55,504.55Z" transform="translate(24.45 35.01)"/><path class="cls-105" d="M511.93,477.25c9.59,0,17.37,6.58,17.37,14.7v12.6c0,8.12-7.78,14.7-17.37,14.7,10.94,0,19.82-6.58,19.82-14.7V492C531.75,483.83,522.87,477.25,511.93,477.25Z" transform="translate(24.45 35.01)"/><path class="cls-106" d="M506.62,509.7a5.84,5.84,0,0,0,10.64,0Z" transform="translate(24.45 35.01)"/><path class="cls-4" d="M516.64,510.75a5.66,5.66,0,0,0,.62-1.05H506.62a5.66,5.66,0,0,0,.62,1.05Z" transform="translate(24.45 35.01)"/><path class="cls-107" d="M510,503.94a.62.62,0,0,0-.2,1.09l.06.05h0a4.36,4.36,0,0,0,4,0L514,505h0a.62.62,0,0,0-.21-1.09A6.51,6.51,0,0,0,510,503.94Z" transform="translate(24.45 35.01)"/><path class="cls-108" d="M506.67,494.36c-.2.71-1.56.91-2.65.83a12.37,12.37,0,0,0-5.48,1.08s.12-1.75,2.54-2.85C503.81,492.16,507.05,493,506.67,494.36Z" transform="translate(24.45 35.01)"/><path class="cls-108" d="M517.68,494.36c.21.71,1.56.91,2.65.83a12.35,12.35,0,0,1,5.48,1.08s-.12-1.75-2.54-2.85C520.54,492.16,517.3,493,517.68,494.36Z" transform="translate(24.45 35.01)"/><path class="cls-108" d="M490.35,489.38v8.26a5.14,5.14,0,0,1,1.18-.13h.65a3.45,3.45,0,0,0,2.35-2.3l1.47-4.95c.35-1.51,2.12-2.6,4.17-2.6h23.51c2.06,0,3.82,1.09,4.18,2.6l1.47,4.95a3.2,3.2,0,0,0,1.79,2.06h1.2a5.69,5.69,0,0,1,1.18.13v-8c0-8-8.71-14.42-19.45-14.42H509.8C499.06,475,490.35,481.42,490.35,489.38Z" transform="translate(24.45 35.01)"/><path class="cls-109" d="M627.53,430.71c-.38,1.68-2.57,2.77-5.57,2.77-3.17,0-4.91-.91-5.36-3.61l-.07-.48a1.94,1.94,0,0,1,1.15-2,12.5,12.5,0,0,1,5.14-1.1,11.84,11.84,0,0,1,3.54.55,2.23,2.23,0,0,1,1.48,2.73C627.73,429.91,627.63,430.31,627.53,430.71Z" transform="translate(24.45 35.01)"/><path class="cls-97" d="M509.56,497.39c-7.73-2.71-13.37.36-13.37.36l-4.09-1.26h-1.75a.78.78,0,0,0,0,1.29l1.75.05,3.85,2.06c.56,2.48,2.76,3.65,6.38,3.65s6.17-1.1,6.69-2.79a11.81,11.81,0,0,1,.54-1.5,15.33,15.33,0,0,1,2.38-.16v-1.73C510.79,497.35,509.56,497.39,509.56,497.39Zm-2,3.1c-.36,1.18-2.42,1.94-5.24,1.94s-4.61-.64-5-2.53l-.06-.33a1.35,1.35,0,0,1,1.07-1.43,15.19,15.19,0,0,1,4.84-.77,14.77,14.77,0,0,1,3.32.39c1.08.25,1.69,1.1,1.39,1.9C507.76,499.93,507.66,500.21,507.57,500.49Z" transform="translate(24.45 35.01)"/><path class="cls-109" d="M636.84,430.71c.39,1.68,2.57,2.77,5.58,2.77,3.17,0,4.91-.91,5.36-3.61l.06-.48a1.94,1.94,0,0,0-1.14-2,12.59,12.59,0,0,0-5.15-1.1,11.78,11.78,0,0,0-3.53.55,2.23,2.23,0,0,0-1.48,2.73C636.64,429.91,636.75,430.31,636.84,430.71Z" transform="translate(24.45 35.01)"/><path class="cls-97" d="M514.33,497.39c7.73-2.71,13.37.36,13.37.36l4.08-1.26h1.75a.78.78,0,0,1,0,1.29l-1.75.05-3.85,2.06c-.56,2.48-2.76,3.65-6.38,3.65s-6.17-1.1-6.69-2.79a13.29,13.29,0,0,0-.53-1.5,15.56,15.56,0,0,0-2.39-.16v-1.73C513.1,497.35,514.33,497.39,514.33,497.39Zm2,3.1c.36,1.18,2.42,1.94,5.24,1.94,3,0,4.61-.64,5-2.53l.06-.33a1.34,1.34,0,0,0-1.07-1.43,15.17,15.17,0,0,0-4.83-.77,14.64,14.64,0,0,0-3.32.39c-1.09.25-1.7,1.1-1.39,1.9C516.13,499.93,516.23,500.21,516.31,500.49Z" transform="translate(24.45 35.01)"/><rect class="cls-4" x="507.95" y="625.49" width="18.27" height="2.44"/><rect class="cls-4" x="546.56" y="625.49" width="18.27" height="2.44"/><path class="cls-110" d="M551.93,592.36l.07,7.12c0,.59-.61,1.08-1.4,1.13h0a1.44,1.44,0,0,1-1.64-1.06l-.41-5.27Z" transform="translate(24.45 35.01)"/><path class="cls-110" d="M534.37,592.24l-2.31,3.13a2.44,2.44,0,0,0,2.16,1.11,2.62,2.62,0,0,0,2-.8l2.82-3.69.21-4.4C537.36,588.54,535.57,590.78,534.37,592.24Z" transform="translate(24.45 35.01)"/><path class="cls-110" d="M538.54,592l-.54,3.11,13.71-.18.22-2.31c.09-2.89-2.39-5.07-4.69-5.76l-5.82-.08-1.55.61-.73.32Z" transform="translate(24.45 35.01)"/><path class="cls-110" d="M546.87,602.69a1.36,1.36,0,0,0,1.5-1.09l.33-7-3.44.36-.17,6.6c0,.63.68,1.15,1.54,1.15" transform="translate(24.45 35.01)"/><path class="cls-110" d="M538.13,594.33,536.71,601c-.13.61.42,1.18,1.23,1.29l.29,0a1.55,1.55,0,0,0,1.76-.9l1.77-6.71.07-1.52Z" transform="translate(24.45 35.01)"/><path class="cls-110" d="M545.49,593.81l-3.71.26-1,8c-.07.62.53,1.16,1.35,1.22l.46,0a1.48,1.48,0,0,0,1.68-1Z" transform="translate(24.45 35.01)"/><path class="cls-110" d="M541.39,554.71l4.56-.24s2.1,8.7,1.86,12.45a84.08,84.08,0,0,0,1.44,21.31l-8.78-.89S541.71,560.51,541.39,554.71Z" transform="translate(24.45 35.01)"/><path class="cls-101" d="M538.4,526.66s6,4.68,9.54,20.47,3.33,39.6,3.33,39.6H538l-2-32.34Z" transform="translate(24.45 35.01)"/><ellipse class="cls-4" cx="434.44" cy="590.37" rx="5.01" ry="3.73"/><path class="cls-102" d="M407.28,555.35c0,1.12,1.21,2,2.71,2s2.7-.9,2.7-2-1.21-2-2.7-2S407.28,554.24,407.28,555.35Z" transform="translate(24.45 35.01)"/><path class="cls-110" d="M420.35,544.52l-3.52-.56a1.61,1.61,0,0,0-1.77.79h0c-.23.61.25,1.24,1.06,1.4l6.86,1.36Z" transform="translate(24.45 35.01)"/><path class="cls-110" d="M419.44,557.68l-4.34,1.52a1.59,1.59,0,0,1-.15-3.12l5.13-1.86,5.91.12C424.59,555.7,421.48,556.88,419.44,557.68Z" transform="translate(24.45 35.01)"/><path class="cls-110" d="M420.37,554.42l-3.46-2.8,2.24-7.35,3.08.31c3.94.86,6.2,2.75,6.64,4.56l-1.05,4.25-1.12,1-.56.47Z" transform="translate(24.45 35.01)"/><path class="cls-110" d="M413.19,546.22a1.56,1.56,0,0,1,1.73-.88l9.3,1.18-1.17,2.42-8.71-1.2c-.84-.12-1.38-.73-1.2-1.35" transform="translate(24.45 35.01)"/><path class="cls-110" d="M414.49,551.34l-6.93,1.4a1.56,1.56,0,0,1-1.77-.87l-.06-.21c-.17-.6.34-1.2,1.14-1.34l9-1.52,3.49.53.34,2.62Z" transform="translate(24.45 35.01)"/><path class="cls-110" d="M424.46,547.77l-1.09,2.65-10.75-.9c-.82-.07-1.41-.62-1.33-1.23l0-.34a1.47,1.47,0,0,1,1.66-1Z" transform="translate(24.45 35.01)"/><path class="cls-110" d="M466.58,561.6l1.05-7.35a14.86,14.86,0,0,0-8.2-3.84c-15.28-1.77-32-3-32-3l-1.94,7.87S459,560.2,466.58,561.6Z" transform="translate(24.45 35.01)"/><path class="cls-101" d="M469.48,549.55l-40.61-2.86a26.36,26.36,0,0,0-.47,10.67s28.14,6.38,37.75,6.47c7.07.07,17.46-11.07,17.46-11.07Z" transform="translate(24.45 35.01)"/><path class="cls-102" d="M518.06,524l1.16-2.07h-5.29l1.18,2.19c0,.65.1,1.33.16,2,.73,8.91,1.74,21.12-7.79,27-6.29,3.88-16.68,4.46-30.88,1.75-23.87-4.56-41-4.59-51.16-3.81-11.14.85-16.56,2.8-16.79,2.89l1.31,2c.05,0,5.31-1.89,16-2.69,9.89-.74,26.57-.68,49.9,3.77a87.49,87.49,0,0,0,16.28,1.74c7.21,0,13-1.31,17.22-3.92,10.68-6.57,9.58-20,8.85-28.82C518.16,525.35,518.11,524.68,518.06,524Z" transform="translate(24.45 35.01)"/></g></g></svg>